<svg width="24" height="24" viewBox="0 0 24 24" fill="none" xmlns="http://www.w3.org/2000/svg">
<path d="M23.9994 8.24119C23.9988 8.17111 23.9901 8.10133 23.9734 8.03325C23.9714 8.02534 23.969 8.01759 23.9669 8.00973C23.9598 7.98405 23.9517 7.95861 23.9424 7.93341C23.9389 7.9241 23.9353 7.91487 23.9316 7.90566C23.922 7.88222 23.9112 7.85911 23.8995 7.83623C23.8949 7.82733 23.8907 7.81832 23.8859 7.80957C23.8722 7.78472 23.8569 7.76041 23.8406 7.73652C23.837 7.73124 23.8339 7.72561 23.8302 7.72041L23.8285 7.71778C23.8086 7.69031 23.7873 7.66393 23.7645 7.63875C23.7595 7.63321 23.754 7.62817 23.7488 7.62275C23.7294 7.60218 23.7093 7.58255 23.6884 7.56411C23.6814 7.55796 23.6741 7.55211 23.6669 7.54615C23.6456 7.52853 23.6237 7.51199 23.6012 7.49653C23.5969 7.49359 23.5932 7.49012 23.5889 7.48727L12.512 0.153916C12.3604 0.0535541 12.1822 0 12 0C11.8178 0 11.6396 0.0535541 11.488 0.153916L0.411058 7.48727C0.406889 7.49001 0.40334 7.49336 0.399289 7.49616C0.376415 7.51183 0.354235 7.52857 0.332751 7.5464C0.325712 7.55222 0.318609 7.5579 0.311792 7.56392C0.290664 7.58252 0.270382 7.60232 0.250832 7.62311C0.245818 7.62837 0.240465 7.63329 0.235563 7.63866C0.212776 7.66386 0.191391 7.69027 0.171505 7.71778L0.169815 7.72041C0.166096 7.72561 0.163055 7.73124 0.159449 7.73652C0.143109 7.76041 0.127841 7.78472 0.114095 7.80957C0.109306 7.81832 0.10508 7.82733 0.100516 7.83623C0.0888542 7.85911 0.0780368 7.88222 0.0684022 7.90566C0.0646845 7.91487 0.061133 7.9241 0.0576415 7.93341C0.0482899 7.95862 0.0401209 7.98406 0.0331339 8.00973C0.0309924 8.01759 0.0285704 8.02534 0.0266551 8.03325C0.00990995 8.10133 0.00115633 8.17111 0.000568903 8.24119C0.000506596 8.24415 0 8.24701 0 8.24997V20.1667C0.000559775 20.6527 0.195245 21.1187 0.541344 21.4624C0.887444 21.8061 1.3567 21.9994 1.84615 22H22.1538C22.6433 21.9994 23.1126 21.8061 23.4587 21.4624C23.8048 21.1187 23.9994 20.6527 24 20.1667V8.24997C24 8.24701 23.9995 8.24415 23.9994 8.24119ZM1.84615 10.0293L8.39108 14.6632L1.84615 19.2542V10.0293ZM10.2791 15.5833H13.7209L20.255 20.1667H3.7451L10.2791 15.5833ZM15.6089 14.6632L22.1538 10.0293V19.2541L15.6089 14.6632Z" fill="#0ABEB9"/>
</svg>
