<svg width="48" height="48" viewBox="0 0 48 48" fill="none" xmlns="http://www.w3.org/2000/svg">
<path d="M23.502 44.9945C22.6044 44.7458 21.699 44.5212 20.8102 44.244C17.285 43.1417 14.0903 41.4729 11.5566 38.749C8.53216 35.4991 6.99339 31.6542 7.00002 27.2122C7.00886 20.6109 7.01071 14.0089 7.00555 7.40611C6.99282 7.14865 7.01513 6.89067 7.07187 6.63911C7.23658 6.07044 7.67323 5.77021 8.23369 5.65297C10.575 5.15333 12.9086 4.61314 15.2632 4.18143C17.4829 3.77602 19.7258 3.48785 21.9577 3.14708C23.6534 2.88849 25.3425 2.99587 27.0217 3.27528C30.349 3.82898 33.6735 4.39838 36.9949 4.98349C37.9003 5.14456 38.7913 5.39877 39.6822 5.63215C40.6771 5.89293 40.9933 6.3104 40.9933 7.33051C40.9933 13.9464 40.98 20.5612 40.9999 27.1771C41.011 31.1714 39.7626 34.7219 37.2547 37.8286C35.1323 40.4692 32.3908 42.2925 29.2403 43.5033C27.7701 44.0686 26.2269 44.45 24.718 44.9156C24.6417 44.9386 24.5687 44.9715 24.4969 45L23.502 44.9945ZM8.24695 17.9304C8.24695 20.9641 8.24695 23.9981 8.24695 27.0325C8.23159 27.6335 8.25005 28.2349 8.30223 28.8339C8.82178 33.3055 10.8635 36.9421 14.454 39.7033C17.0252 41.6756 19.9756 42.8535 23.114 43.5986C23.4976 43.6895 23.9231 43.8057 24.289 43.7268C27.9281 42.9423 31.3329 41.6208 34.1926 39.1807C37.7455 36.1488 39.6579 32.2897 39.7464 27.6384C39.826 23.4747 39.7585 19.3023 39.7563 15.1342C39.7563 12.5373 39.7563 9.9405 39.7618 7.34366C39.7618 7.03247 39.6767 6.8736 39.355 6.80347C38.6431 6.64788 37.9467 6.41778 37.2304 6.28958C33.9517 5.7052 30.67 5.13361 27.3854 4.57479C25.8212 4.30963 24.247 4.09377 22.6563 4.30744C20.9086 4.54192 19.1565 4.74572 17.4243 5.06786C14.5413 5.5949 11.676 6.20412 8.80188 6.76402C8.37076 6.8473 8.2348 7.03028 8.23811 7.47514C8.25248 10.9573 8.24253 14.4428 8.24253 17.9304H8.24695Z" fill="#0ABEB9" stroke="#0ABEB9"/>
<path d="M10.8855 19.2744C10.8855 16.4756 10.8855 13.6768 10.8855 10.8781C10.8855 9.94722 11.1144 9.57885 12.03 9.38579C14.4885 8.86402 16.9522 8.36834 19.4242 7.91649C20.7486 7.67439 22.0897 7.48968 23.4318 7.37802C25.1537 7.2361 26.8361 7.65978 28.5299 7.89979C28.6082 7.90714 28.684 7.9312 28.7522 7.97034C28.8205 8.00949 28.8796 8.06282 28.9256 8.12677C28.9716 8.19071 29.0035 8.26378 29.019 8.34108C29.0346 8.41838 29.0334 8.49813 29.0157 8.57496C28.9533 8.91307 28.6693 9.09674 28.2875 9.03934C27.3251 8.89742 26.3637 8.74923 25.4024 8.6094C24.0883 8.41739 22.7847 8.5447 21.4904 8.77219C18.7597 9.25431 16.0307 9.74721 13.3034 10.2509C12.8987 10.325 12.367 10.3552 12.1486 10.6203C11.9457 10.8603 12.0653 11.3873 12.0643 11.787C12.0591 16.8774 12.0154 21.9678 12.0705 27.0571C12.1101 30.6678 13.6062 33.6481 16.3362 35.9878C18.4795 37.8234 21.0285 38.8178 23.7429 39.421C24.0738 39.4941 24.4619 39.3855 24.8083 39.3C27.2897 38.6843 29.6181 37.7273 31.5918 36.0556C34.4633 33.6241 35.947 30.5248 35.9501 26.7347C35.9501 21.517 35.9501 16.2993 35.9584 11.0753C35.9584 10.7121 35.8908 10.5222 35.4934 10.4429C34.0826 10.1632 32.6842 9.84391 31.2745 9.53919C31.1704 9.51728 31.0664 9.50371 30.9707 9.4745C30.6336 9.37014 30.4734 9.12387 30.5306 8.80037C30.5408 8.7256 30.5664 8.65379 30.6059 8.58954C30.6453 8.5253 30.6978 8.47003 30.7598 8.42729C30.8218 8.38455 30.892 8.35528 30.966 8.34136C31.0399 8.32743 31.1159 8.32916 31.1892 8.34643C32.1089 8.50609 33.0265 8.67723 33.939 8.8682C34.6361 9.01638 35.3259 9.19796 36.0146 9.37849C36.8563 9.60077 37.1174 9.94722 37.1174 10.828C37.1174 15.9048 37.0134 20.9848 37.1466 26.0574C37.3099 32.11 33.9046 37.119 28.1553 39.4283C27.0535 39.8708 25.8914 40.1661 24.7553 40.524C23.9656 40.7734 23.2175 40.524 22.4663 40.3153C19.6728 39.5598 17.0968 38.3754 14.9868 36.3415C12.2932 33.7441 10.9001 30.5666 10.8928 26.8015C10.8813 24.2991 10.8855 21.7872 10.8855 19.2744Z" fill="#0ABEB9" stroke="#0ABEB9"/>
<path d="M22.1618 29.863C22.1275 30.4066 22.141 30.9587 22.0505 31.493C21.7883 33.0374 20.2891 33.6687 19.0156 32.7609C17.8836 31.9542 17.2958 30.8063 17.1522 29.4309C17.1193 29.0684 17.1113 28.704 17.1283 28.3404C17.1408 27.9867 17.3707 27.7613 17.6787 27.7508C18.0043 27.7393 18.2498 27.9689 18.2821 28.3363C18.3258 28.8278 18.3154 29.3276 18.4017 29.8097C18.5422 30.56 18.9488 31.2339 19.5462 31.7069C20.2131 32.2568 20.8041 32.0325 20.9279 31.1726C20.9861 30.7646 20.9372 30.3378 20.9601 29.9266C20.9997 29.1888 20.9705 28.4333 21.1245 27.7195C21.4543 26.1886 22.6248 25.2797 24.0876 25.2975C25.5504 25.3152 26.7115 26.2502 27.0091 27.779C27.1579 28.5491 27.1235 29.3547 27.1735 30.1447C27.1964 30.5193 27.1735 30.9044 27.2546 31.2686C27.4076 31.9907 27.9975 32.1942 28.5666 31.7163C28.9724 31.3863 29.2963 30.9665 29.513 30.4897C29.7296 30.0129 29.833 29.4923 29.8151 28.9686C29.7953 27.9324 29.6507 26.8972 29.5602 25.862C29.5196 25.4081 29.4853 24.9541 29.4353 24.5054C29.4109 24.2655 29.4352 24.023 29.5067 23.7928C29.5783 23.5625 29.6955 23.3491 29.8515 23.1655C30.612 22.1835 31.2446 21.1296 31.5755 19.9159C32.0176 18.2943 31.7659 16.7561 30.9512 15.3243C29.8265 13.3531 27.6219 12.872 25.7387 14.1357C24.586 14.9111 23.3645 14.9194 22.2013 14.1577C20.2943 12.9054 18.0751 13.4272 16.9847 15.4433C15.9318 17.3895 15.9266 19.3816 16.9691 21.3404C17.319 21.9777 17.7165 22.5874 18.1583 23.1645C18.5047 23.6288 18.6941 24.1037 18.6244 24.6828C18.5869 24.9959 18.5786 25.3089 18.5453 25.6157C18.5068 25.9768 18.253 26.2022 17.9273 26.1813C17.6017 26.1605 17.3873 25.9079 17.3832 25.5416C17.3816 25.5285 17.3816 25.5152 17.3832 25.502C17.6391 24.5628 17.2386 23.8678 16.6913 23.1311C15.5989 21.6618 14.9392 19.9921 15.0527 18.1137C15.1567 16.3773 15.6831 14.7921 16.9857 13.5608C17.7282 12.8471 18.6899 12.4069 19.7139 12.3122C20.7379 12.2174 21.7636 12.4736 22.6237 13.039C23.5601 13.6588 24.3768 13.6474 25.3101 13.0202C27.6406 11.4549 30.7098 12.3169 32.0728 14.9174C33.3556 17.3707 33.2432 19.822 31.8772 22.2159C31.5636 22.7551 31.2197 23.2759 30.8472 23.776C30.7582 23.8857 30.6922 24.0123 30.653 24.1482C30.6139 24.2841 30.6024 24.4265 30.6193 24.567C30.7428 25.6397 30.86 26.7132 30.971 27.7874C31.1489 29.5196 30.8669 31.1152 29.5466 32.3789C29.0025 32.9007 28.3741 33.2534 27.5813 33.0812C26.6678 32.883 26.0894 32.1118 26.0311 30.9942C26.002 30.4359 26.054 29.8734 26.0165 29.3161C25.9965 28.7874 25.9222 28.2622 25.7949 27.7487C25.5598 26.9139 24.8585 26.4464 24.0085 26.4694C23.6151 26.4689 23.2329 26.601 22.9232 26.8443C22.6134 27.0876 22.394 27.4281 22.3002 27.8114C22.2107 28.1499 22.1532 28.4961 22.1285 28.8455C22.0994 29.1815 22.1223 29.5217 22.1223 29.8609L22.1618 29.863Z" fill="#0ABEB9" stroke="#0ABEB9"/>
</svg>
