<svg width="48" height="48" viewBox="0 0 48 48" fill="none" xmlns="http://www.w3.org/2000/svg">
<path d="M44 21.1431C43.8756 21.8627 43.7977 22.5935 43.6199 23.3011C42.0284 29.5865 38.1459 33.5648 32.0038 35.1386C28.7847 35.9637 25.6129 35.581 22.5592 34.2433C22.301 34.1305 22.146 34.1466 21.9602 34.3602C21.6832 34.6825 21.3817 34.9758 21.0771 35.2675C20.2515 36.0596 19.2543 36.108 18.3476 35.4101C18.3075 35.3787 18.2626 35.3529 18.1438 35.274C18.0695 35.3964 17.9858 35.5125 17.8935 35.6213C15.2228 38.3611 12.5505 41.0987 9.87661 43.8342C9.01085 44.7206 8.005 45.1501 6.76697 44.9527C4.33813 44.5643 3.15598 41.5022 4.68207 39.5279C4.84382 39.3185 5.01726 39.1189 5.20152 38.93C7.84392 36.2203 10.4887 33.5116 13.1358 30.8041C13.2373 30.7001 13.3475 30.6058 13.4687 30.493C13.3987 30.3818 13.3483 30.2932 13.2901 30.2118C12.7391 29.4358 12.7564 28.439 13.3648 27.6976C13.6774 27.3215 14.0142 26.9672 14.373 26.6372C14.5958 26.4301 14.6091 26.2528 14.4958 25.982C13.5514 23.77 13.1027 21.4485 13.2625 19.0431C13.656 13.1275 16.3989 8.7052 21.4675 5.82761C23.2777 4.80018 25.2454 4.24578 27.3066 4.0693C27.3951 4.05437 27.482 4.03117 27.5664 4H29.6009C30.1408 4.08058 30.6839 4.14182 31.2206 4.24175C37.6745 5.40374 42.5967 10.4135 43.771 17.01C43.8544 17.479 43.9213 17.9512 43.9968 18.4218L44 21.1431ZM14.5769 19.84C14.6367 27.7935 20.9732 34.2643 28.6596 34.2103C36.4238 34.1611 42.7431 27.6307 42.6793 19.7353C42.6156 11.7665 36.3829 5.40294 28.6155 5.40455C20.8182 5.40616 14.5155 11.9285 14.5737 19.84H14.5769ZM14.4195 31.4527C14.3518 31.5148 14.2928 31.5639 14.2392 31.6196C11.4961 34.4222 8.75611 37.2259 6.01927 40.0307C5.8914 40.1641 5.77452 40.308 5.66982 40.461C4.97879 41.457 5.38097 42.943 6.47261 43.4426C7.33837 43.8398 8.13801 43.6674 8.88729 42.9019C11.6089 40.1196 14.329 37.3361 17.0474 34.5511C17.1167 34.4794 17.1749 34.3972 17.2253 34.3376L14.4195 31.4527ZM15.1845 27.729C15.0216 27.8991 14.8028 28.1247 14.5855 28.3527C14.122 28.8362 14.1204 29.1626 14.591 29.6469C15.3986 30.4796 16.2084 31.3096 17.0207 32.1369C17.7023 32.8339 18.3799 33.5358 19.067 34.232C19.4023 34.5705 19.7037 34.6349 20.0036 34.3932C20.342 34.116 20.638 33.7856 20.8788 33.5495C19.8147 32.6631 18.7144 31.8855 17.7825 30.9338C16.8507 29.9821 16.0597 28.8346 15.1782 27.729H15.1845Z" fill="#0ABEB9" stroke="#0ABEB9"/>
<path d="M39.9999 19.9807C40.0212 26.5799 34.9141 31.9296 28.5281 31.9994C22.2444 32.0675 16.9947 26.6005 17 19.9949C17.0053 13.3894 22.1617 8.00873 28.4962 8.00001C34.8306 7.9913 39.9779 13.3569 39.9999 19.9807ZM38.7095 19.9807C38.6867 14.1009 34.1232 9.34616 28.5038 9.34854C22.8661 9.34854 18.2479 14.1738 18.2897 20.0155C18.3314 25.9096 22.8798 30.6453 28.5 30.6469C34.1422 30.6477 38.7346 25.8486 38.7118 19.9799L38.7095 19.9807Z" fill="#0ABEB9" stroke="#0ABEB9"/>
<path d="M34.9981 17.1947C34.9962 18.3784 34.6881 19.5397 34.1063 20.556C33.5122 21.5915 32.9571 22.6321 32.8381 23.8694C32.7771 24.5022 32.6758 25.13 32.5348 25.7488C32.4164 26.2474 32.2534 26.7333 32.0478 27.2001C31.9668 27.388 31.845 27.5537 31.692 27.6841C31.5391 27.8144 31.3591 27.9059 31.1664 27.9512C30.525 28.1137 30.0694 27.8561 29.7292 27.1428C29.2979 26.2394 29.1198 25.2604 28.9556 24.2772C28.9062 23.9818 28.8861 23.6771 28.8019 23.3926C28.7469 23.2054 28.6036 23.0457 28.4993 22.8737C28.3984 23.0501 28.26 23.2155 28.205 23.4064C28.1229 23.6916 28.1014 23.9956 28.0527 24.2917C27.894 25.2503 27.7201 26.206 27.302 27.0884C27.0808 27.5557 26.7984 27.9817 26.2412 27.9991C25.645 28.0187 25.1524 27.7212 24.9465 27.1544C24.6606 26.3642 24.3663 25.542 24.2857 24.7118C24.1368 23.1771 23.6596 21.8092 22.8881 20.5066C22.1193 19.2293 21.8355 17.6986 22.0922 16.2144C22.3872 14.4002 23.6227 13.4242 25.2109 13.094C26.3059 12.8683 27.3417 13.0809 28.2906 13.6956C28.4749 13.8153 28.5967 13.7638 28.7567 13.6709C30.4423 12.6927 32.084 12.782 33.6486 13.9532C34.6176 14.6789 34.93 15.7565 34.9981 16.9393C35.0023 17.0264 34.9981 17.1105 34.9981 17.1947ZM29.4259 14.7739C29.5435 14.8516 29.7042 14.9016 29.7737 15.0119C30.1605 15.6309 30.548 16.2528 30.8903 16.8986C31.0621 17.223 30.9021 17.5626 30.5967 17.7063C30.3073 17.8427 30.013 17.7288 29.8433 17.4066C29.7438 17.2172 29.6694 17.0133 29.565 16.8261C28.9028 15.6716 28.0617 14.7217 26.7733 14.3458C25.6519 14.0156 24.3142 14.4568 23.6895 15.3523C23.1594 16.1135 23.1469 16.9872 23.2422 17.8754C23.359 18.9711 23.8822 19.892 24.4116 20.8092C24.8768 21.6268 25.182 22.5325 25.3097 23.4739C25.4398 24.3614 25.6165 25.2423 25.7966 26.1218C25.8412 26.3395 25.9782 26.5325 26.1132 26.825C26.2342 26.5587 26.3267 26.4157 26.3664 26.2575C26.5459 25.5391 26.7059 24.8156 26.8833 24.0958C27.0279 23.5072 27.0919 22.8723 27.3584 22.3462C27.8454 21.3724 29.0975 21.3724 29.6499 22.3048C29.8097 22.5953 29.9229 22.911 29.9852 23.2395C30.1647 24.058 30.2955 24.8882 30.4777 25.7067C30.5556 26.0572 30.7122 26.3881 30.8339 26.7285L30.9494 26.7248C31.0343 26.5485 31.1497 26.3816 31.197 26.1958C31.3397 25.64 31.5254 25.0827 31.5692 24.5159C31.6813 22.9034 32.1913 21.3485 33.0496 20.0023C33.4451 19.3635 33.693 18.6377 33.7738 17.8819C33.8809 16.9836 33.8635 16.0932 33.3139 15.329C32.5028 14.2079 30.8193 13.914 29.4259 14.7739Z" fill="#0ABEB9" stroke="#0ABEB9"/>
<path d="M25 18.5592C25.0576 17.5044 25.4561 16.7157 26.263 16.1607C26.6301 15.9085 26.9928 15.9576 27.2081 16.2765C27.4115 16.5769 27.3412 16.9464 27.0047 17.2001C26.4469 17.6225 26.2009 18.1614 26.3131 18.8773C26.3283 18.9618 26.3271 19.0487 26.3094 19.1327C26.2917 19.2168 26.2579 19.2964 26.21 19.367C26.1621 19.4376 26.101 19.4977 26.0302 19.5439C25.9595 19.5901 25.8805 19.6215 25.7979 19.6361C25.4554 19.6967 25.1525 19.4767 25.0733 19.0927C25.0322 18.8957 25.0179 18.6926 25 18.5592Z" fill="#0ABEB9" stroke="#0ABEB9"/>
</svg>
