<svg width="48" height="48" viewBox="0 0 48 48" fill="none" xmlns="http://www.w3.org/2000/svg">
<path d="M36.2554 22.5852C35.4641 23.6484 34.4329 23.9386 33.2423 23.9137C32.304 23.8953 31.4045 23.8379 30.654 23.1558C30.4723 22.9912 30.3109 22.8029 30.1435 22.6264C28.2515 24.4593 25.8317 24.4593 23.9887 22.6177C23.469 23.2825 22.8227 23.7827 22.0007 23.8433C21.2014 23.9067 20.3981 23.8871 19.6023 23.7848C18.9029 23.6906 18.3526 23.2089 17.8553 22.5647C17.7907 22.6711 17.7198 22.7731 17.643 22.87C17.3597 23.193 17.0168 23.451 16.6357 23.6279C16.2546 23.8048 15.8433 23.8969 15.4273 23.8985C15.0577 23.905 14.6871 23.8985 14.3175 23.8985C13.278 23.9115 12.4408 23.4709 11.7026 22.5322C11.6614 22.6371 11.609 22.7366 11.5464 22.8288C11.2615 23.1691 10.9108 23.4403 10.5183 23.6241C10.1258 23.8079 9.70056 23.9 9.2715 23.8942C8.68542 23.8942 8.09016 23.9212 7.51634 23.8216C6.8167 23.699 6.18086 23.3169 5.72215 22.7435C5.26345 22.1701 5.01168 21.4425 5.01174 20.6906C4.99609 18.9172 4.99609 17.1439 5.01174 15.3705C5.0342 11.9591 7.31009 9.05757 10.5355 8.41447C15.4876 7.4271 20.4825 6.88036 25.5284 7.02219C29.6101 7.13313 33.6752 7.61633 37.6787 8.46644C40.7204 9.11603 42.9605 12.0262 42.9881 15.3142C43.0055 17.0876 43.0024 18.8609 42.9881 20.6343C42.9909 21.0623 42.9137 21.4867 42.761 21.8829C42.6082 22.2791 42.3829 22.6393 42.0981 22.9426C41.8132 23.2459 41.4745 23.4864 41.1016 23.6501C40.7286 23.8138 40.3287 23.8975 39.925 23.8963C39.3896 23.9209 38.8532 23.9108 38.3189 23.866C37.4909 23.7697 36.8159 23.3236 36.2554 22.5852ZM41.7343 15.1464C41.7343 12.7104 39.8903 10.2896 37.5725 9.77753C33.5822 8.91224 29.5276 8.42278 25.4559 8.31487C22.5832 8.22806 19.7084 8.36993 16.8557 8.73927C14.7054 9.01751 12.5562 9.34555 10.4314 9.78619C8.10854 10.268 6.2962 12.6693 6.25944 15.1453C6.33806 15.023 6.39422 14.9396 6.44629 14.8519C6.98642 13.9381 7.76751 13.4683 8.7814 13.5105C9.77997 13.5527 10.5243 14.0724 10.9868 15.0132C11.2043 15.456 11.385 15.9194 11.5811 16.373C11.6301 16.4813 11.675 16.5993 11.7342 16.7433C11.9997 16.1348 12.2233 15.5751 12.4847 15.0359C12.9656 14.0529 13.7446 13.5116 14.7922 13.5116C15.8572 13.5062 16.6464 14.0432 17.1324 15.0468C17.354 15.5026 17.5327 15.9811 17.7328 16.4488C17.7716 16.5376 17.8196 16.6231 17.8696 16.7249C18.1382 16.1143 18.3699 15.534 18.6466 14.9699C18.9091 14.4295 19.3354 13.9985 19.857 13.7464C20.3786 13.4942 20.965 13.4355 21.5219 13.5798C21.8926 13.6617 22.2404 13.8332 22.5385 14.0808C22.8365 14.3285 23.0767 14.6457 23.2403 15.0078C23.5068 15.5643 23.7426 16.1381 23.9989 16.7205C24.2644 16.1175 24.5002 15.535 24.7728 14.9742C24.9347 14.6264 25.1678 14.3215 25.4553 14.0817C25.7428 13.8419 26.0772 13.6733 26.4341 13.5884C26.9955 13.4328 27.5901 13.4846 28.12 13.7353C28.6499 13.9861 29.0834 14.4207 29.3491 14.9677C29.6299 15.5318 29.8596 16.1229 30.1302 16.7281C30.3599 16.1933 30.5713 15.6909 30.7918 15.1929C31.2717 14.1103 32.0681 13.5083 33.2015 13.5127C34.3165 13.5127 35.1047 14.1168 35.5805 15.1789C35.8072 15.6845 36.0206 16.1955 36.2513 16.7281C36.5178 16.1218 36.7455 15.5372 37.0242 14.9818C37.2349 14.5498 37.5501 14.185 37.9375 13.9248C38.3249 13.6645 38.7707 13.5182 39.229 13.5008C39.6873 13.4834 40.1418 13.5955 40.5458 13.8257C40.9498 14.0559 41.2888 14.3959 41.528 14.8108C41.5872 14.919 41.6485 15.01 41.7312 15.1464H41.7343ZM8.66807 22.5701V22.5993C8.859 22.5993 9.04993 22.5993 9.24189 22.5993C10.3528 22.5842 11.141 21.7397 11.1318 20.5629C11.1134 18.826 10.6926 17.1207 9.90658 15.5968C9.7979 15.3569 9.62665 15.155 9.41312 15.0151C9.19959 14.8753 8.95272 14.8032 8.70176 14.8075C8.45135 14.7953 8.20298 14.8605 7.98678 14.995C7.77057 15.1295 7.59581 15.3276 7.48367 15.5654C6.6664 17.1225 6.2373 18.875 6.23698 20.6571C6.23356 21.115 6.38473 21.5591 6.66318 21.9092C6.94164 22.2592 7.329 22.4921 7.75526 22.5658C8.04728 22.6156 8.35972 22.5701 8.66501 22.5701H8.66807ZM14.7943 22.5701V22.5993C14.9862 22.5993 15.1772 22.5993 15.3681 22.5993C16.479 22.5842 17.2672 21.7397 17.258 20.5629C17.2402 18.826 16.8194 17.1204 16.0328 15.5968C15.9241 15.3569 15.7529 15.155 15.5393 15.0151C15.3258 14.8753 15.0789 14.8032 14.828 14.8075C14.5776 14.7953 14.3292 14.8605 14.113 14.995C13.8968 15.1295 13.722 15.3276 13.6099 15.5654C12.7926 17.1225 12.3635 18.875 12.3632 20.6571C12.36 21.1149 12.5112 21.5589 12.7896 21.9089C13.0681 22.259 13.4553 22.4919 13.8815 22.5658C14.1745 22.6156 14.4869 22.5701 14.7922 22.5701H14.7943ZM20.9378 22.5993C21.1165 22.5993 21.2952 22.5993 21.4739 22.5993C22.6093 22.5874 23.3975 21.7462 23.3853 20.5423C23.3639 18.8046 22.9389 17.0993 22.1478 15.5773C22.0365 15.3391 21.8627 15.1401 21.6474 15.0042C21.432 14.8682 21.1842 14.801 20.9338 14.8108C20.6828 14.8032 20.4351 14.8725 20.2203 15.0104C20.0056 15.1482 19.8328 15.3488 19.7228 15.5881C19.0155 16.998 18.5953 18.5498 18.4894 20.1428C18.3556 21.8588 19.4359 22.7411 20.7112 22.6015C20.7816 22.5928 20.8592 22.6058 20.9399 22.5993H20.9378ZM27.064 22.5993C27.2427 22.5993 27.4204 22.5993 27.5991 22.5993C28.7355 22.5874 29.5237 21.7473 29.5115 20.5423C29.49 18.8051 29.0653 17.1002 28.275 15.5784C28.1639 15.3411 27.9909 15.1427 27.7767 15.0067C27.5624 14.8706 27.3157 14.8026 27.0661 14.8108C26.8151 14.8033 26.5675 14.8725 26.3526 15.0101C26.1377 15.1478 25.9647 15.348 25.8541 15.587C25.145 16.9965 24.7231 18.5483 24.6156 20.1417C24.4819 21.8599 25.5641 22.7401 26.8374 22.6015C26.9089 22.5928 26.9865 22.6058 27.0661 22.5993H27.064ZM33.1668 22.6231V22.5993C33.371 22.5993 33.5752 22.5993 33.7794 22.5993C34.8454 22.5788 35.6418 21.7332 35.6387 20.6116C35.6332 18.8457 35.2042 17.1103 34.392 15.5686C34.2785 15.3351 34.1067 15.1392 33.8953 15.0023C33.6839 14.8653 33.4411 14.7926 33.1933 14.7921C32.9456 14.7915 32.7025 14.8631 32.4906 14.9991C32.2786 15.1351 32.106 15.3302 31.9916 15.5632C31.17 17.1155 30.7396 18.8662 30.7418 20.6462C30.7354 21.0901 30.8756 21.5224 31.1382 21.8683C31.4007 22.2141 31.7691 22.4516 32.1794 22.5398C32.5 22.6123 32.837 22.5982 33.1657 22.6231H33.1668ZM39.2746 22.6231V22.5928C39.5033 22.5928 39.733 22.5993 39.9628 22.5928C40.4408 22.5863 40.8974 22.3817 41.235 22.0228C41.5726 21.6639 41.7642 21.1791 41.769 20.6722C41.7769 18.8789 41.3441 17.1143 40.5131 15.5524C40.3985 15.3234 40.2272 15.1318 40.0176 14.9982C39.808 14.8646 39.5681 14.794 39.3236 14.794C39.0791 14.794 38.8392 14.8646 38.6296 14.9982C38.4201 15.1318 38.2488 15.3234 38.1341 15.5524C37.2913 17.1223 36.8546 18.9004 36.868 20.7069C36.8723 21.1302 37.0108 21.5396 37.2612 21.8693C37.5116 22.1991 37.8593 22.4299 38.2485 22.5246C38.5823 22.6058 38.9326 22.5961 39.2736 22.6286L39.2746 22.6231Z" fill="#0ABEB9" stroke="#0ABEB9"/>
<path d="M11.7582 27.2117C12.2686 26.5969 12.9025 26.1215 13.712 26.0641C14.5111 26.0017 15.3144 26.0158 16.1109 26.1061C16.8254 26.1922 17.3879 26.6492 17.8615 27.2383C18.4025 26.5938 19.0436 26.1112 19.8664 26.0569C20.6531 25.9974 21.4436 26.0129 22.2275 26.103C22.942 26.1911 23.5075 26.644 24.0139 27.2711C24.0772 27.1694 24.1475 27.0722 24.2241 26.9801C24.5021 26.6785 24.8383 26.4369 25.2123 26.2699C25.5863 26.1029 25.9902 26.0141 26.3995 26.0088C26.7823 25.9995 27.1651 26.0088 27.5479 26.0088C28.586 25.9975 29.4271 26.4063 30.0815 27.2025C30.1141 27.1973 30.1488 27.2025 30.1611 27.1881C30.8869 26.3213 31.8189 25.9493 32.9366 26.0077C33.3695 26.0303 33.8074 25.9985 34.2351 26.0518C35.0517 26.1543 35.7071 26.5846 36.242 27.2414C36.7769 26.6051 37.4057 26.1266 38.2152 26.0692C39.0247 26.0118 39.8311 25.9831 40.613 26.1123C41.9401 26.3305 42.9537 27.5908 42.9731 28.9566C42.9986 30.7497 43.018 32.5428 42.9731 34.337C42.8894 37.4324 40.5579 40.0902 37.4373 40.6733C32.6733 41.5647 27.8714 42.0709 23.0196 41.992C19.3833 41.9271 15.7577 41.5773 12.1757 40.9458C11.1631 40.7686 10.1249 40.6026 9.17455 40.2286C6.64603 39.2501 5.02399 36.7766 5.00766 34.0624C4.99745 32.4229 4.99745 30.7835 5.00766 29.1441C5.0097 27.3408 6.33673 26.0159 8.12823 26.0088C8.66349 25.9887 9.19949 26.0031 9.73292 26.0518C10.4985 26.145 10.7986 26.3489 11.7582 27.2117ZM17.8697 32.7959C17.592 33.3892 17.3593 33.9599 17.0673 34.4937C16.5753 35.3851 15.7924 35.8473 14.7777 35.838C13.763 35.8288 13.0148 35.3616 12.5319 34.4845C12.287 34.0378 12.1032 33.5572 11.8909 33.0931C11.847 32.9978 11.8 32.9035 11.747 32.7939C11.4632 33.3984 11.2294 33.9814 10.9242 34.5234C10.7049 34.9165 10.3873 35.2454 10.0027 35.4777C9.61805 35.7099 9.17977 35.8375 8.73105 35.8479C8.28233 35.8582 7.83868 35.7509 7.44386 35.5367C7.04904 35.3224 6.71671 35.0085 6.47965 34.6259C6.41636 34.5234 6.35613 34.421 6.29488 34.3185C6.47046 36.5327 7.51984 38.1783 9.54407 39.0472C10.3954 39.4119 11.356 39.5462 12.2798 39.7101C15.7862 40.3344 19.3357 40.6835 22.8961 40.7542C27.4774 40.8433 32.0138 40.371 36.5237 39.5913C37.6691 39.3935 38.7613 39.0882 39.68 38.3289C40.9325 37.294 41.6124 35.9723 41.7533 34.2683C41.7027 34.3237 41.6557 34.3822 41.6124 34.4435C41.0703 35.4005 40.2496 35.8934 39.1564 35.8319C38.0937 35.7725 37.3526 35.1966 36.9106 34.2324C36.6932 33.7632 36.4819 33.2908 36.2522 32.7857C36.0113 33.3133 35.7959 33.8103 35.558 34.3011C35.0772 35.2858 34.2882 35.838 33.1898 35.838C32.0914 35.838 31.3023 35.2919 30.8205 34.3062C30.5817 33.8185 30.3673 33.3185 30.1254 32.7887C29.8804 33.3256 29.665 33.838 29.4169 34.3349C28.9341 35.3001 28.1491 35.836 27.0691 35.838C25.9891 35.8401 25.199 35.3103 24.7151 34.3441C24.5028 33.922 24.3283 33.4814 24.1343 33.051C24.0976 32.968 24.0496 32.8912 23.9965 32.7939C23.7505 33.3349 23.5382 33.841 23.2932 34.3308C22.8114 35.296 22.0274 35.8339 20.9453 35.837C19.847 35.837 19.0548 35.296 18.572 34.3124C18.3239 33.8236 18.1096 33.3215 17.8717 32.7959H17.8697ZM8.706 27.2086V27.2342H8.13232C7.00025 27.2465 6.21832 28.0457 6.23057 29.1872C6.24967 30.832 6.67737 32.446 7.47492 33.883C7.58767 34.1044 7.75883 34.2904 7.96973 34.4207C8.18064 34.5511 8.42317 34.6207 8.67083 34.6221C8.9185 34.6235 9.16178 34.5565 9.37411 34.4285C9.58643 34.3005 9.75964 34.1164 9.87481 33.8964C10.7034 32.4171 11.1344 30.7469 11.1253 29.0499C11.1259 28.6427 10.988 28.2475 10.7345 27.9296C10.4809 27.6117 10.1269 27.3903 9.73088 27.3018C9.39912 27.227 9.04695 27.2383 8.706 27.2086ZM14.8206 27.2486V27.2383C14.6287 27.2383 14.4378 27.2383 14.2469 27.2383C13.1342 27.2506 12.3462 28.0478 12.3543 29.1615C12.3727 30.8056 12.7934 32.42 13.5793 33.8625C13.6878 34.0897 13.8588 34.281 14.072 34.4138C14.2852 34.5467 14.5318 34.6157 14.7828 34.6126C15.0343 34.6252 15.284 34.5642 15.5015 34.4368C15.7191 34.3095 15.8949 34.1213 16.0078 33.8953C16.8229 32.422 17.2511 30.7648 17.2521 29.0796C17.2545 28.6332 17.0943 28.2012 16.8016 27.8651C16.5088 27.529 16.1038 27.3119 15.6627 27.2547C15.3824 27.2352 15.1011 27.2331 14.8206 27.2486ZM20.9607 27.2086V27.2342H20.387C19.2539 27.2465 18.4709 28.0447 18.4832 29.181C18.5016 30.8257 18.9286 32.4397 19.7255 33.8769C19.8379 34.0984 20.0087 34.2847 20.2194 34.4154C20.4301 34.5461 20.6725 34.6162 20.9202 34.618C21.1678 34.6198 21.4112 34.5533 21.6238 34.4256C21.8363 34.298 22.0098 34.1142 22.1254 33.8943C22.9546 32.4152 23.3863 30.745 23.3779 29.0478C23.3788 28.6406 23.2412 28.2452 22.9878 27.9272C22.7344 27.6092 22.3805 27.3874 21.9845 27.2988C21.6487 27.227 21.3016 27.2383 20.9607 27.2086ZM27.0589 27.2383H26.5618C25.3552 27.2445 24.5845 28.0334 24.6049 29.2507C24.6375 30.8687 25.0603 32.4546 25.837 33.8728C25.9465 34.0996 26.1187 34.29 26.333 34.4213C26.5472 34.5526 26.7946 34.6194 27.0456 34.6136C27.2966 34.6222 27.5447 34.558 27.7601 34.4286C27.9756 34.2992 28.1493 34.1101 28.2604 33.8841C28.9788 32.5371 29.4043 31.0526 29.5088 29.5284C29.6313 27.9914 28.6156 27.099 27.2937 27.2332C27.2156 27.2392 27.1372 27.2409 27.0589 27.2383ZM33.1745 27.2076V27.2404C32.9448 27.2404 32.7151 27.2322 32.4865 27.2404C32.0225 27.259 31.583 27.4544 31.2574 27.7867C30.9318 28.119 30.7446 28.5634 30.7338 29.0294C30.7175 30.7398 31.1521 32.4242 31.9934 33.9117C32.107 34.1253 32.2759 34.3042 32.4822 34.4296C32.6885 34.555 32.9247 34.6222 33.1659 34.6243C33.4071 34.6264 33.6443 34.5633 33.8528 34.4415C34.0612 34.3197 34.2332 34.1438 34.3504 33.9322C35.205 32.4364 35.6449 30.7382 35.6244 29.014C35.6195 28.6196 35.4839 28.2382 35.239 27.9298C34.994 27.6214 34.6538 27.4037 34.2718 27.3111C33.9197 27.2291 33.544 27.2383 33.1775 27.2035L33.1745 27.2076ZM39.3268 27.2537V27.2383C39.1227 27.2383 38.9185 27.2383 38.7143 27.2383C37.6476 27.2557 36.8534 28.0529 36.8565 29.1185C36.8612 30.7896 37.2901 32.4318 38.1029 33.8902C38.2164 34.1112 38.3882 34.2966 38.5995 34.4262C38.8109 34.5558 39.0536 34.6246 39.3013 34.6251C39.5489 34.6257 39.792 34.5579 40.0039 34.4292C40.2158 34.3005 40.3884 34.1158 40.5028 33.8953C41.3257 32.4258 41.758 30.7684 41.7584 29.0827C41.7618 28.6361 41.6025 28.2037 41.3102 27.867C41.018 27.5303 40.6132 27.3125 40.172 27.2547C39.8917 27.2349 39.6104 27.2332 39.3299 27.2496L39.3268 27.2537Z" fill="#0ABEB9" stroke="#0ABEB9"/>
<path d="M22 10V11.0377C20.5237 11.1643 19.054 11.2639 17.5907 11.4237C16.1274 11.5835 14.6744 11.8016 13.186 12L13 10.9767C15.9732 10.452 18.9803 10.1257 22 10Z" fill="#0ABEB9" stroke="#0ABEB9"/>
<path d="M25 11H24V10H25V11Z" fill="#0ABEB9" stroke="#0ABEB9"/>
<path d="M28 37.9921L36.8206 37C36.8689 37.2686 36.9312 37.6151 37 37.994C34.027 38.5365 31.0197 38.8726 28 39V37.9921Z" fill="#0ABEB9" stroke="#0ABEB9"/>
<path d="M25 38V39H24V38H25Z" fill="#0ABEB9" stroke="#0ABEB9"/>
</svg>
