<svg width="37" height="43" viewBox="0 0 37 43" fill="none" xmlns="http://www.w3.org/2000/svg">
<g clip-path="url(#clip0_1183_7494)">
<path d="M5.81805 17.0645C4.52657 16.8003 3.5848 16.1241 3.33284 14.845C3.19538 14.0629 3.18515 13.2643 3.30255 12.479C3.35211 12.105 3.728 11.7283 4.04467 11.4478C4.25946 11.2568 4.37373 11.1091 4.36134 10.8313C4.33105 10.1836 4.29525 9.56701 4.09423 8.91523C3.87532 8.20925 3.9951 7.38131 4.07496 6.61164C4.10112 6.35688 4.41779 6.03844 4.67939 5.92462C4.95569 5.80323 5.17404 5.58203 5.28934 5.30672C7.06409 1.89739 9.92518 0.149368 13.7927 0.0341886C15.4876 -0.0173036 17.1963 -0.101315 18.8595 0.387861C21.56 1.1765 23.5335 2.81206 24.78 5.29452C24.9177 5.56553 25.0402 5.79589 25.3858 5.91243C25.8925 6.08587 26.1114 6.53575 26.0866 7.04526C26.0467 7.85829 26.2105 8.65913 25.7823 9.47081C25.5428 9.92475 25.7204 10.5982 25.7438 11.1714C25.7438 11.2581 25.9283 11.3476 26.0384 11.418C26.4818 11.7026 26.7847 12.105 26.8191 12.6145C26.8857 13.2874 26.8765 13.9654 26.7916 14.6363C26.5961 15.845 25.8402 16.6187 24.6354 16.9697C24.4812 17.0144 24.2678 17.1892 24.2527 17.322C23.8988 20.4386 22.3402 22.7991 19.632 24.4374C20.1896 24.764 20.8202 24.997 21.2621 25.4198C22.029 26.1529 22.9226 26.6096 23.8782 27.0459C25.5607 27.8251 26.8838 29.0446 27.9109 30.569C28.0032 30.7045 28.1009 30.84 28.2207 31.0176C29.1019 30.5474 30.0519 30.6354 30.9909 30.6327C31.7813 30.6327 32.5716 30.6327 33.3619 30.6327C35.8085 30.6436 37.3547 32.4539 36.9417 34.8266C36.5699 36.9568 36.1982 39.0874 35.8264 41.2184C35.6447 42.2578 34.8144 42.98 33.8107 42.98C32.807 42.98 32.0208 42.293 31.8033 41.274C31.784 41.1818 31.7496 41.0911 31.6849 40.8783C31.6147 41.1642 31.5816 41.3336 31.532 41.4976C31.2883 42.3025 30.7472 42.7903 29.9074 42.9353C29.6532 42.9733 29.3961 42.9896 29.1391 42.9841C19.8279 42.9841 10.5172 42.9841 1.20699 42.9841C1.05226 42.989 0.897373 42.9859 0.742989 42.9746C0.250078 42.9217 -0.0225389 42.6494 0.0105054 42.1697C0.188119 39.6588 0.22254 37.1234 0.603926 34.641C1.20561 30.7113 3.5614 28.0541 7.28714 26.5499C7.58221 26.4305 7.84965 26.2535 8.07332 26.0296C8.77041 25.324 9.62513 24.7881 10.5695 24.4645C7.76491 22.7395 6.18291 20.2977 5.81805 17.0645ZM20.7995 27.5324C20.7169 27.7329 20.6384 27.9185 20.5655 28.1055C18.9894 32.1201 17.4152 36.1356 15.8429 40.152C15.6942 40.5301 15.5482 40.8919 15.0553 40.8946C14.5624 40.8973 14.4123 40.5355 14.2636 40.1574C12.8969 36.6794 11.526 33.2015 10.151 29.7235C9.86047 28.989 9.5672 28.2546 9.28495 27.5446C8.76175 27.5107 8.50152 27.7587 8.37485 28.1733C8.27021 28.5107 8.09948 28.8508 8.08434 29.1896C8.02651 30.3536 8.03753 31.5203 7.99071 32.6843C7.97695 33.0556 8.0747 33.2371 8.45058 33.3848C8.82664 33.5321 9.169 33.7518 9.45755 34.0311C9.74611 34.3104 9.97503 34.6437 10.1309 35.0113C10.2867 35.3789 10.3663 35.7734 10.3651 36.1718C10.3638 36.5701 10.2816 36.9641 10.1235 37.3308C9.80993 38.0653 9.21544 38.6489 8.46836 38.9557C7.72129 39.2625 6.88158 39.2678 6.13059 38.9704C5.56249 38.743 5.0759 38.3546 4.73267 37.8544C4.38944 37.3542 4.20508 36.7649 4.20301 36.1614C4.21022 35.5574 4.39789 34.9688 4.74261 34.4691C5.08734 33.9693 5.57388 33.5805 6.14161 33.351C6.30683 33.2805 6.53401 33.0908 6.53814 32.9445C6.58633 31.439 6.59459 29.9308 6.61387 28.4538C4.42743 29.4132 2.3897 32.0623 2.02621 34.6871C1.78664 36.4242 1.73019 38.1872 1.59526 39.9393C1.55395 40.4691 1.52642 41.0003 1.49199 41.5369H27.5777C27.5779 41.4418 27.5729 41.3468 27.5626 41.2523C27.2377 39.3877 26.9265 37.5218 26.5781 35.6613C26.3482 34.4296 26.1651 33.2222 26.9623 32.0962C26.9849 32.0306 26.9915 31.9607 26.9814 31.8922C26.9714 31.8237 26.945 31.7585 26.9045 31.7019C26.3799 31.0365 25.887 30.336 25.2825 29.7465C24.7387 29.2153 24.0654 28.8129 23.4348 28.3413C23.461 29.6042 23.4926 30.7493 23.5064 31.8943C23.5064 32.1558 23.5573 32.3089 23.8437 32.4228C24.9879 32.874 25.591 33.7439 25.7066 34.9391C25.8319 36.2183 25.9393 37.4974 26.0508 38.778C26.1197 39.5558 25.8994 39.7929 25.1104 39.797C24.8874 39.797 24.6327 39.8525 24.4495 39.7658C24.2265 39.6601 23.9553 39.4569 23.9071 39.2509C23.8589 39.0449 24.0269 38.7604 24.1577 38.5449C24.2237 38.4351 24.4165 38.3999 24.5638 38.3254C24.4606 37.1912 24.3779 36.0624 24.2485 34.9377C24.2174 34.5876 24.0549 34.2613 23.7928 34.0226C23.5306 33.7839 23.1875 33.6498 22.8304 33.6464C22.4646 33.6244 22.1044 33.7433 21.8262 33.978C21.5479 34.2127 21.3732 34.5447 21.3392 34.9039C21.1919 36.0408 21.1134 37.1858 21.0061 38.3267C21.0928 38.3701 21.1506 38.4053 21.214 38.4297C21.6119 38.5815 21.7785 38.8782 21.6821 39.2739C21.5857 39.6696 21.2924 39.8078 20.9028 39.797C20.7321 39.797 20.56 39.797 20.3878 39.797C19.6994 39.7861 19.4626 39.5463 19.5191 38.8552C19.6264 37.5408 19.7439 36.2278 19.8715 34.9161C19.961 33.9675 20.3369 33.0976 21.2167 32.7127C22.0332 32.355 22.1612 31.8509 22.0772 31.1111C22.0332 30.7276 22.113 30.3292 22.058 29.9471C21.969 29.3494 21.8477 28.7569 21.6945 28.1719C21.5898 27.7681 21.3255 27.4998 20.7995 27.5324ZM21.9161 9.76621C20.8064 9.76621 19.7958 9.75672 18.7852 9.7784C18.6256 9.80709 18.4838 9.8961 18.39 10.0264C16.574 12.3611 13.4747 12.3666 11.6931 10.0372C11.6077 9.9261 11.4686 9.78247 11.3516 9.77976C10.3107 9.75943 9.26843 9.76892 8.16419 9.76892C8.16419 10.0996 8.20688 10.3746 8.15593 10.6321C8.05818 11.1199 8.06231 11.7839 7.74288 12.0373C7.18388 12.4831 7.25685 12.9777 7.24997 13.5143C7.24309 13.9696 7.22794 14.4276 7.24997 14.8829C7.31055 15.9927 7.24997 17.1309 7.49092 18.2041C8.26471 21.7192 11.554 24.2653 15.109 24.222C18.7866 24.1772 21.9809 21.6785 22.6183 18.0646C22.9281 16.303 22.7725 14.4642 22.8166 12.6593C22.8111 12.6041 22.7937 12.5507 22.7654 12.5028C22.7371 12.4549 22.6987 12.4135 22.6528 12.3815C22.0786 12.017 21.9492 11.4505 21.9134 10.8448C21.8996 10.5115 21.9161 10.1754 21.9161 9.76621ZM31.7138 32.0677C31.0612 32.0677 30.4085 32.0501 29.7573 32.0677C28.5732 32.1057 27.6356 33.1098 27.8146 34.2236C28.1739 36.4744 28.587 38.7156 28.9739 40.9623C29.0331 41.3024 29.1983 41.5504 29.5632 41.5504C29.9528 41.5504 30.1139 41.297 30.1745 40.9298C30.3076 40.0626 30.4544 39.1971 30.6151 38.3335C30.7417 37.656 31.1066 37.3132 31.6835 37.3118C32.2604 37.3104 32.6253 37.6465 32.7492 38.3294C32.9089 39.2102 33.059 40.091 33.2049 40.9759C33.2614 41.3214 33.4404 41.5558 33.8025 41.5531C34.1646 41.5504 34.3353 41.3173 34.3945 40.9705C34.7704 38.7563 35.1752 36.5462 35.5318 34.3307C35.7301 33.0989 34.8365 32.0989 33.5684 32.0664C32.9502 32.0542 32.3292 32.0664 31.7138 32.0677ZM6.54778 5.77963C8.26608 5.77963 9.79163 5.78912 11.3144 5.76608C11.4521 5.76608 11.6256 5.59534 11.7275 5.46119C13.3976 3.21857 16.6662 3.2118 18.3281 5.46119C18.3916 5.5664 18.4836 5.65222 18.5937 5.70915C18.7037 5.76607 18.8277 5.79188 18.9518 5.7837C20.2915 5.76879 21.6325 5.7837 22.9722 5.77557C23.0961 5.77557 23.2214 5.74847 23.4031 5.72814C22.2535 3.65355 20.593 2.30798 18.335 1.71853C16.6153 1.27 14.8543 1.38925 13.1029 1.4963C11.0817 1.61961 9.36618 2.46652 7.98521 3.91507C7.48266 4.45574 7.08475 5.08449 6.54778 5.78505V5.77963ZM15.0168 10.3557C15.7123 10.3564 16.3798 10.0859 16.8732 9.60336C17.3666 9.12084 17.6457 8.46559 17.6493 7.78105C17.6453 7.09943 17.3684 6.44684 16.8787 5.96485C16.389 5.48286 15.7259 5.21035 15.0333 5.20644C14.3394 5.21288 13.6763 5.48923 13.1888 5.97516C12.7012 6.46108 12.4288 7.11712 12.431 7.80002C12.436 8.47443 12.7097 9.11997 13.1933 9.59787C13.6768 10.0758 14.3315 10.3479 15.0168 10.3557ZM11.8803 26.2234C11.7426 26.2925 11.6421 26.3413 11.543 26.4022C10.6081 26.9727 10.6067 26.9741 11.0019 27.9714C11.4907 29.2072 11.9822 30.4417 12.5164 31.7791C13.074 31.0203 13.578 30.3455 14.0626 29.6584C14.0799 29.6065 14.085 29.5513 14.0777 29.4971C14.0703 29.4429 14.0505 29.3911 14.0199 29.3454C13.3136 28.3047 12.6004 27.2722 11.8803 26.2234ZM15.9145 29.5406L17.5667 31.7818L19.453 26.993L18.2138 26.203L15.9145 29.5406ZM7.26236 37.759C7.47713 37.7631 7.69059 37.7252 7.89033 37.6474C8.09007 37.5696 8.27211 37.4535 8.42585 37.3058C8.57959 37.1582 8.70197 36.9819 8.78587 36.7873C8.86977 36.5927 8.91352 36.3836 8.91458 36.1722C8.91586 35.9608 8.87444 35.7513 8.79271 35.5558C8.71098 35.3603 8.59058 35.1827 8.43851 35.0335C8.28644 34.8842 8.10572 34.7661 7.90688 34.6862C7.70804 34.6062 7.49504 34.566 7.28026 34.5678C6.85557 34.5701 6.4483 34.7342 6.14404 35.0258C5.83978 35.3175 5.66223 35.7138 5.6487 36.1315C5.64579 36.3428 5.68525 36.5525 5.76482 36.7486C5.84439 36.9448 5.96251 37.1236 6.11241 37.2748C6.26231 37.426 6.44104 37.5466 6.63837 37.6296C6.8357 37.7127 7.04775 37.7567 7.26236 37.759ZM24.6189 7.2309H19.0853V8.31494H24.6189V7.2309ZM5.43942 8.31494H10.9592V7.23903H5.43942V8.31494ZM15.0333 28.2871L16.9086 25.5553H13.1635C13.7638 26.4293 14.3834 27.3318 15.036 28.2844L15.0333 28.2871ZM5.7795 15.5496V12.6051C5.58812 12.5969 5.42014 12.6051 5.25492 12.5793C4.80469 12.521 4.62845 12.704 4.66425 13.1511C4.69592 13.5373 4.66425 13.9289 4.6849 14.3165C4.73034 14.9249 5.12549 15.3694 5.78225 15.5442L5.7795 15.5496ZM24.2733 15.5889C24.8833 15.41 25.222 15.0631 25.3335 14.555C25.3957 14.1898 25.4192 13.8192 25.4037 13.4493C25.412 12.5644 25.4037 12.5644 24.4936 12.5942C24.4192 12.6031 24.3455 12.6176 24.2733 12.6376V15.5889ZM15.0829 38.1912C15.2508 37.6926 15.5248 37.2603 15.5124 36.8362C15.4835 35.847 15.3197 34.8619 15.1999 33.8754C15.1902 33.8008 15.0939 33.7399 15.0388 33.6667C14.9782 33.7521 14.8777 33.832 14.8639 33.9228C14.7758 34.5556 14.7441 35.1993 14.6216 35.8199C14.466 36.6438 14.6133 37.3809 15.0856 38.1858L15.0829 38.1912ZM23.4031 9.79602V11.1321H24.2403V9.79602H23.4031ZM6.68133 11.1511V9.79602H5.84283V11.1511H6.68133ZM15.0443 30.8333C14.3752 31.5406 14.2554 31.836 14.6161 32.0799C14.7424 32.1471 14.8831 32.184 15.0267 32.1875C15.1702 32.1911 15.3126 32.1611 15.4422 32.1003C15.8167 31.8658 15.7231 31.6206 15.0471 30.8319L15.0443 30.8333Z" fill="#0ABEB9"/>
<path d="M15.0526 21.5139C14.3274 21.5089 13.6204 21.2903 13.0226 20.8862C12.4248 20.4822 11.9636 19.9112 11.6986 19.2469C11.5182 18.7753 11.6421 18.3837 12.0262 18.213C12.4104 18.0422 12.8166 18.2021 13.0162 18.6723C13.4017 19.5762 14.0722 20.0884 15.0691 20.0829C16.0425 20.0829 16.6993 19.568 17.0807 18.6872C17.2858 18.2157 17.6727 18.0463 18.0637 18.2157C18.4547 18.3851 18.5828 18.7767 18.4052 19.2428C18.14 19.9071 17.6792 20.4783 17.0818 20.883C16.4844 21.2877 15.7777 21.5074 15.0526 21.5139Z" fill="#0ABEB9"/>
<path d="M10.4502 14.4754C10.4502 14.2897 10.4392 14.1041 10.4502 13.9185C10.4819 13.4821 10.738 13.2274 11.1675 13.203C11.5971 13.1786 11.8849 13.4008 11.9303 13.8046C11.9823 14.2549 11.9823 14.7095 11.9303 15.1597C11.8821 15.5662 11.5765 15.7695 11.1593 15.7464C11.0684 15.7484 10.9781 15.7327 10.8934 15.7001C10.8088 15.6675 10.7315 15.6188 10.6661 15.5567C10.6007 15.4946 10.5484 15.4203 10.5123 15.3382C10.4762 15.2561 10.457 15.1678 10.4557 15.0784C10.4454 14.8762 10.4454 14.6736 10.4557 14.4713L10.4502 14.4754Z" fill="#0ABEB9"/>
<path d="M19.6354 14.488C19.6465 14.6735 19.6465 14.8595 19.6354 15.045C19.5859 15.4677 19.349 15.7225 18.9043 15.751C18.8053 15.7585 18.7057 15.7462 18.6117 15.7146C18.5176 15.683 18.4311 15.633 18.3574 15.5674C18.2837 15.5018 18.2244 15.4222 18.183 15.3333C18.1416 15.2444 18.1191 15.1481 18.1168 15.0504C18.0913 14.6795 18.0913 14.3074 18.1168 13.9365C18.1193 13.7395 18.2004 13.5514 18.3426 13.4128C18.4848 13.2741 18.6766 13.196 18.8768 13.1953C19.0765 13.1959 19.2682 13.2731 19.4111 13.4105C19.554 13.5478 19.6369 13.7346 19.6423 13.9311C19.6506 14.1154 19.6368 14.3024 19.6354 14.488Z" fill="#0ABEB9"/>
<path d="M31.6724 34.4982C31.2594 34.4982 30.8463 34.5118 30.4415 34.4982C29.9734 34.4793 29.6774 34.1825 29.7049 33.7679C29.7352 33.3261 30.0023 33.0903 30.4415 33.0903C31.28 33.0795 32.1185 33.0741 32.9556 33.0903C33.3907 33.1012 33.6633 33.3464 33.6633 33.7923C33.6633 34.2381 33.388 34.4698 32.9556 34.4955C32.5233 34.5213 32.1006 34.4969 31.6724 34.4982Z" fill="#0ABEB9"/>
<path d="M15.7942 7.76418C15.7926 7.95983 15.7147 8.1474 15.5766 8.28812C15.4385 8.42884 15.2507 8.51196 15.0521 8.5203C14.8535 8.52008 14.6626 8.44419 14.5197 8.30852C14.3767 8.17285 14.2926 7.98796 14.2852 7.79263C14.2843 7.59682 14.3608 7.40835 14.4985 7.26701C14.6362 7.12567 14.8243 7.04254 15.0232 7.03516C15.2219 7.03699 15.4124 7.11349 15.5557 7.24901C15.6991 7.38452 15.7844 7.56881 15.7942 7.76418Z" fill="#0ABEB9"/>
<path d="M7.27407 36.9137C7.07552 36.9062 6.88792 36.8222 6.75187 36.6797C6.61581 36.5371 6.54225 36.3476 6.5471 36.1521C6.55072 35.9569 6.63266 35.7709 6.77504 35.6348C6.91741 35.4988 7.10868 35.4236 7.30712 35.4258C7.50591 35.4319 7.69422 35.515 7.83093 35.6572C7.96764 35.7994 8.04167 35.989 8.03685 36.1847C8.03181 36.3802 7.94914 36.566 7.80656 36.7023C7.66397 36.8386 7.47282 36.9144 7.27407 36.9137Z" fill="#0ABEB9"/>
</g>
<defs>
<clipPath id="clip0_1183_7494">
<rect width="37" height="43" fill="white"/>
</clipPath>
</defs>
</svg>
