<svg width="36" height="40" viewBox="0 0 36 40" fill="none" xmlns="http://www.w3.org/2000/svg">
<g clip-path="url(#clip0_1183_7546)">
<path d="M18.6622 0C18.9925 0.210509 19.0951 0.509004 19.0926 0.890552C19.0791 2.81309 19.0867 4.73563 19.0859 6.65817C19.093 6.78786 19.084 6.91792 19.059 7.04547C19.0305 7.18799 18.9501 7.31556 18.8328 7.40449C18.7154 7.49341 18.5691 7.53765 18.4209 7.52899C18.2727 7.53786 18.1263 7.49344 18.0092 7.40409C17.8921 7.31473 17.8125 7.18661 17.7853 7.04383C17.7592 6.90338 17.7498 6.76043 17.7576 6.61788C17.7576 4.72083 17.7651 2.8246 17.75 0.928377C17.75 0.534495 17.8341 0.219554 18.1838 0H18.6622Z" fill="#0ABEB9"/>
<path d="M6.96908 28.552C7.7442 28.3184 8.50081 28.029 9.28434 27.8662C11.1776 27.4715 13.038 27.6631 14.7488 28.5454C15.9699 29.1843 17.3364 29.5107 18.7211 29.4943C19.9174 29.4886 21.1137 29.5617 22.31 29.5766C23.9544 29.5996 25.2246 30.2632 26.1023 31.6323C26.1363 31.6807 26.1727 31.7274 26.2116 31.7721L30.1729 29.9458C30.6656 29.7188 31.1523 29.4787 31.6526 29.2698C32.3876 28.9652 33.2093 28.9252 33.9716 29.157C34.734 29.3889 35.3876 29.8775 35.8165 30.5362C36.1141 31.0008 36.0544 31.333 35.587 31.629C31.6618 34.1165 27.7593 36.6393 23.793 39.0626C22.3882 39.9211 20.727 40.1546 19.0918 39.9022C17.6828 39.6851 16.3049 39.2674 14.922 38.9064C13.2406 38.4673 11.5702 38.0018 9.8972 37.534C9.5789 37.4391 9.24417 37.4087 8.91346 37.4446C8.58275 37.4806 8.26299 37.582 7.9737 37.7428C7.78062 37.8576 7.58106 37.9617 7.37597 38.0545C6.92536 38.2378 6.59497 38.4599 6.6286 39.033C6.64962 39.3784 6.36294 39.6012 5.99136 39.5938C4.22591 39.5585 2.45542 39.5198 0.68745 39.4598C0.197328 39.4433 -0.0128457 39.1637 0.000605287 38.6375C0.0566512 36.5702 0.1155 34.503 0.177151 32.4357C0.221427 30.8371 0.265983 29.238 0.31082 27.6384C0.329315 26.937 0.537807 26.7396 1.25744 26.7569C2.85475 26.7955 4.44785 26.8317 6.04264 26.8737C6.80598 26.8942 7.00187 27.1105 6.9674 27.8604C6.96151 28.0948 6.96908 28.3291 6.96908 28.552ZM34.3293 30.8659C33.6828 30.2673 32.8489 30.1596 32.0014 30.5493C30.3436 31.3124 28.6933 32.092 27.0288 32.8419C26.7228 32.9801 26.6278 33.1157 26.6858 33.4496C26.8009 34.1074 26.6017 34.5482 25.7072 34.5186C23.3415 34.4314 20.975 34.3878 18.6084 34.3245C18.3957 34.3226 18.1832 34.3092 17.972 34.2842C17.8123 34.2649 17.6654 34.1887 17.5594 34.0703C17.4534 33.9519 17.3956 33.7994 17.397 33.642C17.4 33.4777 17.4669 33.3208 17.584 33.203C17.7011 33.0852 17.8597 33.0155 18.0275 33.008C18.1471 33.0014 18.2669 33.0014 18.3865 33.008C20.5269 33.0628 22.667 33.1176 24.8068 33.1725C24.9598 33.1725 25.1128 33.1725 25.2726 33.1725C25.0531 31.9472 23.9317 30.9753 22.6774 30.9095C21.9073 30.8692 21.1355 30.856 20.3646 30.8338C19.3945 30.8051 18.4235 30.787 17.4533 30.7516C16.252 30.7064 15.2104 30.1941 14.1452 29.7081C11.8022 28.6391 9.48526 28.7641 7.22801 30.0009C7.12202 30.049 7.03327 30.1272 6.97331 30.2253C6.91334 30.3234 6.88492 30.4369 6.89174 30.551C6.84298 32.5796 6.7774 34.6074 6.7236 36.636C6.72927 36.719 6.74164 36.8015 6.76059 36.8827C6.97496 36.7741 7.15151 36.6903 7.32301 36.5973C7.76973 36.3502 8.26319 36.1945 8.77338 36.1398C9.28356 36.0851 9.79978 36.1325 10.2906 36.2791C11.6189 36.6492 12.9464 37.0192 14.2789 37.372C15.8543 37.7897 17.4155 38.2938 19.017 38.57C20.6322 38.8603 22.2994 38.52 23.661 37.6219C25.7038 36.3063 27.7644 35.021 29.8173 33.7218L34.3293 30.8659ZM5.33394 38.2017C5.42725 34.8935 5.52141 31.5509 5.61641 28.1474H1.64331C1.54916 31.4695 1.45584 34.8031 1.36 38.2017H5.33394Z" fill="#0ABEB9"/>
<path d="M18.3911 27.7328C13.019 27.7115 8.67604 23.447 8.69538 18.2081C8.70783 15.688 9.74139 13.2756 11.5694 11.4997C13.3975 9.72379 15.8709 8.72936 18.4474 8.73439C23.8169 8.75002 28.1649 13.0235 28.1431 18.2624C28.133 20.7829 27.1002 23.1964 25.2715 24.9723C23.4428 26.7482 20.968 27.7411 18.3911 27.7328ZM18.423 26.4303C20.643 26.4281 22.7715 25.5649 24.3416 24.0298C25.9118 22.4948 26.7955 20.4133 26.7988 18.2418C26.8012 16.0705 25.9218 13.9871 24.3539 12.4499C22.786 10.9128 20.658 10.0478 18.4381 10.0451C17.3356 10.0429 16.2435 10.2534 15.2243 10.6647C14.2051 11.0761 13.2789 11.6801 12.4988 12.4421C11.7187 13.2042 11.1 14.1093 10.6781 15.1057C10.2563 16.102 10.0396 17.17 10.0405 18.2484C10.0463 20.4196 10.9318 22.5001 12.5031 24.0337C14.0744 25.5674 16.2032 26.4292 18.423 26.4303Z" fill="#0ABEB9"/>
<path d="M22.7811 5.39877C22.7811 4.93005 22.7727 4.46216 22.7811 3.99427C22.792 3.54859 23.0593 3.27558 23.4536 3.28134C23.8479 3.2871 24.1018 3.56092 24.106 4.01154C24.1144 4.93526 24.1144 5.85843 24.106 6.78105C24.106 7.25223 23.8361 7.53922 23.4335 7.53346C23.0308 7.5277 22.7861 7.24401 22.7786 6.76378C22.7752 6.30905 22.7802 5.8535 22.7811 5.39877Z" fill="#0ABEB9"/>
<path d="M14.0586 5.41436C14.0586 5.88308 14.067 6.35096 14.0586 6.81885C14.0485 7.26043 13.7778 7.53837 13.3861 7.53343C12.9943 7.5285 12.7362 7.25138 12.732 6.80405C12.7247 5.86773 12.7247 4.9314 12.732 3.99507C12.7371 3.54939 13.0078 3.27638 13.4004 3.28132C13.793 3.28625 14.046 3.56008 14.0553 4.0107C14.0662 4.47859 14.0586 4.94647 14.0586 5.41436Z" fill="#0ABEB9"/>
<path d="M16.904 16.0236C16.897 16.3847 17.0266 16.7356 17.2681 17.0089C17.5096 17.2821 17.8458 17.4584 18.2121 17.5038C18.514 17.5465 18.8242 17.5523 19.1184 17.623C19.711 17.7645 20.2413 18.0888 20.631 18.5478C21.0207 19.0069 21.2491 19.5764 21.2824 20.1721C21.3605 21.3373 20.6359 22.5001 19.4925 22.9038C19.0873 23.0461 18.9486 23.2212 18.9957 23.6159C19.031 23.9128 18.9032 24.1874 18.6022 24.2631C18.3971 24.3141 18.0902 24.2976 17.9465 24.1809C17.7859 24.0452 17.6859 23.7582 17.6867 23.537C17.6867 23.1785 17.5833 23.0107 17.2285 22.8561C16.2113 22.4104 15.6724 21.5931 15.564 20.5117C15.5169 20.0373 15.7834 19.701 16.1936 19.6788C16.5879 19.6574 16.8603 19.9345 16.9049 20.4032C16.9889 21.2535 17.6068 21.8126 18.4627 21.8011C18.8387 21.7956 19.199 21.6522 19.4721 21.3992C19.7451 21.1463 19.9112 20.8023 19.9372 20.4353C19.991 19.622 19.4202 18.9782 18.5678 18.84C18.0633 18.7578 17.5228 18.706 17.0789 18.4856C16.0238 17.9626 15.5102 17.0482 15.5699 15.8986C15.6295 14.7491 16.2424 13.9161 17.3353 13.463C17.6035 13.3511 17.7086 13.2237 17.6758 12.954C17.6651 12.8373 17.6705 12.7198 17.6918 12.6045C17.713 12.4482 17.7922 12.3051 17.9144 12.2023C18.0365 12.0995 18.1931 12.0442 18.3542 12.047C18.6846 12.0552 19.0116 12.3019 18.9814 12.6292C18.9326 13.1505 19.1773 13.3331 19.6354 13.5263C20.63 13.944 21.1487 14.7597 21.2773 15.8016C21.3395 16.295 21.0898 16.6543 20.6695 16.693C20.2718 16.7292 19.9877 16.4381 19.9406 15.9455C19.8616 15.1174 19.1747 14.5098 18.3635 14.5517C17.9735 14.5667 17.6043 14.7279 17.3326 15.002C17.0609 15.276 16.9074 15.6419 16.904 16.0236Z" fill="#0ABEB9"/>
</g>
<defs>
<clipPath id="clip0_1183_7546">
<rect width="36" height="40" fill="white"/>
</clipPath>
</defs>
</svg>
