<svg width="40" height="40" viewBox="0 0 40 40" fill="none" xmlns="http://www.w3.org/2000/svg">
<g clip-path="url(#clip0_1183_7534)">
<path d="M3.23692 40.0041C2.69655 39.7857 2.10215 39.6442 1.6274 39.3327C0.563389 38.634 0.164548 37.5816 0.164548 36.3628C0.164548 30.1649 0.164548 23.9669 0.164548 17.769C0.164548 16.4422 0.14525 15.1143 0.14139 13.7863C0.14139 13.1236 0.380694 12.899 1.06902 12.8965C1.68658 12.8965 2.30543 12.8965 2.97445 12.8965V11.1118C2.97445 10.6812 2.97445 10.2517 2.97445 9.82233C2.98217 9.2415 3.18288 9.01935 3.785 8.97343C4.8786 8.89028 5.79337 8.477 6.4521 7.62065C7.24721 6.58683 7.39645 5.43883 6.87153 4.26974C6.3466 3.10064 5.39195 2.40812 4.05776 2.25919C3.57512 2.19729 3.0843 2.23739 2.61931 2.37668C2.15433 2.51598 1.72632 2.75115 1.36493 3.06589C1.29288 3.12546 1.21826 3.18255 1.14107 3.23468C0.805267 3.45931 0.433443 3.43697 0.187705 3.18131C-0.0580329 2.92565 -0.0696125 2.52974 0.227589 2.23312C0.74398 1.7139 1.38852 1.32959 2.10086 1.11615C3.99214 0.551462 5.7033 0.903928 7.10697 2.24429C8.51064 3.58466 8.94293 5.23902 8.32151 7.05472C7.73097 8.77858 6.45081 9.83722 4.60584 10.2406C4.54151 10.2555 4.47719 10.2741 4.39356 10.2952V12.8642C4.48944 12.8788 4.58608 12.8883 4.68304 12.8928C5.20925 12.8928 5.73547 12.8928 6.26168 12.8928C6.87796 12.899 7.12498 13.1335 7.13913 13.7144V13.7925C7.14771 21.3176 7.15972 28.8427 7.17516 36.3678C7.17516 38.3026 5.89629 39.7249 4.11694 39.9669C4.09118 39.9748 4.06687 39.9865 4.04489 40.0017L3.23692 40.0041ZM1.57207 17.6647V18.1798C1.57207 24.1957 1.57207 30.2112 1.57207 36.2263C1.57057 36.4606 1.58389 36.6948 1.61196 36.9275C1.68967 37.4341 1.96608 37.8926 2.3841 38.2083C2.80212 38.524 3.32985 38.6728 3.85834 38.6241C5.04843 38.4863 5.75605 37.6808 5.75605 36.4422C5.75605 30.3088 5.75605 24.1758 5.75605 18.0432C5.75605 17.9191 5.74319 17.795 5.73547 17.6647H1.57207ZM1.55406 16.2238H5.71488V14.2629H1.55406V16.2238Z" fill="#0ABEB9"/>
<path d="M33.7964 12.8892C33.7964 12.2116 33.7874 11.5885 33.7964 10.9643C33.7964 10.7161 33.642 10.7161 33.4606 10.6875C32.1191 10.4574 30.9108 9.76318 30.0621 8.735C29.2134 7.70682 28.7827 6.41531 28.8507 5.10265C28.9974 2.36483 31.3145 0.124683 34.1257 0.00553964C37.0463 -0.118568 39.5551 1.85599 39.9475 4.58885C40.367 7.50911 38.5001 10.0409 35.4535 10.685C35.3892 10.6987 35.3248 10.7086 35.2374 10.7235V12.8904H36.9549C37.8105 12.8904 38.0048 13.0766 38.0048 13.8982C38.0048 21.3844 38.0005 28.8722 37.9919 36.3617C37.9919 38.1228 37.0128 39.4036 35.3429 39.8467C33.3577 40.3729 31.2116 38.9332 31.0354 36.955C31.0122 36.6968 31.0058 36.435 31.0058 36.1756C31.0058 30.0033 31.0058 23.8318 31.0058 17.6611C31.0058 16.3977 31.0058 15.1351 31.0058 13.8734C31.0058 13.1002 31.2155 12.8966 32.0054 12.8954L33.7964 12.8892ZM32.4017 17.6487V36.3257C32.3987 36.469 32.4034 36.6123 32.4159 36.7552C32.4644 37.2797 32.7238 37.7652 33.1385 38.1077C33.5532 38.4503 34.0904 38.6227 34.6352 38.5882C35.7932 38.52 36.5947 37.6289 36.596 36.3692C36.596 30.2465 36.596 24.1268 36.596 18.0099C36.596 17.8969 36.5806 17.784 36.5715 17.6487H32.4017ZM35.2528 9.36204C37.4027 9.0406 38.9067 6.98537 38.6121 4.80231C38.3187 2.64035 36.255 1.10638 33.9546 1.34094C32.8559 1.45896 31.8492 1.98855 31.1513 2.81564C30.4534 3.64273 30.1202 4.70115 30.2235 5.76291C30.3831 7.5935 32.1997 9.43402 33.7629 9.34839C33.8916 8.40516 34.037 8.17805 34.5001 8.17308C34.9633 8.16812 35.11 8.39648 35.2464 9.36204H35.2528ZM36.5934 14.2718H32.4326V16.2289H36.5934V14.2718Z" fill="#0ABEB9"/>
<path d="M29.1555 22.3913C28.875 26.6568 28.3462 30.8368 27.097 34.8976C26.729 36.0965 26.168 37.2557 25.5916 38.3726C25.3086 38.8734 24.9097 39.3044 24.426 39.6323C23.5756 40.2392 22.6531 40.0047 22.2877 39.054C21.894 38.0251 21.6444 36.9442 21.3871 35.8681C20.9805 34.1728 20.637 32.4626 20.2291 30.7685C20.1101 30.3416 19.9198 29.9363 19.6656 29.5684C19.38 29.1303 19.0223 29.1415 18.8383 29.6143C18.474 30.5207 18.1664 31.4474 17.9171 32.3894C17.4913 34.0673 17.1722 35.7713 16.7438 37.4493C16.5725 38.102 16.3079 38.7285 15.9577 39.3109C15.5447 40.0047 14.8383 40.1238 14.105 39.7353C13.5183 39.4251 13.122 38.9361 12.7837 38.3937C11.9345 37.0286 11.443 35.5318 11.021 34.0102C10.3769 31.6179 9.91715 29.1829 9.64567 26.7251C9.48227 25.3425 9.31888 23.955 9.27642 22.5663C9.20694 20.2429 9.65082 18.0251 11.1664 16.1275C12.0555 15.0106 13.2108 14.3354 14.7007 14.2547C15.4508 14.215 16.1365 14.4297 16.8081 14.7127C17.2275 14.8902 17.6495 15.0639 18.0612 15.2575C18.41 15.4314 18.7966 15.5229 19.1891 15.5244C19.5817 15.5259 19.969 15.4374 20.3192 15.2662C20.9581 14.9584 21.6159 14.6886 22.289 14.4583C24.0825 13.8948 25.9635 14.5464 27.2218 16.1126C28.3797 17.5486 28.8802 19.2153 29.068 20.9913C29.1169 21.4766 29.1285 21.9594 29.1555 22.3913ZM23.4945 38.6494C24.2047 38.2932 24.471 37.762 24.7361 37.2383C25.508 35.7192 25.9146 34.0859 26.316 32.4552C26.9381 29.9096 27.3681 27.3238 27.6026 24.7183C27.7377 23.229 27.8265 21.7298 27.5305 20.2417C27.2513 18.8393 26.7586 17.5324 25.6611 16.5098C24.8351 15.7391 23.6026 15.2613 22.2452 15.9215C21.9094 16.0853 21.5518 16.2094 21.216 16.3745C19.8547 17.0447 18.5013 17.0422 17.1426 16.3671C16.7837 16.1896 16.4054 16.0469 16.0387 15.883C14.994 15.4152 14.0149 15.5579 13.1027 16.1958C12.2317 16.8052 11.7068 17.6615 11.3169 18.6072C10.5836 20.3882 10.5784 22.2448 10.7213 24.1114C10.9251 26.7072 11.3276 29.2849 11.9255 31.8235C12.3604 33.6851 12.8081 35.5467 13.6765 37.2842C13.9339 37.7955 14.2015 38.3118 14.8126 38.5985C14.908 38.4538 14.9902 38.3014 15.0583 38.143C15.2115 37.6863 15.3684 37.2284 15.4791 36.7605C15.9409 34.8095 16.3411 32.8424 16.8583 30.9051C17.0756 30.102 17.4207 29.3363 17.8811 28.6351C18.5103 27.6807 19.6489 27.6423 20.4787 28.4452C20.7218 28.6708 20.9198 28.9375 21.0629 29.2321C21.3639 29.9122 21.6843 30.5973 21.8541 31.3121C22.2542 32.9975 22.5604 34.7028 22.9258 36.4006C23.0828 37.1303 23.2925 37.8514 23.5048 38.6494H23.4945Z" fill="#0ABEB9"/>
<path d="M11.4923 20.2621C11.5309 18.1213 13.4221 16.3192 15.5502 16.2795C16.0288 16.2708 16.3465 16.5128 16.3697 16.9001C16.3954 17.327 16.1227 17.6013 15.5669 17.6348C15.1547 17.6521 14.7517 17.7572 14.3866 17.9426C14.0216 18.128 13.7036 18.3891 13.4556 18.7071C13.0696 19.1861 12.9204 19.7459 12.8741 20.3416C12.8753 20.5077 12.81 20.6679 12.6919 20.7888C12.5737 20.9097 12.4118 20.982 12.2398 20.9907C12.09 21.0101 11.938 20.9782 11.8102 20.9003C11.6825 20.8225 11.5872 20.7038 11.5411 20.565C11.5075 20.4673 11.491 20.365 11.4923 20.2621Z" fill="#0ABEB9"/>
</g>
<defs>
<clipPath id="clip0_1183_7534">
<rect width="40" height="40" fill="white"/>
</clipPath>
</defs>
</svg>
