<svg width="44" height="38" viewBox="0 0 44 38" fill="none" xmlns="http://www.w3.org/2000/svg">
<g clip-path="url(#clip0_1183_7560)">
<path d="M43.9997 12.2248C41.7142 12.0755 39.4208 14.0289 39.1007 16.3988C39.0673 16.6413 39.0406 16.8861 39.004 17.1971C38.6705 17.1971 38.337 17.2206 37.9968 17.1903C37.6566 17.16 37.5522 17.288 37.4766 17.5934C36.8812 19.9943 35.9562 22.2994 34.7286 24.4416C33.9627 25.7956 33.1723 27.136 32.4775 28.5304C31.4659 30.5399 30.9379 32.7213 30.4132 34.8981C30.302 35.3472 30.2031 35.7963 30.0674 36.2397C29.7251 37.3433 28.7157 38.0663 27.6385 38.0012C26.4657 37.9293 25.5386 37.139 25.3496 35.9591C24.9817 33.6621 24.6549 31.3561 24.3102 29.0569C24.1168 27.7715 23.9378 26.4826 23.7244 25.2005C23.5643 24.2463 22.8784 23.6704 21.9758 23.676C21.0965 23.676 20.405 24.2553 20.2594 25.1848C19.8748 27.6401 19.5191 30.0999 19.1478 32.5574C18.9799 33.6722 18.8276 34.7892 18.6386 35.9007C18.4285 37.1356 17.5092 37.9462 16.3108 38.0023C15.2125 38.0528 14.2132 37.322 13.8919 36.1701C13.4472 34.586 13.076 32.9829 12.618 31.4033C12.1569 29.8354 11.514 28.3281 10.7026 26.9126C9.54871 24.884 8.29588 22.9103 7.46993 20.7065C6.63064 18.4612 5.98922 16.1687 5.83693 13.7752C5.71687 11.8891 5.58125 9.97607 5.75355 8.10347C6.21044 3.12332 10.6759 -0.453495 15.5961 0.0505824C16.9123 0.16888 18.1831 0.595152 19.3078 1.29562C21.0865 2.41828 22.8451 2.40481 24.6437 1.31358C25.7345 0.646904 26.9531 0.222179 28.2188 0.0676067C29.4845 -0.0869661 30.7683 0.0321491 31.985 0.417045C33.2016 0.801942 34.3232 1.44381 35.2754 2.30004C36.2276 3.15627 36.9885 4.20726 37.5077 5.38325C37.6289 5.65156 37.7667 5.75373 38.0513 5.73015C38.3614 5.70545 38.6749 5.73015 38.9773 5.73015C39.6443 9.08692 41.2484 10.6845 43.9997 10.7541V12.2248ZM32.6609 10.7653C32.8054 10.753 32.9188 10.7462 33.0311 10.7339C34.5385 10.5823 35.7557 9.90085 36.6428 8.65918C36.7714 8.46 36.8276 8.22193 36.8018 7.98558C36.2538 3.70823 31.9717 0.688256 27.7975 1.58639C26.7258 1.81766 25.7821 2.3004 24.8483 2.83816C24.1355 3.24393 23.3431 3.48654 22.5272 3.54881C21.1209 3.67118 19.8359 3.31866 18.642 2.57209C17.0267 1.56169 15.2737 1.28103 13.405 1.54597C10.1557 2.00627 7.25427 5.11717 7.12755 8.40995C7.06174 10.0283 7.08883 11.6492 7.20869 13.2644C7.4955 17.0399 8.66606 20.5449 10.5436 23.8275C11.4863 25.4767 12.4012 27.1484 13.2116 28.8683C14.2121 30.9935 14.6356 33.3129 15.2048 35.5807C15.3726 36.2487 15.7328 36.5698 16.2842 36.5507C16.8355 36.5316 17.1735 36.1802 17.2758 35.4976C17.7904 32.0544 18.3096 28.6101 18.8132 25.1691C19.0633 23.4503 20.3061 22.2726 21.9547 22.2311C23.541 22.1918 24.8816 23.3538 25.1551 25.0467C25.4419 26.8295 25.6865 28.6191 25.951 30.4064C26.2078 32.1353 26.4602 33.8653 26.7292 35.5942C26.8403 36.2869 27.3539 36.6742 27.9709 36.535C28.4689 36.4227 28.6712 36.0421 28.7935 35.5796C29.2548 33.8361 29.675 32.0791 30.2097 30.3581C30.9434 28.0005 32.2018 25.891 33.458 23.7815C35.1588 20.9232 36.1904 17.8134 36.6517 14.5128C36.6577 14.3609 36.6087 14.212 36.5139 14.094C35.9491 13.3371 35.1651 12.7765 34.2706 12.4897C33.757 12.3303 33.2201 12.2506 32.672 12.1293L32.6609 10.7653ZM35.5323 11.4715C36.7696 12.1338 37.6444 13.0578 38.327 14.2781C38.9806 13.0286 39.8922 12.1451 41.0916 11.4647C39.8599 10.808 38.9884 9.8784 38.3125 8.67939C37.6849 9.86992 36.7169 10.842 35.5345 11.4692L35.5323 11.4715Z" fill="#0ABEB9"/>
<path d="M11.3171 29.4405V30.781C7.93545 31.4748 6.97055 32.4504 6.33246 35.8229H4.99849C4.665 32.8074 3.01865 31.1133 -0.00390625 30.7855V29.4102C1.33007 29.3451 2.50507 28.8994 3.4622 27.9406C4.41933 26.9819 4.89844 25.7986 4.96069 24.4121H6.33024C6.64817 27.4152 8.30007 29.0903 11.3171 29.4405ZM5.65881 32.9152C6.27498 31.7466 7.21479 30.7846 8.36344 30.1467C7.81873 29.7133 7.28403 29.3608 6.84493 28.9185C6.40583 28.4762 6.04566 27.9216 5.61656 27.3715C5.00294 28.5592 4.07916 29.4327 2.89526 30.1197C4.07236 30.7517 5.03494 31.7254 5.65881 32.9152Z" fill="#0ABEB9"/>
<path d="M8.65625 13.7086L10.0614 13.5391C10.4637 16.9537 11.6242 20.2326 13.4563 23.1311L12.2646 23.9035C10.3122 20.8254 9.07826 17.3392 8.65625 13.7086Z" fill="#0ABEB9"/>
<path d="M26.1591 3.74609L26.9139 4.87549C24.3571 6.89629 19.8416 7.00856 17.0625 4.88335L17.8206 3.74946C20.5986 5.42897 23.3766 5.43907 26.1591 3.74609Z" fill="#0ABEB9"/>
<path d="M8.53849 10.7715H9.89803V12.14L8.53516 12.2298L8.53849 10.7715Z" fill="#0ABEB9"/>
</g>
<defs>
<clipPath id="clip0_1183_7560">
<rect width="44" height="38" fill="white"/>
</clipPath>
</defs>
</svg>
