<svg width="35" height="41" viewBox="0 0 35 41" fill="none" xmlns="http://www.w3.org/2000/svg">
<g clip-path="url(#clip0_1183_7510)">
<path d="M8.62737 41.0002C8.54264 40.9649 8.459 40.9253 8.3721 40.8932C6.93386 40.3682 6.52542 38.6478 7.58998 37.5635C8.27759 36.8632 8.98476 36.181 9.68976 35.4967C9.82723 35.3895 9.97245 35.2922 10.1243 35.2058C9.75819 34.885 9.4649 34.6712 9.21505 34.4092C7.98104 33.1261 7.62799 31.6291 8.16787 29.9407C8.24717 29.6927 8.2211 29.5708 8.0158 29.4114C7.77208 29.2285 7.575 28.9921 7.44019 28.7212C7.30537 28.4502 7.23653 28.152 7.23911 27.8503C7.23367 27.4515 7.23911 27.0526 7.23911 26.6292C7.12287 26.6142 7.03488 26.5993 6.94581 26.5918C6.06049 26.5212 5.37613 26.1106 5.03287 25.3087C3.61925 22.0068 2.22881 18.696 0.861546 15.3762C0.697517 14.9742 0.809402 14.4652 0.7779 14.0076C0.768123 13.8686 0.744225 13.6943 0.656237 13.6045C0.44366 13.398 0.276197 13.1509 0.164118 12.8784C0.0520392 12.6059 -0.00229048 12.3137 0.00446754 12.0198C0.0120715 10.2448 0.00446754 8.4709 0.00446754 6.69592C0.00989895 5.35933 1.02557 4.48147 2.37039 4.63865C2.59851 4.66538 2.82771 4.69104 3.05366 4.73381C3.42517 4.80439 3.63482 5.08346 3.58159 5.41708C3.52837 5.75069 3.23181 5.95171 2.86356 5.91536C2.63436 5.89183 2.40841 5.84585 2.17921 5.82233C1.63607 5.7678 1.23305 6.08751 1.22979 6.6168C1.21784 8.45807 1.21567 10.2994 1.23631 12.1396C1.23631 12.3652 1.4036 12.5887 1.50028 12.8282C2.35156 12.4177 3.27195 12.1641 4.21598 12.0797C4.27894 12.0697 4.33877 12.0458 4.39091 12.0097C4.44305 11.9735 4.48614 11.9262 4.51688 11.8712C4.64506 11.5119 4.80366 11.1419 4.81996 10.7709C4.86232 9.8385 4.84603 8.90396 4.82647 7.97049C4.80769 7.69257 4.75629 7.41772 4.67331 7.15143C4.56468 6.7558 4.69503 6.44143 5.02744 6.32916C5.35984 6.21689 5.70202 6.3591 5.81716 6.75687C5.94482 7.17594 6.0214 7.60847 6.04528 8.04534C6.07896 8.93818 6.08656 9.83422 6.04528 10.726C6.01921 11.2606 5.87691 11.7899 5.77914 12.3695C5.78892 12.3748 5.86931 12.4197 5.95078 12.4614C6.77135 12.8655 7.41152 13.5536 7.74857 14.3936C8.70341 16.6711 9.68541 18.938 10.6077 21.2294C10.8401 21.8079 10.8858 22.4601 11.0281 23.1263H16.6593V19.7153C15.3906 19.4074 14.8127 18.5306 14.6399 17.3084C14.5769 16.8604 14.4553 16.4209 14.3608 15.9782C14.1283 14.8919 14.7486 14.1198 15.8674 14.1188C19.1893 14.1145 22.5108 14.1145 25.8319 14.1188C26.9345 14.1188 27.5591 14.8673 27.344 15.9312C27.1702 16.7866 26.9758 17.642 26.79 18.4974C28.0305 18.7562 28.6997 18.1339 28.6899 17.055C28.6552 13.3457 28.6769 9.63748 28.6758 5.92819C28.6758 4.87282 28.2413 4.44939 27.1713 4.44939C24.6772 4.44939 22.1831 4.44939 19.689 4.44939C19.4969 4.45426 19.3074 4.49339 19.1295 4.56487C20.4516 5.17756 21.0707 6.25645 21.3445 7.56844C21.5237 8.42386 20.9339 9.3445 20.0529 9.37016C17.901 9.43325 15.7447 9.42897 13.5928 9.37016C12.7781 9.3477 12.1969 8.53827 12.3001 7.71279C12.4391 6.59862 12.9117 5.59137 13.8861 4.99044C14.4194 4.66217 14.5845 4.31894 14.6943 3.75543C14.9029 2.71151 15.4704 1.77016 16.3013 1.08974C17.1322 0.40932 18.1759 0.0313497 19.2566 0.0194122C22.0625 -0.00838875 24.8684 -0.0148044 27.6742 0.0194122C30.6224 0.0557673 33.1458 2.52043 33.1773 5.43632C33.2208 9.47816 33.2208 13.5203 33.1773 17.5629C33.1448 20.4938 30.605 22.9231 27.6254 22.9787C26.7726 22.9948 25.9199 22.9787 24.9716 22.9787C25.0498 23.1798 25.065 23.399 25.1671 23.4503C25.5787 23.6527 25.9455 23.9331 26.2466 24.2756C26.5476 24.618 26.777 25.0156 26.9214 25.4455C27.3679 25.3386 27.7905 25.1857 28.225 25.1248C28.71 25.0499 29.2061 25.0877 29.6736 25.2351C30.1412 25.3825 30.5673 25.6355 30.9179 25.9738C31.9955 26.9885 33.0568 28.0214 34.08 29.0875C35.4922 30.5524 35.3716 33.0865 33.1589 34.4413C32.2714 34.9845 31.196 34.7909 30.4062 34.02C29.0484 32.6962 27.6978 31.3654 26.3544 30.0273C26.0948 29.7675 25.8732 29.5932 25.4995 29.7985C25.3757 29.8659 25.2138 29.867 25.0226 29.9055V30.3332C25.0226 31.4398 25.0313 32.5476 25.0172 33.6543C25.0087 33.7852 25.0302 33.9164 25.0802 34.038C25.1303 34.1596 25.2075 34.2686 25.3061 34.3568C26.3425 35.3555 27.3288 36.4066 28.3966 37.3711C29.7805 38.6211 29.0788 40.6281 27.5678 40.9371C27.5439 40.9424 27.5254 40.9692 27.5048 40.9863H26.2012C25.9221 40.7906 25.695 40.5586 25.8319 40.1907C25.9688 39.8229 26.2795 39.763 26.6282 39.7833C26.8174 39.7958 27.0074 39.7933 27.1963 39.7759C27.4077 39.7534 27.6018 39.6503 27.7369 39.4885C27.872 39.3268 27.9372 39.1194 27.9187 38.9108C27.8958 38.496 27.4939 38.0714 27.0996 38.0714C21.0852 38.0714 15.0712 38.0714 9.05754 38.0714C8.64367 38.0714 8.23305 38.5066 8.2211 38.9376C8.21195 39.1464 8.28519 39.3505 8.4255 39.5074C8.56581 39.6642 8.76232 39.7616 8.9739 39.7791C9.10875 39.7882 9.244 39.7903 9.37908 39.7855C13.998 39.7855 18.6168 39.7855 23.2357 39.7855C23.5811 39.7855 23.8929 39.8186 24.0352 40.1875C24.1775 40.5564 23.9429 40.7831 23.68 40.9884L8.62737 41.0002ZM15.8186 4.60122C16.4584 4.60122 17.0667 4.60122 17.6739 4.59374C17.7208 4.58414 17.7649 4.564 17.8026 4.53487C17.8402 4.50575 17.8706 4.46844 17.8912 4.42586C18.2583 3.51271 18.6353 3.24967 19.6292 3.24967C22.1509 3.24967 24.6718 3.24967 27.1919 3.24967C27.4899 3.24327 27.7876 3.27271 28.0783 3.33735C29.2146 3.62178 29.8848 4.54776 29.8859 5.8234C29.8903 9.60148 29.8903 13.3767 29.8859 17.1491C29.8859 17.2827 29.8859 17.4164 29.8707 17.549C29.8339 18.1067 29.5939 18.6327 29.1948 19.0303C28.7957 19.4279 28.2643 19.6703 27.6981 19.7132C26.9562 19.7656 26.2088 19.7378 25.4637 19.7474C25.3214 19.7474 25.1791 19.7624 25.0498 19.7699V21.7833C25.8276 21.7833 26.5706 21.7833 27.3158 21.7833C30.0087 21.7715 31.9564 19.8586 31.9661 17.2154C31.9661 15.8146 31.9661 14.4139 31.9661 13.0132C31.9661 10.5538 31.9813 8.10415 31.9661 5.65018C31.9466 3.25929 30.076 1.2758 27.7177 1.23089C24.8727 1.17636 22.0245 1.18812 19.1784 1.23089C17.3643 1.25335 15.8142 2.83372 15.8186 4.60122ZM17.0939 28.6865H20.8741C22.1342 28.6865 23.3954 28.6918 24.6555 28.6918C25.543 28.6918 25.8406 28.3924 25.8428 27.5082C25.8428 27.1874 25.8428 26.8666 25.8428 26.5458C25.8243 25.2007 24.9585 24.3559 23.5909 24.3538C21.8029 24.3538 20.0141 24.3538 18.2247 24.3538C15.7045 24.3538 13.184 24.3538 10.6631 24.3538C9.32151 24.3538 8.46117 25.2092 8.4514 26.534C8.4514 26.8805 8.4514 27.2269 8.4514 27.5744C8.4514 28.3946 8.74578 28.6833 9.57461 28.6843C12.0803 28.6872 14.5867 28.6879 17.0939 28.6865ZM26.0177 36.8525L26.1263 36.7188C25.9898 36.6564 25.8611 36.5785 25.7428 36.4868C23.8712 34.6541 21.9615 32.8513 20.1572 30.9587C19.3783 30.1418 18.5821 29.6809 17.4534 29.899C17.2459 29.9386 17.0037 30.006 16.8603 30.1471C14.6769 32.2764 12.5014 34.4149 10.3339 36.5627C10.2524 36.6418 10.1808 36.7306 10.0678 36.8557L26.0177 36.8525ZM4.15841 13.273C3.77604 13.3639 3.23398 13.4761 2.70279 13.6216C2.05645 13.7991 1.7675 14.3786 1.99671 15.002C2.08361 15.2404 2.19007 15.4703 2.28783 15.7045C3.53633 18.6685 4.78302 21.6329 6.0279 24.5976C6.1865 24.9761 6.41136 25.2787 6.83501 25.3685C7.14243 25.4348 7.39118 25.4102 7.54761 25.0424C7.68517 24.6918 7.89554 24.3733 8.16526 24.1072C8.43498 23.8412 8.75812 23.6335 9.11403 23.4973C9.63544 23.3038 9.74733 22.9905 9.68867 22.5286C9.67272 22.3029 9.62783 22.0802 9.55506 21.8656C8.54808 19.4523 7.55304 17.0336 6.50369 14.6384C6.11046 13.7403 5.31639 13.3254 4.15841 13.273ZM20.8698 15.3174C19.2425 15.3174 17.6156 15.3174 15.9891 15.3174C15.5231 15.3174 15.4753 15.3827 15.5731 15.8403C15.6926 16.4006 15.8088 16.962 15.9359 17.5212C16.088 18.1906 16.4584 18.5349 17.1471 18.5391C19.6137 18.5555 22.0806 18.5555 24.5479 18.5391C25.229 18.5391 25.6201 18.1777 25.7667 17.5223C25.8949 16.9491 26.009 16.3739 26.123 15.7986C26.2099 15.3655 26.1687 15.3174 25.7081 15.3174C24.0931 15.316 22.4804 15.316 20.8698 15.3174ZM33.7661 31.411C33.7661 30.8282 33.5923 30.3225 33.198 29.9268C32.1649 28.8896 31.134 27.8514 30.0641 26.8495C29.6976 26.5153 29.2238 26.3179 28.7249 26.2918C28.2261 26.2656 27.7336 26.4122 27.3331 26.7062C27.1924 26.8326 27.1003 27.0029 27.0724 27.1884C26.9834 27.6675 26.9258 28.1508 26.8845 28.6405C26.882 28.7752 26.9321 28.9058 27.0246 29.0051C27.5504 29.5398 28.0914 30.0658 28.628 30.593C29.497 31.4484 30.366 32.3124 31.2438 33.1592C31.6783 33.5773 32.1714 33.6714 32.6027 33.3731C33.3012 32.9005 33.7563 32.2621 33.7661 31.411ZM23.7723 23.1338V19.7816H17.9194V23.1338H23.7723ZM15.2635 29.9236C15.2207 29.9102 15.1767 29.9009 15.132 29.8958C13.3451 29.8958 11.5582 29.8958 9.77123 29.8873C9.504 29.8873 9.42579 30.0241 9.35192 30.2252C8.76533 31.8194 9.40624 33.2191 10.8445 34.2606L15.2635 29.9236ZM16.8255 8.23139C17.7608 8.23139 18.695 8.23781 19.6292 8.23139C20.0757 8.23139 20.2473 8.03251 20.0963 7.62404C19.9213 7.16655 19.7031 6.72622 19.4446 6.30885C19.2143 5.92819 18.8373 5.78704 18.3713 5.7988C17.41 5.82233 16.4443 5.85548 15.4872 5.79025C14.7116 5.73786 14.2576 6.09606 13.9241 6.69485C13.777 6.96389 13.658 7.24691 13.5689 7.53957C13.4081 8.05389 13.5504 8.23032 14.1011 8.23246C15.0093 8.2346 15.9174 8.23139 16.8245 8.23139H16.8255ZM23.7951 32.7379C23.7951 31.874 23.7951 30.9961 23.7864 30.1193C23.7739 30.0696 23.7487 30.0238 23.7131 29.9864C23.6776 29.9489 23.6329 29.9211 23.5833 29.9055C22.6828 29.8905 21.7833 29.8958 20.8991 29.8958L23.7951 32.7379Z" fill="#0ABEB9"/>
</g>
<defs>
<clipPath id="clip0_1183_7510">
<rect width="35" height="41" fill="white"/>
</clipPath>
</defs>
</svg>
