<svg width="24" height="24" viewBox="0 0 24 24" fill="none" xmlns="http://www.w3.org/2000/svg">
<rect width="24" height="24" rx="8" fill="#EB722E"/>
<path fill-rule="evenodd" clip-rule="evenodd" d="M11.6721 6.53744C11.2245 6.53797 10.7955 6.71598 10.4791 7.03243C10.1626 7.34887 9.9846 7.77791 9.98407 8.22544C9.98407 9.15544 10.7411 9.91244 11.6721 9.91244C12.1194 9.91191 12.5483 9.73403 12.8647 9.4178C13.1811 9.10157 13.3593 8.67279 13.3601 8.22544C13.3595 7.77791 13.1815 7.34887 12.8651 7.03243C12.5486 6.71598 12.1196 6.53797 11.6721 6.53744ZM11.6721 12.3004C10.5915 12.2994 9.55557 11.8697 8.79143 11.1058C8.02729 10.3418 7.5974 9.30596 7.59607 8.22544C7.59687 7.14457 8.02652 6.10818 8.79072 5.34379C9.55492 4.57941 10.5912 4.1495 11.6721 4.14844C12.7531 4.14923 13.7897 4.57903 14.5541 5.34344C15.3185 6.10785 15.7483 7.14439 15.7491 8.22544C15.7477 9.30613 15.3177 10.3422 14.5534 11.1061C13.789 11.8701 12.7528 12.2996 11.6721 12.3004ZM10.0231 15.6254C9.18449 15.4345 8.38423 15.1031 7.65607 14.6454C7.38794 14.4768 7.19779 14.2085 7.12747 13.8996C7.05714 13.5907 7.11239 13.2666 7.28107 12.9984C7.44975 12.7303 7.71803 12.5402 8.02691 12.4698C8.33578 12.3995 8.65994 12.4548 8.92807 12.6234C9.75093 13.1382 10.702 13.4111 11.6726 13.4111C12.6432 13.4111 13.5942 13.1382 14.4171 12.6234C14.6852 12.4548 15.0094 12.3995 15.3182 12.4698C15.6271 12.5402 15.8954 12.7303 16.0641 12.9984C16.2327 13.2666 16.288 13.5907 16.2177 13.8996C16.1474 14.2085 15.9572 14.4768 15.6891 14.6454C14.9608 15.1029 14.1606 15.4342 13.3221 15.6254L15.6011 17.9054C15.7119 18.0164 15.7998 18.1481 15.8597 18.2931C15.9197 18.438 15.9505 18.5933 15.9504 18.7501C15.9503 18.907 15.9193 19.0623 15.8592 19.2071C15.7991 19.352 15.711 19.4836 15.6001 19.5944C15.4891 19.7053 15.3574 19.7932 15.2125 19.8531C15.0675 19.913 14.9122 19.9438 14.7554 19.9437C14.5985 19.9436 14.4432 19.9127 14.2984 19.8526C14.1535 19.7925 14.0219 19.7044 13.9111 19.5934L11.6731 17.3534L9.43307 19.5934C9.2091 19.8174 8.90532 19.9432 8.58857 19.9432C8.27182 19.9432 7.96805 19.8174 7.74407 19.5934C7.5201 19.3695 7.39427 19.0657 7.39427 18.7489C7.39427 18.4322 7.5201 18.1284 7.74407 17.9044L10.0231 15.6254Z" fill="white"/>
</svg>
