<svg width="40" height="40" viewBox="0 0 40 40" fill="none" xmlns="http://www.w3.org/2000/svg">
<path d="M12.0571 27.8008C10.5507 27.8008 9.43115 27.4244 8.69832 26.6716C8.00621 25.9189 7.66016 24.957 7.66016 23.786V22.7196C7.66016 21.7159 7.80265 20.6704 8.08764 19.5831C8.41334 18.4957 8.84082 17.4293 9.37008 16.3838C9.89934 15.3383 10.5304 14.3346 11.2632 13.3727C11.996 12.4109 12.8103 11.5535 13.706 10.8008H18.4082C17.1462 12.0972 16.0876 13.3727 15.2327 14.6274C14.4184 15.8401 13.8077 17.1993 13.4006 18.7048C14.4591 18.9139 15.2327 19.3949 15.7212 20.1476C16.2098 20.8586 16.4541 21.695 16.4541 22.6569V23.786C16.4541 24.957 16.0876 25.9189 15.3548 26.6716C14.6627 27.4244 13.5635 27.8008 12.0571 27.8008ZM25.309 27.8008C23.8027 27.8008 22.6831 27.4244 21.9502 26.6716C21.2581 25.9189 20.9121 24.957 20.9121 23.786V22.7196C20.9121 21.7159 21.0546 20.6704 21.3395 19.5831C21.6652 18.4957 22.0927 17.4293 22.622 16.3838C23.1513 15.3383 23.7823 14.3346 24.5151 13.3727C25.2479 12.4109 26.0622 11.5535 26.9579 10.8008H31.6602C30.3981 12.0972 29.3395 13.3727 28.4846 14.6274C27.6703 15.8401 27.0596 17.1993 26.6525 18.7048C27.711 18.9139 28.4846 19.3949 28.9731 20.1476C29.4617 20.8586 29.706 21.695 29.706 22.6569V23.786C29.706 24.957 29.3396 25.9189 28.6067 26.6716C27.9146 27.4244 26.8154 27.8008 25.309 27.8008Z" fill="white"/>
</svg>
