<svg width="32" height="32" viewBox="0 0 32 32" fill="none" xmlns="http://www.w3.org/2000/svg">
<circle cx="16" cy="16" r="16" fill="#0ABEB9"/>
<path d="M11.2491 17.6446L19.6789 25.0628C19.7764 25.1486 19.8946 25.2076 20.0218 25.234C20.149 25.2605 20.2809 25.2534 20.4045 25.2135C20.5282 25.1737 20.6394 25.1024 20.7272 25.0066C20.815 24.9108 20.8764 24.7939 20.9054 24.6673L24.4317 9.27983C24.4622 9.14679 24.4558 9.00796 24.4132 8.87828C24.3706 8.74861 24.2934 8.63302 24.19 8.54396C24.0866 8.4549 23.9608 8.39576 23.8262 8.3729C23.6917 8.35004 23.5534 8.36433 23.4264 8.41424L6.1242 15.2115C5.97341 15.2708 5.84585 15.3773 5.76062 15.515C5.67538 15.6528 5.63706 15.8145 5.65137 15.9759C5.66569 16.1372 5.73187 16.2896 5.84002 16.4103C5.94818 16.5309 6.09248 16.6133 6.25135 16.645L11.2491 17.6446Z" stroke="#2F2F2F" stroke-width="1.5" stroke-linecap="round" stroke-linejoin="round"/>
<path d="M11.25 17.6446L24.0105 8.42871" stroke="#2F2F2F" stroke-width="1.5" stroke-linecap="round" stroke-linejoin="round"/>
<path d="M15.46 21.3494L12.5303 24.2791C12.4254 24.384 12.2918 24.4554 12.1463 24.4843C12.0008 24.5133 11.85 24.4984 11.713 24.4416C11.5759 24.3849 11.4588 24.2888 11.3764 24.1654C11.294 24.0421 11.25 23.8971 11.25 23.7487V17.6445" stroke="#2F2F2F" stroke-width="1.5" stroke-linecap="round" stroke-linejoin="round"/>
</svg>
