<svg width="24" height="24" viewBox="0 0 24 24" fill="none" xmlns="http://www.w3.org/2000/svg">
<rect width="24" height="24" rx="8" fill="#00ACED"/>
<path fill-rule="evenodd" clip-rule="evenodd" d="M20 6.54265C19.401 6.80815 18.7656 6.98242 18.115 7.05965C18.8003 6.64929 19.3131 6.00392 19.558 5.24365C18.9134 5.62586 18.2083 5.89507 17.473 6.03965C16.9788 5.51159 16.324 5.16151 15.6104 5.04379C14.8968 4.92606 14.1643 5.04728 13.5266 5.38862C12.889 5.72996 12.3819 6.27231 12.0842 6.93143C11.7864 7.59055 11.7146 8.32955 11.88 9.03365C10.5748 8.96825 9.29789 8.62908 8.13225 8.03817C6.9666 7.44725 5.93827 6.61779 5.114 5.60365C4.69297 6.32596 4.56366 7.18179 4.7525 7.99625C4.94134 8.81071 5.43407 9.52231 6.13 9.98565C5.60875 9.96936 5.09894 9.8288 4.643 9.57565V9.61665C4.64338 10.3744 4.90573 11.1088 5.38558 11.6952C5.86544 12.2817 6.5333 12.6843 7.276 12.8347C6.79262 12.9653 6.28586 12.9845 5.794 12.8907C6.00361 13.5429 6.41183 14.1133 6.96156 14.5221C7.51129 14.9309 8.17505 15.1576 8.86 15.1707C8.17891 15.7052 7.39908 16.1003 6.56513 16.3331C5.73119 16.566 4.85952 16.6321 4 16.5277C5.50081 17.4926 7.24774 18.005 9.032 18.0037C15.07 18.0037 18.372 13.0037 18.372 8.66665C18.372 8.52365 18.368 8.38165 18.362 8.24165C19.0047 7.77685 19.5594 7.20118 20 6.54165V6.54265Z" fill="white"/>
</svg>
