<svg width="24" height="24" viewBox="0 0 24 24" fill="none" xmlns="http://www.w3.org/2000/svg">
<rect width="24" height="24" rx="8" fill="#4680C2"/>
<path fill-rule="evenodd" clip-rule="evenodd" d="M19.623 7.66C19.743 7.288 19.623 7.017 19.098 7.017H17.353C16.913 7.017 16.709 7.254 16.59 7.508C16.59 7.508 15.692 9.678 14.438 11.084C14.032 11.49 13.845 11.626 13.625 11.626C13.506 11.626 13.354 11.49 13.354 11.118V7.644C13.354 7.204 13.218 7 12.845 7H10.1C9.83 7 9.66 7.203 9.66 7.407C9.66 7.83 10.287 7.932 10.354 9.118V11.694C10.354 12.253 10.253 12.354 10.032 12.354C9.439 12.354 7.999 10.169 7.135 7.678C6.965 7.186 6.796 7 6.355 7H4.593C4.085 7 4 7.237 4 7.491C4 7.949 4.593 10.253 6.762 13.304C8.202 15.388 10.252 16.506 12.1 16.506C13.218 16.506 13.354 16.252 13.354 15.828V14.253C13.354 13.744 13.455 13.659 13.811 13.659C14.065 13.659 14.523 13.795 15.557 14.795C16.743 15.981 16.947 16.523 17.607 16.523H19.352C19.861 16.523 20.098 16.269 19.962 15.778C19.81 15.286 19.234 14.575 18.488 13.728C18.081 13.253 17.471 12.728 17.285 12.473C17.031 12.134 17.099 11.999 17.285 11.693C17.268 11.693 19.403 8.678 19.623 7.661" fill="white"/>
</svg>
