<svg width="184" height="51" viewBox="0 0 184 51" fill="none" xmlns="http://www.w3.org/2000/svg">
<path fill-rule="evenodd" clip-rule="evenodd" d="M183.327 0C180.368 3.0842 177.181 3.48106 174.256 3.86658L172.839 4.04801C171.301 4.07139 169.8 4.51445 168.496 5.32931C166.818 6.60982 165.346 8.13936 164.13 9.86489C160.028 10.6112 156.083 12.049 152.463 14.117C147.653 17.1427 143.368 20.9302 139.774 25.3312L136.883 28.8803L137.427 28.7216C142.722 23.551 147.7 19.8318 152.463 17.5981C155.161 16.2187 158.082 15.3281 161.091 14.9674H161.182L164.21 10.7947C165.248 9.9664 166.544 9.52898 167.872 9.55874L170.911 9.33196L173.485 9.19589L174.347 9.11652C176.365 8.81037 178.077 8.34547 180.492 4.94378L183.69 0.306152L183.327 0ZM161.931 13.0625C161.931 13.0625 161.069 14.2984 160.91 14.4458C158.002 14.8966 155.173 15.7595 152.508 17.0084C148.402 19.04 144.588 21.6143 141.169 24.6622C144.392 20.7969 148.222 17.4805 152.508 14.8427C155.99 12.7775 159.81 11.3419 163.79 10.6019C163.484 10.8967 161.931 13.0625 161.931 13.0625ZM180.073 4.63763C177.805 7.88057 176.252 8.34547 174.313 8.58359L173.53 8.65162L170.888 8.81037L167.815 9.07116C166.781 9.14675 165.773 9.43634 164.856 9.92158C165.977 8.34621 167.291 6.91769 168.768 5.66948C170.014 4.9893 171.398 4.60154 172.816 4.53558H173.485L174.347 4.45621C177.15 4.26829 179.847 3.30665 182.137 1.67817C181.229 3.01616 180.062 4.63763 180.062 4.63763H180.073Z" fill="#1D1D1B"/>
<path fill-rule="evenodd" clip-rule="evenodd" d="M137.199 28.5971C146.463 21.4876 151.373 18.6982 162.338 18.5508L160.002 21.9525C159.847 22.2953 159.574 22.5704 159.232 22.7268C158.89 22.8832 158.502 22.9102 158.142 22.8029C150.273 22.7349 144.83 23.3472 135.328 30.6154L137.199 28.5971Z" fill="url(#paint0_linear_1183_7847)"/>
<path fill-rule="evenodd" clip-rule="evenodd" d="M137.746 28.0061C146.817 19.3772 154.471 15.5333 161.127 14.6489C161.751 13.8778 163.803 10.9977 164.427 10.1133C149.38 12.7326 142.474 23.1304 137.746 28.0061Z" fill="url(#paint1_linear_1183_7847)"/>
<path fill-rule="evenodd" clip-rule="evenodd" d="M137.71 28.0515C137.585 28.1762 137.29 28.539 136.995 28.8225C136.904 28.9132 136.746 29.1173 136.734 29.1287C139.431 26.8747 142.297 24.8314 145.307 23.017C149.263 20.8115 153.611 19.398 158.108 18.8556C158.653 18.2319 160.376 15.8961 161.113 14.6602C150.806 16.2023 143.935 22.2573 137.71 28.0515Z" fill="url(#paint2_linear_1183_7847)"/>
<path fill-rule="evenodd" clip-rule="evenodd" d="M159.879 22.3267C159.959 21.9412 160.197 21.635 159.097 20.9433C157.702 20.0929 157.226 20.4784 157.543 19.628C157.861 18.7776 160.662 17.7004 162.839 18.4941C161.773 19.7084 160.785 20.9884 159.879 22.3267Z" fill="url(#paint3_linear_1183_7847)"/>
<path fill-rule="evenodd" clip-rule="evenodd" d="M167.998 9.07204C165.81 9.31016 164.495 9.92246 163.633 10.9997L160.719 15.2064C161.41 14.5941 163.327 14.2539 165.424 14.2539H165.969C166.286 14.2539 166.592 14.1746 166.898 14.1746C169.937 14.0952 174.065 13.6303 176.559 10.6141L180.176 5.39822L180.585 4.80859C177.387 9.17409 170.255 8.73187 167.998 9.07204Z" fill="url(#paint4_linear_1183_7847)"/>
<path fill-rule="evenodd" clip-rule="evenodd" d="M173.487 4.25156C171.825 4.26667 170.194 4.69118 168.736 5.48751C166.797 7.02967 165.117 8.87075 163.758 10.9415C164.699 9.80765 166.094 9.5015 167.965 9.27472C169.835 9.04794 172.5 9.11598 174.428 8.80982C176.355 8.50367 178.022 8.18618 180.29 4.79584L183.567 0.158203C180.222 3.62792 176.559 3.78667 173.487 4.25156Z" fill="url(#paint5_linear_1183_7847)"/>
<path fill-rule="evenodd" clip-rule="evenodd" d="M169.709 13.7538C167.441 14.06 164.878 14.1394 164.107 14.2187C162.876 14.1906 161.673 14.5914 160.705 15.3526C159.544 16.7236 158.476 18.1706 157.508 19.6841C158.358 18.8337 161.25 18.9131 164.753 18.7543C166.654 18.6376 168.51 18.1231 170.199 17.2442C171.889 16.3652 173.375 15.1414 174.562 13.6518L176.682 10.5449C175.253 12.4725 172.747 13.2889 169.709 13.7538Z" fill="url(#paint6_linear_1183_7847)"/>
<path d="M63.043 46.0582C68.4119 46.9178 73.8331 47.4103 79.269 47.5323C87.205 47.7287 95.1429 47.2241 102.99 46.0242C110.133 45.0006 117.137 43.167 123.865 40.5588C126.886 39.4315 129.714 37.8401 132.245 35.8418C129.631 38.1594 126.659 40.0395 123.446 41.4092C116.408 44.5455 109.03 46.8515 101.459 48.2806C93.4371 49.8783 85.2828 50.7211 77.1033 50.7979C72.2226 50.8783 67.3432 50.575 62.5101 49.8908C57.4015 49.2459 52.457 47.658 47.9282 45.2078C44.9233 43.4162 43.9142 41.8061 44.2317 41.4773C44.5492 41.1484 46.0572 41.8514 49.0961 42.8379C53.6501 44.2874 58.3145 45.3644 63.043 46.0582Z" fill="#EE7203"/>
<path fill-rule="evenodd" clip-rule="evenodd" d="M95.201 23.3818L99.816 13.789H99.9067L105.009 23.3818H110.259L103.49 10.9883H99.0449L92.9219 23.3818H95.201Z" fill="#004A93"/>
<path fill-rule="evenodd" clip-rule="evenodd" d="M22.5637 17.9733L29.8093 17.8826C29.7984 18.4744 29.6625 19.0571 29.4104 19.5926C29.1583 20.128 28.7958 20.6041 28.3466 20.9895C27.2515 21.7388 25.9414 22.1092 24.6161 22.044C23.4602 22.0984 22.3136 21.8147 21.3165 21.2276C20.6062 20.7902 19.9864 20.2205 19.4909 19.5495L19.1621 19.0505L16.7695 20.4112C17.5846 21.3443 18.5697 22.1139 19.6723 22.679C21.3226 23.4947 23.1508 23.8845 24.9903 23.8129C27.0653 23.8129 30.2969 23.5181 32.6441 21.7265C33.3585 21.2184 33.9453 20.5516 34.3585 19.7784C34.7717 19.0051 34.9999 18.1466 35.0252 17.2703C35.0016 16.3921 34.7742 15.5313 34.361 14.756C33.9478 13.9807 33.36 13.312 32.6441 12.8028C30.3949 11.3239 27.736 10.5936 25.047 10.7164C23.3907 10.6685 21.7403 10.9339 20.1826 11.4988C18.9204 11.9488 17.763 12.651 16.7809 13.5625L19.1394 14.9118L19.7063 14.2882C20.2661 13.7102 20.9425 13.2579 21.6906 12.9615C22.6304 12.5541 23.649 12.3604 24.6728 12.3946C25.3918 12.3424 26.114 12.436 26.796 12.6698C27.478 12.9037 28.1057 13.2728 28.6414 13.7553C29.3027 14.431 29.7043 15.3184 29.7753 16.2612L22.5297 16.1478L22.5637 17.9733Z" fill="#004A93"/>
<path fill-rule="evenodd" clip-rule="evenodd" d="M118.607 12.1546C119.287 12.111 119.967 12.235 120.588 12.5158C121.209 12.7965 121.751 13.2254 122.167 13.7647C122.867 14.756 123.211 15.955 123.143 17.1664C123.211 18.3779 122.867 19.5768 122.167 20.5681C121.723 21.0743 121.175 21.4799 120.561 21.7577C119.947 22.0355 119.281 22.1792 118.607 22.1792C117.933 22.1792 117.267 22.0355 116.653 21.7577C116.039 21.4799 115.491 21.0743 115.047 20.5681C114.352 19.5745 114.008 18.3773 114.071 17.1664C114.008 15.9556 114.352 14.7584 115.047 13.7647C115.463 13.2254 116.005 12.7965 116.626 12.5158C117.247 12.235 117.927 12.111 118.607 12.1546ZM118.607 23.743C121.204 23.8126 123.761 23.0845 125.932 21.6566C126.647 21.1472 127.235 20.4806 127.652 19.7081C128.069 18.9355 128.303 18.0776 128.336 17.2004C128.302 16.3219 128.068 15.4626 127.651 14.6884C127.234 13.9141 126.646 13.2453 125.932 12.7329C123.759 11.3097 121.204 10.582 118.607 10.6465C116.004 10.5881 113.443 11.3151 111.259 12.7329C110.543 13.2434 109.954 13.9119 109.537 14.6865C109.12 15.4612 108.887 16.3213 108.855 17.2004C108.881 18.0768 109.109 18.9352 109.522 19.7085C109.935 20.4817 110.522 21.1485 111.237 21.6566C113.418 23.0796 115.98 23.8071 118.584 23.743" fill="#004A93"/>
<path fill-rule="evenodd" clip-rule="evenodd" d="M79.0236 14.1171C79.5037 13.9624 80.0047 13.8821 80.509 13.879H81.0647V20.3195H80.509C79.9966 20.3242 79.487 20.2437 79.001 20.0814C78.6123 19.9774 78.2519 19.7876 77.9464 19.5258C77.6045 19.2229 77.3368 18.8456 77.1638 18.423C76.9908 18.0003 76.9172 17.5435 76.9486 17.0879C76.9306 16.645 77.013 16.2038 77.1897 15.7973C77.3665 15.3908 77.6329 15.0296 77.9691 14.7407C78.2737 14.4752 78.6341 14.2814 79.0236 14.1738V14.1171ZM87.5392 21.9523C89.2043 21.9386 90.8374 21.4932 92.2789 20.6596C92.8925 20.3014 93.401 19.788 93.7533 19.171C94.1056 18.554 94.2893 17.8551 94.2859 17.1446C94.2853 16.4318 94.1001 15.7313 93.7484 15.1113C93.3967 14.4913 92.8904 13.973 92.2789 13.6068C90.834 12.7813 89.2031 12.3365 87.5392 12.3142C87.063 12.3142 86.5981 12.3142 86.1332 12.3142H85.6229V10.5566H80.9173V12.2575H80.4297C79.9648 12.2575 79.4885 12.2575 79.0236 12.2575C77.3538 12.2905 75.7209 12.7554 74.284 13.6068C73.6776 13.9685 73.1738 14.4792 72.8205 15.0905C72.4673 15.7018 72.2762 16.3933 72.2656 17.0992C72.2646 17.8106 72.4504 18.5098 72.8047 19.1267C73.1589 19.7436 73.669 20.2566 74.284 20.6143C75.7224 21.4552 77.3575 21.9011 79.0236 21.9069C79.4545 21.9069 79.9194 21.9069 80.4297 21.9069H80.9173V23.7098H85.6229V21.9409H86.1785C86.6774 21.9409 87.1537 21.9409 87.5846 21.9409L87.5392 21.9523ZM87.5846 14.1624C87.973 14.2729 88.3327 14.4663 88.6391 14.7294C88.9624 15.027 89.2149 15.3935 89.3777 15.8016C89.5406 16.2098 89.6098 16.6494 89.5802 17.0879C89.6117 17.5435 89.5381 18.0003 89.3651 18.423C89.1921 18.8456 88.9243 19.2229 88.5824 19.5258C88.2754 19.7854 87.9156 19.975 87.5279 20.0814C87.0338 20.243 86.5169 20.3234 85.9971 20.3195H85.4642V13.879H85.9971C86.5164 13.8807 87.0325 13.9609 87.5279 14.1171" fill="#004A93"/>
<path fill-rule="evenodd" clip-rule="evenodd" d="M61.5144 12.1556C62.1957 12.114 62.8769 12.2389 63.4991 12.5194C64.1214 12.8 64.6661 13.2277 65.0861 13.7657C65.781 14.7593 66.1242 15.9565 66.0613 17.1674C66.1242 18.3782 65.781 19.5754 65.0861 20.5691C64.6392 21.0758 64.0896 21.4817 63.4738 21.7597C62.8579 22.0377 62.19 22.1814 61.5144 22.1814C60.8387 22.1814 60.1708 22.0377 59.5549 21.7597C58.9391 21.4817 58.3895 21.0758 57.9426 20.5691C57.2461 19.5767 56.9063 18.3776 56.9788 17.1674C56.9054 15.957 57.2452 14.7577 57.9426 13.7657C58.362 13.2269 58.9065 12.7987 59.529 12.5181C60.1514 12.2375 60.8329 12.1131 61.5144 12.1556ZM61.5144 23.744C64.1151 23.8108 66.6743 23.083 68.8507 21.6576C69.5547 21.1411 70.1327 20.4718 70.5411 19.7001C70.9496 18.9283 71.178 18.074 71.2092 17.2014C71.1772 16.3273 70.9486 15.4717 70.5402 14.6982C70.1319 13.9247 69.5544 13.2533 68.8507 12.7339C66.6465 11.3706 64.1061 10.6484 61.5144 10.6484C58.9227 10.6484 56.3822 11.3706 54.1781 12.7339C53.4659 13.2468 52.8809 13.9163 52.4681 14.6908C52.0553 15.4653 51.8256 16.3242 51.7969 17.2014C51.8222 18.0777 52.0504 18.9362 52.4636 19.7094C52.8768 20.4826 53.4636 21.1495 54.1781 21.6576C56.3538 23.0843 58.9135 23.8123 61.5144 23.744Z" fill="#004A93"/>
<path fill-rule="evenodd" clip-rule="evenodd" d="M43.7805 18.8348H44.6536C46.3574 18.9716 48.0663 18.6424 49.5974 17.8824C50.1309 17.5799 50.5727 17.1389 50.8761 16.606C51.1795 16.073 51.3332 15.468 51.3209 14.8549C51.3336 14.2477 51.1796 13.6488 50.8758 13.123C50.5719 12.5972 50.1297 12.1648 49.5974 11.8727C48.4635 11.2037 46.9781 10.9883 44.4495 10.9883H36.4102V23.3818H41.1045V18.8462L43.7805 18.8348ZM43.7805 12.8932C44.4191 12.8869 45.0483 13.0471 45.606 13.3581C45.8686 13.5208 46.0852 13.7479 46.2355 14.0177C46.3857 14.2876 46.4646 14.5914 46.4646 14.9002C46.4646 15.2091 46.3857 15.5128 46.2355 15.7827C46.0852 16.0526 45.8686 16.2796 45.606 16.4423C45.0689 16.7699 44.4548 16.9499 43.8258 16.9639H41.1045V12.8592H43.2816C43.4475 12.8438 43.6145 12.8438 43.7805 12.8592" fill="#004A93"/>
<path fill-rule="evenodd" clip-rule="evenodd" d="M7.38166 13.9024L9.72882 18.1432H5.04583L7.31362 13.8344L7.38166 13.9024ZM10.6813 19.81L12.6996 23.3818H17.9496L10.8287 10.9883H6.47454L0 23.3818H2.33582L4.19541 19.81H10.6813Z" fill="#004A93"/>
<path fill-rule="evenodd" clip-rule="evenodd" d="M127.586 12.8592H132.632V23.3818H137.337V12.8592H142.406V10.9883H127.586V12.8592Z" fill="#004A93"/>
<path fill-rule="evenodd" clip-rule="evenodd" d="M6.16839 35.435L4.83039 34.8227L10.3751 34.1084C10.4659 34.2785 10.5679 34.4259 10.67 34.5846L6.16839 35.435ZM21.0338 35.435L22.3718 34.7887L16.861 34.0857C16.792 34.2677 16.6923 34.4364 16.5662 34.5846L21.0338 35.435ZM20.2287 35.5371L18.5505 36.1267L16.1693 35.367L15.9652 35.299C16.0418 35.2316 16.1103 35.1555 16.1693 35.0722C16.2601 34.9928 16.3508 34.8681 16.4415 34.7887L20.2287 35.5371ZM24.6509 33.8816L23.1201 34.63L17.0084 33.8816C17.0084 33.7229 17.1105 33.5755 17.1558 33.4167L24.6509 33.8816ZM25.2065 33.6548L27.2135 32.3168H16.3734C16.387 32.7419 16.3177 33.1655 16.1693 33.5641C15.9764 34.0793 15.6235 34.5192 15.1623 34.8192C14.7011 35.1191 14.1559 35.2635 13.6067 35.2309C13.0815 35.2123 12.5715 35.0503 12.1317 34.7624C11.692 34.4746 11.3394 34.072 11.1122 33.5981C10.9343 33.1947 10.8454 32.7577 10.8514 32.3168H0L1.98432 33.6548L10.2731 33.2013C10.4149 33.7925 10.7035 34.3385 11.1122 34.7887C11.4349 35.1422 11.8269 35.4253 12.264 35.6204C12.701 35.8155 13.1735 35.9184 13.6521 35.9226C14.1306 35.9396 14.6065 35.8461 15.0431 35.6494C15.4796 35.4528 15.865 35.1583 16.1693 34.7887C16.5682 34.3447 16.8558 33.8123 17.0084 33.2353L25.2065 33.6548ZM16.1353 37.1359L16.3394 37.5441L16.1353 37.6575L15.5684 37.9183L14.9334 36.5689C14.5131 36.7305 14.0682 36.8187 13.6181 36.8297C13.1372 36.848 12.6569 36.7788 12.2007 36.6256L11.6564 37.9183C11.4564 37.9486 11.252 37.9086 11.0782 37.8049C11.0303 37.7764 10.9887 37.7386 10.9556 37.6939C10.9225 37.6491 10.8986 37.5982 10.8854 37.5441L11.0782 37.2039L11.5431 36.3195C11.3971 36.2313 11.2604 36.1287 11.1349 36.0133L11.5317 35.5144C12.1475 35.9351 12.8725 36.1675 13.6181 36.1834C14.3752 36.1935 15.1124 35.9411 15.7044 35.4691L16.1353 35.6051L16.3168 35.6732L16.1353 35.8206C16.0141 35.9836 15.8595 36.1189 15.6818 36.2174L16.1353 37.1359ZM16.1353 30.1624C16.5707 30.7293 16.8694 31.3889 17.0084 32.0901H16.3168C16.2713 31.8694 16.2068 31.6532 16.124 31.4437C15.6228 30.2076 14.7412 29.1632 13.6067 28.4616C13.4707 28.3709 13.3346 28.2688 13.1872 28.1895L13.6067 28.3482C14.5897 28.7231 15.4575 29.3485 16.124 30.1624H16.1353ZM14.2531 34.9701C14.4978 34.9244 14.7275 34.8193 14.9221 34.664L13.7882 32.3962L14.9221 31.8179L13.9583 30.9335L13.5614 31.1262L11.9059 31.92L12.3935 33.0539L13.1759 32.6797L14.2531 34.9701ZM11.339 35.299L11.1122 35.1516C10.9934 35.0393 10.8834 34.918 10.7833 34.7887L7.00747 35.5484L8.6176 36.1267L11.339 35.299ZM10.3071 33.8816C10.2504 33.7229 10.1937 33.5755 10.1484 33.4167L2.57394 33.8816L4.1047 34.664L10.3071 33.8816Z" fill="#004A93"/>
<path d="M43.2931 30.1739C43.8284 30.1259 44.3613 30.2886 44.7785 30.6274C44.9019 30.7706 44.9914 30.9398 45.0405 31.1224C45.0896 31.3049 45.0969 31.4962 45.0619 31.682C45.0211 32.0235 44.9117 32.3532 44.7402 32.6513C44.5688 32.9495 44.3388 33.2098 44.0641 33.4168C43.5355 33.7961 42.9005 33.9985 42.2499 33.9951H40.9005L39.9934 36.9206H39.0977L41.1727 30.1172L43.2931 30.1739ZM41.1273 33.2241H42.4653C42.8273 33.2306 43.1815 33.1192 43.4745 32.9066C43.7979 32.6346 44.0148 32.2571 44.0868 31.8407C44.1118 31.7288 44.1116 31.6127 44.0861 31.5009C44.0606 31.3891 44.0105 31.2844 43.9394 31.1944C43.8337 31.104 43.7111 31.0354 43.5788 30.9926C43.4465 30.9498 43.307 30.9336 43.1683 30.9449H41.8417L41.1273 33.2241Z" fill="#004A93"/>
<path d="M49.1405 32.7457C49.309 33.0984 49.3607 33.4956 49.2879 33.8796C49.1763 34.8516 48.722 35.7521 48.0066 36.4195C47.5517 36.8025 46.9796 37.0186 46.3851 37.0319C46.1391 37.0573 45.8909 37.0134 45.6685 36.9052C45.4461 36.797 45.2584 36.6288 45.1265 36.4195C44.9459 36.0707 44.8899 35.6707 44.9678 35.2857C45.0785 34.3012 45.5369 33.3885 46.2604 32.7117C46.715 32.3296 47.2881 32.1171 47.8819 32.1107C48.1262 32.0893 48.3719 32.1337 48.5933 32.2394C48.8146 32.3451 49.0036 32.5082 49.1405 32.7117V32.7457ZM48.2901 34.3332C48.4726 33.9262 48.5008 33.4668 48.3695 33.0405C48.2976 32.9315 48.1973 32.8443 48.0793 32.7883C47.9614 32.7324 47.8303 32.7098 47.7005 32.723C47.3556 32.7262 47.0258 32.8646 46.782 33.1086C46.4542 33.4501 46.2233 33.8728 46.113 34.3332L45.9769 34.7527C45.8749 35.0929 45.6821 35.6825 45.8976 36.0454C45.967 36.1574 46.0666 36.2476 46.1849 36.3057C46.3032 36.3639 46.4354 36.3876 46.5666 36.3742C46.8867 36.3681 47.195 36.252 47.4397 36.0454C47.8036 35.6954 48.0561 35.2457 48.1654 34.7527L48.2901 34.3332Z" fill="#004A93"/>
<path d="M53.2232 36.5559C53.021 36.659 52.8127 36.7498 52.5996 36.828C52.2372 36.9633 51.8524 37.0287 51.4657 37.0208C51.2441 37.037 51.0217 37.0026 50.8154 36.9201C50.6091 36.8375 50.4243 36.7091 50.2751 36.5445C50.0549 36.1808 49.9667 35.7523 50.0256 35.3312C50.1486 34.2303 50.7032 33.2232 51.5677 32.5305C51.9966 32.2761 52.4865 32.1429 52.9851 32.145C53.3074 32.1375 53.6255 32.2199 53.9035 32.3831C54.0201 32.4608 54.1112 32.5709 54.1657 32.7C54.2201 32.829 54.2354 32.9712 54.2097 33.1088C54.1713 33.302 54.1064 33.489 54.0169 33.6644H53.2459C53.3147 33.5559 53.3576 33.4329 53.3714 33.3051C53.3851 33.1774 53.3694 33.0481 53.3253 32.9274C53.2509 32.8438 53.1574 32.7795 53.0527 32.74C52.948 32.7005 52.8353 32.687 52.7243 32.7006C52.485 32.6964 52.2493 32.7592 52.044 32.882C51.6027 33.1855 51.2975 33.6493 51.1935 34.1747L51.0008 34.787C50.8692 35.1535 50.8692 35.5544 51.0008 35.9209C51.0842 36.0613 51.2073 36.1739 51.3546 36.2446C51.5019 36.3152 51.6668 36.3406 51.8285 36.3177C52.0752 36.3229 52.3209 36.2845 52.5542 36.2043C52.7565 36.1495 52.9538 36.0774 53.1438 35.9889L53.2232 36.5559Z" fill="#004A93"/>
<path d="M57.9085 36.5559C57.7053 36.657 57.4972 36.7478 57.2849 36.828C56.9218 36.9608 56.5375 37.0261 56.151 37.0208C55.9386 37.0301 55.7267 36.9921 55.5306 36.9098C55.3346 36.8275 55.1592 36.7027 55.0171 36.5446C54.7884 36.1841 54.6959 35.7539 54.7563 35.3313C54.8841 34.2319 55.4377 33.2264 56.2984 32.5306C56.7273 32.2762 57.2171 32.1429 57.7158 32.145C58.0417 32.1372 58.3635 32.2196 58.6456 32.3832C58.759 32.4632 58.847 32.5742 58.8993 32.7028C58.9515 32.8314 58.9658 32.9724 58.9404 33.1089C58.9072 33.3034 58.842 33.4911 58.7476 33.6645H57.9766C58.0454 33.5559 58.0883 33.433 58.1021 33.3052C58.1158 33.1774 58.1 33.0482 58.0559 32.9274C57.9822 32.8431 57.8887 32.7782 57.7839 32.7387C57.6791 32.6991 57.5661 32.686 57.455 32.7007C57.2195 32.6979 56.9878 32.7607 56.786 32.8821C56.3422 33.1851 56.0332 33.6485 55.9242 34.1747L55.7428 34.787C55.5988 35.1513 55.5988 35.5567 55.7428 35.9209C55.8254 36.0594 55.9467 36.1707 56.0917 36.2412C56.2368 36.3117 56.3992 36.3383 56.5592 36.3178C56.8096 36.3229 57.059 36.2845 57.2962 36.2044C57.4943 36.1476 57.6876 36.0756 57.8745 35.9889L57.9085 36.5559Z" fill="#004A93"/>
<path d="M62.9986 36.9193H62.1936L63.3275 33.2568L60.0618 36.9193H59.1094L60.5494 32.2363H61.3545L60.2319 35.8988L63.4862 32.2363H64.45L62.9986 36.9193Z" fill="#004A93"/>
<path d="M68.6451 36.9193H67.84L68.9739 33.2568L65.765 36.9193H64.8125L66.2525 32.2363H67.0576L65.9237 35.8988L69.1667 32.2363H70.1305L68.6451 36.9193ZM69.9717 30.252L69.9037 30.5468C69.8619 30.71 69.7842 30.8619 69.6763 30.9913C69.5685 31.1208 69.4331 31.2246 69.28 31.2951C69.0032 31.4489 68.6894 31.5235 68.3729 31.5106C68.0945 31.5377 67.8158 31.461 67.5905 31.2951C67.5124 31.2298 67.4525 31.1453 67.4168 31.0499C67.381 30.9545 67.3705 30.8515 67.3864 30.7509C67.4093 30.5732 67.4713 30.4028 67.5679 30.252H68.2028V30.3653C68.164 30.4326 68.1436 30.5088 68.1436 30.5865C68.1436 30.6641 68.164 30.7403 68.2028 30.8076C68.2523 30.8545 68.3114 30.89 68.3761 30.9116C68.4407 30.9331 68.5093 30.9402 68.577 30.9323C68.7347 30.9463 68.8921 30.9019 69.0193 30.8076C69.164 30.7019 69.268 30.5498 69.3141 30.3767V30.252H69.9717Z" fill="#004A93"/>
<path d="M73.7058 36.5556C73.5075 36.6589 73.303 36.7498 73.0935 36.8277C72.7304 36.9605 72.3461 37.0258 71.9596 37.0205C71.7471 37.0298 71.5353 36.9919 71.3392 36.9095C71.1432 36.8272 70.9678 36.7024 70.8257 36.5443C70.597 36.1838 70.5045 35.7536 70.5649 35.331C70.6927 34.2316 71.2463 33.2261 72.107 32.5303C72.5359 32.2759 73.0257 32.1426 73.5244 32.1447C73.85 32.1398 74.171 32.222 74.4542 32.3829C74.5677 32.4624 74.6552 32.5737 74.7056 32.7028C74.7561 32.832 74.7672 32.9731 74.7376 33.1086C74.7134 33.3037 74.6518 33.4923 74.5562 33.6642H73.7852C73.8985 33.3807 73.9779 33.1086 73.8532 32.9271C73.7285 32.7457 73.6037 32.7004 73.2636 32.7004C73.0247 32.699 72.7897 32.7616 72.5832 32.8818C72.142 33.1852 71.8368 33.6491 71.7328 34.1744L71.5514 34.7867C71.4074 35.151 71.4074 35.5564 71.5514 35.9206C71.6308 36.0907 71.8349 36.3175 72.3678 36.3175C72.6145 36.3227 72.8601 36.2843 73.0935 36.2041C73.2927 36.1511 73.4864 36.0789 73.6718 35.9886L73.7058 36.5556Z" fill="#004A93"/>
<path d="M77.8665 36.9198L77.6624 35.4457C77.6577 35.2537 77.5944 35.0677 77.481 34.9128C77.4244 34.8621 77.3578 34.8238 77.2856 34.8003C77.2133 34.7769 77.137 34.7689 77.0614 34.7767H76.4037L75.7461 36.9198H74.9297L76.3811 32.2368H77.1861L76.6192 34.0964H77.1861C77.3908 34.1055 77.5931 34.05 77.7644 33.9376C77.9108 33.8087 78.0336 33.6552 78.1273 33.4841L78.4674 32.9511C78.6203 32.6247 78.8805 32.3606 79.2045 32.2028C79.3322 32.1824 79.4623 32.1824 79.59 32.2028C79.7217 32.1854 79.8551 32.1854 79.9869 32.2028L79.7147 32.8831C79.605 32.8423 79.4843 32.8423 79.3746 32.8831C79.2668 32.9789 79.1783 33.0943 79.1138 33.2233L78.853 33.6315C78.7655 33.8152 78.6407 33.9787 78.4864 34.1115C78.3322 34.2443 78.1519 34.3434 77.9572 34.4025C78.1171 34.4448 78.2598 34.536 78.3654 34.6633C78.4594 34.8154 78.5212 34.9852 78.5468 35.1622L78.7963 36.8858L77.8665 36.9198Z" fill="#004A93"/>
<path d="M83.6936 36.9193H82.8772L84.0111 33.2568L80.7454 36.9193H79.793L81.233 32.2363H82.0494L80.9155 35.8988L84.1698 32.2363H85.1336L83.6936 36.9193Z" fill="#004A93"/>
<path d="M86.62 34.9006C86.5016 35.2421 86.5016 35.6136 86.62 35.9551C86.7249 36.0924 86.8636 36.2001 87.0226 36.2677C87.1816 36.3353 87.3555 36.3604 87.5271 36.3406C87.7733 36.3389 88.0178 36.3006 88.2528 36.2272C88.4515 36.1724 88.6449 36.1003 88.8311 36.0118L88.9218 36.5561C88.7186 36.6571 88.5105 36.748 88.2982 36.8282C87.9346 36.959 87.5507 37.0243 87.1643 37.021C86.8967 37.0446 86.6279 36.9935 86.3876 36.8734C86.1474 36.7532 85.9452 36.5688 85.8036 36.3406C85.661 35.6964 85.6907 35.026 85.8897 34.3969C86.0888 33.7679 86.4502 33.2024 86.9375 32.7575C87.3521 32.3818 87.8863 32.1649 88.4456 32.1452C88.666 32.1262 88.8875 32.1666 89.0869 32.2623C89.2864 32.3581 89.4565 32.5056 89.5795 32.6895C89.6853 32.9953 89.7297 33.3189 89.7102 33.6419C89.6908 33.9649 89.6078 34.2809 89.4661 34.5718L89.4094 34.7759H86.654L86.62 34.9006ZM88.7404 34.1636V33.9708C88.8477 33.6701 88.8477 33.3416 88.7404 33.041C88.6902 32.9483 88.6142 32.8722 88.5216 32.8219C88.429 32.7716 88.3238 32.7492 88.2188 32.7575C88.0666 32.7521 87.9148 32.7775 87.7726 32.832C87.6304 32.8866 87.5006 32.9692 87.391 33.075C87.1023 33.3411 86.8941 33.6829 86.7901 34.0615V34.1636H88.7404Z" fill="#004A93"/>
<path d="M97.5151 36.3412C97.3279 36.5381 97.1096 36.7029 96.8688 36.8288C96.6145 36.9645 96.3291 37.0309 96.041 37.0215C95.7293 37.0477 95.4188 36.959 95.1679 36.7721C95.0472 36.6697 94.9561 36.5368 94.9043 36.3872C94.8524 36.2376 94.8416 36.0768 94.8731 35.9216C94.9084 35.6442 95.0051 35.3782 95.1561 35.1428C95.3072 34.9074 95.5088 34.7087 95.7462 34.561C96.2624 34.2657 96.8536 34.1278 97.4471 34.1641H98.1387L98.3315 33.5518C98.3848 33.4479 98.4047 33.33 98.3885 33.2143C98.3722 33.0986 98.3207 32.9907 98.2408 32.9055C98.0786 32.7837 97.8749 32.7307 97.6738 32.7581C97.4314 32.7533 97.191 32.8037 96.9708 32.9055C96.8657 32.9662 96.7743 33.0478 96.7021 33.1453C96.6299 33.2429 96.5786 33.3542 96.5513 33.4724H95.8369C95.8459 33.2665 95.9107 33.0669 96.0246 32.8951C96.1385 32.7233 96.2971 32.5857 96.4833 32.4973C96.923 32.2793 97.4101 32.1741 97.9006 32.1911C98.1189 32.1657 98.3401 32.1915 98.5467 32.2662C98.7533 32.341 98.9397 32.4628 99.0912 32.622C99.205 32.8253 99.2412 33.063 99.1933 33.291C99.1648 33.5129 99.1076 33.7302 99.0232 33.9373L98.0934 36.9648H97.3677L97.5151 36.3412ZM97.9346 34.7424H97.1976C96.8485 34.7186 96.5005 34.8017 96.1998 34.9805C96.0716 35.0694 95.9632 35.1837 95.8813 35.3164C95.7993 35.4491 95.7456 35.5972 95.7235 35.7516C95.7094 35.8265 95.7112 35.9036 95.7288 35.9779C95.7463 36.0521 95.7793 36.1218 95.8256 36.1824C95.8961 36.2539 95.9813 36.3092 96.0752 36.3444C96.1692 36.3797 96.2698 36.3941 96.3699 36.3865C96.6276 36.3874 96.88 36.3125 97.0956 36.1711C97.2913 36.0514 97.4705 35.9066 97.6285 35.7402L97.9346 34.7424Z" fill="#004A93"/>
<path d="M101.062 32.2354H103.103C103.275 32.2076 103.451 32.2255 103.614 32.2871C103.777 32.3488 103.922 32.4522 104.032 32.5869C104.163 32.7711 104.216 32.9991 104.18 33.2219C104.13 33.544 103.979 33.8419 103.749 34.0723C103.578 34.2426 103.368 34.3673 103.137 34.4352C103.311 34.4848 103.461 34.5981 103.556 34.7526C103.655 34.9198 103.691 35.1168 103.658 35.3082C103.63 35.5473 103.551 35.7775 103.426 35.9831C103.3 36.1886 103.132 36.3646 102.932 36.4988C102.561 36.7775 102.104 36.9179 101.64 36.8957H99.6328L101.062 32.2354ZM100.619 36.2834H101.753C101.995 36.2933 102.233 36.2258 102.434 36.0906C102.55 36.003 102.648 35.8924 102.72 35.7656C102.792 35.6389 102.837 35.4986 102.853 35.3536C102.869 35.2796 102.865 35.2026 102.841 35.1307C102.817 35.0589 102.774 34.9948 102.717 34.9454C102.582 34.848 102.419 34.7963 102.252 34.798H101.118L100.619 36.2834ZM101.266 34.1857H102.286C102.518 34.1975 102.747 34.1382 102.944 34.0156C103.051 33.934 103.14 33.8317 103.206 33.7148C103.272 33.5979 103.314 33.4688 103.329 33.3353C103.343 33.2647 103.337 33.1919 103.313 33.1242C103.289 33.0566 103.248 32.9964 103.193 32.9497C103.061 32.8655 102.908 32.8221 102.751 32.825H101.685L101.266 34.1857Z" fill="#004A93"/>
<path d="M108.457 36.9193H107.652L108.786 33.2568L105.543 36.9193H104.602L106.03 32.2363H106.835L105.713 35.8988L108.944 32.2363H109.897L108.457 36.9193Z" fill="#004A93"/>
<path d="M112.847 36.3408C112.666 36.5397 112.451 36.7048 112.212 36.8284C111.954 36.965 111.665 37.0315 111.373 37.0212C111.061 37.0463 110.751 36.9577 110.5 36.7717C110.383 36.6667 110.295 36.5331 110.246 36.384C110.196 36.2349 110.186 36.0755 110.216 35.9213C110.252 35.6439 110.348 35.3778 110.499 35.1425C110.65 34.9071 110.852 34.7083 111.09 34.5606C111.605 34.2641 112.197 34.1261 112.79 34.1638H113.391L113.584 33.5515C113.631 33.4461 113.648 33.3296 113.632 33.2152C113.616 33.1008 113.568 32.9934 113.493 32.9051C113.326 32.7848 113.12 32.7321 112.915 32.7577C112.689 32.7499 112.465 32.7925 112.257 32.8825C112.152 32.9431 112.061 33.0248 111.989 33.1223C111.917 33.2198 111.865 33.3312 111.838 33.4494H111.112C111.131 33.2447 111.201 33.0481 111.316 32.8777C111.431 32.7073 111.587 32.5685 111.77 32.4743C112.21 32.2563 112.697 32.151 113.187 32.1681C113.396 32.1523 113.606 32.1828 113.802 32.2572C113.998 32.3317 114.175 32.4484 114.321 32.599C114.422 32.8064 114.458 33.0398 114.423 33.268C114.384 33.4876 114.327 33.7038 114.253 33.9143L113.391 36.9191H112.666L112.847 36.3408ZM113.255 34.742H112.53C112.18 34.7168 111.832 34.8 111.532 34.9802C111.404 35.069 111.295 35.1834 111.213 35.316C111.131 35.4487 111.078 35.5969 111.056 35.7512C111.041 35.8262 111.043 35.9033 111.061 35.9775C111.078 36.0517 111.111 36.1214 111.158 36.1821C111.227 36.2549 111.312 36.311 111.406 36.3463C111.501 36.3817 111.602 36.3953 111.702 36.3862C111.96 36.387 112.212 36.3121 112.428 36.1708C112.624 36.0566 112.8 35.9111 112.949 35.7399L113.255 34.742Z" fill="#004A93"/>
<path d="M118.051 36.9205H117.257L118.493 32.8838H117.2L117.03 33.4054C116.826 34.0404 116.611 34.6414 116.361 35.2423C116.175 35.8084 115.818 36.3032 115.341 36.6597C115.033 36.8582 114.684 36.9824 114.32 37.0226V36.3422C114.586 36.2858 114.84 36.1821 115.069 36.0361C115.36 35.7775 115.582 35.45 115.715 35.0836C115.908 34.6187 116.282 33.5869 116.463 32.9859L116.701 32.2148H119.491L118.051 36.9205Z" fill="#004A93"/>
<path d="M123.539 36.9193H122.734L123.868 33.2568L120.625 36.9193H119.684L121.112 32.2363H121.917L120.795 35.8988L124.026 32.2363H124.979L123.539 36.9193Z" fill="#004A93"/>
<path d="M128.766 36.9193H127.972L128.619 34.8103H126.623L125.965 36.9193H125.16L126.6 32.2363H127.394L126.816 34.1299H128.823L129.401 32.2363H130.206L128.766 36.9193Z" fill="#004A93"/>
<path d="M134.254 36.9193H133.449L134.583 33.2568L131.34 36.9193H130.398L131.827 32.2363H132.632L131.51 35.8988L134.741 32.2363H135.694L134.254 36.9193Z" fill="#004A93"/>
<path d="M139.742 36.9193H138.937L140.059 33.2568L136.827 36.9193H135.875L137.315 32.2363H138.109L136.998 35.8988L140.229 32.2363H141.17L139.742 36.9193Z" fill="#004A93"/>
<defs>
<linearGradient id="paint0_linear_1183_7847" x1="141.825" y1="17.5983" x2="153.13" y2="28.7672" gradientUnits="userSpaceOnUse">
<stop stop-color="#C00D0D"/>
<stop offset="0.3" stop-color="#E30613"/>
<stop offset="0.33" stop-color="#E51925"/>
<stop offset="0.4" stop-color="#EA4A53"/>
<stop offset="0.5" stop-color="#F3979D"/>
<stop offset="0.53" stop-color="#F5ACB0"/>
<stop offset="0.57" stop-color="#F07A81"/>
<stop offset="0.61" stop-color="#EB5059"/>
<stop offset="0.65" stop-color="#E8303B"/>
<stop offset="0.68" stop-color="#E51925"/>
<stop offset="0.72" stop-color="#E40B18"/>
<stop offset="0.75" stop-color="#E30613"/>
<stop offset="1" stop-color="#C00D0D"/>
</linearGradient>
<linearGradient id="paint1_linear_1183_7847" x1="137.508" y1="9.22884" x2="164.789" y2="29.0607" gradientUnits="userSpaceOnUse">
<stop stop-color="white"/>
<stop offset="0.34" stop-color="white"/>
<stop offset="0.54" stop-color="white"/>
<stop offset="0.91" stop-color="#D3DAF0"/>
<stop offset="1" stop-color="#D3DAF0"/>
</linearGradient>
<linearGradient id="paint2_linear_1183_7847" x1="142.256" y1="15.3178" x2="157.371" y2="30.2285" gradientUnits="userSpaceOnUse">
<stop stop-color="#004A93"/>
<stop offset="0.13" stop-color="#004A93"/>
<stop offset="0.2" stop-color="#215EA2"/>
<stop offset="0.32" stop-color="#5980BB"/>
<stop offset="0.41" stop-color="#7C95CA"/>
<stop offset="0.46" stop-color="#899DD0"/>
<stop offset="0.48" stop-color="#7490C7"/>
<stop offset="0.56" stop-color="#366BAB"/>
<stop offset="0.61" stop-color="#0F539A"/>
<stop offset="0.64" stop-color="#004A93"/>
<stop offset="0.92" stop-color="#004A93"/>
</linearGradient>
<linearGradient id="paint3_linear_1183_7847" x1="157.215" y1="17.7458" x2="163.326" y2="21.7144" gradientUnits="userSpaceOnUse">
<stop stop-color="#C00D0D"/>
<stop offset="0.45" stop-color="#E30613"/>
<stop offset="1" stop-color="#F6B2B6"/>
</linearGradient>
<linearGradient id="paint4_linear_1183_7847" x1="162.397" y1="3.19846" x2="179.417" y2="17.3495" gradientUnits="userSpaceOnUse">
<stop stop-color="#D3DDF2"/>
<stop offset="0.07" stop-color="#D3DDF2"/>
<stop offset="0.12" stop-color="#BBCCE7"/>
<stop offset="0.21" stop-color="#7DA1CB"/>
<stop offset="0.34" stop-color="#1A5C9F"/>
<stop offset="0.37" stop-color="#004A93"/>
<stop offset="0.43" stop-color="#085097"/>
<stop offset="0.52" stop-color="#1E5FA1"/>
<stop offset="0.63" stop-color="#4379B1"/>
<stop offset="0.75" stop-color="#759CC8"/>
<stop offset="0.89" stop-color="#B5C8E5"/>
<stop offset="0.95" stop-color="#D3DDF2"/>
<stop offset="1" stop-color="#D3DDF2"/>
</linearGradient>
<linearGradient id="paint5_linear_1183_7847" x1="165.992" y1="-0.805608" x2="181.911" y2="12.427" gradientUnits="userSpaceOnUse">
<stop stop-color="white"/>
<stop offset="0.17" stop-color="white"/>
<stop offset="0.25" stop-color="#F9FAFD"/>
<stop offset="0.36" stop-color="#E8EBF8"/>
<stop offset="0.39" stop-color="#E3E7F6"/>
<stop offset="0.45" stop-color="#EDEFF9"/>
<stop offset="0.58" stop-color="#FAFBFE"/>
<stop offset="0.7" stop-color="white"/>
<stop offset="1" stop-color="white"/>
</linearGradient>
<linearGradient id="paint6_linear_1183_7847" x1="159.696" y1="8.93479" x2="174.063" y2="20.8747" gradientUnits="userSpaceOnUse">
<stop stop-color="#F6B2B6"/>
<stop offset="0.06" stop-color="#F6B2B6"/>
<stop offset="0.11" stop-color="#F07D83"/>
<stop offset="0.16" stop-color="#EA4A53"/>
<stop offset="0.21" stop-color="#E62530"/>
<stop offset="0.25" stop-color="#E40E1B"/>
<stop offset="0.28" stop-color="#E30613"/>
<stop offset="0.41" stop-color="#CD0A0F"/>
<stop offset="0.52" stop-color="#C00D0D"/>
<stop offset="0.59" stop-color="#CD0A0F"/>
<stop offset="0.69" stop-color="#E30613"/>
<stop offset="0.89" stop-color="#F4A8A7"/>
<stop offset="1" stop-color="#F6B2B6"/>
</linearGradient>
</defs>
</svg>
