<svg width="111" height="54" viewBox="0 0 111 54" fill="none" xmlns="http://www.w3.org/2000/svg">
<path d="M36.979 16.0493C39.2606 16.0493 41.5397 16.0493 43.8188 16.0493C43.8188 16.8432 43.8188 17.6371 43.8188 18.431C42.7367 18.431 41.657 18.431 40.5773 18.431C40.5773 23.8248 40.5773 29.2185 40.5773 34.6122C39.3778 34.6122 38.1784 34.6122 36.9766 34.6122C36.9766 28.4237 36.9766 22.2353 36.9766 16.0469L36.979 16.0493Z" fill="#008FFF"/>
<path d="M55.3291 17.6274C55.5979 16.6503 56.5774 16.0738 57.5521 16.0689C58.8248 16.0493 60.1073 15.9809 61.3775 16.1226C62.3693 16.2179 63.1412 17.0826 63.2853 18.0451C63.4563 19.1419 63.3244 20.2583 63.366 21.3649C63.3537 22.2663 63.5028 23.2727 62.9385 24.0519C62.4792 24.7359 61.6145 24.8849 60.8572 24.9704C61.5363 25.0633 62.3229 25.0828 62.8114 25.6544C63.3611 26.1845 63.3904 27.0004 63.3757 27.7161C63.3415 29.2258 63.4075 30.7354 63.3464 32.2451C63.3 33.3126 62.5965 34.4436 61.4581 34.5633C60.0779 34.6708 58.6856 34.6122 57.3054 34.6C56.189 34.5731 55.2998 33.6228 55.1972 32.5333C55.036 31.0554 55.163 29.5629 55.1239 28.0777C56.3258 28.0777 57.5252 28.0777 58.7271 28.0777C58.7588 29.3333 58.666 30.5962 58.7686 31.8494L59.2572 32.2842L59.7115 31.8274C59.8166 30.457 59.7115 29.0768 59.7604 27.7039C59.7604 27.1958 59.8337 26.4703 59.2327 26.2627C58.4755 26.0184 57.6645 26.1454 56.8828 26.1234C56.8828 25.4297 56.8828 24.7376 56.8828 24.0471C57.7768 23.9249 59.1155 24.3915 59.6578 23.4608C59.885 22.2931 59.6895 21.0815 59.7604 19.8967C59.6993 19.4082 59.946 18.7388 59.4208 18.4311C59.1228 18.3407 58.7002 18.5581 58.7393 18.9025C58.6807 19.9383 58.7393 20.9789 58.7173 22.0171H55.1191C55.1923 20.5514 54.931 19.0393 55.3291 17.62V17.6274Z" fill="#008FFF"/>
<path d="M65.6836 16.0508C68.4317 16.0508 71.1799 16.0508 73.9256 16.0508C73.9256 22.2392 73.9256 28.4276 73.9256 34.6161C72.8068 34.6161 71.688 34.6161 70.5668 34.6161C70.5668 29.2224 70.5668 23.8287 70.5668 18.435H69.0424C69.0424 23.8287 69.0424 29.2232 69.0424 34.6185H65.6836C65.6836 28.4301 65.6836 22.2417 65.6836 16.0532V16.0508Z" fill="#008FFF"/>
<path d="M97.0742 16.0508C98.6376 16.0508 100.203 16.0508 101.769 16.0508C102.536 20.3306 103.281 24.6152 104.056 28.895C104.808 24.6128 105.58 20.3452 106.335 16.0557C107.888 16.0557 109.443 16.0557 110.998 16.0557C110.998 22.2441 110.998 28.4325 110.998 34.621H107.395C107.356 30.7125 107.468 26.804 107.336 22.8955C106.757 26.804 106.127 30.7125 105.497 34.621C104.532 34.621 103.57 34.621 102.605 34.621C101.979 30.675 101.357 26.7299 100.738 22.7856C100.738 26.7307 100.738 30.6758 100.738 34.621C99.517 34.621 98.2956 34.621 97.0742 34.621C97.0742 28.4325 97.0742 22.2441 97.0742 16.0557V16.0508Z" fill="#008FFF"/>
<path d="M7.2884 19.9514C10.5425 17.4833 14.5168 16.1514 18.601 16.1602C18.601 20.7983 18.601 25.4396 18.601 30.0842C16.0161 30.1032 13.5265 31.0627 11.5975 32.7835C10.5659 33.7244 9.73569 34.8647 9.15704 36.1355C8.57839 37.4063 8.26329 38.7811 8.23077 40.177C8.19825 41.573 8.44898 42.961 8.96783 44.2573C9.48668 45.5536 10.2629 46.7314 11.2496 47.7194C12.2362 48.7074 13.4129 49.4851 14.7085 50.0057C16.0042 50.5263 17.3919 50.7789 18.7878 50.7482C20.1838 50.7176 21.5591 50.4043 22.8306 49.8274C24.1021 49.2504 25.2436 48.4218 26.1859 47.3914C26.7374 46.7543 27.1224 45.9904 27.3065 45.1681C27.4907 44.3458 27.4682 43.4907 27.2412 42.6792C26.9582 41.6997 26.3956 40.8239 25.6225 40.1592C24.8493 39.4945 23.8991 39.0697 22.8881 38.9369C21.2881 38.7072 19.671 39.3595 18.5253 40.4661C18.5546 38.4972 18.5253 36.5283 18.5375 34.5569H32.0999C32.0999 38.7976 32.0999 43.0359 32.0999 47.2766C29.6155 49.9307 26.4008 51.7896 22.8613 52.619C19.779 53.3674 16.556 53.3106 13.502 52.4541C10.4479 51.5975 7.66549 49.97 5.4219 47.7279C3.17832 45.4858 1.549 42.7045 0.690466 39.651C-0.168073 36.5975 -0.22698 33.3746 0.519404 30.2918C1.51712 26.1681 3.90821 22.5155 7.2884 19.9514Z" fill="#008FFF"/>
<path d="M51.7885 16.0508C49.9051 16.0508 48.0217 16.0508 46.1383 16.0508C45.5227 22.236 44.89 28.4211 44.2891 34.6161C45.4689 34.6161 46.6488 34.6161 47.8311 34.6161C47.9264 32.9843 48.0265 31.3525 48.1682 29.7305H49.7756C49.8757 31.3598 49.9735 32.9892 50.1054 34.6161C51.2828 34.6161 52.4602 34.6161 53.6377 34.6161C53.027 28.4285 52.3943 22.2408 51.7885 16.0508ZM48.2733 27.6028C48.542 24.5078 48.6177 21.3956 48.9524 18.3201C49.3237 21.3981 49.3774 24.5151 49.6364 27.6028H48.2733Z" fill="#008FFF"/>
<path d="M84.1123 16.7875C83.5138 16.1475 82.5831 16.0547 81.7599 16.0547C79.984 16.0547 78.208 16.0547 76.4297 16.0547C76.4297 22.2431 76.4297 28.4315 76.4297 34.62C77.6511 34.62 78.8725 34.62 80.0939 34.62C80.0939 32.5216 80.0939 30.4257 80.0939 28.3298C81.2322 28.2565 82.4561 28.5496 83.5285 28.0464C84.5618 27.5578 84.9477 26.3364 84.9673 25.2738C84.9917 23.4026 84.9673 21.5314 84.9673 19.6554C85.0112 18.6465 84.8671 17.5277 84.1123 16.7875ZM81.5498 25.7184C81.413 26.4146 80.6093 26.2216 80.0988 26.2632C80.0988 23.6461 80.0988 21.0307 80.0988 18.4169C80.6191 18.4535 81.4472 18.2703 81.5645 18.9885C81.711 20.1806 81.5889 21.3873 81.628 22.5867C81.5913 23.6274 81.7159 24.6729 81.5498 25.7184Z" fill="#008FFF"/>
<path d="M95.0491 18.9089C95.0833 17.7071 94.4653 16.3 93.1388 16.1364C91.6539 15.991 90.1583 15.991 88.6734 16.1364C87.3494 16.3245 86.7485 17.7242 86.7851 18.926C86.7094 22.9151 86.7851 26.9067 86.7509 30.8958C86.7973 31.9291 86.7362 33.1309 87.5033 33.9346C88.1409 34.6455 89.1693 34.643 90.0487 34.621C91.1626 34.5575 92.3034 34.7432 93.4026 34.4965C94.6387 34.1789 95.076 32.7865 95.0564 31.6457C95.0564 27.4001 95.0711 23.1545 95.0491 18.9089ZM91.7025 31.1547C91.6827 31.4675 91.6219 31.7763 91.5217 32.0732L90.9354 32.3492C90.6569 32.1562 90.1415 32.0585 90.1855 31.6164C90.1586 27.4636 90.1733 23.3109 90.1855 19.1581C90.1244 18.545 90.9183 18.1688 91.3751 18.5498C91.7367 18.7673 91.6805 19.2485 91.7098 19.61C91.7 23.4729 91.6976 27.3211 91.7025 31.1547Z" fill="#008FFF"/>
<path fill-rule="evenodd" clip-rule="evenodd" d="M25.4407 0C27.3363 2.87518 28.9217 6.00196 29.74 9.36081C30.3605 12.0039 30.7856 14.713 30.7172 17.4343C30.5559 23.1797 28.7849 28.9154 25.4651 33.6374C19.92 25.9425 18.7328 15.4532 22.0208 6.59556C22.9211 4.28083 24.0677 2.0696 25.4407 0ZM22.7558 9.03824C23.4455 6.87249 24.3335 4.775 25.4087 2.77246C28.9447 8.78048 30.1913 15.8637 28.919 22.7179C29.0623 17.6062 27.8594 12.5466 25.4307 8.04647C23.0221 12.4582 21.9081 17.4952 21.9057 22.5005C21.1729 18.0253 21.3805 13.3742 22.7558 9.04069V9.03824ZM25.4361 32.2451C27.405 28.5638 27.2804 23.9811 25.4507 20.2754C24.5021 22.1273 24.0062 24.1778 24.0037 26.2585C24.0011 28.3392 24.492 30.3909 25.4361 32.2451Z" fill="#008FFF"/>
<path fill-rule="evenodd" clip-rule="evenodd" d="M110.997 40.7246H36.9805V53.1218H110.997V40.7246ZM42.1697 42.8008H40.3401H40.3376V50.7374H42.1649V47.2564H43.2006V50.735H45.0303V42.8008H43.2031V45.9178H42.1697V42.8008ZM56.1567 42.8008H60.5538V44.2665H57.9888V45.9129H60.3071V47.3786H57.9864V49.3328H60.5489V50.7326H56.1519V42.7959L56.1567 42.8008ZM92.0063 42.8008H87.3064V44.2665H88.8307V50.7399H90.5407V44.2665H92.0063V42.8008ZM73.1256 43.3846L73.1451 42.7983H74.8966L74.9161 43.3895C74.9999 43.394 75.086 43.3976 75.1737 43.4012C75.94 43.4332 76.8243 43.47 77.2759 44.1736C77.6083 44.8203 77.6003 45.5548 77.5925 46.2777V46.2777C77.5897 46.5269 77.5871 46.7747 77.5983 47.0171C77.5883 47.18 77.586 47.3482 77.5837 47.5183V47.5186C77.5753 48.1392 77.5665 48.7852 77.1831 49.2913C76.6643 49.8917 75.824 49.9268 75.0793 49.958L75.0792 49.958L75.0791 49.958C75.0209 49.9604 74.9632 49.9629 74.9064 49.9655V50.7374H73.1402V49.9631C72.1631 49.9631 70.7585 49.858 70.5264 48.6635C70.3945 47.3126 70.3945 45.952 70.5264 44.6011C70.8025 43.4726 72.1778 43.4017 73.1207 43.3797L73.1256 43.3846ZM73.1331 44.7281L73.1336 44.728V48.5681C72.8307 48.5339 72.5327 48.4973 72.2347 48.4582C72.2127 47.2368 72.2029 46.0374 72.2347 44.8282H72.2396C72.5373 44.7916 72.8351 44.7598 73.1329 44.7281L73.133 44.7281L73.1331 44.7281ZM75.6855 44.75H74.9063L74.9038 44.7427V48.5412L75.6855 48.5119C75.9041 47.2675 75.9041 45.9944 75.6855 44.75ZM102.998 42.7983H104.766V45.9031C104.892 45.9066 105.025 45.9065 105.16 45.9065C105.995 45.9064 106.961 45.9062 107.405 46.7068C107.766 47.5594 107.668 48.5365 107.566 49.4354C107.52 49.7375 107.378 50.0168 107.161 50.232C106.944 50.4471 106.664 50.5867 106.362 50.63C105.627 50.7658 104.881 50.7507 104.136 50.7356C103.756 50.7279 103.376 50.7202 102.998 50.7326V42.7983ZM104.767 47.2563H104.77V49.3865C104.893 49.3884 105.017 49.3919 105.141 49.3954C105.329 49.4007 105.517 49.406 105.705 49.406C105.85 48.6976 105.859 47.9682 105.732 47.2563H104.77V47.2539L104.767 47.2563Z" fill="#008FFF"/>
</svg>
