<svg width="190" height="47" viewBox="0 0 190 47" fill="none" xmlns="http://www.w3.org/2000/svg">
<path d="M55.2125 21.0248L55.8244 19.1234L53.8341 19.1857C52.902 19.1517 52.004 18.8404 51.2492 18.2916H51.5179C52.7304 18.2859 53.8399 17.6011 54.3774 16.526L55.2525 14.6756C54.5662 14.6812 53.8799 14.6415 53.1993 14.5567C52.5473 14.4039 51.9641 14.0531 51.5236 13.5551C50.9288 12.927 50.1054 12.5704 49.236 12.5648C48.8986 12.5648 48.5611 12.6214 48.2352 12.7232C48.281 12.5704 48.321 12.4177 48.3496 12.2592C48.4869 11.1557 48.1723 10.0409 47.4802 9.16381L45.9704 7.32468L45.044 9.47503C44.8953 9.78062 44.6722 10.0466 44.3863 10.239C44.2261 9.46939 43.8487 8.76769 43.2882 8.21312C42.3503 7.26243 41.0635 6.73051 39.7195 6.74183C39.485 6.74183 39.2506 6.7588 39.0218 6.79275L37.2145 7.1436C37.369 6.54376 37.6149 5.97222 37.9466 5.44594L38.9417 3.91239L36.4368 4.14441L35.6361 2.44675L34.092 3.2786L32.6622 1.88086L31.2324 3.2786L29.6883 2.48636L28.8876 4.14441L26.3826 3.86146L27.3778 5.40067C27.7095 5.92695 27.9554 6.49849 28.1098 7.09833L26.3941 6.76446H26.3369C26.0967 6.73051 25.8565 6.71353 25.6163 6.71353C24.2723 6.70221 22.9855 7.23414 22.0476 8.18483C21.4814 8.74506 21.0926 9.45811 20.9381 10.239C20.6636 10.0523 20.4406 9.79763 20.2919 9.49768L19.3597 7.33034L17.8384 9.17513C17.1579 10.0523 16.8547 11.1614 16.9863 12.2592C17.0149 12.4177 17.0549 12.5704 17.1007 12.7232C16.7746 12.6214 16.4372 12.5648 16.0998 12.5648C15.2305 12.5704 14.4069 12.927 13.8121 13.5551C13.3775 14.0474 12.7999 14.3983 12.1536 14.5567C11.4674 14.6586 10.7697 14.6981 10.0719 14.6756L10.924 16.5543C11.4617 17.6294 12.5712 18.3142 13.7835 18.3199H14.0524C13.3089 18.8574 12.4225 19.1687 11.5017 19.2083L9.5 19.1234L10.1119 21.0248C10.5695 22.5131 11.8677 23.6052 13.429 23.8033C13.2688 24.8049 12.6283 25.6708 11.7133 26.1235L10.1806 26.7402L11.0041 28.1606C11.6847 29.2075 12.8571 29.83 14.1096 29.8187C14.4355 29.8187 14.7616 29.7847 15.0818 29.7168C15.1619 30.062 15.2648 30.4071 15.3792 30.741C15.6651 31.488 15.6823 32.3029 15.4364 33.0612L14.6929 34.606L16.3572 35.0418C16.7289 35.138 17.1178 35.1833 17.501 35.1833C17.7754 35.1833 18.0443 35.155 18.3131 35.0928C18.5075 35.0474 18.702 34.9909 18.885 34.9173C19.0966 35.2965 19.3654 35.6473 19.6685 35.9585C20.7322 37.0394 22.2421 37.5883 24.1579 37.5883H25.5248L22.7053 38.7483L24.8442 39.7952C25.7079 40.214 26.5886 40.5932 27.4864 40.927L27.2291 41.6627L27.9669 41.9965C29.1907 42.4718 30.4889 42.7379 31.8044 42.7831H33.5601C34.8698 42.7379 36.1622 42.4662 37.3804 41.9908L38.0953 41.6627L37.8436 40.927C38.753 40.5818 39.6452 40.1913 40.5145 39.7556L42.6134 38.7483L39.7996 37.6166H41.1721C43.088 37.6166 44.6036 37.0507 45.6617 35.9868C45.9704 35.6756 46.2336 35.3247 46.4451 34.9455C46.6282 35.0192 46.8226 35.0757 47.017 35.121C47.2859 35.1833 47.5546 35.2116 47.8292 35.2116C48.2123 35.2116 48.6012 35.1606 48.973 35.0701L50.6429 34.6343L49.9166 33.1178C49.6421 32.3481 49.6536 31.505 49.9452 30.741C50.0653 30.3959 50.1626 30.045 50.2426 29.6941C50.5629 29.7621 50.8945 29.796 51.2206 29.796C52.4845 29.8073 53.6626 29.1622 54.3317 28.0984L55.1438 26.695L53.634 26.0838C52.7189 25.6311 52.0784 24.7653 51.9183 23.7637C53.4796 23.56 54.7779 22.4734 55.2354 20.9795L55.2125 21.0248Z" fill="white"/>
<path d="M39.5363 27.0339H25.8105V32.1268C25.8105 34.2206 27.3375 35.5222 29.5965 35.5222C31.4838 35.5222 31.9814 35.5957 32.6791 36.2861C33.1195 35.8164 33.7428 35.5505 34.3948 35.5617V35.4825L34.8295 34.1583L34.0917 33.3604C33.7943 33.451 33.4854 33.485 33.1767 33.468C32.7134 33.4623 32.2559 33.417 31.804 33.3265H31.6611C31.5982 33.3265 31.5982 33.3265 31.5811 33.3604L31.4953 33.5019L31.3408 33.7566L31.0435 33.6887L29.7223 33.3831L29.5393 33.6773V33.7113L29.6995 33.8867L29.6308 34.1131C29.5107 34.3904 29.3392 34.6393 29.1218 34.8544L28.7902 35.2053L28.487 34.8317L28.264 34.5544C28.0238 34.2432 27.9666 33.8358 28.1039 33.468L27.7321 33.6207L27.5663 33.2586L27.4748 33.0039C27.2402 32.4663 27.4175 31.8438 27.8922 31.5043L28.9559 30.9384L29.9683 31.1365C29.9683 31.0403 30.0311 30.6952 30.0597 30.6103H30.0026L29.4307 30.8253L28.8588 30.4405C28.7444 30.3273 28.7387 30.1406 28.8588 30.0217L29.4021 29.2069L28.0238 27.5092L30.0883 28.3127L30.2313 28.143L30.5173 27.8034L30.8433 28.109C30.9291 28.1939 30.9863 28.2958 31.0149 28.4146C31.5868 28.641 32.6448 29.303 32.7306 30.3782L32.4045 30.5084C32.4446 30.565 32.4961 30.6103 32.559 30.6386L34.0688 30.7857L34.2061 30.746C34.4635 30.6499 34.7379 30.5989 35.0125 30.5933C35.287 30.5933 35.5558 30.6555 35.8017 30.7743C35.9103 30.7347 36.0305 30.7121 36.1449 30.7064H36.2192C37.0256 30.7064 37.4316 31.3063 37.7519 31.7816L37.9178 32.0193C38.198 32.4155 38.5697 32.9926 38.5868 33.0153L38.7527 33.2699L38.5469 33.5076C38.3581 33.7566 38.0607 33.898 37.7462 33.898C37.6547 33.9037 37.5631 33.9037 37.4716 33.898C37.3916 33.8811 37.3116 33.8585 37.2315 33.8245C37.2315 33.9037 37.2315 33.9999 37.1857 34.0792L36.9512 35.4146C38.5069 35.1034 39.6049 33.7226 39.542 32.1494L39.5363 27.0339ZM25.7934 26.6207H36.4823C36.0476 26.168 35.8989 25.5173 36.0934 24.9231C35.9504 24.8552 35.8131 24.7646 35.693 24.6628C35.2755 24.9684 33.9774 25.8851 33.6685 26.1171L33.5999 26.1624L29.4021 25.4267H29.3163C29.179 25.4324 29.0418 25.4324 28.9045 25.4267C28.8645 25.6134 28.6987 25.7436 28.5099 25.7436H28.4413C28.2183 25.704 28.0638 25.4946 28.0982 25.2739V25.1834C27.5548 24.7986 27.2974 24.1309 27.4404 23.4857V23.4121L27.5034 23.3669C27.5034 23.3669 27.5834 23.3103 27.6921 23.2481L27.389 23.2028C27.2746 23.1801 27.2002 23.0783 27.2174 22.9652C27.2345 22.852 27.3375 22.7784 27.4519 22.7954H27.4576L28.184 22.9086L28.2526 20.379L29.3335 19.2473L30.0083 20.6506L29.2992 23.084L29.9397 23.1858C30.054 23.2084 30.1284 23.3103 30.1112 23.4235C30.0941 23.5253 30.0083 23.5933 29.9054 23.5933H29.8711L29.3506 23.5084V23.548C29.4078 23.6499 29.4936 23.7291 29.6022 23.78L32.7992 23.8309L33.617 23.033C32.9936 22.818 32.5476 22.2747 32.4732 21.624C32.0729 21.4712 31.7469 21.1769 31.5639 20.7978C31.4095 20.4413 31.3809 20.0395 31.4896 19.6661C30.9863 19.468 30.5288 19.168 30.157 18.7832H25.4102C25.6389 19.3378 25.7705 19.9263 25.7934 20.5205V26.6207Z" fill="#FCE527"/>
<path d="M62.6875 22.2517H67.4V30.1741H70.8314V22.2517H75.5439V19.377H62.6875V22.2517ZM80.0734 25.647V19.4223H76.7564V30.1741H79.6846L85.4036 23.8814V30.1741H88.7207V19.377H85.7925L80.0734 25.647ZM99.7646 23.3834H94.434V19.4223H91.1169V30.1741H94.434V26.145H99.7646V30.1741H103.081V19.4223H99.7646V23.3834ZM114.651 22.546C113.867 22.3082 113.044 22.2121 112.226 22.2517H108.794V19.4223H105.478V30.1741L112.203 30.1289C112.907 30.1401 113.604 30.0609 114.285 29.8799C116.012 29.4611 117.202 27.9049 117.145 26.145C117.213 24.5322 116.201 23.0609 114.651 22.546ZM112.958 27.4125C112.54 27.554 112.095 27.6106 111.654 27.571H108.794V24.8321H111.654C112.083 24.8039 112.517 24.8548 112.935 24.968C113.462 25.1207 113.816 25.6017 113.805 26.145C113.81 26.6996 113.479 27.2032 112.958 27.4125ZM131.041 19.4223H126.879L122.875 23.474H121.96V19.4223H118.643V30.1741H121.96V26.0997H122.875L126.833 30.1741H131.248L125.735 24.5153L131.041 19.4223Z" fill="#222220"/>
<path d="M138.179 19.082C133.695 19.082 131.018 21.5719 131.018 24.7861C131.018 28.0003 133.718 30.4902 138.156 30.4902C142.594 30.4902 145.27 28.0003 145.27 24.7861C145.27 21.5719 142.662 19.082 138.179 19.082ZM138.156 27.8645C135.937 27.8645 134.519 26.5517 134.519 24.7861C134.519 23.0206 135.96 21.7303 138.156 21.7303C140.352 21.7303 141.793 23.0206 141.793 24.7861C141.793 26.5517 140.375 27.8645 138.156 27.8645ZM156.2 19.8516V18.7651H152.882V19.8516C148.719 19.9421 146.226 21.685 146.226 24.7634C146.226 27.8419 148.719 29.4491 152.882 29.5396V30.626H156.2V29.5396C160.386 29.4491 162.879 27.8419 162.879 24.7634C162.879 21.685 160.391 19.9421 156.2 19.8516ZM152.882 27.2308C150.595 27.1402 149.588 26.2122 149.588 24.7634C149.588 23.3148 150.595 22.2736 152.882 22.1831V27.2308ZM156.2 27.2308V22.1831C158.51 22.2736 159.494 23.3148 159.494 24.7634H159.499C159.499 26.2122 158.516 27.1402 156.2 27.2308ZM173.82 19.8516V18.7651H170.503V19.8516C166.339 19.9421 163.845 21.685 163.845 24.7634C163.845 27.8419 166.339 29.4491 170.503 29.5396V30.626H173.82V29.5396C178.006 29.4491 180.5 27.8419 180.5 24.7634C180.5 21.685 178.006 19.9421 173.82 19.8516ZM170.503 27.2308C168.215 27.1402 167.208 26.2122 167.208 24.7634C167.208 23.3148 168.215 22.2736 170.503 22.1831V27.2308ZM177.108 24.7634C177.108 26.2122 176.131 27.1402 173.82 27.2308V22.1831C176.131 22.2736 177.114 23.3148 177.114 24.7634H177.108ZM30.1801 29.2566C30.1114 29.2566 30.0485 29.3076 30.0428 29.3755V29.3811C30.0371 29.4547 30.0943 29.5226 30.1686 29.5282H30.1743C30.2544 29.5282 30.3116 29.466 30.3116 29.3925C30.3116 29.3132 30.2544 29.2566 30.1801 29.2566ZM30.1744 29.2509C30.1801 29.2509 30.1801 29.2566 30.1801 29.2566C30.1858 29.2566 30.1858 29.2509 30.1915 29.2509H30.1744ZM39.5193 38.5315L38.73 38.2316L38.9473 37.4223L39.1875 36.5396C38.1066 37.0884 36.9743 37.5299 35.8076 37.8581C35.2357 38.0165 34.8239 38.0901 34.8239 38.0901V38.6616C34.1205 38.7748 33.4113 38.837 32.6964 38.8428H32.6335C31.9186 38.837 31.2094 38.7748 30.506 38.6616V38.0957C30.506 38.0957 30.0885 38.0165 29.5166 37.8581C28.3499 37.5299 27.2175 37.0884 26.1366 36.5396L26.3712 37.4223L26.5941 38.2316L25.7993 38.5315L24.9414 38.854C26.1195 39.4595 27.3491 39.9632 28.6188 40.3593L28.3156 41.1741C29.6939 41.6948 31.1694 41.9495 32.645 41.9155H32.6793C34.1548 41.9495 35.6303 41.6948 37.0086 41.1741L36.7111 40.3593C37.9751 39.9632 39.2047 39.4595 40.3828 38.854L39.5193 38.5315ZM25.8964 38.905L27.1775 38.4806L26.7944 37.2356C27.635 37.6487 28.5044 37.9939 29.4022 38.2655L28.7731 39.9631C27.7837 39.7029 26.8172 39.3464 25.8964 38.905ZM32.6964 41.5137L32.6678 41.4911C31.4096 41.4854 30.1571 41.3156 28.9447 40.9875L29.7168 38.9163C30.6776 39.154 31.6669 39.2841 32.6621 39.2897H32.725C33.7202 39.2785 34.7095 39.154 35.6703 38.9163L36.4424 40.9875C35.2242 41.327 33.9603 41.5024 32.6964 41.5137ZM36.5968 39.9972V39.9802L35.9677 38.2825C36.8656 38.0109 37.7349 37.6657 38.5756 37.2526L38.1924 38.4975L39.4907 38.9276C38.5641 39.3747 37.5919 39.7368 36.5968 39.9972ZM32.6621 6.23072C33.9545 6.19676 35.2242 6.58156 36.2764 7.32287C36.4423 6.48536 36.7568 5.6818 37.2087 4.95181L35.9105 5.09894L35.2356 3.66725L33.9259 4.335L32.6621 3.0957L31.3981 4.335L30.0884 3.66725L29.4136 5.09894L28.1154 4.95181C28.5672 5.6818 28.8817 6.48536 29.0476 7.32287C30.0999 6.58156 31.3695 6.19676 32.6621 6.23072ZM29.3564 5.59692L29.7167 5.63653L29.8711 5.31398L30.323 4.35198L31.1636 4.78204L31.4897 4.94615L31.7527 4.70848L32.6621 3.7974L33.5714 4.70848L33.8344 4.96313L34.1604 4.79902L34.9954 4.36895L35.453 5.33096L35.6073 5.65351L35.9677 5.6139L36.3108 5.57429C36.1735 5.88552 36.0535 6.20808 35.9562 6.53629C33.8916 5.4894 31.4382 5.4894 29.3735 6.53629C29.2764 6.20808 29.1563 5.88552 29.019 5.57429L29.3564 5.59692ZM49.6249 17.9106L49.4704 17.7239C48.4067 16.3827 47.3944 15.1095 45.5872 14.5266C45.6616 14.4643 45.7359 14.4077 45.8159 14.3568C46.6738 13.8758 47.28 13.0496 47.4745 12.0933C47.5717 11.2274 47.3258 10.3617 46.7882 9.67128L46.2163 8.96394L45.8559 9.80711C45.8559 9.85805 45.2211 11.2105 43.9401 11.2105H43.5626C43.6312 10.322 43.3053 9.44492 42.6705 8.81116C41.8984 8.03023 40.8346 7.59451 39.7309 7.60016C39.525 7.60016 39.3191 7.61714 39.1189 7.64543L38.2439 7.8152L38.7872 8.52256C39.2104 9.08844 39.5936 10.0674 39.1418 10.5937C38.9245 10.7805 38.6786 10.9276 38.4097 11.0294C37.8378 11.2954 37.0143 11.6745 37.0143 12.6252C37.0143 13.2421 37.5004 13.8872 38.3755 14.436C40.9547 16.0545 42.5503 17.7239 43.2424 19.6026C44.3118 22.466 42.9164 24.0958 41.561 24.9559L40.9547 25.3407L41.4866 25.8217C41.9613 26.2235 42.5446 26.4725 43.168 26.5347H43.6884C44.2203 26.5347 44.7465 26.4612 45.2554 26.3083C45.1297 26.529 44.9753 26.7384 44.8094 26.9308C44.0374 27.8193 42.8935 28.3059 41.7097 28.2437H41.2007L41.1607 28.7474C41.155 29.4547 41.4695 30.1224 42.0128 30.5808C42.1558 30.7053 42.3159 30.8072 42.4874 30.8863C41.6411 31.7012 41.1607 32.816 41.1435 33.9874C41.1435 34.6269 40.9948 35.2607 40.7145 35.8379L40.1426 36.6867H41.1607C42.8421 36.6867 44.1288 36.2283 45.021 35.3173C45.4842 34.8363 45.8273 34.2534 46.0275 33.6196C46.3592 33.8969 46.7482 34.0893 47.1714 34.1854C47.3716 34.2307 47.5774 34.2534 47.7833 34.2534C48.0921 34.2534 48.401 34.2137 48.6983 34.1459L49.3503 33.9761L49.0644 33.3763C48.704 32.4199 48.704 31.3617 49.0644 30.4053C49.2759 29.7829 49.4247 29.1377 49.5047 28.4813C50.0194 28.7416 50.5914 28.8718 51.169 28.8662C52.1183 28.8774 53.0048 28.4135 53.5195 27.6269L53.834 27.061L53.2621 26.8233C51.3463 26.0368 50.923 23.9204 50.8373 22.7772C51.026 22.8168 51.2147 22.8395 51.4092 22.8451L51.5693 22.9526C53.6511 22.9526 54.3487 20.8532 54.3773 20.7627L54.6119 20.0213H53.8283C52.1812 19.9647 50.6428 19.1952 49.6249 17.9106ZM51.575 22.3811H51.4949C51.0775 22.3867 50.6657 22.2736 50.3112 22.0586C50.3112 22.0586 50.008 26.1499 53.0906 27.4175V27.4345C52.6845 28.0456 51.9869 28.4078 51.2491 28.3965C50.414 28.4474 49.6077 28.0966 49.0816 27.4571C49.0987 28.4191 48.9386 29.3811 48.6126 30.2865C48.195 31.3787 48.195 32.5897 48.6126 33.6819C48.3552 33.7441 48.0978 33.778 47.8348 33.778C47.6746 33.778 47.5088 33.761 47.3544 33.7215C46.5937 33.5404 45.9875 32.9858 45.7416 32.2558C45.7416 32.2558 45.8617 36.183 41.235 36.183H41.2007C41.5495 35.5266 41.7326 34.7966 41.7269 34.0553C41.927 31.1523 43.9172 30.7392 43.9172 30.7392C43.3682 30.6713 42.8478 30.4789 42.3902 30.1733C41.9727 29.8282 41.7326 29.3189 41.7211 28.7813C43.0593 28.8379 44.3519 28.2889 45.2268 27.2817C45.7531 26.6875 46.1019 25.9632 46.2506 25.1879C45.5128 25.7368 44.6035 26.0141 43.6827 25.9744H43.2138C42.7162 25.9236 42.2416 25.7312 41.8583 25.4086C43.6198 24.2768 44.8551 22.3415 43.7628 19.4045C42.8821 17.0505 40.7717 15.2906 38.65 13.9664C37.9465 13.5363 37.5233 13.0496 37.5233 12.6309C37.5233 11.6462 38.936 11.6179 39.5193 10.9332C40.1884 10.1636 39.7709 8.91867 39.1875 8.1717C39.3534 8.14341 39.525 8.13209 39.6908 8.13209C40.6459 8.12077 41.5667 8.49992 42.2301 9.17898C42.905 9.81275 43.1623 10.7691 42.905 11.6519L43.2138 11.7142C43.4025 11.7481 43.5912 11.7651 43.7857 11.7708H43.9115C45.5872 11.7708 46.3421 10.0335 46.3421 10.0335C46.3421 10.0335 48.1264 12.2065 45.5014 13.9041C45.0496 14.1928 44.8494 14.47 44.9295 14.7529L44.9695 14.9397L45.1583 14.9736C47.0627 15.4829 48.0178 16.7845 49.2017 18.2615C50.3226 19.6705 52.0155 20.5193 53.8283 20.5816H53.8626C53.8626 20.5816 53.2907 22.3811 51.575 22.3811Z" fill="#222220"/>
<path d="M47.902 14.7802C48.5425 15.1424 49.0973 15.6348 49.5319 16.2233C49.858 16.7213 50.3212 17.1174 50.8702 17.3551C51.0761 17.423 51.2991 17.4569 51.5165 17.4569C52.3914 17.4569 53.1922 16.9646 53.5925 16.195L53.9242 15.4594L53.1178 15.4141C52.2485 15.2556 51.465 14.8143 50.8874 14.1521C50.4585 13.6938 49.858 13.4278 49.2231 13.4221C48.7313 13.4278 48.2565 13.575 47.8448 13.8353L47.1013 14.3502L47.902 14.7802ZM49.2403 13.9711L49.2231 13.9767C49.7092 13.9767 50.1667 14.1861 50.4928 14.5426C51.1618 15.3009 52.0769 15.8046 53.0835 15.9687C52.7747 16.5402 52.1742 16.8967 51.5165 16.9024C51.3563 16.9024 51.1962 16.8741 51.0418 16.8231C50.1153 16.5119 49.7893 15.1255 48.1823 14.288C48.4968 14.0843 48.8628 13.9767 49.2403 13.9711ZM48.2794 22.0745L48.268 22.0633C47.7991 18.3284 45.0596 15.6292 42.0114 13.9937C41.7312 13.8409 41.468 13.7164 41.2165 13.5976C42.4747 13.8523 43.7843 13.5467 44.7966 12.7657C44.7966 12.7657 43.0294 14.0503 39.4149 12.8845C40.4158 13.5297 42.3603 14.4351 44.1389 15.9064C48.5769 19.7657 45.4028 23.5346 45.4028 23.5346C46.7296 22.2896 47.1928 20.3882 46.598 18.6793C47.536 20.2241 47.9878 22.0123 47.8906 23.8119C47.7647 26.7771 46.1005 29.3689 44.3848 31.4343C43.8701 32.0851 43.5155 32.849 43.3668 33.6639C43.6585 32.8547 44.0989 32.1077 44.6708 31.4626C46.5295 29.3066 48.1022 27.0713 48.3252 23.8514C48.5197 24.4173 49.309 26.0641 50.5671 26.6808C50.5671 26.6808 48.9886 25.7415 48.2794 22.0745ZM24.6026 35.8766C24.328 35.2993 24.1794 34.6656 24.1737 34.0261C24.1565 32.8547 23.6704 31.7399 22.8239 30.925C22.9955 30.8458 23.1557 30.744 23.2986 30.6194C23.8419 30.1611 24.1565 29.4933 24.1508 28.786L24.1165 28.2823H23.6017C22.4236 28.3389 21.2798 27.8579 20.5077 26.9695C20.3418 26.7771 20.1932 26.5677 20.0616 26.347C20.5706 26.4998 21.0968 26.5734 21.6286 26.5734H22.1491C22.7724 26.5111 23.3615 26.2622 23.8362 25.8603L24.368 25.3793L23.7618 24.9946C22.4007 24.1344 21.011 22.5046 22.0804 19.6413C22.7724 17.7795 24.368 16.0988 26.9703 14.4804C27.8452 13.9145 28.3256 13.2864 28.3256 12.6696C28.3256 11.7189 27.5193 11.3398 26.9302 11.0737C26.6614 10.9718 26.4155 10.8247 26.1982 10.638C25.7407 10.1117 26.1238 9.11012 26.5528 8.56686L27.1247 7.8595L26.2439 7.68974C26.0437 7.65579 25.8379 7.64447 25.632 7.64447C24.5168 7.61052 23.4416 8.03494 22.6523 8.81019C22.0062 9.43832 21.6687 10.3211 21.7316 11.2152H21.3885C20.1017 11.2152 19.4954 9.86837 19.4726 9.81178L19.1123 8.96865L18.5404 9.67604C18.0085 10.3664 17.7626 11.2322 17.8598 12.098C18.0542 13.0543 18.6547 13.8806 19.5126 14.3616C19.5927 14.4124 19.6728 14.469 19.7414 14.5313C17.9342 15.0972 16.9218 16.3875 15.8581 17.7286L15.7037 17.921C14.6857 19.2055 13.1416 19.9752 11.4945 20.0317H10.7109L10.9512 20.773C10.9512 20.8635 11.6718 22.963 13.7592 22.963H13.8622C14.0566 22.9573 14.2453 22.9347 14.4341 22.8951C14.3483 24.0268 13.9251 26.1546 12.0035 26.9412L11.4316 27.1788L11.7462 27.7447C12.2609 28.5313 13.1473 28.9954 14.0966 28.984C14.6742 28.9897 15.2404 28.8596 15.7552 28.5993C15.8352 29.2557 15.9839 29.9008 16.1956 30.5233C16.5558 31.4796 16.5558 32.5378 16.1956 33.4941L15.9096 34.094L16.5615 34.2637C16.859 34.3317 17.1678 34.3713 17.4766 34.3713C17.6825 34.3713 17.8884 34.3486 18.0885 34.3034C18.5118 34.2071 18.9007 34.0148 19.2323 33.7375C19.4325 34.3713 19.7756 34.9541 20.239 35.4351C21.1368 36.3462 22.4236 36.7989 24.0993 36.8045H25.1173L24.6026 35.8766ZM24.1107 36.1934C19.484 36.1934 19.5984 32.2662 19.5984 32.2662C19.3524 32.9961 18.7462 33.5507 17.9856 33.7319C17.8312 33.7714 17.6653 33.7885 17.5052 33.7885C17.2421 33.7885 16.9847 33.7544 16.7332 33.6922C17.1506 32.6 17.1506 31.389 16.7332 30.2969C16.4071 29.3915 16.2528 28.4295 16.2699 27.4674C15.7438 28.1069 14.9374 28.4578 14.1023 28.4069H14.0737C13.3303 28.4181 12.6326 28.0503 12.2265 27.4391C15.3091 26.1715 15.006 22.0802 15.006 22.0802C14.6513 22.2953 14.2396 22.4084 13.8221 22.4028H13.7592C12.0435 22.4028 11.4716 20.6033 11.4716 20.6033H11.5059C13.3189 20.5467 15.0174 19.6979 16.1384 18.2888C17.3165 16.8119 18.2773 15.5102 20.1818 15.001L20.3704 14.967L20.4105 14.7803C20.4619 14.4917 20.2618 14.2144 19.8385 13.9314C17.2135 12.2338 18.9979 10.0608 18.9979 10.0608C18.9979 10.0608 19.7414 11.7981 21.4285 11.7981H21.5085C21.703 11.7925 21.8917 11.7754 22.0804 11.7415L22.3893 11.6793C22.1262 10.7964 22.3893 9.84007 23.0642 9.20632C23.7276 8.52725 24.6483 8.14811 25.6034 8.15943C25.7693 8.15943 25.9409 8.17075 26.1066 8.19904C25.5347 8.95167 25.1115 10.1966 25.7807 10.9606C26.3526 11.6227 27.7709 11.651 27.7709 12.6582C27.7709 13.077 27.3763 13.5636 26.6728 13.9994C24.5454 15.3236 22.4351 17.0834 21.56 19.4376C20.4677 22.3745 21.703 24.3268 23.4645 25.4416C23.0813 25.7585 22.6066 25.9566 22.109 26.0075H21.6343C20.7136 26.0471 19.8042 25.7698 19.0665 25.2209C19.2152 25.9961 19.5641 26.7205 20.0845 27.3147C20.9595 28.3162 22.2577 28.8708 23.596 28.8143C23.5846 29.3518 23.3443 29.8611 22.9269 30.2064C22.4694 30.5119 21.9489 30.7043 21.3999 30.7723C21.3999 30.7723 23.3958 31.174 23.6132 34.0883C23.6075 34.8296 23.7904 35.5596 24.1393 36.2161L24.1107 36.1934Z" fill="#222220"/>
<path d="M13.7986 17.4527H13.8044C14.0217 17.4527 14.2447 17.4188 14.4506 17.3509C14.9997 17.1132 15.4629 16.717 15.7889 16.219C16.2178 15.6306 16.7726 15.1382 17.4131 14.776L18.2137 14.3516L17.4703 13.8367C17.0585 13.5764 16.5838 13.4292 16.0977 13.4236C15.4629 13.4292 14.8624 13.6952 14.4335 14.1592C13.8616 14.8157 13.0723 15.2628 12.2088 15.4212L11.4023 15.4608L11.7284 16.1965C12.1287 16.9661 12.9237 17.4471 13.7986 17.4527ZM14.8281 14.5441C15.1484 14.1875 15.6059 13.9782 16.092 13.9782C16.4638 13.9838 16.8298 14.097 17.1443 14.295C15.5258 15.1495 15.1884 16.519 14.2848 16.8302C14.1361 16.8812 13.976 16.9095 13.8158 16.9095C13.1524 16.9095 12.5462 16.5473 12.2374 15.9701C13.2439 15.806 14.159 15.3023 14.8281 14.5441ZM17.4418 23.836C17.3446 22.0364 17.7907 20.2482 18.7343 18.7034C18.1396 20.4123 18.6028 22.3137 19.9296 23.5587C19.9296 23.5587 16.7498 19.7898 21.1935 15.9305C22.9721 14.4592 24.911 13.5538 25.9118 12.9086C22.2973 14.0743 20.5301 12.7898 20.5301 12.7898C21.5424 13.5708 22.8463 13.8763 24.1045 13.6216C23.8529 13.7405 23.5898 13.8706 23.3095 14.0177C20.2613 15.6589 17.5048 18.3581 17.0529 22.093V22.0647C16.3438 25.7316 14.7653 26.671 14.7653 26.671C16.0177 26.0598 16.8127 24.4075 17.0015 23.8416C17.213 27.0671 18.8029 29.3023 20.6616 31.4528C21.2278 32.0978 21.6739 32.8448 21.9656 33.6541C21.8112 32.8448 21.4566 32.0809 20.9362 31.4358C19.2205 29.3703 17.562 26.7785 17.4418 23.836ZM31.6135 17.0226C31.8137 16.8302 32.0939 16.7397 32.3742 16.7736V17.8432C32.3685 18.1091 32.2998 18.3637 32.1683 18.5958H33.2492C33.1176 18.3637 33.049 18.1091 33.0433 17.8432V16.7736C33.3178 16.7397 33.598 16.8302 33.7982 17.0226V16.2814H31.6135V17.0226ZM31.1618 11.8901H31.1504C31.3162 12.0315 31.5107 12.1447 31.7223 12.2126L31.8596 12.2749V11.5732L30.5899 11.0469C30.6528 11.3977 30.8587 11.7033 31.1618 11.8901ZM34.1758 11.8844L34.1701 11.8901C34.4732 11.7033 34.6791 11.3977 34.742 11.0469L33.4724 11.5732V12.2692L33.6039 12.2069C33.8155 12.1391 34.01 12.0259 34.1758 11.8844Z" fill="#222220"/>
<path d="M36.453 9.04796C36.453 7.98975 34.6515 7.03906 32.6669 7.03906C30.6824 7.03906 28.8809 7.98975 28.8809 9.04796L28.921 9.30827L29.7159 13.8354L28.921 14.2937L26.845 15.4595C26.845 15.4595 26.3817 15.6971 26.1644 15.8386C25.3808 16.4045 25.2151 17.1628 25.6668 17.491C25.7812 16.7213 26.4617 16.1555 27.251 16.1781C27.9087 16.1951 28.5207 16.5233 28.8924 17.0609C29.0068 17.1967 29.1097 17.3438 29.2012 17.491C29.3213 17.6833 29.4414 17.8531 29.5615 18.0172H24.2656C24.7117 18.7755 24.9691 19.63 25.0263 20.5072V32.1474C25.0263 34.9769 27.2167 36.3067 29.6015 36.3067C31.4317 36.3067 31.6775 36.2218 32.6841 37.2178C33.6907 36.2218 33.9366 36.3067 35.7667 36.3067C38.1344 36.3067 40.3419 34.9655 40.3419 32.1474V20.5185C40.3991 19.6414 40.6564 18.7869 41.1026 18.0286H35.7495C35.8696 17.8645 35.9898 17.6947 36.1098 17.5023C36.207 17.3552 36.31 17.2081 36.4187 17.0722C36.7961 16.5347 37.408 16.2064 38.0657 16.1894C38.855 16.1668 39.5355 16.7327 39.6499 17.5023C40.1074 17.1798 39.9416 16.3705 39.1524 15.8499C38.9407 15.7028 38.4775 15.4708 38.4775 15.4708L36.4187 14.271L35.6237 13.8127L36.4187 9.28563L36.453 9.04796ZM29.6473 9.5686L32.4382 10.5023V14.837L30.385 13.7618L29.6473 9.5686ZM25.4094 18.7812H30.2192C30.5909 19.166 31.0484 19.4716 31.5517 19.664C31.4431 20.0375 31.4717 20.4392 31.626 20.7958C31.8091 21.1749 32.135 21.4692 32.5354 21.6219C32.6098 22.2727 33.0559 22.8159 33.6792 23.031C33.336 23.3762 32.9987 23.6988 32.8614 23.8289L29.6645 23.778C29.5558 23.7271 29.47 23.6478 29.4128 23.5459V23.5064L29.9332 23.5912H29.9675C30.0705 23.5912 30.1563 23.5234 30.1735 23.4215C30.1906 23.3083 30.1162 23.2064 30.0018 23.1838L29.3613 23.0819L30.0705 20.6487L29.3956 19.2452L28.3147 20.377L28.2461 22.9065L27.5198 22.7934C27.4054 22.7707 27.3025 22.8442 27.2796 22.9574V22.9631C27.2624 23.0763 27.3368 23.1781 27.4512 23.2008L27.7543 23.2461C27.6456 23.3083 27.5712 23.3535 27.5655 23.3649L27.5027 23.4101V23.4837C27.3597 24.1288 27.6227 24.7966 28.1603 25.1813V25.272C28.126 25.4926 28.2804 25.702 28.5035 25.7416H28.5721C28.7608 25.7416 28.9267 25.6115 28.9667 25.4247C29.104 25.4304 29.2355 25.4304 29.3727 25.4247H29.4585L33.6506 26.1774L33.7193 26.1321C34.051 25.9001 35.3263 25.0003 35.7438 24.6777C35.8639 24.7796 36.0012 24.8701 36.1441 24.9381C35.9497 25.5322 36.0984 26.183 36.5331 26.6357H25.7927V20.5185C25.7698 19.9243 25.6382 19.3358 25.4094 18.7812ZM35.3835 24.3778C34.9488 24.6947 33.8794 25.4643 33.4905 25.7359L29.6873 25.0795V24.9776C29.7503 24.723 29.7846 24.4627 29.7903 24.2024L32.9929 24.2533L33.0559 24.1911C33.1073 24.1401 34.1196 23.1725 34.6343 22.6122C34.7716 22.782 34.9317 22.9235 35.1147 23.0366C35.0232 23.5007 35.1204 23.9817 35.3835 24.3778ZM29.0296 23.6988V23.7157C29.1154 23.8742 29.2412 24.01 29.3956 24.1005C29.3899 24.3325 29.367 24.5589 29.327 24.7852C29.327 24.8362 29.327 24.8871 29.2869 24.9381V25.0172C29.0239 25.0172 28.7665 24.9776 28.5149 24.8984C28.0574 24.6551 27.8 24.1571 27.8744 23.6478C28.0803 23.5064 28.3147 23.4158 28.5607 23.3818C28.7722 23.3762 28.961 23.5007 29.0296 23.6988ZM28.6351 22.9461L28.6979 20.5524L29.2698 19.9865L29.6187 20.7053L28.9381 23.0366L28.6351 22.9461ZM35.3549 35.5541H34.8059L35.2348 34.1677C35.3034 33.9752 34.9488 33.7262 34.8002 33.5055C35.149 33.7149 35.5093 33.9016 35.8811 34.0714C35.8811 34.1167 35.3549 35.5541 35.3549 35.5541ZM36.8247 34.0035L36.7789 33.964L36.4816 35.4918C36.2928 35.4918 36.0926 35.5314 35.9097 35.5428L36.2242 34.0714C36.3157 33.6357 35.1318 33.5055 34.5485 32.6398C34.1654 32.9567 33.6735 33.1038 33.1817 33.0528C32.747 33.0472 32.3181 33.002 31.8949 32.9171C31.8205 32.9113 31.7462 32.9113 31.6718 32.9171C31.4946 32.9057 31.323 32.9962 31.2315 33.1491L31.1457 33.2905L29.5157 32.9001L29.1269 33.5678C29.064 33.6584 29.0754 33.7828 29.1555 33.8621L29.2641 33.9809C29.1555 34.1903 29.0182 34.3827 28.8523 34.5468L28.6122 34.2525C28.4291 33.9582 28.4463 33.5791 28.6522 33.3018L29.2927 32.2323L30.6596 32.4361L30.4479 31.955C30.162 31.3212 30.5966 30.512 30.6424 30.048C30.6424 30.1895 30.4937 30.2178 30.3451 30.2178H29.9504C29.9218 30.2121 29.8874 30.2121 29.8588 30.2178L29.4871 30.4385L29.1955 30.1725C29.1498 30.0876 29.1669 29.9858 29.2355 29.9235L29.9103 29.1709L29.1097 28.2485L30.2535 28.8144L30.5966 28.407C30.6882 28.4975 30.6481 28.7351 30.6481 28.7351C31.4774 28.9389 32.0551 29.6858 32.0322 30.5346V30.6988C32.1465 30.8798 32.3295 31.0044 32.5354 31.0553L34.0853 31.2081C34.3941 31.1119 34.7087 31.0496 35.0289 31.01C35.3034 31.01 35.5779 31.0949 35.8067 31.242C35.9154 31.1685 36.047 31.1232 36.1784 31.1175H36.2299C36.9219 31.1175 37.2136 31.74 37.5854 32.2493C37.8655 32.6398 38.2431 33.2283 38.2431 33.2283C38.1344 33.3867 37.9571 33.483 37.7627 33.483C37.694 33.4886 37.6311 33.4886 37.5625 33.483C36.819 33.3471 36.7103 31.8305 36.2871 31.7117H36.2185C36.1384 31.7117 36.0641 31.7569 36.0241 31.8305C36.2185 32.3455 36.1041 32.5549 36.3157 32.9623C36.4701 33.2057 36.6645 33.4264 36.8876 33.6131C36.8876 33.6131 36.859 33.8394 36.8247 34.0035ZM28.4921 32.521H28.4806L28.5493 32.6964C28.5035 32.8491 27.9773 33.0698 27.9773 33.0698L27.8629 32.8208C27.7142 32.4644 27.8229 32.0569 28.1374 31.8249L29.001 31.3042L29.9218 31.4966C29.916 31.6778 29.9732 31.8532 30.0819 32.0003L29.1154 31.8193L28.5435 32.2154C28.452 32.2946 28.4348 32.4191 28.4921 32.521ZM39.5527 32.153C39.6156 33.7262 38.5118 35.107 36.9505 35.4126L37.2136 34.0432C37.2136 33.964 37.2421 33.8677 37.2536 33.7885C37.3337 33.8225 37.4138 33.845 37.4938 33.8621C37.5854 33.8677 37.6769 33.8677 37.7684 33.8621C38.0829 33.8621 38.3802 33.7206 38.569 33.4716L38.7749 33.234L38.6033 33.002C38.6033 33.002 38.2202 32.4021 37.9342 32.0059L37.7741 31.7683C37.4538 31.2929 37.0478 30.6931 36.2413 30.6931H36.167C36.0527 30.6988 35.9326 30.7214 35.8239 30.761C35.5779 30.6422 35.3092 30.58 35.0346 30.58C34.7601 30.5856 34.4856 30.6365 34.2283 30.7327L34.091 30.7724L32.5812 30.6252C32.5183 30.5969 32.4668 30.5517 32.4268 30.4951L32.7527 30.3649C32.6612 29.2841 31.6089 28.6219 31.037 28.4012C31.0084 28.2824 30.9513 28.1806 30.8655 28.0957L30.5394 27.7901L30.2535 28.1297L30.1105 28.2994L27.9945 27.4392L29.3727 29.137L28.8294 29.9517C28.715 30.0649 28.7093 30.2517 28.8294 30.3705L29.4013 30.7554L29.9732 30.5403H30.0304C30.0304 30.6252 29.9675 30.9704 29.9389 31.0666L28.9438 30.8968L27.8801 31.4627C27.3883 31.8135 27.2167 32.4586 27.4741 33.002L27.5941 33.2566L27.76 33.6187L28.1317 33.4659C27.9945 33.8338 28.0517 34.2413 28.2918 34.5525L28.5149 34.8354L28.8123 35.2089L29.144 34.858C29.3613 34.643 29.5329 34.394 29.653 34.1167L29.7217 33.8904L29.5615 33.7149V33.681L29.7445 33.3867L31.0656 33.6923L31.363 33.7602L31.5231 33.4999L31.6089 33.3584C31.6089 33.3301 31.6089 33.3245 31.689 33.3245H31.832C32.2838 33.415 32.7413 33.4603 33.1989 33.4659C33.5076 33.483 33.8164 33.4489 34.1139 33.3584L34.8459 34.1847L34.4112 35.5087V35.588C33.7593 35.5767 33.1359 35.8426 32.6955 36.3124C31.9921 35.6219 31.4946 35.5484 29.613 35.5484C27.354 35.5484 25.8269 34.2413 25.8269 32.153V27.0601H39.5527V32.153ZM39.9245 18.7812C39.6899 19.3301 39.5641 19.9187 39.5412 20.5185V24.3325C39.0437 24.225 38.672 23.8063 38.6376 23.3027V23.1272H38.466C38.1687 23.1046 37.8941 22.9688 37.6883 22.7593C37.4366 22.4708 37.2993 22.1086 37.2936 21.7295C37.0478 22.1256 37.0706 22.6349 37.3566 23.0083C37.5796 23.2856 37.9056 23.4724 38.2602 23.5176C38.3631 24.1741 38.895 24.6834 39.5584 24.7683V26.6357H37.1564C36.5273 26.3188 36.2642 25.5775 36.5445 24.9381L36.636 24.7343L36.4244 24.6551C35.7381 24.4174 35.3606 23.6874 35.5779 22.9971L35.6237 22.8273L35.4636 22.7537C34.8631 22.4085 34.5313 21.7351 34.6286 21.0561C34.3141 21.3729 34.234 21.8539 34.4341 22.25C34.3198 22.3802 34.1711 22.533 34.0052 22.7028C33.4047 22.5783 32.9701 22.0634 32.9472 21.4578V21.3163L32.8156 21.2654C32.4668 21.1636 32.1808 20.9259 32.015 20.609C31.9063 20.3487 31.8834 20.0545 31.9578 19.7828C32.0722 19.8055 32.1865 19.8224 32.3009 19.8338C32.4153 19.8394 32.5354 19.8394 32.6498 19.8338C33.5763 19.8338 34.457 19.4377 35.0746 18.7586L39.9245 18.7812ZM36.2185 14.9219L37.1564 15.4878L37.3909 15.6235C36.9048 15.7537 36.4644 16.014 36.1155 16.3762L36.0755 16.4101C35.9955 16.495 35.9211 16.5799 35.8468 16.6705L35.801 16.7271C35.7266 16.8176 35.658 16.9138 35.5951 17.0157L35.5608 17.0666C35.4808 17.1798 35.4064 17.3042 35.332 17.4287C34.8116 18.453 33.7994 19.1377 32.6498 19.2509C31.5003 19.1377 30.488 18.453 29.9675 17.4287C29.8932 17.3042 29.8189 17.1854 29.7445 17.0666L29.6988 17.0043L29.5157 16.7101L29.4643 16.6478C29.3899 16.5573 29.3155 16.4723 29.2412 16.3932L29.2012 16.3535C28.8523 15.9913 28.412 15.7311 27.9259 15.601L28.166 15.4651L29.1097 14.8992L30.0762 14.3334L32.6556 15.7198L35.2348 14.3786L36.2185 14.9219ZM34.9488 13.79L32.8957 14.8596V10.5079L35.6809 9.57424L34.9488 13.79ZM32.6613 10.0496L29.6073 8.83858C29.8646 8.22743 31.0656 7.70681 32.6613 7.70681C34.2569 7.70681 35.4579 8.22743 35.7152 8.83858L32.6613 10.0496Z" fill="#222220"/>
</svg>
