<svg width="162" height="71" viewBox="0 0 162 71" fill="none" xmlns="http://www.w3.org/2000/svg">
<path d="M158.619 39.7231C143.331 39.7296 128.569 34.1419 117.116 24.014L115.871 22.8799C114.211 21.4006 112.774 20.3728 111.34 19.6504C109.699 18.7966 107.878 18.3485 106.028 18.3438C105.763 18.3438 105.497 18.3438 105.232 18.3703C103.601 18.4792 102.289 18.9015 101.341 19.6345C100.218 20.5003 99.5589 21.8362 99.3889 23.6182C99.2508 24.9993 98.5921 25.796 97.0996 26.3537C97.0544 26.3697 97.004 26.383 96.9721 26.3909C96.341 26.6031 95.6934 26.763 95.036 26.869L94.72 26.9194V22.9357C94.1091 22.9065 93.5726 22.8826 93.0893 22.8427L92.6511 22.8109L94.8634 18.859L95.0865 18.9413C95.557 19.1173 96.0554 19.2072 96.5578 19.2069C97.7051 19.2069 98.3266 18.8909 99.1844 18.2854L97.4528 17.4328L97.3838 17.1434L97.575 16.9043H97.7051C98.7171 16.8877 99.7148 17.1456 100.592 17.6506C100.653 17.6851 100.778 17.7808 100.9 17.8737C101.017 17.6443 101.1 17.3992 101.147 17.146C101.232 16.7554 101.201 16.3484 101.057 15.9754C100.913 15.6025 100.663 15.28 100.337 15.0479C99.6279 14.4928 98.64 14.2352 97.9468 14.1157L97.559 14.052L98.2416 12.8277H97.1792V11.4997L97.2722 11.4174C97.6365 11.132 97.9018 10.7393 98.0307 10.2949C98.1596 9.85048 98.1456 9.37677 97.9905 8.94076C97.8355 8.50475 97.5474 8.1285 97.1668 7.8652C96.7863 7.60191 96.3326 7.46489 95.8699 7.47352H95.5433L95.3945 8.06311L95.1157 8.15341L94.8501 7.98875V7.93563C94.8482 7.69404 94.7641 7.4603 94.6115 7.27296C94.4589 7.08563 94.2471 6.9559 94.0109 6.90517L93.7878 6.85737V5.94908H94.465H93.7878V5.26122V5.93846H93.1132H93.7878V6.83347L93.5673 6.88127C93.3274 6.93088 93.112 7.06188 92.9576 7.25209C92.8032 7.4423 92.7193 7.68003 92.7201 7.92501V7.98344L92.4546 8.14544L92.1518 8.06311L92.0084 7.47352H91.6844C91.2026 7.47573 90.7346 7.63478 90.3513 7.92659C89.968 8.21841 89.6901 8.62712 89.5597 9.09091L89.2941 9.14934L89.0285 9.01389V8.98734C89.0497 8.09246 88.7565 7.21849 88.1999 6.51742C87.646 5.84843 86.9069 5.35785 86.0753 5.10718L85.8283 5.02485L86.0434 4.22811H83.9187L83.7249 4.92393H81.8313L81.7675 4.89206L81.5949 4.92393L81.972 4.46979C82.1612 4.24145 82.2638 3.95364 82.2615 3.65711C82.2624 3.37428 82.1692 3.09919 81.9966 2.87513C81.824 2.65108 81.5818 2.49079 81.3081 2.41949L81.0983 2.36372V1.41294H82.0012V1.17923H81.0983V0.265625H80.8699V1.1686H79.9642V1.40232H80.8699V2.35841L80.6627 2.41418C80.3885 2.48498 80.1457 2.64505 79.9726 2.86915C79.7995 3.09325 79.7059 3.36861 79.7066 3.65179C79.7081 3.94769 79.8102 4.23427 79.9961 4.46448L80.3706 4.91862L80.2059 4.88675L80.1422 4.91862H78.2406L78.0759 4.2228H75.9513L76.1611 5.00361L75.8955 5.07797C75.063 5.32243 74.3293 5.82453 73.8001 6.51211C73.2579 7.21241 72.9628 8.07248 72.9608 8.95812L72.6953 9.13075L72.4297 9.04045C72.2886 8.59165 72.0098 8.19862 71.6329 7.91704C71.2508 7.62778 70.7843 7.47196 70.305 7.47352H69.9837L69.8429 8.06311L69.5773 8.15606L69.3117 7.99406V7.93563C69.3087 7.69069 69.2212 7.45431 69.0639 7.26653C68.9066 7.07874 68.6892 6.95109 68.4486 6.90517L68.2282 6.85737V5.94908H68.9054H68.2282V5.26122V5.93846H67.5536H68.2282V6.83347L68.0077 6.88127C67.7673 6.93034 67.5513 7.06111 67.3964 7.25137C67.2415 7.44163 67.1572 7.67965 67.1579 7.92501V7.98078L66.8923 8.14544L66.6267 8.05249L66.4806 7.4629H66.1248C65.5389 7.4643 64.9776 7.698 64.5639 8.11274C64.1501 8.52747 63.9178 9.08937 63.9178 9.67519C63.9144 10.0109 63.9884 10.3429 64.1339 10.6455C64.2794 10.9481 64.4926 11.2131 64.757 11.4201L64.8526 11.5024V12.8303H63.7903L64.4728 14.0546L64.0851 14.1184C63.3839 14.2379 62.3986 14.4955 61.6949 15.0506C61.3683 15.2818 61.1171 15.6041 60.9725 15.9772C60.828 16.3504 60.7966 16.7578 60.8822 17.1487C60.9288 17.4023 61.0129 17.6475 61.1318 17.8764C61.2513 17.7834 61.3788 17.6878 61.4372 17.6533C62.3154 17.1483 63.3139 16.8904 64.3268 16.907H64.4542L64.6455 17.138L64.5764 17.4355L62.8448 18.288C63.7053 18.8935 64.3268 19.2096 65.4767 19.2096C65.9782 19.2094 66.4756 19.1195 66.9454 18.944L67.1685 18.8617L69.3781 22.8082L68.9452 22.8454C68.4486 22.8852 67.9121 22.9091 67.296 22.9384V26.9221L66.9746 26.8716C66.3189 26.766 65.6731 26.6061 65.0438 26.3936C65.0012 26.3849 64.9594 26.3724 64.919 26.3564H64.9031C63.4132 25.7987 62.7519 25.0019 62.6138 23.6209C62.4464 21.8495 61.7878 20.5136 60.6591 19.6372C59.7136 18.9042 58.4069 18.4819 56.7736 18.373C56.508 18.3544 56.2425 18.3464 55.9769 18.3464C54.1272 18.3504 52.3056 18.7985 50.6652 19.6531C49.2284 20.3755 47.789 21.4033 46.1317 22.8826L44.8782 24.014C33.4244 34.1444 18.6588 39.7323 3.36775 39.7231C2.25762 39.7231 1.18201 39.6886 0.273722 39.6488C0.260443 41.1838 0.711932 42.4772 1.5193 43.2899C2.21247 43.9937 3.17122 44.3522 4.35837 44.3522H4.45664C5.53756 44.3336 6.6291 44.2885 7.70205 44.2194L7.93045 44.2062L7.98622 44.4266C8.41646 46.0759 9.40177 47.008 11.0032 47.2657C11.3541 47.3258 11.7096 47.3551 12.0656 47.3533C12.4695 47.3484 12.8729 47.3218 13.274 47.2736C13.9538 47.2019 14.6258 47.0851 15.2791 46.9682L15.6005 46.9124L15.6828 47.1249C16.2671 48.6971 17.3108 49.5151 18.8698 49.6293C19.0052 49.6293 19.1486 49.6479 19.2974 49.6479C19.8932 49.6396 20.4867 49.5711 21.0688 49.4434C21.7487 49.308 22.4233 49.1194 23.0766 48.9415L23.305 48.8751L23.4059 49.0822C24.1256 50.5536 25.2092 51.268 26.7204 51.268H26.7522C27.4741 51.2437 28.1891 51.1195 28.8769 50.8988C29.5515 50.6996 30.2473 50.442 30.8024 50.2269L31.0175 50.1472L31.137 50.3438C31.6584 51.2076 32.4802 51.8488 33.4449 52.1444L33.5379 52.41L33.3652 52.6756H23.0686V53.0368C23.0527 53.9902 22.5056 55.1056 21.0024 55.1056H20.6359V67.7234H20.9997C21.9532 67.7394 23.066 68.2865 23.066 69.7897V70.1562H138.913V69.7897C138.913 68.8362 139.468 67.7234 140.976 67.7234H141.343V55.1295H140.984C140.031 55.1163 138.918 54.5692 138.918 53.0607V52.6995H128.6L128.43 52.4339L128.521 52.1683C129.487 51.8729 130.31 51.2319 130.834 50.3677L130.948 50.1711L131.166 50.2508C131.723 50.4659 132.411 50.7235 133.097 50.9227C133.784 51.144 134.499 51.2682 135.221 51.2919H135.253C136.767 51.2919 137.85 50.5775 138.568 49.1061L138.668 48.899L138.897 48.9654C139.55 49.1433 140.225 49.3319 140.902 49.4673C141.484 49.5947 142.078 49.6632 142.673 49.6718C142.822 49.6718 142.966 49.6718 143.104 49.6532C144.665 49.5337 145.709 48.7211 146.291 47.1488L146.373 46.9363L146.692 46.9921C147.345 47.109 148.02 47.2258 148.702 47.2975C149.101 47.3445 149.501 47.3702 149.903 47.3745C150.259 47.3763 150.614 47.347 150.965 47.2869C152.558 47.0213 153.552 46.0971 153.985 44.4478L154.04 44.2274L154.269 44.2407C155.331 44.3097 156.431 44.3549 157.514 44.3735H157.61C158.802 44.3735 159.753 44.0176 160.449 43.3111C161.246 42.4958 161.697 41.2024 161.697 39.6674C160.783 39.7072 159.708 39.7417 158.603 39.7417L158.619 39.7231ZM76.8596 52.6942H35.6652L35.4952 52.4286L35.5935 52.163C35.8324 52.098 36.0659 52.0145 36.2919 51.9133C40.9297 49.8686 45.3672 47.3969 49.5471 44.5302L49.733 44.4027L49.8977 44.562C50.6455 45.3206 51.6611 45.7555 52.7261 45.7731C52.896 45.7718 53.0655 45.7585 53.2334 45.7333L53.3848 45.712L53.4857 45.8289C53.865 46.2887 54.3394 46.661 54.8762 46.92C55.4131 47.179 55.9997 47.3187 56.5957 47.3294C56.8638 47.3296 57.1311 47.2993 57.3924 47.2391L57.5465 47.2099L57.6553 47.3241C58.0368 47.741 58.4991 48.0758 59.0141 48.3083C59.5292 48.5407 60.0862 48.6658 60.6511 48.6759C61.011 48.674 61.3688 48.6203 61.7134 48.5165L61.8728 48.4714L61.987 48.5856C62.7664 49.3519 63.8153 49.7819 64.9084 49.7834C65.4066 49.7925 65.9014 49.6999 66.3626 49.5113C66.8238 49.3227 67.2417 49.0421 67.5908 48.6865C67.6997 48.5723 67.7979 48.4661 67.8882 48.3652L68.029 48.2085L68.2202 48.3041C70.9504 49.7196 73.9036 51.1617 76.9605 52.1683L77.0455 52.4339L76.8596 52.6942ZM80.9973 20.2108C79.322 20.2009 77.6483 20.1034 75.9832 19.9187H75.8769L71.2983 15.024L71.6356 14.8594C72.4031 14.4822 72.836 13.8315 72.9954 12.8223H71.5957V11.4944L71.702 11.4201C71.9346 11.2347 72.1275 11.0044 72.2694 10.743C72.4113 10.4816 72.4992 10.1943 72.5279 9.89828L72.7935 9.7469L73.0591 9.86376C73.2223 10.5995 73.5854 11.2758 74.1084 11.8185C74.6313 12.3611 75.2938 12.7489 76.023 12.9392L76.2275 12.9897V14.692H85.7778V12.979L85.985 12.9233C86.7202 12.7292 87.3867 12.3339 87.9094 11.7816C88.4321 11.2293 88.7902 10.5421 88.9436 9.79736L89.2091 9.71769L89.4747 9.8372C89.4958 10.1448 89.5812 10.4446 89.7253 10.7173C89.8694 10.9899 90.069 11.2293 90.3113 11.4201L90.4043 11.5024V12.8303H89.0073C89.164 13.8395 89.5995 14.4902 90.3671 14.8673L90.7017 15.032L86.1231 19.9001H86.0195C84.3521 20.0916 82.6757 20.1954 80.9973 20.2108ZM126.316 52.6942H85.0847L84.9147 52.4286L85.0023 52.163C87.9237 51.2149 90.5211 49.9826 93.7798 48.2988L93.9684 48.2032L94.1144 48.3625C94.2021 48.4608 94.2977 48.567 94.4039 48.6812C94.7534 49.037 95.1717 49.3177 95.6334 49.5063C96.0951 49.6949 96.5903 49.7874 97.089 49.7781C98.1776 49.774 99.2214 49.3441 99.9971 48.5803L100.119 48.4661L100.273 48.5112C100.618 48.6152 100.976 48.6689 101.336 48.6706C101.901 48.6604 102.458 48.5354 102.973 48.3029C103.488 48.0705 103.95 47.7357 104.331 47.3188L104.44 47.2046L104.594 47.2338C104.856 47.2936 105.123 47.3239 105.391 47.3241C105.987 47.313 106.573 47.1732 107.11 46.9142C107.647 46.6552 108.122 46.2831 108.501 45.8235L108.602 45.7067L108.751 45.7279C108.919 45.7532 109.09 45.7665 109.261 45.7678C110.325 45.7503 111.34 45.3154 112.086 44.5567L112.251 44.3974L112.44 44.5249C116.62 47.3917 121.059 49.8634 125.697 51.908C125.923 52.01 126.157 52.0935 126.396 52.1577L126.489 52.4233L126.316 52.6942Z" fill="white"/>
<path d="M30.8025 63.2696H35.0226V56.8027H28.8239V66.0396H30.8025V63.2696ZM30.8025 58.7786H33.0467V61.2883H30.8025V58.7786ZM129.413 66.0396L130.622 62.3719H131.153L132.372 66.0396H134.475L132.786 61.3813L134.358 56.8027H132.25L131.163 60.3907H130.632L129.557 56.8027H127.445L129.012 61.3813L127.315 66.0396H129.413ZM110.265 63.2696H114.482V56.8027H108.286V66.0396H110.265V63.2696ZM110.265 58.7786H112.509V61.2883H110.265V58.7786ZM162 39.5956V39.3619H161.766C160.723 39.4071 159.681 39.4363 158.632 39.4363C143.406 39.4648 128.698 33.9032 117.3 23.8068C117.058 23.5916 116.054 22.6754 116.054 22.6754C112.966 19.9186 109.627 17.794 105.205 18.0914C102.188 18.2959 99.4979 19.584 99.0969 23.581C98.9827 24.7655 98.4834 25.5224 96.9882 26.0828C96.951 26.0828 96.9006 26.1067 96.866 26.12C96.2479 26.3277 95.6136 26.4841 94.9698 26.5874V22.6515C94.258 22.617 93.6419 22.5904 93.0842 22.5479L94.9645 19.183C95.4663 19.3715 95.998 19.4678 96.5341 19.4672C97.939 19.4672 98.6162 19.0104 99.6998 18.2189L97.5512 17.1566H97.6814C98.641 17.142 99.5868 17.3861 100.42 17.863C100.534 17.9321 100.972 18.272 100.972 18.272C101.174 17.9298 101.319 17.5565 101.4 17.1672C101.753 15.0426 99.7503 14.121 97.947 13.8182L98.68 12.5248H97.4052V11.6192C97.8053 11.2981 98.0963 10.8611 98.2382 10.3681C98.3802 9.87511 98.3661 9.35027 98.1979 8.86558C98.0298 8.3809 97.7158 7.96011 97.299 7.66094C96.8822 7.36177 96.3831 7.19888 95.8701 7.19461H95.3389L95.1398 7.99136V7.93824C95.142 7.62861 95.0376 7.32764 94.8441 7.08584C94.6507 6.84405 94.38 6.67616 94.0774 6.61033V6.22524H94.7547V5.66221H94.0774V4.98497H93.5117V5.66221H92.8159V6.22524H93.4931V6.6183C93.1913 6.68548 92.9214 6.85374 92.7282 7.09523C92.535 7.33672 92.4301 7.63695 92.4308 7.94621V8.00198L92.2343 7.20524H91.7031C91.161 7.20711 90.6343 7.38576 90.203 7.71408C89.7716 8.0424 89.4591 8.50246 89.3129 9.02447V8.99792C89.3129 6.8892 87.985 5.44709 86.1684 4.85218L86.4101 3.95186H83.7118L83.5232 4.653H82.1953C82.359 4.45109 82.47 4.21162 82.5181 3.95616C82.5662 3.7007 82.55 3.43728 82.471 3.18963C82.392 2.94198 82.2526 2.71789 82.0653 2.53754C81.8781 2.35719 81.649 2.22625 81.3985 2.15653V1.69176H82.2989V0.895011H81.3985V0H80.6018V0.897667H79.6962V1.69441H80.5965V2.1459C80.3452 2.21445 80.1151 2.34476 79.927 2.52497C79.739 2.70517 79.599 2.92954 79.5198 3.17766C79.4406 3.42578 79.4248 3.68977 79.4737 3.94559C79.5225 4.20141 79.6346 4.44094 79.7997 4.64237H78.4718L78.2859 3.94124H75.5956L75.8319 4.81235C74.9323 5.07236 74.1408 5.61627 73.5755 6.36292C73.0103 7.10957 72.7016 8.01896 72.6954 8.95542C72.5379 8.44474 72.2207 7.99808 71.7905 7.68111C71.3602 7.36415 70.8396 7.19363 70.3052 7.19461H69.774L69.5748 7.99136V7.9409C69.576 7.63152 69.4713 7.33104 69.278 7.08945C69.0848 6.84786 68.8146 6.67972 68.5125 6.61299V6.22524H69.1897V5.66221H68.5152V4.98497H67.9495V5.66221H67.2722V6.22524H67.9495V6.6183C67.6471 6.68458 67.3767 6.8526 67.1833 7.09429C66.99 7.33598 66.8854 7.6367 66.8871 7.94621V7.99933L66.6853 7.20258H66.1541C65.4946 7.20399 64.8626 7.46716 64.397 7.93426C63.9314 8.40137 63.6702 9.03421 63.6709 9.69374C63.6698 10.0653 63.7528 10.4323 63.9138 10.7672C64.0748 11.102 64.3096 11.3961 64.6005 11.6272V12.5381H63.3283L64.0534 13.8315C62.2634 14.1343 60.2609 15.0479 60.6167 17.1805C60.6979 17.5693 60.8414 17.9424 61.0417 18.2853C61.0417 18.2853 61.4799 17.9454 61.5888 17.8763C62.4245 17.3995 63.3728 17.1556 64.3349 17.1699H64.4624L62.3138 18.2322C63.3974 19.0289 64.072 19.4804 65.4849 19.4804C66.0191 19.4806 66.5491 19.3843 67.0491 19.1963L68.9321 22.5585C68.3717 22.601 67.745 22.6302 67.0252 22.6648V26.6007C66.3823 26.497 65.749 26.3407 65.1316 26.1333C65.0917 26.1186 65.0509 26.1061 65.0095 26.0961C63.5169 25.5357 63.0176 24.7682 62.9008 23.5943C62.5157 19.5973 59.82 18.3092 56.7924 18.1047C52.3598 17.794 49.0161 19.9186 45.9407 22.6754C45.9407 22.6754 44.9368 23.5916 44.6925 23.8068C33.2986 33.9063 18.5936 39.4717 3.36791 39.4469C2.32152 39.4469 1.27778 39.4177 0.231389 39.3725H0.000332803V39.6062C-0.0235696 42.2621 1.23794 44.6895 4.46742 44.639C5.55808 44.6231 6.64342 44.5797 7.72346 44.5089C8.22806 46.4768 9.4763 47.3028 10.9582 47.5392C11.7394 47.6388 12.5301 47.6388 13.3113 47.5392C14.031 47.4568 14.7561 47.3294 15.436 47.2098C16.1371 49.0822 17.4119 49.7833 18.862 49.8922C19.6257 49.9369 20.392 49.8734 21.138 49.7037C21.8312 49.5656 22.519 49.3743 23.1697 49.1911C24.0328 50.9572 25.3369 51.5388 26.7657 51.5309C27.5158 51.5066 28.2591 51.3807 28.9753 51.1564C29.6393 50.9572 30.3032 50.7076 30.922 50.4765C31.4802 51.3978 32.3572 52.082 33.3866 52.3993H22.7926V53.0367C22.7926 53.3315 22.689 54.8241 21.0079 54.8241H20.3572V67.3356V67.973H20.9919C21.2894 67.973 22.7793 68.0793 22.7793 69.7604V70.4058H138.554H139.192V69.771C139.192 69.4709 139.303 67.9784 140.979 67.9784H141.622V54.832H140.99C140.69 54.832 139.197 54.7258 139.197 53.0447V52.4046H128.6C129.631 52.0875 130.508 51.4033 131.068 50.4818C131.692 50.7129 132.35 50.9625 133.014 51.1617C133.73 51.3858 134.472 51.5118 135.221 51.5362C136.653 51.5362 137.96 50.9625 138.82 49.1964C139.468 49.3797 140.148 49.5709 140.854 49.709C141.599 49.8787 142.363 49.9422 143.125 49.8975C144.575 49.7886 145.853 49.1008 146.556 47.2152C147.228 47.3347 147.951 47.4622 148.681 47.5445C149.462 47.6442 150.253 47.6442 151.034 47.5445C152.511 47.3001 153.759 46.4821 154.269 44.4956C155.35 44.5646 156.441 44.6098 157.53 44.6257C160.762 44.6762 162.019 42.2541 161.995 39.593L162 39.5956ZM128.343 33.1659C127.764 33.8776 126.452 34.8523 124.731 33.9626C123.456 33.2987 121.379 31.9947 117.276 28.7997C118.662 28.5872 119.332 27.91 119.759 27.6019C121.884 29.3441 126.189 32.0212 128.343 33.1791V33.1659ZM100.119 37.7126C101.052 37.6516 101.944 37.311 102.68 36.7353C105.391 39.2606 108.262 41.6096 111.274 43.7679C110.01 44.9843 108.618 44.8966 107.585 44.1264C104.978 42.1299 102.486 39.9886 100.119 37.7126ZM107.404 45.4145C105.933 46.7212 104.419 46.2909 103.654 45.6429C101.047 43.5202 98.5503 41.2661 96.1729 38.8892C97.1066 38.8538 98.0073 38.5341 98.7543 37.9729C101.476 40.6295 104.362 43.1132 107.394 45.4092L107.404 45.4145ZM103.904 36.3263C104.836 36.2482 105.722 35.8889 106.446 35.2958C109.158 37.7279 112.037 39.9677 115.061 41.9991C114.198 42.8888 112.65 43.3563 111.343 42.4294C108.763 40.52 106.281 38.4813 103.907 36.321L103.904 36.3263ZM114.947 40.5384C112.361 38.7387 109.878 36.7951 107.511 34.7169C108.442 34.6203 109.323 34.2434 110.036 33.636C112.75 35.958 115.623 38.0879 118.633 40.0099C118.187 40.5303 117.568 40.871 116.89 40.9687C116.212 41.0664 115.521 40.9145 114.947 40.5411V40.5384ZM118.368 38.4961C115.792 36.776 113.314 34.9141 110.945 32.9189C111.874 32.8056 112.747 32.413 113.449 31.7928C116.159 34.029 119.029 36.0643 122.035 37.8826C121.212 38.836 119.613 39.3274 118.368 38.4961ZM121.632 36.2918C119.047 34.6577 116.564 32.8689 114.195 30.935C115.128 30.818 116.001 30.4101 116.689 29.7691C119.396 31.9255 122.265 33.8709 125.27 35.588C124.431 36.6503 122.811 37.0487 121.632 36.2865V36.2918ZM94.9804 27.9605C95.7576 27.8479 96.523 27.6648 97.2671 27.4134C97.3339 27.3985 97.3995 27.379 97.4636 27.3549C99.405 26.6299 100.295 25.4587 100.467 23.7085C100.818 20.1285 103.431 19.3052 106.422 19.4433C110.14 19.6212 112.689 21.4643 115.159 23.674C115.57 24.0617 115.989 24.4424 116.416 24.816C117.228 25.5242 118.058 26.2209 118.904 26.9061C118.405 27.3657 117.759 27.6321 117.081 27.6574C116.403 27.6828 115.739 27.4653 115.207 27.0442C114.028 26.0102 112.877 24.9319 111.755 23.8094C111.417 24.0325 111.088 24.2423 110.764 24.4468C112.377 26.0752 114.071 27.6211 115.839 29.0786C115.332 29.5362 114.677 29.7956 113.994 29.8093C113.311 29.8229 112.646 29.5899 112.121 29.1529C111.871 28.9298 111.624 28.7041 111.38 28.481C110.429 27.5993 109.489 26.6883 108.578 25.7482C108.23 25.95 107.882 26.1386 107.542 26.3271C108.695 27.5258 109.892 28.6828 111.133 29.7983C111.62 30.2338 112.11 30.6641 112.604 31.089C112.089 31.5367 111.428 31.7832 110.745 31.7832C110.062 31.7832 109.402 31.5367 108.886 31.089C108.283 30.5366 107.702 29.9842 107.131 29.4238C106.491 28.7917 105.864 28.1464 105.242 27.4851C104.873 27.671 104.515 27.8356 104.156 28.0003C105.357 29.2893 106.603 30.5286 107.896 31.7185C108.326 32.1168 108.767 32.5152 109.202 32.9029C108.678 33.3408 108.014 33.5754 107.331 33.5637C106.649 33.552 105.993 33.2948 105.484 32.8392C104.573 31.9654 103.689 31.0864 102.828 30.202C102.462 29.8142 102.095 29.4052 101.731 29.0201C101.352 29.1742 100.972 29.3202 100.592 29.461C101.835 30.842 103.136 32.1779 104.48 33.4686C104.86 33.8298 105.24 34.1857 105.62 34.531C105.086 34.958 104.417 35.1787 103.734 35.1529C103.052 35.127 102.401 34.8563 101.901 34.3902C100.552 33.0623 99.2775 31.7025 98.0665 30.3295C97.6734 30.4543 97.2697 30.5764 96.8793 30.6933C98.4728 32.524 100.143 34.2795 101.891 35.9598C101.346 36.3785 100.669 36.5865 99.9834 36.5456C99.2978 36.5046 98.6501 36.2173 98.1594 35.7367C97.0466 34.5867 95.9976 33.4368 94.9724 32.2841L94.9804 27.9605ZM94.9804 34.0237C95.9542 35.1037 96.9501 36.1608 97.9682 37.1948C97.5412 37.5081 97.0348 37.6954 96.5066 37.7353C95.9784 37.7752 95.4497 37.6661 94.9804 37.4205V34.0237ZM94.9804 39.3061C97.5973 41.9774 100.378 44.4832 103.306 46.8088C102.801 47.284 102.14 47.5584 101.447 47.5804C100.754 47.6024 100.077 47.3705 99.5431 46.9283C97.9629 45.5765 96.4411 44.2008 94.9778 42.7853L94.9804 39.3061ZM94.9804 44.3681C96.3694 45.6801 97.8407 46.9974 99.0438 47.988C98.2471 48.6865 96.4942 49.2362 95.153 47.9004C95.0988 47.8396 95.0412 47.7819 94.9804 47.7277V44.3681ZM94.1996 48.8671C95.5275 50.3039 98.2922 50.6226 100.196 48.7794C100.967 48.9932 101.782 48.9873 102.549 48.7625C103.316 48.5378 104.005 48.103 104.539 47.5073C105.305 47.6557 106.098 47.594 106.832 47.329C107.567 47.0639 108.216 46.6052 108.711 46.0014C109.362 46.0814 110.023 46.0104 110.643 45.794C111.262 45.5775 111.823 45.2214 112.283 44.7532C116.474 47.6321 120.925 50.1128 125.578 52.1629C125.817 52.2694 126.064 52.3582 126.316 52.4285H85.0848C88.1576 51.4299 90.9276 50.0888 93.9074 48.551C93.9977 48.6466 94.096 48.7529 94.1996 48.8697V48.8671ZM92.2316 22.4656C91.7541 22.4085 91.2828 22.3071 90.824 22.1628L92.0085 20.2719C92.138 20.4557 92.3079 20.6074 92.5052 20.7154C92.6895 20.8195 92.8965 20.8769 93.1081 20.8827L92.2316 22.4656ZM92.3326 14.7796C91.1985 14.7159 90.0751 14.4317 89.6263 13.3322H97.3441L96.5314 14.7849L92.3326 14.7796ZM92.3458 16.4448C92.4706 16.7796 92.6642 17.0845 92.9142 17.3398L91.9634 18.8563L91.9395 18.8962C91.5703 19.4831 90.5027 18.8059 90.9728 18.203L92.3458 16.4448ZM92.0537 15.5365L90.3248 17.7488C89.844 18.3198 88.8534 17.7834 89.5068 17.045C89.5307 17.0238 89.5493 16.9999 89.5732 16.9787L91.0657 15.3852C91.3907 15.4595 91.7211 15.5083 92.0537 15.5312V15.5365ZM89.5466 18.7448L88.1815 20.495C87.8734 20.2081 87.5415 19.8868 87.1856 19.5123L88.5985 18.0118C88.6869 18.2279 88.8376 18.4128 89.0314 18.5429C89.1873 18.6478 89.3624 18.7209 89.5466 18.7581V18.7448ZM90.2345 19.1591C90.3369 19.3603 90.4909 19.5307 90.6806 19.6531C90.873 19.7818 91.0917 19.8662 91.3207 19.9001L90.099 21.8707C89.6281 21.6404 89.1867 21.3541 88.7844 21.0182L90.2345 19.1591ZM93.7215 19.8151C93.3418 20.4711 92.314 19.916 92.6114 19.3317L93.5595 17.794C93.9086 17.9597 94.2829 18.0656 94.667 18.1074L93.7215 19.8151ZM92.8929 15.5843H93.6525C93.7436 15.8333 93.9071 16.0493 94.1219 16.2046C94.3368 16.3598 94.5933 16.4472 94.8582 16.4555L95.3761 15.5897H95.886H96.0879L95.0946 17.3691C93.6206 17.2947 93.0284 16.5272 92.8929 15.587V15.5843ZM98.1382 18.3252C97.6446 18.5731 97.0968 18.6936 96.5447 18.6757C96.1438 18.677 95.7454 18.6124 95.3655 18.4845L95.5594 18.1578L96.0374 17.292L98.1382 18.3252ZM97.5619 14.5592C98.919 14.7345 100.916 15.3135 100.624 17.0716C99.722 16.6036 98.7187 16.3647 97.7026 16.3758H96.5606L97.1183 15.3666L97.5619 14.5592ZM95.9445 7.9887C96.276 8.00466 96.5955 8.11748 96.8636 8.31319C97.1317 8.50891 97.3364 8.77892 97.4526 9.08983C97.5688 9.40074 97.5912 9.73888 97.5172 10.0624C97.4431 10.386 97.2758 10.6807 97.036 10.9101H95.2168L95.9445 7.9887ZM93.772 7.38052C93.8837 7.37947 93.9932 7.41166 94.0865 7.473C94.1799 7.53434 94.2529 7.62206 94.2962 7.725C94.3396 7.82794 94.3513 7.94145 94.33 8.05109C94.3086 8.16073 94.2552 8.26154 94.1764 8.34071C94.0976 8.41988 93.997 8.47382 93.8875 8.49568C93.778 8.51754 93.6644 8.50632 93.5612 8.46346C93.4581 8.4206 93.37 8.34802 93.3083 8.25497C93.2465 8.16192 93.2138 8.05259 93.2143 7.9409C93.2157 7.79271 93.2752 7.65098 93.3799 7.54618C93.4847 7.44139 93.6265 7.38191 93.7747 7.38052H93.772ZM93.7747 9.29271C94.0297 9.29357 94.2799 9.22251 94.4965 9.0877C94.713 8.95288 94.8872 8.75976 94.999 8.53049L94.4041 10.9207H93.1585L92.561 8.53049C92.6701 8.75921 92.8418 8.95239 93.0561 9.08773C93.2704 9.22307 93.5186 9.29505 93.772 9.29537L93.7747 9.29271ZM96.635 11.7095V12.5355H92.4574H90.9143V11.7069L96.635 11.7095ZM91.6208 7.9887L92.3538 10.9101H90.5293C90.2894 10.6807 90.1221 10.386 90.0481 10.0624C89.974 9.73888 89.9965 9.40074 90.1127 9.08983C90.2288 8.77892 90.4336 8.50891 90.7017 8.31319C90.9697 8.11748 91.2893 8.00466 91.6208 7.9887ZM88.5108 8.98729C88.5112 9.45439 88.4194 9.91697 88.2408 10.3486C88.0623 10.7802 87.8003 11.1724 87.47 11.5026C87.1397 11.8329 86.7476 12.0949 86.316 12.2735C85.8844 12.452 85.4218 12.5438 84.9547 12.5434H84.073L85.948 5.57722C86.6849 5.79408 87.3318 6.24375 87.7919 6.85894C88.252 7.47413 88.5005 8.22175 88.5002 8.98995L88.5108 8.98729ZM85.2468 13.3322V14.1715H76.7482V13.3322H85.2468ZM84.3067 4.73533H85.3477L83.239 12.5434H82.1979L84.3067 4.73533ZM80.9842 2.87625C81.1362 2.87625 81.2847 2.92134 81.4109 3.00579C81.5372 3.09025 81.6356 3.21028 81.6936 3.35068C81.7516 3.49108 81.7667 3.64554 81.7368 3.7945C81.707 3.94346 81.6336 4.08022 81.526 4.18745C81.4184 4.29469 81.2814 4.36758 81.1323 4.39689C80.9833 4.42621 80.8289 4.41063 80.6887 4.35213C80.5485 4.29363 80.4288 4.19484 80.3448 4.06827C80.2607 3.9417 80.2162 3.79304 80.2167 3.64113C80.2181 3.54023 80.2394 3.44059 80.2795 3.34797C80.3195 3.25535 80.3775 3.17157 80.4501 3.10146C80.5227 3.03135 80.6084 2.97629 80.7024 2.93947C80.7963 2.90264 80.8966 2.88476 80.9975 2.88688L80.9842 2.87625ZM81.7544 5.01153L80.9975 7.74437L80.2406 5.01153C80.4715 5.1421 80.7323 5.21072 80.9975 5.21072C81.2628 5.21072 81.5235 5.1421 81.7544 5.01153ZM79.5342 5.43115L80.9975 10.695L82.4609 5.43115H83.316L81.3959 12.5434H80.5991L78.679 5.43115H79.5342ZM77.6751 4.73533L79.7865 12.5434H78.7401L76.6154 4.73533H77.6751ZM76.0364 5.57722L77.9194 12.5461H77.0403C76.1843 12.5471 75.3567 12.2393 74.7093 11.6792C74.062 11.1191 73.6384 10.3443 73.5163 9.497C73.3943 8.64972 73.582 7.78685 74.0449 7.06681C74.5078 6.34676 75.2149 5.81787 76.0364 5.57722ZM72.791 9.90886C72.9632 10.6954 73.3495 11.4191 73.9072 11.9998C74.465 12.5805 75.1725 12.9957 75.9515 13.1994V14.9602H86.0436V13.1941C86.8295 12.9873 87.5419 12.5648 88.1004 11.9744C88.6588 11.384 89.0411 10.6493 89.204 9.85309C89.2272 10.1952 89.3211 10.5287 89.4797 10.8327C89.6383 11.1367 89.8582 11.4045 90.1256 11.6192V12.5434H88.6994C88.8348 13.9457 89.4244 14.7026 90.2557 15.1063L86.0064 19.6345C84.3429 19.8173 82.671 19.9121 80.9975 19.9186C79.3319 19.908 77.668 19.8105 76.0125 19.6265L71.7632 15.0957C72.5919 14.692 73.1841 13.9351 73.3195 12.5328H71.8827V11.6192C72.1431 11.4108 72.3586 11.1519 72.5161 10.8579C72.6735 10.5639 72.7698 10.2411 72.799 9.90886H72.791ZM69.6731 14.7796H65.4663L64.6695 13.3322H72.3873C71.9385 14.4317 70.6982 14.7796 69.6837 14.7796H69.6731ZM70.9479 15.3905L72.4405 16.984C72.4639 17.0048 72.4861 17.0269 72.5069 17.0504C73.1549 17.7887 72.1696 18.3252 71.6836 17.7542L69.9573 15.5419C70.2908 15.5189 70.622 15.4701 70.9479 15.3958V15.3905ZM71.0408 18.2136C71.5083 18.8165 70.438 19.4937 70.0715 18.9068L70.0476 18.8669L69.0968 17.3452C69.3467 17.0898 69.5403 16.7849 69.6651 16.4501L71.0408 18.2136ZM71.333 19.6557C71.5215 19.5297 71.675 19.3579 71.7792 19.1564L73.2266 21.0155C72.8217 21.3467 72.3817 21.6325 71.9146 21.868L70.6876 19.9027C70.9185 19.8698 71.1391 19.7854 71.333 19.6557ZM72.467 18.7554C72.6511 18.7177 72.8261 18.6447 72.9823 18.5403C73.1746 18.4092 73.3243 18.2245 73.4125 18.0091L74.8174 19.5017C74.4615 19.8708 74.1375 20.1975 73.8268 20.4843L72.467 18.7554ZM70.4035 7.99402C70.735 8.00997 71.0545 8.12279 71.3226 8.3185C71.5906 8.51422 71.7954 8.78424 71.9116 9.09514C72.0277 9.40605 72.0502 9.74419 71.9762 10.0677C71.9021 10.3913 71.7348 10.686 71.495 10.9154H69.6572L70.4035 7.99402ZM68.2363 7.38583C68.3477 7.38636 68.4564 7.4199 68.5487 7.4822C68.6409 7.5445 68.7127 7.63278 68.7548 7.73586C68.797 7.83894 68.8076 7.95219 68.7853 8.06131C68.7631 8.17042 68.709 8.27049 68.6299 8.34886C68.5508 8.42723 68.4502 8.48038 68.3409 8.50159C68.2316 8.5228 68.1184 8.51111 68.0157 8.46802C67.913 8.42492 67.8255 8.35234 67.764 8.25946C67.7026 8.16658 67.6701 8.05757 67.6706 7.94621C67.6706 7.87217 67.6853 7.79887 67.7138 7.73053C67.7423 7.66219 67.784 7.60018 67.8366 7.54807C67.8892 7.49597 67.9516 7.4548 68.0202 7.42696C68.0888 7.39911 68.1623 7.38513 68.2363 7.38583ZM68.2363 9.29802C68.4908 9.29795 68.7402 9.22616 68.9558 9.09088C69.1714 8.9556 69.3445 8.7623 69.4553 8.53315L68.8551 10.9234H67.6122L67.0173 8.53315C67.1274 8.76038 67.299 8.95222 67.5126 9.08694C67.7261 9.22166 67.9732 9.29386 68.2257 9.29537L68.2363 9.29802ZM71.0833 11.7095V12.5461H65.3654V11.7069L71.0833 11.7095ZM64.4438 9.68843C64.444 9.25113 64.6128 8.83074 64.915 8.51467C65.2172 8.1986 65.6296 8.01118 66.0665 7.99136L66.7995 10.9128H64.975C64.8073 10.7548 64.6736 10.5643 64.5823 10.3528C64.4909 10.1414 64.4438 9.91347 64.4438 9.68312V9.68843ZM64.3216 16.3731C63.3056 16.3631 62.3026 16.602 61.4002 17.069C61.1081 15.3108 63.1079 14.7318 64.465 14.5565L64.9192 15.3533L65.4769 16.3625L64.3216 16.3731ZM65.4716 18.6731C64.9196 18.6895 64.3722 18.569 63.8781 18.3225L65.9789 17.2894L66.4596 18.1552L66.6508 18.4818C66.2726 18.6094 65.876 18.674 65.4769 18.6731H65.4716ZM66.9243 17.3452L65.931 15.5658H66.1249H66.6348L67.1501 16.4316C67.415 16.4233 67.6715 16.3359 67.8864 16.1807C68.1012 16.0254 68.2647 15.8094 68.3558 15.5604H69.118C68.9826 16.5006 68.3877 17.2681 66.9164 17.3425L66.9243 17.3452ZM68.2894 19.7912L67.3413 18.0994C67.7222 18.0593 68.0938 17.9561 68.4408 17.794L69.3916 19.3158C69.689 19.9001 68.6639 20.4551 68.2814 19.7991L68.2894 19.7912ZM68.8896 20.8854C69.1013 20.8802 69.3084 20.8227 69.4925 20.718C69.6889 20.6073 69.8564 20.4517 69.9812 20.2639L71.171 22.1628C70.7184 22.3061 70.2534 22.4066 69.782 22.4629L68.8896 20.8854ZM68.3585 23.9342C71.3888 23.7935 73.1947 23.1561 75.33 20.9172C77.2103 21.1503 79.1028 21.2718 80.9975 21.2811C82.8912 21.2742 84.7828 21.1554 86.6624 20.9252C88.787 23.1641 90.601 23.8015 93.6339 23.9422V47.1541C92.4441 47.7729 86.4977 51.0528 80.9975 52.0992C75.6859 51.1033 70.2574 48.1155 68.4169 47.178C68.3977 47.1716 68.379 47.1636 68.3611 47.1541L68.3585 23.9342ZM67.7848 48.8671L68.0796 48.5484C70.932 50.0197 73.8188 51.4246 76.8597 52.4259H35.6653C35.9183 52.3551 36.166 52.2663 36.4063 52.1603C41.0596 50.1091 45.5114 47.6284 49.704 44.7506C50.1628 45.2192 50.7236 45.5756 51.3427 45.7921C51.9618 46.0086 52.6225 46.0794 53.2734 45.9988C53.768 46.6025 54.4166 47.0613 55.1507 47.3264C55.8847 47.5915 56.6768 47.6531 57.443 47.5046C57.9769 48.1003 58.6666 48.535 59.4343 48.7598C60.2019 48.9845 61.0171 48.9904 61.788 48.7768C63.6922 50.6199 66.4728 50.3012 67.7848 48.8644V48.8671ZM48.5275 31.8034C49.2298 32.4241 50.1041 32.8168 51.0346 32.9295C48.6611 34.925 46.1785 36.787 43.5983 38.5067C42.35 39.338 40.7512 38.8467 39.9253 37.8932C42.9352 36.0777 45.8069 34.0422 48.5168 31.8034H48.5275ZM36.7091 35.588C39.718 33.871 42.5895 31.9238 45.298 29.7638C45.9851 30.4047 46.8568 30.8127 47.7891 30.9297C45.4216 32.8648 42.9382 34.6537 40.3529 36.2865C39.1737 37.0487 37.5563 36.6397 36.7117 35.588H36.7091ZM51.9455 33.636C52.6567 34.2433 53.5356 34.6202 54.4659 34.7169C52.0992 36.7965 49.6164 38.7401 47.0296 40.5384C46.4548 40.912 45.7638 41.064 45.0853 40.9663C44.4067 40.8686 43.7867 40.5278 43.3406 40.0073C46.3531 38.0857 49.2275 35.9558 51.9428 33.6333L51.9455 33.636ZM55.5282 35.2879C56.2514 35.8827 57.1392 36.2423 58.0725 36.3183C55.6989 38.4793 53.2169 40.518 50.6362 42.4267C49.3348 43.3536 47.7891 42.8862 46.918 41.9965C49.9399 39.9651 52.8169 37.7262 55.5282 35.2958V35.2879ZM62.4333 46.9283C61.9001 47.3701 61.2238 47.6018 60.5317 47.5798C59.8396 47.5578 59.1794 47.2836 58.6753 46.8088C61.6056 44.4854 64.3864 41.9795 67.0013 39.3061V42.7853C65.5406 44.2017 64.0189 45.5827 62.436 46.9283H62.4333ZM67.0013 44.3681V47.7277C66.9482 47.7782 66.8925 47.8366 66.834 47.9004C65.5061 49.2283 63.7267 48.6971 62.9406 47.988C64.1437 46.9947 65.6124 45.6801 67.0013 44.3681ZM64.0135 37.1974C65.0334 36.1669 66.0293 35.1099 67.0013 34.0264V37.4205C66.5321 37.6661 66.0033 37.7752 65.4751 37.7353C64.947 37.6954 64.4406 37.5081 64.0135 37.1948V37.1974ZM65.8115 38.8839C63.4335 41.2601 60.9364 43.5142 58.3301 45.6376C57.5626 46.2856 56.0487 46.7159 54.5801 45.4092C57.6125 43.1145 60.4972 40.6308 63.2168 37.9729C63.9639 38.5341 64.8645 38.8538 65.7983 38.8892L65.8115 38.8839ZM54.3782 44.1317C53.3398 44.9019 51.9535 44.9896 50.6866 43.7732C53.6944 41.6196 56.5615 39.276 59.2703 36.7565C60.0063 37.3336 60.8997 37.6743 61.8331 37.7339C59.4659 40.0047 56.9744 42.1424 54.3703 44.1371L54.3782 44.1317ZM45.5583 24.8293C45.9805 24.4548 46.4028 24.075 46.8171 23.6873C49.287 21.4776 51.8393 19.6345 55.5548 19.4565C58.5452 19.3184 61.1585 20.1417 61.5065 23.7218C61.6764 25.472 62.5688 26.6432 64.5102 27.3682C64.5701 27.3905 64.6313 27.4091 64.6934 27.424C65.4366 27.6751 66.2011 27.8582 66.9774 27.9711V32.316C65.9656 33.4793 64.9086 34.6292 63.7905 35.7686C63.2991 36.2489 62.651 36.5359 61.965 36.5769C61.2791 36.6178 60.6014 36.4101 60.0564 35.9917C61.8004 34.3079 63.4709 32.5524 65.0679 30.7252C64.6695 30.6083 64.2712 30.4862 63.8861 30.3613C62.675 31.7344 61.4002 33.0809 60.0511 34.4221C59.5502 34.8907 58.8971 35.1629 58.2116 35.1888C57.5262 35.2146 56.8544 34.9924 56.3196 34.5628C56.7047 34.207 57.0872 33.8511 57.4616 33.5005C58.8055 32.2098 60.1024 30.8739 61.3524 29.4929C60.97 29.3521 60.5928 29.206 60.2078 29.052C59.8492 29.4504 59.4827 29.8488 59.1109 30.2338C58.261 31.1191 57.382 31.9982 56.4737 32.8711C55.9647 33.3262 55.3091 33.583 54.6265 33.5947C53.9438 33.6064 53.2798 33.3722 52.7555 32.9348C53.1937 32.5418 53.6293 32.1381 54.0595 31.7503C55.3503 30.5517 56.5985 29.3123 57.8042 28.0322C57.443 27.8675 57.0845 27.7029 56.7154 27.5169C56.0974 28.1791 55.4671 28.8254 54.8244 29.4557C54.2561 30.0161 53.6718 30.5685 53.0716 31.1209C52.5557 31.5686 51.8956 31.8151 51.2125 31.8151C50.5294 31.8151 49.8693 31.5686 49.3534 31.1209C49.8474 30.696 50.3378 30.2657 50.8247 29.8302C52.0641 28.7147 53.2628 27.5577 54.4207 26.359C54.0755 26.1704 53.7302 25.9819 53.3796 25.78C52.4678 26.7202 51.5339 27.6311 50.5778 28.5129C50.3334 28.736 50.0864 28.9617 49.8368 29.1848C49.3113 29.6207 48.6465 29.8531 47.9639 29.8394C47.2812 29.8258 46.6263 29.567 46.1186 29.1104C47.9 27.6456 49.6047 26.0899 51.2258 24.4495C50.8991 24.245 50.5751 24.0352 50.2352 23.8121C49.1197 24.9346 47.9689 26.0129 46.7826 27.0469C46.2509 27.468 45.5864 27.6854 44.9086 27.6601C44.2309 27.6348 43.5845 27.3683 43.0857 26.9088C43.932 26.2342 44.7615 25.5375 45.5742 24.8186L45.5583 24.8293ZM42.2225 27.5887C42.6475 27.8967 43.3194 28.574 44.7057 28.7864C40.6052 31.9734 38.5283 33.2854 37.2535 33.9493C35.5272 34.8523 34.2179 33.8776 33.6363 33.1526C35.7902 31.9947 40.1085 29.3176 42.2225 27.5754V27.5887ZM6.36899 43.2341C4.21246 43.3987 1.79567 43.2527 1.40261 40.7668C6.96179 40.9452 12.5201 40.3862 17.9324 39.1043C23.0561 37.9215 28.0109 36.0995 32.6802 33.6811C33.7903 35.0382 34.696 35.2109 34.9164 35.2932C26.7179 39.5425 20.7237 41.1493 15.7281 42.0921C12.6327 42.6505 9.50787 43.0318 6.36899 43.2341ZM13.4175 46.1794C11.6514 46.445 9.84014 46.5406 9.08058 44.1796C20.1607 43.1438 29.0603 39.8877 35.7663 36.1298C36.3408 36.8677 37.1249 37.4148 38.0157 37.6994C25.7565 44.7054 14.2594 46.0493 13.4149 46.1794H13.4175ZM20.2085 48.5696C18.2644 48.9282 17.0879 47.8233 16.7559 46.7716C24.5898 45.2701 32.1135 42.4551 39.009 38.4456C39.6048 39.167 40.4017 39.6949 41.2983 39.9621C37.3075 42.3495 33.1061 44.3657 28.7469 45.9855C24.1019 47.6534 21.5762 48.3226 20.2217 48.5696H20.2085ZM28.0059 50.0967C26.4125 50.5217 25.2466 50.0728 24.4392 48.6227C33.6974 45.9669 40.3157 41.8584 42.427 40.6075C43.1601 41.375 43.8453 41.8424 44.7429 42.0708C40.8745 44.495 36.8164 46.6026 32.6085 48.3731C31.1135 49.0473 29.576 49.6231 28.0059 50.0967ZM32.1304 49.786C36.9874 47.8692 41.6383 45.4668 46.0124 42.6153C46.641 43.3094 47.4635 43.7988 48.3734 44.0202C43.0618 47.4993 40.5813 48.6759 40.082 48.9229C39.6358 49.1433 38.0715 49.9533 35.8326 50.936C33.8248 51.8177 32.8714 50.8244 32.1145 49.7966L32.1304 49.786ZM137.965 53.698C138.23 55.2304 139.394 55.8705 140.355 56.059V66.7646C138.825 67.0302 138.183 68.1908 137.991 69.1549H24.0222C23.7566 67.6198 22.5934 66.9824 21.632 66.7885V56.0856C23.1564 55.82 23.8018 54.6541 23.993 53.6954L137.965 53.698ZM126.146 50.9253C123.91 49.9427 122.351 49.1327 121.897 48.9122C121.4 48.6652 118.907 47.4887 113.608 44.0096C114.518 43.7886 115.339 43.2991 115.967 42.6047C120.343 45.4554 124.996 47.8577 129.854 49.7754C129.108 50.8032 128.149 51.7964 126.136 50.9147L126.146 50.9253ZM133.97 50.0808C132.401 49.6067 130.863 49.0309 129.368 48.3572C125.16 46.5861 121.102 44.4785 117.234 42.0549C118.136 41.8265 118.827 41.3591 119.547 40.5915C121.658 41.8424 128.279 45.943 137.537 48.6068C136.727 50.0569 135.567 50.5057 133.97 50.0808ZM141.752 48.5537C140.408 48.3067 137.88 47.6374 133.23 45.9696C128.87 44.3498 124.669 42.3335 120.678 39.9462C121.575 39.6795 122.372 39.1515 122.967 38.4297C129.862 42.4384 137.385 45.2533 145.218 46.7557C144.878 47.818 143.696 48.9122 141.765 48.5537H141.752ZM148.559 46.1635C147.717 46.0333 136.233 44.6895 123.969 37.6834C124.857 37.3984 125.638 36.8512 126.21 36.1138C132.921 39.8718 141.821 43.1278 152.899 44.1636C152.139 46.5246 150.33 46.4211 148.559 46.1635ZM155.626 43.2341C152.488 43.0317 149.364 42.6505 146.27 42.0921C141.269 41.1493 135.28 39.5531 127.079 35.2932C127.302 35.2109 128.205 35.0276 129.315 33.6811C133.984 36.099 138.939 37.921 144.063 39.1043C149.475 40.3862 155.033 40.9452 160.592 40.7668C160.199 43.2527 157.783 43.3987 155.626 43.2341ZM95.2035 63.1527H93.2143V64.0477H90.9754V58.7786H93.2143V59.6816H95.1982V56.8027H88.9942V66.0396H95.1955L95.2035 63.1527ZM85.045 63.1527H83.069V64.0477H80.8249V58.7786H83.069V59.6816H85.045V56.8027H78.841V66.0396H85.037L85.045 63.1527ZM100.582 66.029H102.557V58.7786H104.682V56.8027H98.4622V58.7786H100.574L100.582 66.029ZM119.99 63.8486H122.163L122.362 66.029H124.338L123.445 56.792H118.71L117.81 66.029H119.772L119.99 63.8486ZM120.455 58.768H121.706L121.987 61.8806H120.155L120.455 58.768ZM45.2528 56.792H39.0356V66.029H45.2369L45.2528 56.792ZM43.2743 64.0477H41.0301V58.7812H43.2743V64.0477ZM61.4693 58.768H64.9564V56.792H59.4854V66.029H61.464L61.4693 58.768ZM74.7617 56.792H68.5523V66.029H74.7537L74.7617 56.792ZM72.7857 64.0477H70.5336V58.7812H72.7777L72.7857 64.0477ZM55.5229 63.1527H53.5443V64.0477H51.3028V58.7786H53.5443V59.6816H55.5229V56.8027H49.3295V66.0396H55.5282L55.5229 63.1527Z" fill="#CBA25B"/>
<path d="M79.3834 33.769H76.9453V35.5139H79.3834V33.769ZM86.2885 21.9453C84.5323 22.1471 82.7659 22.2482 80.9981 22.2481C79.2232 22.2488 77.4498 22.1477 75.6865 21.9453C74.0122 23.6965 71.732 24.7416 69.3125 24.8667V46.5701C69.8437 46.8516 76.0131 50.1953 80.9981 51.1142C85.9804 50.1953 92.1525 46.8516 92.6678 46.5701V24.8667C90.2485 24.7405 87.9687 23.6956 86.2938 21.9453H86.2885ZM81.0778 49.7039L80.9981 49.7199L80.9237 49.7039C77.9864 49.117 74.5949 47.8449 71.1131 46.0309V45.1492C71.6443 45.4334 76.3717 47.9856 80.9875 48.9152H81.0034C85.4519 48.0201 90.3147 45.444 90.8565 45.1545V46.0336C87.3269 47.8581 83.9381 49.125 81.0672 49.7066L81.0778 49.7039ZM71.8382 33.7717V32.5845H73.8274V38.9877H74.6587V40.05H71.8488V38.9877H72.7651V33.769L71.8382 33.7717ZM75.8671 36.6931V32.5819H80.4377V40.0341H75.8777V38.9718H79.3834V36.6878L75.8671 36.6931ZM81.6541 33.7717V32.5845H86.0946V36.7037H82.7244V38.9877H85.9273V40.05H81.6647V35.5351H85.0429V33.7903L81.6541 33.7717ZM87.3136 33.7717V32.5845H89.2949V38.9877H90.1288V40.05H87.3136V38.9877H88.2272V33.769L87.3136 33.7717ZM90.8565 26.84C89.9254 26.6393 89.0227 26.3244 88.1688 25.9025C87.2884 25.4807 86.4813 24.9203 85.7786 24.2426L85.7547 24.224H85.7202C85.1677 24.2771 83.1759 24.4471 81.0193 24.4471H80.9981C78.8442 24.4471 76.855 24.2771 76.2947 24.224H76.2628L76.2415 24.2426C75.5386 24.9201 74.7317 25.4805 73.8513 25.9025C72.9862 26.3288 72.0707 26.6438 71.1264 26.84V26.0273C71.9463 25.8483 72.7411 25.5691 73.4928 25.196C75.1341 24.3621 75.8007 23.5627 75.806 23.5547L75.9414 23.3901L76.1539 23.414C76.1751 23.414 78.4405 23.6557 81.0114 23.6557C83.5822 23.6557 85.8529 23.4166 85.8742 23.414L86.0867 23.3927L86.2221 23.5574C86.2513 23.5919 86.9232 24.378 88.5327 25.196C89.2763 25.5619 90.0596 25.8409 90.8671 26.0273L90.8565 26.84Z" fill="#941711"/>
</svg>
