<svg width="260" height="23" viewBox="0 0 260 23" fill="none" xmlns="http://www.w3.org/2000/svg">
<g clip-path="url(#clip0_1372_4988)">
<path fill-rule="evenodd" clip-rule="evenodd" d="M51.313 0.658858C48.0216 1.75494 47.07 2.9571 46.9478 7.12929C46.8866 9.40985 46.747 16.1808 47.1224 18.0813C48.2486 23.5087 58.2276 23.6943 63.2389 22.1916C66.4604 21.2193 67.089 19.8403 67.1501 15.8184C67.2112 12.8484 67.1501 10.1877 67.2112 7.95135C67.2112 3.53166 66.2247 0.817966 61.4666 0.278764C58.472 -0.0836512 53.9671 -0.216242 51.3043 0.658858H51.313ZM63.2912 16.7465V6.77571C63.3698 3.97363 59.249 4.33604 57.1799 4.33604C54.91 4.33604 50.9463 4.09738 50.9463 6.77571V16.7465C50.9463 18.1432 52.6924 18.6647 54.6742 18.8061C56.4917 18.8702 58.3113 18.817 60.1221 18.647C61.9729 18.5056 63.1777 17.9841 63.2563 16.7289L63.2912 16.7465Z" fill="#EC2327"/>
<path fill-rule="evenodd" clip-rule="evenodd" d="M26.4635 0.0905224C31.2828 0.0905224 36.7013 -0.242804 39.6792 0.369797C42.6572 0.982398 44.2167 2.87425 44.2167 6.67598C44.2167 12.9822 42.2431 14.7839 37.8643 15.2434C37.7382 15.2532 37.6115 15.2532 37.4854 15.2434C34.8951 15.4686 31.4767 15.2434 27.1507 15.2434V20.8919C27.1507 21.451 26.9335 21.9872 26.5469 22.3826C26.1602 22.7779 25.6358 23 25.0891 23C24.5423 23 24.0179 22.7779 23.6312 22.3826C23.2446 21.9872 23.0274 21.451 23.0274 20.8919V17.2884C22.9481 14.6398 23.0274 11.5047 23.0274 8.88315C23.0274 6.74806 23.1067 4.45981 23.0274 2.32471C22.9912 2.07859 23.0028 1.82758 23.0616 1.58606C23.1204 1.34454 23.2253 1.11727 23.3702 0.917251C23.515 0.717237 23.6971 0.548416 23.9058 0.420464C24.1146 0.292512 24.3461 0.207943 24.5869 0.171602C25.2053 0.0809442 25.831 0.0537822 26.4547 0.0905224H26.4635ZM37.5735 4.34269H27.1595V11.0813H36.3224C38.9656 11.0813 40.3224 10.9011 40.4369 7.82011C40.5515 4.73908 39.6616 4.40576 37.5735 4.34269Z" fill="#EC2327"/>
<path d="M20.3399 20.8815V12.0152V8.07652C20.3573 3.58683 19.3303 0.831593 14.5695 0.280545C11.5843 -0.0717643 7.05848 -0.234369 4.38653 0.668988C1.11404 1.77108 0.156662 2.99062 0.0348137 7.2364C0.0348137 8.87147 -0.0435172 12.774 0.0348137 15.6105V20.859C0.0359542 21.1366 0.0897625 21.4113 0.193167 21.6673C0.29657 21.9233 0.447544 22.1557 0.637469 22.3511C0.827394 22.5466 1.05255 22.7013 1.30008 22.8064C1.54761 22.9115 1.81267 22.965 2.08012 22.9638C2.61957 22.9639 3.13718 22.7427 3.52025 22.3485C3.90332 21.9542 4.12084 21.4189 4.12543 20.859V12.3404V12.1778V6.87505C4.12543 4.15595 8.10289 4.39985 10.3832 4.39985C12.4111 4.39985 16.4234 4.03851 16.345 6.87505V19.3594V20.8952C16.3462 21.1728 16.4 21.4474 16.5034 21.7034C16.6068 21.9594 16.7578 22.1918 16.9477 22.3872C17.1376 22.5827 17.3628 22.7374 17.6103 22.8425C17.8578 22.9477 18.1229 23.0012 18.3904 23C18.9282 23 19.444 22.7782 19.8243 22.3835C20.2046 21.9888 20.3399 21.4398 20.3399 20.8815Z" fill="#EC2327"/>
<path fill-rule="evenodd" clip-rule="evenodd" d="M69.8652 20.8894C69.8675 20.3255 70.0856 19.7854 70.4721 19.3867C70.8585 18.988 71.382 18.763 71.9286 18.7606H73.2983L82.228 1.15097C82.421 0.773014 82.7185 0.46274 83.0828 0.259528C83.447 0.0563158 83.8616 -0.0306721 84.2738 0.00960405C84.6823 -0.0287551 85.0926 0.0593366 85.4523 0.262632C85.812 0.465927 86.1048 0.775201 86.2933 1.15097L95.223 18.7606H96.1011C96.6476 18.763 97.1711 18.988 97.5576 19.3867C97.944 19.7854 98.1622 20.3255 98.1645 20.8894C98.1633 21.1677 98.1091 21.4431 98.0047 21.6998C97.9004 21.9566 97.7481 22.1896 97.5565 22.3856C97.3649 22.5815 97.1377 22.7367 96.888 22.8421C96.6383 22.9475 96.3709 23.0012 96.1011 23H71.9286C71.6587 23.0012 71.3913 22.9475 71.1416 22.8421C70.8919 22.7367 70.6648 22.5815 70.4731 22.3856C70.2815 22.1896 70.1292 21.9566 70.0249 21.6998C69.9206 21.4431 69.8663 21.1677 69.8652 20.8894ZM84.2738 6.29618L77.9432 18.7606H90.5782L84.2738 6.29618Z" fill="#117DC1"/>
<path fill-rule="evenodd" clip-rule="evenodd" d="M126.087 0.0802506C126.384 0.0814303 126.679 0.137089 126.953 0.244049C127.228 0.351009 127.477 0.507176 127.686 0.703632C127.896 0.900088 128.062 1.13299 128.175 1.38903C128.287 1.64507 128.345 1.91925 128.343 2.19589V8.40778L140.557 0.386344C141.05 0.0660695 141.658 -0.0623614 142.252 0.0284686C142.845 0.119299 143.377 0.422193 143.734 0.872492C143.906 1.09991 144.029 1.35681 144.095 1.62845C144.161 1.90009 144.168 2.18114 144.117 2.45548C144.066 2.72982 143.957 2.99204 143.796 3.22712C143.636 3.4622 143.427 3.66551 143.182 3.82539L131.559 11.4957L143.182 19.1661C143.675 19.4905 144.01 19.9833 144.113 20.5366C144.217 21.09 144.08 21.6589 143.734 22.119C143.378 22.5702 142.848 22.8752 142.255 22.9693C141.662 23.0634 141.053 22.9392 140.557 22.6231L128.343 14.5927V20.8946C128.343 21.1696 128.285 21.442 128.171 21.696C128.058 21.9499 127.891 22.1806 127.682 22.3747C127.472 22.5687 127.223 22.7224 126.95 22.8268C126.676 22.9313 126.383 22.9844 126.087 22.9832C125.488 22.9833 124.913 22.7641 124.487 22.3731C124.061 21.9822 123.818 21.451 123.811 20.8946V2.19589C123.816 1.63625 124.057 1.10085 124.483 0.705107C124.909 0.309362 125.485 0.0849537 126.087 0.0802506Z" fill="#117DC1"/>
<path fill-rule="evenodd" clip-rule="evenodd" d="M159.168 4.23779V20.8992C159.163 21.4565 158.931 21.9894 158.522 22.3826C158.113 22.7758 157.56 22.9976 156.982 23C156.696 23.0012 156.411 22.9477 156.146 22.8427C155.881 22.7376 155.64 22.5831 155.437 22.3879C155.234 22.1927 155.073 21.9607 154.963 21.7052C154.853 21.4498 154.796 21.1758 154.796 20.8992V4.23779H149.008C148.426 4.23781 147.868 4.01611 147.455 3.62095C147.042 3.22579 146.808 2.68917 146.803 2.12795C146.808 1.56505 147.041 1.02654 147.454 0.628491C147.866 0.230444 148.424 0.00473054 149.008 0H164.957C165.245 0.0011866 165.53 0.0571691 165.796 0.164751C166.062 0.272334 166.303 0.429409 166.506 0.627008C166.709 0.824607 166.87 1.05886 166.979 1.31639C167.089 1.57392 167.144 1.84969 167.143 2.12795C167.143 2.68752 166.913 3.22416 166.503 3.61983C166.093 4.01551 165.537 4.23779 164.957 4.23779H159.168Z" fill="#117DC1"/>
<path fill-rule="evenodd" clip-rule="evenodd" d="M244.067 9.23614H252.395C255.336 9.23614 256.452 9.33555 256.452 6.82318C256.452 5.01571 255.779 4.24754 252.395 4.24754H244.067V9.23614ZM244.067 18.7705H254.569C256.086 18.4452 256.452 17.686 256.452 16.3575C256.452 13.8452 255.336 13.9536 252.395 13.9536H244.067V18.7886V18.7705ZM254.765 23C250.409 23 246.019 23 241.663 23C241.136 23.0024 240.629 22.7831 240.253 22.3902C239.878 21.9972 239.665 21.4626 239.66 20.9033V2.12377C239.662 1.5628 239.873 1.02534 240.246 0.627827C240.62 0.230312 241.126 0.00474908 241.655 0C245.354 0 249.224 0 252.864 0C256.504 0 259.99 1.49116 259.99 5.98271C260.048 7.44905 259.861 8.91472 259.436 10.3116C259.346 10.554 259.234 10.787 259.103 11.0075C259.002 11.209 258.957 11.4374 258.976 11.6651C258.994 11.8929 259.074 12.1101 259.206 12.2908C259.315 12.5226 259.412 12.761 259.495 13.0047C259.872 14.3497 260.039 15.7508 259.99 17.1528C259.961 18.6408 259.408 20.0635 258.439 21.1407C257.471 22.2179 256.157 22.8716 254.756 22.9729L254.765 23Z" fill="#117DC1"/>
<path fill-rule="evenodd" clip-rule="evenodd" d="M105.258 0.658858C101.967 1.75494 101.015 2.9571 100.893 7.12929C100.832 9.40985 100.692 16.1808 101.068 18.0813C102.194 23.5087 112.182 23.6943 117.193 22.1916C120.406 21.2193 121.034 19.8403 121.095 15.8184C121.157 12.8484 121.095 10.1877 121.157 7.95135C121.157 3.53166 120.17 0.817966 115.412 0.278764C112.417 -0.0836512 107.912 -0.216242 105.25 0.658858H105.258ZM117.237 16.7465V6.77571C117.315 3.97363 113.194 4.33604 111.125 4.33604C108.855 4.33604 104.892 4.09738 104.892 6.77571V16.7465C104.892 18.1432 106.638 18.6647 108.62 18.8061C110.437 18.8698 112.257 18.8167 114.067 18.647C115.918 18.5056 117.123 17.9841 117.202 16.7289L117.237 16.7465Z" fill="#117DC1"/>
<path fill-rule="evenodd" clip-rule="evenodd" d="M174.24 0.658858C170.959 1.75494 169.988 2.9571 169.866 7.12929C169.805 9.40985 169.673 16.1808 170.067 18.0813C171.169 23.5087 181.194 23.6943 186.197 22.1916C189.416 21.2193 190.055 19.8403 190.134 15.8184C190.134 12.8484 190.134 10.1877 190.134 7.95135C190.177 3.53166 189.145 0.817966 184.387 0.278764C181.395 -0.0836512 176.89 -0.216242 174.205 0.658858H174.24ZM186.224 16.7465V6.77571C186.302 3.97363 182.165 4.33604 180.1 4.33604C177.835 4.33604 173.855 4.09738 173.855 6.77571V16.7465C173.855 18.1432 175.604 18.6647 177.616 18.8061C179.428 18.8699 181.243 18.8168 183.048 18.647C184.912 18.5056 186.11 17.9841 186.197 16.7289L186.224 16.7465Z" fill="#117DC1"/>
<path fill-rule="evenodd" clip-rule="evenodd" d="M221.104 0.658858C217.803 1.75494 216.859 2.9571 216.737 7.12929C216.685 9.40985 216.545 16.1808 216.921 18.0813C218.047 23.5087 228.03 23.6943 233.043 22.1916C236.266 21.2193 236.895 19.8403 236.956 15.8184C237.008 12.8484 236.956 10.1877 237.008 7.95135C237.008 3.53166 236.021 0.817966 231.27 0.278764C228.266 -0.0836512 223.768 -0.216242 221.104 0.658858ZM233.122 16.7465V6.77571C233.2 3.97363 229.069 4.33604 227.008 4.33604C224.737 4.33604 220.763 4.09738 220.763 6.77571V16.7465C220.763 18.1432 222.51 18.6647 224.501 18.8061C226.317 18.8702 228.134 18.8171 229.943 18.647C231.803 18.5056 233.008 17.9841 233.087 16.7289L233.122 16.7465Z" fill="#117DC1"/>
<path fill-rule="evenodd" clip-rule="evenodd" d="M196.533 0.0678144C201.364 0.0678144 206.48 -0.220651 209.454 0.392316C212.429 1.00528 214.014 2.89827 214.014 6.70228C214.014 13.0122 212.042 14.8151 207.668 15.2838C207.542 15.2931 207.415 15.2931 207.289 15.2838C204.649 15.5092 201.26 15.3289 196.965 15.3289V20.8907C196.965 21.4501 196.748 21.9866 196.362 22.3822C195.976 22.7778 195.452 23 194.906 23C194.36 23 193.836 22.7778 193.45 22.3822C193.063 21.9866 192.846 21.4501 192.846 20.8907V17.285C192.75 14.6348 192.794 11.4978 192.846 8.86569C192.846 6.72932 192.908 4.44872 192.846 2.31235C192.773 1.81393 192.896 1.30613 193.188 0.900493C193.48 0.494853 193.918 0.224541 194.404 0.148932C195.016 0.0630818 195.635 0.0359093 196.252 0.0677914L196.533 0.0678144ZM207.307 4.35858H196.957V11.1012H206.092C208.733 11.1012 210.106 10.9209 210.229 7.84708C210.352 4.77323 209.446 4.42168 207.298 4.35858H207.307Z" fill="#117DC1"/>
</g>
<defs>
<clipPath id="clip0_1372_4988">
<rect width="260" height="23" fill="white"/>
</clipPath>
</defs>
</svg>
