<svg width="146" height="38" viewBox="0 0 146 38" fill="none" xmlns="http://www.w3.org/2000/svg">
<g clip-path="url(#clip0_1372_4956)">
<path d="M1.28208 2.36691H31.6857C32.3937 2.36691 32.9677 2.94583 32.9677 3.65997V9.69C32.9677 10.4932 32.6222 11.2537 32.0205 11.78L15.0186 26.125H31.6857C32.3937 26.125 32.9677 26.6934 32.9677 27.4075V34.3301C32.9677 35.0443 32.3937 35.6232 31.6857 35.6232H1.28208C0.574006 35.6232 0 35.0443 0 34.3301V28.31C0 27.5068 0.345584 26.7463 0.947207 26.22L17.9491 11.875H1.28208C0.574006 11.875 0 11.2829 0 10.5687V3.65997C0 2.94583 0.574006 2.36691 1.28208 2.36691ZM54.1613 1.1875C57.6768 1.1875 60.8109 1.98481 63.4274 3.44185C66.0439 4.89888 68.1427 7.01564 69.5874 9.65453C71.032 12.2934 71.8226 15.4544 71.8226 19C71.8226 22.5456 71.032 25.7066 69.5874 28.3455C68.1427 30.9844 66.0439 33.1011 63.4274 34.5582C60.8109 36.0152 57.6768 36.8125 54.1613 36.8125C50.6458 36.8125 47.5116 36.0152 44.8951 34.5582C42.2787 33.1011 40.1799 30.9844 38.7352 28.3455C37.2905 25.7066 36.5 22.5456 36.5 19C36.5 15.4544 37.2905 12.2934 38.7352 9.65453C40.1799 7.01564 42.2787 4.89888 44.8951 3.44185C47.5116 1.98481 50.6458 1.1875 54.1613 1.1875ZM54.1613 10.6875C52.4797 10.6875 51.0033 11.0458 49.7823 11.7119C48.5613 12.378 47.5955 13.352 46.9351 14.5835C46.2746 15.815 45.9194 17.304 45.9194 19C45.9194 20.696 46.2746 22.185 46.9351 23.4165C47.5955 24.6479 48.5613 25.622 49.7823 26.2881C51.0033 26.9542 52.4797 27.3125 54.1613 27.3125C55.8429 27.3125 57.3192 26.9542 58.5403 26.2881C59.7613 25.622 60.727 24.6479 61.3875 23.4165C62.048 22.185 62.4032 20.696 62.4032 19C62.4032 17.304 62.048 15.815 61.3875 14.5835C60.727 13.352 59.7613 12.378 58.5403 11.7119C57.3192 11.0458 55.8429 10.6875 54.1613 10.6875ZM91.8387 1.1875C95.3542 1.1875 98.4884 1.98481 101.105 3.44185C103.721 4.89888 105.82 7.01564 107.265 9.65453C108.709 12.2934 109.5 15.4544 109.5 19C109.5 22.5456 108.709 25.7066 107.265 28.3455C105.82 30.9844 103.721 33.1011 101.105 34.5582C98.4884 36.0152 95.3542 36.8125 91.8387 36.8125C88.3232 36.8125 85.189 36.0152 82.5726 34.5582C79.9561 33.1011 77.8573 30.9844 76.4126 28.3455C74.968 25.7066 74.1774 22.5456 74.1774 19C74.1774 15.4544 74.968 12.2934 76.4126 9.65453C77.8573 7.01564 79.9561 4.89888 82.5726 3.44185C85.189 1.98481 88.3232 1.1875 91.8387 1.1875ZM91.8387 10.6875C90.1571 10.6875 88.6808 11.0458 87.4597 11.7119C86.2387 12.378 85.273 13.352 84.6125 14.5835C83.952 15.815 83.5968 17.304 83.5968 19C83.5968 20.696 83.952 22.185 84.6125 23.4165C85.273 24.6479 86.2387 25.622 87.4597 26.2881C88.6808 26.9542 90.1571 27.3125 91.8387 27.3125C93.5203 27.3125 94.9967 26.9542 96.2177 26.2881C97.4387 25.622 98.4044 24.6479 99.0649 23.4165C99.7254 22.185 100.081 20.696 100.081 19C100.081 17.304 99.7254 15.815 99.0649 14.5835C98.4044 13.352 97.4387 12.378 96.2177 11.7119C94.9967 11.0458 93.5203 10.6875 91.8387 10.6875ZM146.004 3.66408V34.3296C146.004 35.0438 145.43 35.6228 144.722 35.6228H138.747C137.951 35.6228 137.197 35.2743 136.675 34.6676L122.452 17.5221V34.3296C122.452 35.0438 121.865 35.6228 121.156 35.6228H114.31C113.602 35.6228 113.028 35.0438 113.028 34.3296V3.66408C113.028 2.94991 113.602 2.37096 114.31 2.37096H120.285C121.082 2.37096 121.836 2.71959 122.357 3.3265L136.581 20.4779V3.66408C136.581 2.94991 137.144 2.37096 137.852 2.37096H144.722C145.43 2.37096 146.004 2.94991 146.004 3.66408Z" fill="url(#paint0_linear_1372_4956)"/>
</g>
<defs>
<linearGradient id="paint0_linear_1372_4956" x1="112.924" y1="19" x2="31.8453" y2="19" gradientUnits="userSpaceOnUse">
<stop stop-color="#6339F5"/>
<stop offset="1" stop-color="#3D3F55"/>
</linearGradient>
<clipPath id="clip0_1372_4956">
<rect width="146" height="38" fill="white"/>
</clipPath>
</defs>
</svg>
