<svg width="24" height="24" viewBox="0 0 24 24" fill="none" xmlns="http://www.w3.org/2000/svg">
<g clip-path="url(#clip0_1372_4879)">
<path d="M12 22C10.6868 22 9.38642 21.7413 8.17317 21.2388C6.95991 20.7363 5.85752 19.9997 4.92893 19.0711C4.00035 18.1425 3.26375 17.0401 2.7612 15.8268C2.25866 14.6136 2 13.3132 2 12C2 10.6868 2.25866 9.38642 2.7612 8.17317C3.26375 6.95991 4.00035 5.85752 4.92893 4.92893C5.85752 4.00035 6.95991 3.26375 8.17317 2.7612C9.38642 2.25866 10.6868 2 12 2C14.6522 2 17.1957 3.05357 19.0711 4.92893C20.9464 6.8043 22 9.34784 22 12C22 14.6522 20.9464 17.1957 19.0711 19.0711C17.1957 20.9464 14.6522 22 12 22ZM13.1111 12V6.44445H10.8889V14.2222H16.4444V12H13.1111Z" fill="#0ABEB9"/>
</g>
<defs>
<clipPath id="clip0_1372_4879">
<rect width="24" height="24" fill="white"/>
</clipPath>
</defs>
</svg>
