<svg width="48" height="48" viewBox="0 0 48 48" fill="none" xmlns="http://www.w3.org/2000/svg">
<path d="M26.6723 37.2394C26.6723 36.0302 26.6723 34.821 26.6723 33.6132C26.6643 31.8186 25.3707 30.4637 23.6605 30.4452C21.9064 30.4279 20.5768 31.7418 20.5609 33.5655C20.5396 35.9653 20.5502 38.3665 20.5609 40.7677C20.5609 41.6285 20.3572 42.406 19.7623 43.0509C19.4232 43.4164 18.9967 43.6904 18.5224 43.8476C18.0482 44.0048 17.5417 44.0399 17.0501 43.9497C16.5585 43.8595 16.0979 43.647 15.7111 43.3319C15.3243 43.0168 15.024 42.6094 14.8381 42.1477C14.1886 40.5385 13.8799 38.8433 13.7335 37.1255C13.607 35.6422 13.6283 34.1456 13.4673 32.6675C13.2157 30.3339 12.1364 28.3208 10.7975 26.4428C9.68757 24.8866 9.06738 23.1556 9.06738 21.2511C9.08735 17.654 10.6804 14.8859 13.8479 13.1721C16.9875 11.4756 20.139 11.7047 23.1508 13.6012C23.5194 13.833 23.7324 13.7973 24.1063 13.6012C25.0627 13.1177 26.0465 12.6901 27.0529 12.3205C27.3856 12.1974 27.5653 12.0874 27.6598 11.7391C28.1112 10.0996 29.0897 8.65237 30.4457 7.61847C31.8016 6.58457 33.4604 6.02093 35.1686 6.01367C36.937 6.01797 38.6524 6.61508 40.0379 7.70865C41.4235 8.80223 42.3983 10.3285 42.8052 12.0411C43.2044 13.7564 43.0088 15.5557 42.25 17.1464C41.4913 18.737 40.2142 20.0254 38.6262 20.8021C38.3055 20.9584 38.1578 21.1239 38.1511 21.4987C38.1205 23.1609 37.5828 24.6681 36.7005 26.0746C35.9898 27.2083 35.2871 28.3513 34.6669 29.5366C33.6887 31.404 33.7432 33.4648 33.6474 35.4965C33.5423 37.7334 33.2482 39.9478 32.4496 42.059C32.1926 42.7799 31.6623 43.3722 30.9721 43.7091C30.2819 44.046 29.4866 44.1007 28.7564 43.8615C28.1584 43.6714 27.6356 43.299 27.2619 42.7971C26.8881 42.2951 26.6823 41.689 26.6736 41.0643C26.6736 41.0312 26.6736 40.9981 26.6736 40.965L26.6723 37.2394ZM27.3377 13.5019C26.4207 13.9496 25.581 14.2966 24.809 14.7535C23.8189 15.3402 23.381 15.3813 22.4454 14.7535C21.233 13.9247 19.8047 13.4646 18.3343 13.4291C17.3065 13.4028 16.2838 13.5811 15.3262 13.9535C14.3686 14.3259 13.4954 14.885 12.7579 15.5978C12.0204 16.3107 11.4334 17.1629 11.0314 18.1046C10.6294 19.0463 10.4205 20.0584 10.4169 21.0815C10.4169 22.8139 10.9626 24.3555 11.9647 25.7594C13.3355 27.6798 14.4229 29.7485 14.7436 32.1086C14.9379 33.531 14.906 34.9826 15.0164 36.4169C15.1495 38.1387 15.4277 39.8313 16.0133 41.4643C16.2036 41.9941 16.5283 42.3914 17.078 42.5609C18.1666 42.9026 19.1821 42.1265 19.1861 40.9319C19.1967 38.4155 19.1674 35.8991 19.1994 33.3827C19.234 30.5485 21.9769 28.5036 24.7225 29.2293C26.7348 29.7591 28.0218 31.461 28.0351 33.6463C28.0497 36.0964 28.0351 38.5466 28.0431 40.9981C28.0431 41.8722 28.5874 42.4841 29.4219 42.6245C30.1712 42.749 30.8659 42.3265 31.1733 41.5451C31.2824 41.2696 31.3769 40.9862 31.4595 40.7014C32.1116 38.4738 32.3219 36.1852 32.3405 33.8807C32.3525 32.2636 32.616 30.7021 33.3134 29.2558C33.9668 27.9076 34.7654 26.6242 35.5506 25.3435C36.2733 24.1648 36.7284 22.9212 36.7896 21.4722C34.3342 21.8788 32.1236 21.406 30.2191 19.8366C28.3146 18.2672 27.3736 16.1812 27.343 13.4979L27.3377 13.5019ZM28.7112 13.8317C28.7144 15.5378 29.3979 17.1728 30.6117 18.3777C31.8254 19.5826 33.4702 20.2588 35.1846 20.2578C36.0346 20.2564 36.876 20.088 37.6605 19.7623C38.445 19.4366 39.1571 18.9599 39.7561 18.3597C40.355 17.7595 40.829 17.0475 41.1508 16.2645C41.4726 15.4816 41.6359 14.6431 41.6314 13.7973C41.6321 12.9525 41.4651 12.116 41.1401 11.3356C40.8151 10.5553 40.3385 9.84647 39.7375 9.2499C39.1366 8.65333 38.4231 8.18074 37.6381 7.85925C36.8532 7.53776 36.0121 7.37371 35.1633 7.3765C34.314 7.37771 33.4733 7.54566 32.6894 7.87074C31.9054 8.19581 31.1936 8.67162 30.5947 9.2709C29.9959 9.87017 29.5217 10.5812 29.1994 11.3631C28.8771 12.145 28.713 12.9826 28.7165 13.8277L28.7112 13.8317Z" fill="#0ABEB9" stroke="#0ABEB9"/>
<path d="M40.9475 38.9212C40.9487 39.231 40.8884 39.5381 40.7698 39.8247C40.6513 40.1112 40.477 40.3716 40.257 40.5909C40.0369 40.8101 39.7754 40.9839 39.4876 41.1021C39.1998 41.2204 38.8913 41.2808 38.5799 41.2799C38.2644 41.2809 37.9519 41.219 37.6608 41.0979C37.3698 40.9768 37.106 40.7989 36.8851 40.5748C36.6642 40.3506 36.4906 40.0847 36.3746 39.7928C36.2586 39.5008 36.2025 39.1887 36.2096 38.8748C36.2177 38.2489 36.474 37.6516 36.9227 37.213C37.3714 36.7744 37.9762 36.53 38.6052 36.5332C39.2335 36.5423 39.8326 36.7986 40.2716 37.2461C40.7105 37.6936 40.9536 38.2958 40.9475 38.9212ZM38.5905 39.9145C38.8595 39.9117 39.1165 39.8032 39.3055 39.6127C39.4944 39.4221 39.6001 39.165 39.5993 38.8973C39.5917 38.6299 39.4795 38.3761 39.2866 38.1898C39.0937 38.0036 38.8354 37.8996 38.5666 37.9C38.2977 37.9066 38.042 38.0169 37.8535 38.2077C37.665 38.3986 37.5584 38.6549 37.5564 38.9225C37.5631 39.1899 37.6753 39.444 37.8689 39.6297C38.0624 39.8154 38.3217 39.9177 38.5905 39.9145Z" fill="#0ABEB9" stroke="#0ABEB9"/>
<path d="M14.4472 6.70229C14.6788 6.70229 14.9117 6.68772 15.1419 6.70229C15.2259 6.70211 15.309 6.7185 15.3865 6.7505C15.464 6.7825 15.5344 6.82948 15.5936 6.88872C15.6527 6.94797 15.6995 7.0183 15.7312 7.09564C15.7628 7.17299 15.7788 7.25582 15.7781 7.33934C15.7967 7.68633 15.6104 7.97903 15.2457 8.00155C14.7028 8.04591 14.157 8.04591 13.6141 8.00155C13.2308 7.96843 13.0498 7.67044 13.0817 7.29033C13.0856 7.13036 13.1522 6.97825 13.2674 6.86659C13.3826 6.75494 13.5371 6.69263 13.6979 6.69302C13.9481 6.6864 14.1983 6.70229 14.4472 6.70229Z" fill="#0ABEB9" stroke="#0ABEB9"/>
<path d="M10.3744 6.70238C10.606 6.70238 10.8389 6.68648 11.0692 6.70238C11.153 6.70323 11.2359 6.72065 11.313 6.75363C11.39 6.78661 11.4597 6.83449 11.5181 6.8945C11.5764 6.9545 11.6221 7.02543 11.6527 7.10317C11.6832 7.18091 11.698 7.26392 11.696 7.34737C11.7093 7.69436 11.5177 7.98308 11.157 8.00957C10.614 8.05262 10.0684 8.05262 9.52535 8.00957C9.16468 7.98044 8.98501 7.69701 9.00098 7.34737C9.01828 6.96196 9.24586 6.74079 9.62915 6.71032C9.8767 6.68648 10.1256 6.70238 10.3744 6.70238Z" fill="#0ABEB9" stroke="#0ABEB9"/>
<path d="M13.0465 5.34193C13.0465 5.5896 13.0651 5.83858 13.0465 6.0836C13.0453 6.16748 13.0268 6.25022 12.9921 6.32668C12.9575 6.40314 12.9074 6.4717 12.845 6.52809C12.7826 6.58447 12.7092 6.62749 12.6294 6.65446C12.5496 6.68144 12.465 6.6918 12.381 6.68489C12.2971 6.69128 12.2127 6.68033 12.1332 6.65274C12.0537 6.62514 11.9808 6.5815 11.9191 6.52454C11.8574 6.46758 11.8081 6.39855 11.7745 6.32175C11.7408 6.24496 11.7235 6.16208 11.7236 6.07831C11.6976 5.58419 11.6976 5.08907 11.7236 4.59496C11.7232 4.51558 11.7389 4.43694 11.7697 4.36373C11.8005 4.29052 11.8459 4.22424 11.903 4.16886C11.9601 4.11347 12.0279 4.07012 12.1023 4.04139C12.1766 4.01265 12.256 3.99913 12.3358 4.00162C12.7204 3.98043 12.9812 4.16717 13.0332 4.55258C13.0514 4.81715 13.0514 5.08265 13.0332 5.34723L13.0465 5.34193Z" fill="#0ABEB9" stroke="#0ABEB9"/>
<path d="M11.7185 9.39564C11.7058 9.14858 11.7058 8.90104 11.7185 8.65398C11.7205 8.57489 11.7383 8.497 11.7708 8.4248C11.8033 8.3526 11.8499 8.28753 11.9078 8.23334C11.9657 8.17915 12.0338 8.13693 12.1082 8.1091C12.1827 8.08128 12.2619 8.0684 12.3413 8.07123C12.726 8.05534 13.0068 8.24605 13.0281 8.63146C13.0647 9.1575 13.0647 9.68544 13.0281 10.2115C13.0014 10.5757 12.7193 10.7611 12.3706 10.7545C12.2101 10.7622 12.053 10.707 11.9328 10.6008C11.8127 10.4946 11.7391 10.3458 11.7278 10.1863C11.7094 9.92181 11.7072 9.65644 11.7211 9.39167L11.7185 9.39564Z" fill="#0ABEB9" stroke="#0ABEB9"/>
<path d="M24.4902 26.8373C24.2793 26.8142 24.0709 26.7725 23.8674 26.7128C23.5147 26.5804 23.335 26.3155 23.4308 25.9327C23.5267 25.55 23.7995 25.3447 24.1668 25.4228C24.8682 25.5712 25.3114 25.3341 25.5869 24.6851C25.7452 24.309 26.07 24.1964 26.4506 24.3236C26.802 24.4415 26.947 24.8269 26.8206 25.2268C26.5305 26.1486 25.5895 26.8267 24.4902 26.8373Z" fill="#0ABEB9" stroke="#0ABEB9"/>
<path d="M27.6359 21.3767C27.4283 21.3565 27.2368 21.2563 27.1025 21.0973C26.9682 20.9384 26.9017 20.7335 26.9173 20.5264C26.9378 20.3197 27.0398 20.1295 27.2009 19.9975C27.3621 19.8654 27.5692 19.8023 27.777 19.8219C27.9755 19.8452 28.1575 19.943 28.2859 20.0954C28.4142 20.2477 28.4793 20.4432 28.4677 20.6417C28.4524 20.8478 28.3569 21.0398 28.2016 21.177C28.0463 21.3143 27.8434 21.3859 27.6359 21.3767Z" fill="#0ABEB9" stroke="#0ABEB9"/>
<path d="M18.2292 19.8207C18.3321 19.8294 18.4321 19.8585 18.5236 19.9062C18.615 19.9539 18.696 20.0192 18.7617 20.0983C18.8275 20.1775 18.8768 20.2689 18.9067 20.3672C18.9366 20.4655 18.9466 20.5688 18.9359 20.6709C18.9167 20.8689 18.8226 21.0521 18.6725 21.1835C18.5225 21.3149 18.3278 21.3845 18.1281 21.3782C18.0251 21.3716 17.9245 21.3448 17.8319 21.2994C17.7394 21.254 17.6568 21.1908 17.5889 21.1135C17.521 21.0362 17.4691 20.9463 17.4363 20.849C17.4034 20.7517 17.3902 20.6489 17.3974 20.5464C17.403 20.444 17.429 20.3437 17.4741 20.2515C17.5191 20.1592 17.5823 20.0769 17.6598 20.0093C17.7373 19.9416 17.8276 19.8901 17.9254 19.8577C18.0232 19.8253 18.1265 19.8127 18.2292 19.8207Z" fill="#0ABEB9" stroke="#0ABEB9"/>
<path d="M36.8721 12.1241C37.5376 12.1241 38.1378 12.1161 38.7354 12.1241C39.3769 12.1334 39.6018 12.3572 39.6098 12.9956C39.6178 13.5412 39.6178 14.0869 39.6098 14.6325C39.6018 15.2696 39.3702 15.5053 38.7394 15.5159C38.1431 15.5252 37.5482 15.5159 36.8761 15.5159C36.8761 16.1093 36.8761 16.6655 36.8761 17.2204C36.8761 18.0336 36.6872 18.2204 35.89 18.223C35.3576 18.223 34.8253 18.2296 34.2929 18.223C33.7246 18.2137 33.4811 17.9714 33.4704 17.3979C33.4598 16.79 33.4704 16.1821 33.4704 15.5186C32.8436 15.5186 32.2726 15.5186 31.6924 15.5186C30.9843 15.5119 30.7607 15.2947 30.7607 14.6047C30.7607 14.0591 30.7607 13.5134 30.7607 12.9677C30.7607 12.3572 30.9843 12.136 31.6032 12.1254C32.1981 12.1161 32.7943 12.1254 33.4664 12.1254C33.4664 11.5162 33.4664 10.9467 33.4664 10.3772C33.4664 9.61961 33.6874 9.40374 34.4446 9.39844C34.9583 9.39844 35.4734 9.39844 35.9871 9.39844C36.6286 9.40638 36.8602 9.63153 36.8682 10.262C36.8775 10.854 36.8721 11.4473 36.8721 12.1241ZM32.1409 14.1531H33.4305C34.792 14.1531 34.8399 14.2021 34.8399 15.5345V16.843H35.5253C35.5253 16.2126 35.5253 15.6046 35.5253 14.9967C35.5253 14.3888 35.7622 14.1677 36.3744 14.161C36.9866 14.1544 37.5935 14.161 38.2097 14.161V13.4776C37.5935 13.4776 36.9999 13.4776 36.4063 13.4776C35.7303 13.4776 35.5293 13.2684 35.5253 12.5797C35.5253 11.9903 35.5253 11.3996 35.5253 10.8023H34.8931C34.8738 10.8388 34.8591 10.8775 34.8492 10.9175C34.8492 11.4632 34.8492 12.0089 34.8399 12.5558C34.8399 13.2578 34.6216 13.4737 33.9229 13.4829C33.3333 13.4829 32.7451 13.4829 32.1409 13.4829V14.1531Z" fill="#0ABEB9" stroke="#0ABEB9"/>
</svg>
