<svg width="48" height="48" viewBox="0 0 48 48" fill="none" xmlns="http://www.w3.org/2000/svg">
<path d="M23.9028 26.3531C23.8419 26.5953 23.776 26.835 23.7214 27.0798C22.8984 30.9636 22.0918 34.8526 21.2522 38.7324C20.8159 40.7511 18.9808 42.1421 17.0379 41.9884C14.9212 41.8204 13.3765 40.1963 13.1634 38.0812C12.9351 35.8202 12.6003 33.5723 12.3048 31.3204C11.8745 28.054 11.4382 24.7889 10.996 21.5251C10.9551 21.2944 10.8477 21.0816 10.6878 20.9143C8.26805 18.4149 7.3676 15.4572 8.45828 12.0879C9.56164 8.68079 11.9662 6.65555 15.4437 6.16194C17.92 5.8225 20.4397 6.13625 22.7652 7.07362C23.5607 7.39991 24.4478 7.39991 25.2433 7.07362C27.97 6.05384 30.7944 5.63317 33.6301 6.37814C36.8109 7.21428 38.8946 9.38669 39.7176 12.6492C40.5116 15.8206 39.601 18.5738 37.3676 20.8895C37.1877 21.0815 37.0683 21.3248 37.0252 21.5876C36.4545 25.7996 35.8948 30.0141 35.346 34.2313C35.1748 35.5337 34.9884 36.8361 34.8388 38.1385C34.7269 39.1318 34.2814 40.0539 33.5788 40.7462C32.8763 41.4384 31.9607 41.8574 30.9897 41.9311C28.9783 42.0614 27.2015 40.759 26.7538 38.7116C25.9053 34.8343 25.1051 30.944 24.2845 27.059C24.2325 26.818 24.1577 26.5823 24.0981 26.344L23.9028 26.3531ZM26.7817 17.5046C25.9992 18.3277 25.2497 19.1391 24.4684 19.9166C24.3327 20.0469 24.0626 20.0898 23.8533 20.095C23.0303 20.1146 22.2046 20.1016 21.3841 20.1042C21.2725 20.1042 21.1609 20.1302 21.0036 20.1484C21.327 20.5926 21.5895 21.0028 21.9053 21.3623C22.0578 21.528 22.2648 21.6297 22.4862 21.6475C24.1958 21.6696 25.9104 21.6475 27.6136 21.6762C27.8927 21.6762 28.301 21.8259 28.419 22.0395C28.9859 23.0632 29.4741 24.1338 30.0017 25.2135L28.6409 25.9103C28.249 25.1119 27.8698 24.3812 27.5312 23.6324C27.393 23.3237 27.2281 23.2104 26.8971 23.2143C25.2991 23.2338 23.6999 23.2026 22.1019 23.2351C21.8593 23.2548 21.6162 23.2052 21.3993 23.0919C21.1825 22.9786 21.0003 22.806 20.873 22.593C20.3657 21.8455 19.8305 21.1213 19.275 20.4141C19.1283 20.2421 18.9224 20.1351 18.7005 20.1159C17.2446 20.0916 15.7887 20.0916 14.3327 20.1159C13.7937 20.1237 13.4805 19.9036 13.2928 19.393C12.9415 18.4371 12.5673 17.4902 12.1843 16.5473C12.1285 16.4105 11.9713 16.2282 11.8559 16.223C11.166 16.193 10.4748 16.2087 9.74173 16.2087C10.0775 17.6574 10.8423 18.9637 11.9307 19.9479C12.1741 20.1682 12.3417 20.4633 12.4088 20.7892C13.1901 26.5293 13.9552 32.2712 14.7043 38.0148C14.7941 38.6558 15.1001 39.2442 15.569 39.6773C16.0378 40.1105 16.6398 40.361 17.27 40.3852C18.5382 40.4229 19.5528 39.5686 19.8229 38.2388C20.0702 37.0315 20.3302 35.8281 20.5838 34.622C21.1757 31.8323 21.765 29.0417 22.3518 26.2502C22.4925 25.5768 22.859 25.1002 23.5033 24.8866C24.5306 24.5466 25.4412 25.1809 25.6999 26.4091C26.5344 30.3753 27.3672 34.3407 28.1983 38.3052C28.2691 38.7072 28.4341 39.0855 28.6791 39.4072C28.9242 39.729 29.2419 39.9847 29.6048 40.152C31.1596 40.8944 32.9871 39.8342 33.2522 37.9953C33.6136 35.4907 33.9218 32.9784 34.2541 30.4687C34.6768 27.2682 35.0996 24.0674 35.5223 20.8661C35.5459 20.674 35.6064 20.4887 35.7005 20.321C35.7946 20.1533 35.9202 20.0065 36.0702 19.8893C36.9133 19.1675 37.5632 18.2369 37.9586 17.1855C38.3737 16.1351 38.5255 14.9945 38.4 13.8683C37.2015 13.8683 36.0334 13.8591 34.8654 13.88C34.7866 13.8973 34.7122 13.9311 34.6467 13.9793C34.5813 14.0275 34.5262 14.089 34.4849 14.16C34.0182 14.9128 33.5908 15.6929 33.1102 16.4366C32.9656 16.6606 32.7005 16.9393 32.476 16.9576C31.4399 17.0123 30.3987 16.981 29.3575 16.981V15.4311C30.1323 15.4311 30.8793 15.4311 31.6162 15.4311C31.743 15.4311 31.9282 15.3973 31.9865 15.31C32.2744 14.8711 32.5293 14.4088 32.8235 13.906C32.7273 13.8883 32.6296 13.88 32.5318 13.8813C31.1165 14.1222 29.932 13.6143 28.8806 12.6896C28.7182 12.5495 28.5303 12.4438 28.3278 12.3788C28.1254 12.3137 27.9124 12.2905 27.7012 12.3106C26.9821 12.3405 26.2604 12.3184 25.5515 12.3184V10.7555C25.8408 10.7738 26.1309 10.7738 26.4202 10.7555C28.0588 10.5341 29.4995 10.9522 30.7512 12.0827C30.9275 12.2416 31.2382 12.308 31.4881 12.3106C33.4348 12.3288 35.3816 12.321 37.322 12.321H37.9713C37.9379 12.1946 37.8977 12.0703 37.8508 11.9485C36.6143 9.29422 34.5471 7.85767 31.7062 7.66231C29.5666 7.51053 27.4212 7.85644 25.4297 8.67427C24.5423 9.05697 23.5439 9.06633 22.6498 8.70032C20.6764 7.90065 18.6308 7.60761 16.5179 7.63626C13.2332 7.68184 10.3809 10.021 9.68973 13.3121C9.59969 13.7419 9.58827 14.1899 9.53501 14.6757H17.1343V16.223H13.7341C13.9979 16.9002 14.2617 17.5254 14.4798 18.161C14.5864 18.4696 14.7335 18.5725 15.0556 18.5699C17.6669 18.5543 20.2782 18.5439 22.8895 18.5699C23.4564 18.5764 23.8724 18.4397 24.2478 17.9956C24.7043 17.4499 25.2319 16.9641 25.6771 16.5056L26.7817 17.5046Z" fill="#0ABEB9" stroke="#0ABEB9"/>
</svg>
