<svg width="32" height="42" viewBox="0 0 32 42" fill="none" xmlns="http://www.w3.org/2000/svg">
<g clip-path="url(#clip0_1183_7519)">
<path d="M31.5774 42.0002C31.8983 41.7959 32.0025 41.508 32 41.1323C31.9875 39.1365 32 37.1407 31.9933 35.144C31.9875 32.9809 30.8191 31.355 28.749 30.6134C28.3714 30.4781 27.9989 30.3362 27.6097 30.2246C27.3839 30.159 27.3097 30.0433 27.3022 29.8144C27.243 28.0606 26.6413 26.4823 25.693 25.0123C25.2694 24.3721 24.88 23.7106 24.5262 23.0305C24.3023 22.5624 24.138 22.069 24.037 21.5613C23.9854 21.3218 24.0804 21.033 24.1662 20.7861C24.4821 19.8723 24.8462 18.9748 25.1388 18.0553C25.2288 17.7714 25.3013 17.6607 25.6188 17.6517C27.0264 17.6107 27.9989 16.6558 27.9822 15.3712C27.9908 15.3166 27.9885 15.2609 27.9756 15.2071C27.5739 14.3417 27.8814 13.4656 27.9431 12.5961C28.3664 6.6357 24.142 1.26348 18.1826 0.202813C17.7334 0.120782 17.2809 0.0641797 16.83 -0.00390625H15.1632C14.5374 0.103555 13.9007 0.17 13.2865 0.324219C8.97708 1.40949 6.0836 4.04105 4.61936 8.16394C3.98266 9.95879 3.87598 11.8217 4.20267 13.7002C4.27648 14.0567 4.25465 14.4259 4.13933 14.7716C3.68514 16.0996 4.68186 17.5221 6.10777 17.6386C6.21799 17.6556 6.32967 17.6616 6.44112 17.6566C6.72697 17.6205 6.81531 17.7542 6.86364 18.0151C7.1927 19.8868 8.12304 21.6054 9.51795 22.9181C10.003 23.3799 10.5855 23.7384 11.1014 24.1707C11.2289 24.2765 11.3514 24.4644 11.3605 24.6194C11.4197 25.9573 11.4114 25.9582 10.183 26.5291C9.83213 26.6932 9.48045 26.8572 9.12959 27.0164C8.09287 27.4987 7.87953 27.8367 7.89536 28.9941C7.40617 29.1664 6.90281 29.346 6.39528 29.5216C5.36356 29.8809 4.32934 30.2344 3.29846 30.5954C1.19335 31.3337 0.0116158 32.9677 0.00328255 35.1719C-0.00421906 37.1407 0.00911522 39.1094 -0.00421906 41.0741C-0.00421906 41.4571 0.09412 41.7631 0.40497 41.9953H0.821659C1.16668 41.8091 1.26085 41.517 1.25835 41.1405C1.24585 39.1586 1.24918 37.1759 1.25335 35.1941C1.25335 33.4853 2.09673 32.323 3.73348 31.7487C5.0791 31.2784 6.42556 30.8109 7.77285 30.346C8.64707 30.0425 8.64707 30.0433 9.16293 30.8128C9.17881 30.8434 9.19218 30.8752 9.20293 30.9079C8.97125 31.2492 8.74707 31.6109 8.49039 31.9497C8.0737 32.5034 8.05954 33.0571 8.35372 33.6765C9.55211 36.1989 10.7255 38.7321 11.9197 41.257C12.0439 41.5195 12.2414 41.7492 12.4056 41.9953H12.8223C13.3223 41.6671 13.384 41.4506 13.1248 40.8977C12.0072 38.5122 10.9097 36.1103 9.74296 33.7405C9.43961 33.1244 9.38627 32.6511 9.8713 32.1376C10.0763 31.9202 10.218 31.6454 10.3847 31.3927C10.6847 30.9432 10.6813 30.7496 10.3572 30.3206C9.99297 29.8382 9.62379 29.36 9.2596 28.8777C9.09709 28.6619 9.04876 28.4371 9.34294 28.2969C10.093 27.9318 10.8605 27.584 11.6356 27.2231C11.6814 27.315 11.7189 27.3732 11.7397 27.4347C12.9298 30.5218 14.1174 33.6089 15.3024 36.696C15.3629 36.8769 15.3911 37.0668 15.3858 37.2571C15.3924 38.5557 15.3974 39.8534 15.3858 41.152C15.3816 41.5285 15.4824 41.8197 15.8324 42.0002H16.2491C16.5825 41.7541 16.6508 41.421 16.6467 41.0322C16.6325 39.7607 16.6358 38.4893 16.6467 37.2186C16.6467 37.0013 16.6847 36.7857 16.7592 36.5812C17.8998 33.5641 19.0471 30.5492 20.201 27.5364C20.2418 27.4282 20.3027 27.3273 20.3593 27.2083C21.1094 27.5561 21.8253 27.8843 22.537 28.2214C22.9637 28.4232 22.992 28.5569 22.7036 28.9441C22.3578 29.4059 22.0036 29.862 21.6561 30.3222C21.3227 30.7644 21.3227 30.9194 21.6327 31.3886C21.8078 31.6511 21.9661 31.9259 22.1678 32.1696C22.522 32.5994 22.7511 33.0268 22.3445 33.546C22.3218 33.5724 22.3053 33.6033 22.2959 33.6366C22.2866 33.6699 22.2847 33.7047 22.2903 33.7388C22.3811 33.9505 22.4436 34.2425 22.6128 34.3344C22.782 34.4262 23.1245 34.3926 23.2795 34.2737C23.8629 33.8405 24.0204 32.752 23.637 32.1409C23.4324 31.8015 23.2099 31.4729 22.9703 31.1565C22.6286 30.7242 23.122 30.5741 23.2403 30.2992C23.3528 30.0384 23.547 30.1048 23.7595 30.1795C25.2738 30.7119 26.793 31.2311 28.3073 31.7627C29.9107 32.3303 30.7441 33.496 30.7441 35.1916C30.7441 37.1603 30.7507 39.1291 30.7441 41.0978C30.7441 41.4801 30.8124 41.7992 31.1657 42.0068L31.5774 42.0002ZM8.0037 17.0906C7.97703 16.8215 7.95703 16.5927 7.9312 16.3654C7.89703 16.0586 7.73452 15.8544 7.417 15.8093C7.08365 15.7617 6.86197 15.9061 6.7328 16.2137C6.7153 16.26 6.6885 16.3024 6.654 16.3384C6.61949 16.3743 6.57799 16.403 6.53196 16.4228C6.03693 16.5443 5.47024 16.1997 5.32439 15.7084C5.12438 15.0341 5.60524 14.4057 6.44612 14.3959C7.32283 14.3836 7.92369 13.9964 8.47372 13.3762C11.1189 10.3944 14.4182 8.41742 18.2526 7.27309C18.5601 7.18121 18.7134 7.21648 18.8526 7.5282C19.7977 9.64789 21.1961 11.4534 22.8811 13.0514C23.6537 13.7847 24.4162 14.5509 25.6413 14.3926C25.7107 14.3947 25.7793 14.4074 25.8446 14.4303C26.3955 14.5419 26.7788 15.0045 26.7322 15.5025C26.683 16.0234 26.2572 16.4048 25.6905 16.4335C25.4871 16.445 25.3279 16.4417 25.2504 16.1874C25.1613 15.8913 24.9121 15.7633 24.5979 15.8093C24.2596 15.8585 24.0979 16.0783 24.072 16.4007C24.0537 16.6164 24.0379 16.8322 24.0179 17.0922H23.4987C20.3318 17.0922 17.165 17.0922 13.9982 17.0922C13.8182 17.0876 13.6382 17.1024 13.4615 17.1365C13.3216 17.1581 13.1954 17.2317 13.1092 17.3423C13.0229 17.4528 12.9832 17.5918 12.9981 17.7304C13.0123 18.0586 13.199 18.2628 13.5382 18.3046C13.6899 18.319 13.8424 18.3248 13.9948 18.3219C16.2866 18.3219 18.5781 18.3219 20.8694 18.3219H21.3494C21.6069 20.8074 20.9669 22.8803 18.7801 24.2142C17.8818 24.758 16.8394 25.0263 15.7857 24.985C14.732 24.9436 13.7146 24.5945 12.8631 23.982C10.8972 22.5547 10.4063 20.5572 10.6838 18.3473C10.7863 18.3342 10.8939 18.3202 11.003 18.3079C11.348 18.2686 11.5364 18.0536 11.5497 17.7378C11.5639 17.399 11.3672 17.171 11.0114 17.1193C10.8455 17.0986 10.6784 17.0896 10.5113 17.0922C9.68379 17.0889 8.85374 17.0906 8.0037 17.0906ZM18.2434 5.98848C18.0392 6.04754 17.8625 6.08363 17.6984 6.15254C16.3175 6.71281 14.8991 7.20008 13.569 7.86125C11.1655 9.05644 9.11709 10.7241 7.36117 12.738C7.21353 12.9154 7.01572 13.0455 6.7928 13.1121C6.34445 13.2146 5.87609 13.2409 5.42023 13.2991C4.8052 9.82344 6.24694 5.48891 10.0871 3.00582C14.0874 0.417735 19.1618 0.690078 22.8095 3.63008C26.2197 6.3773 27.1755 10.6224 26.578 13.2835C26.1088 13.2359 25.6421 13.2015 25.1813 13.1342C24.9779 13.1105 24.7843 13.035 24.6196 12.9152C22.6395 11.2746 21.036 9.34027 19.9818 7.00074C19.7018 6.37976 19.5201 5.71695 19.286 5.07629C19.1626 4.73996 18.9243 4.55621 18.5493 4.63086C18.2034 4.70058 18.0226 5.0041 18.0892 5.38801C18.1142 5.5734 18.1767 5.75551 18.2434 5.98848ZM12.5864 25.2945C14.9007 26.5028 17.1292 26.5012 19.4493 25.283C19.386 25.7301 19.3985 26.0943 19.2826 26.411C18.2542 29.1623 17.1992 31.9071 16.155 34.6494C16.12 34.7412 16.0716 34.8266 16.0041 34.9619C15.9416 34.8307 15.9016 34.7617 15.8733 34.6879C14.8224 31.9596 13.7632 29.2337 12.7339 26.4971C12.6006 26.1583 12.6348 25.758 12.5831 25.2962L12.5864 25.2945ZM22.9203 22.6474C23.3103 23.3561 23.7195 24.1108 24.1395 24.8622C24.5354 25.5669 24.9688 26.2518 25.3404 26.968C25.7705 27.8061 26.0051 28.7281 26.0271 29.6668L24.1054 28.9999C24.1945 28.004 23.9004 27.4971 23.0278 27.0886C22.6395 26.9073 22.2478 26.7342 21.8611 26.5496C21.4744 26.365 20.9069 26.2576 20.716 25.9426C20.5127 25.6079 20.6552 25.0689 20.6469 24.6186C20.6409 24.5916 20.6409 24.5636 20.6469 24.5366C20.6977 24.4348 20.7302 24.3044 20.8135 24.2412C21.5169 23.6957 22.2336 23.1634 22.9178 22.649L22.9203 22.6474ZM23.8012 18.3391C23.5664 19.2887 23.1461 20.1841 22.5636 20.9756C22.6061 20.0634 22.647 19.2103 22.687 18.3391H23.8012ZM9.39961 20.9091C8.83583 20.1412 8.43713 19.268 8.22788 18.3432H9.39961V20.9091Z" fill="#0ABEB9"/>
<path d="M28.2428 42.0003C28.5528 41.7886 28.6703 41.5081 28.6595 41.1291C28.6411 40.1858 28.6595 39.2424 28.6528 38.299C28.6528 37.6986 28.4328 37.4877 27.8194 37.4853C27.0019 37.4853 26.1852 37.4853 25.351 37.4853C25.2276 36.9726 25.526 36.1687 24.6418 36.2023C23.8542 36.2327 24.1276 36.9586 24.0392 37.4557H21.88C22.0466 37.094 22.2066 36.7527 22.3592 36.4082C22.5517 35.9743 22.4525 35.6109 22.1091 35.4616C21.7658 35.3123 21.4299 35.4665 21.2208 35.9086C20.4324 37.5799 19.6471 39.2525 18.8648 40.9265C18.6148 41.4581 18.6723 41.65 19.1532 42.0011H19.5698C19.7365 41.7731 19.9215 41.559 20.0532 41.3145C20.2657 40.9199 20.4407 40.5057 20.6316 40.0996C20.7132 40.4432 20.7413 40.7969 20.7149 41.1488C20.6916 41.5253 20.8107 41.8133 21.1499 42.0011L28.2428 42.0003ZM21.9925 38.7477H27.3844V40.7452H21.9925V38.7477Z" fill="#0ABEB9"/>
<path d="M20.0119 13.7076C20.2469 13.7076 20.4836 13.7191 20.7178 13.7076C20.8665 13.7085 21.0097 13.652 21.1166 13.5502C21.2235 13.4483 21.2855 13.3093 21.2895 13.1629C21.3195 12.843 21.1569 12.5674 20.8228 12.5411C20.2863 12.4993 19.7474 12.4993 19.211 12.5411C18.8777 12.5666 18.7168 12.8299 18.7427 13.1588C18.7685 13.4878 18.9702 13.6814 19.3052 13.7076C19.5394 13.7224 19.776 13.7076 20.0119 13.7076Z" fill="#0ABEB9"/>
<path d="M12.0263 13.7065C12.2615 13.7168 12.4971 13.7152 12.7321 13.7016C13.0655 13.668 13.2547 13.4555 13.2688 13.1274C13.2813 12.819 13.1255 12.5614 12.8113 12.5392C12.2612 12.5014 11.709 12.5056 11.1596 12.5515C10.847 12.577 10.702 12.8427 10.7229 13.1528C10.7437 13.4629 10.9229 13.6663 11.2371 13.7016C11.4996 13.7175 11.7627 13.7194 12.0254 13.7074L12.0263 13.7065Z" fill="#0ABEB9"/>
<path d="M19.3933 15.4024C19.3933 16.0513 19.5692 16.3252 19.9942 16.3359C20.4401 16.3474 20.6442 16.0521 20.6426 15.3966C20.6463 15.3015 20.6447 15.2062 20.6376 15.1112C20.5942 14.7232 20.3451 14.4738 20.0092 14.4746C19.6509 14.4746 19.4142 14.7379 19.3942 15.1571C19.3908 15.2383 19.3942 15.3204 19.3933 15.4024Z" fill="#0ABEB9"/>
<path d="M11.3633 15.4301C11.369 15.5796 11.384 15.7286 11.4083 15.8763C11.4283 16.0062 11.4958 16.1245 11.5982 16.209C11.7005 16.2934 11.8306 16.3381 11.9641 16.3349C12.2783 16.348 12.52 16.2069 12.5742 15.8976C12.62 15.6158 12.6293 15.3294 12.6017 15.0453C12.57 14.6852 12.2925 14.4481 11.9675 14.4793C11.6208 14.5138 11.4149 14.7106 11.3841 15.0617C11.3741 15.1831 11.3841 15.3078 11.3841 15.4292L11.3633 15.4301Z" fill="#0ABEB9"/>
</g>
<defs>
<clipPath id="clip0_1183_7519">
<rect width="32" height="42" fill="white" transform="matrix(-1 0 0 1 32 0)"/>
</clipPath>
</defs>
</svg>
