<svg width="45" height="37" viewBox="0 0 45 37" fill="none" xmlns="http://www.w3.org/2000/svg">
<g clip-path="url(#clip0_1183_7573)">
<path d="M44.9997 16.9442C44.9328 17.2143 44.8694 17.4856 44.799 17.7557C44.3976 19.2809 43.4324 20.6129 42.0841 21.5021C40.7358 22.3913 39.097 22.7767 37.4747 22.5861C37.0227 22.5318 36.7163 22.6358 36.4369 22.9557C36.2877 23.1043 36.1259 23.2408 35.9532 23.3637C37.3749 25.6805 37.4136 27.9149 35.6339 29.9696C34.1007 31.7395 32.0651 32.2706 29.7641 31.6389C27.5078 31.0207 26.1472 29.2463 25.8173 26.6954C24.9756 26.8356 24.1374 27.0254 23.2886 27.1057C21.2307 27.3023 19.3054 26.8503 17.5221 25.8523C17.2127 25.6679 16.8459 25.5939 16.4855 25.6432C13.3499 26.0162 10.6874 25.0894 8.50266 22.8901C8.39599 22.7667 8.25712 22.6729 8.10032 22.6183C7.94352 22.5636 7.77444 22.5502 7.61046 22.5793C4.12499 23.0472 0.891918 20.8241 0.140588 17.4596C-0.58022 14.2318 1.46246 10.9339 4.78122 10.0003C4.99266 9.95396 5.18897 9.85813 5.35278 9.72133C5.51659 9.58452 5.64284 9.41096 5.72039 9.21599C6.29589 7.9561 7.2172 6.87104 8.38526 6.07746C8.80906 5.78136 9.17886 5.80283 9.42421 6.12832C9.66957 6.45382 9.57918 6.80643 9.1589 7.10028C8.11749 7.82065 7.30459 8.80554 6.81099 9.94496C6.50811 10.6457 5.94579 10.9938 5.20972 11.1949C4.13103 11.49 3.17596 12.104 2.4795 12.9501C1.78305 13.7962 1.38045 14.8317 1.32863 15.9101C1.19715 19.2091 4.09446 21.7565 7.49658 21.3112C7.84343 21.2531 8.19998 21.2816 8.53213 21.3939C8.86427 21.5063 9.16092 21.6989 9.39369 21.9532C11.3284 23.9378 13.6958 24.741 16.4961 24.3627C17.0052 24.2814 17.5276 24.3789 17.9682 24.6374C19.6101 25.6227 21.5513 26.0412 23.4729 25.8241C24.6564 25.7079 25.7985 25.3412 26.8175 24.7504C27.3618 24.4146 28.0144 24.2808 28.6536 24.374C31.3889 24.7255 33.7016 23.8971 35.5893 21.9701C35.8262 21.7104 36.1284 21.5136 36.4669 21.3986C36.8055 21.2836 37.1691 21.2543 37.5228 21.3135C38.8792 21.499 40.2582 21.1811 41.3803 20.4244C42.5024 19.6677 43.2839 18.5287 43.5663 17.238C44.1533 14.5629 42.5027 11.9431 39.731 11.1803C39.3764 11.0949 39.0477 10.9304 38.7714 10.7001C38.4951 10.4698 38.2789 10.1801 38.1403 9.85455C36.9018 7.19974 34.2944 5.67286 31.2785 5.8616C30.2924 5.92376 29.588 5.61861 28.9494 4.89642C25.606 1.11821 19.3512 1.13064 16.0265 4.92241C15.3985 5.63895 14.6929 5.94975 13.7279 5.8616C13.182 5.81187 12.6221 5.90115 12.068 5.92828C12.0093 5.92828 11.9506 5.94071 11.893 5.94523C11.4305 5.98253 11.1311 5.79379 11.0713 5.43213C11.0126 5.04787 11.2474 4.73932 11.724 4.69186C12.4051 4.60786 13.092 4.57499 13.7784 4.59353C14.3337 4.62178 14.6929 4.46808 15.0545 4.05782C18.8839 -0.286609 26.1331 -0.274179 29.9637 4.08156C30.3159 4.48277 30.6681 4.6297 31.2069 4.58788C32.6895 4.47049 34.1764 4.75967 35.4954 5.42196C35.5717 5.45925 35.6515 5.48751 35.7595 5.53498L38.7871 1.30582C38.611 1.29 38.4901 1.27079 38.3704 1.27079C37.7259 1.27079 37.079 1.28096 36.4369 1.26061C36.0143 1.24818 35.763 0.98598 35.7642 0.625451C35.7604 0.543779 35.7743 0.462235 35.8049 0.385993C35.8356 0.309751 35.8824 0.240473 35.9423 0.182558C36.0022 0.124643 36.074 0.0793542 36.1531 0.0495625C36.2322 0.0197709 36.3168 0.00612686 36.4017 0.00949832C37.6308 -0.00293372 38.867 -0.0131054 40.0914 0.00949832C40.6866 0.0219304 40.9014 0.574593 40.5316 1.09561C39.657 2.32977 38.7707 3.55715 37.8926 4.78679C37.8022 4.91224 37.7153 5.03882 37.5698 5.24791H39.5549C39.7744 5.24791 39.9951 5.24113 40.2135 5.24791C40.6162 5.26599 40.8615 5.4909 40.8768 5.839C40.8836 5.92039 40.8734 6.00227 40.8468 6.07979C40.8201 6.15731 40.7775 6.22888 40.7216 6.29024C40.6656 6.3516 40.5974 6.4015 40.521 6.43698C40.4446 6.47246 40.3616 6.49279 40.2769 6.49676C40.0141 6.51674 39.7503 6.52203 39.4868 6.51259H37.2634C37.3807 6.64369 37.4465 6.72732 37.5228 6.79852C38.3105 7.52469 38.9371 8.39706 39.3647 9.36291C39.4161 9.5009 39.5014 9.62493 39.6131 9.72447C39.7249 9.82402 39.86 9.89617 40.0069 9.93479C42.7927 10.7508 44.4491 12.5342 44.9304 15.3099C44.9481 15.3772 44.9712 15.4429 44.9997 15.5066V16.9442ZM34.9448 24.2429C31.8831 25.7325 31.6988 25.7698 28.1899 25.5992C27.9241 25.5915 27.666 25.6856 27.4722 25.8608C27.2783 26.036 27.1645 26.278 27.1556 26.5338C27.1556 28.7366 28.9165 30.5143 31.2644 30.6025C32.9561 30.6635 34.2698 29.9244 35.0974 28.5105C35.925 27.0967 35.8264 25.6545 34.9448 24.2429Z" fill="#0ABEB9"/>
<path d="M21.7571 36.9986C19.6745 36.9183 18.0157 35.3304 18.0157 33.3628C18.0123 32.8899 18.1057 32.421 18.2906 31.9828C18.4756 31.5447 18.7483 31.146 19.0934 30.8094C19.4384 30.4728 19.849 30.2049 20.3016 30.0211C20.7543 29.8374 21.2401 29.7412 21.7313 29.7383C22.7156 29.7426 23.6591 30.1179 24.3595 30.7837C25.06 31.4496 25.4617 32.3531 25.4785 33.3006C25.4785 33.3718 25.4785 33.4419 25.4715 33.512C25.4316 34.053 25.1968 34.3167 24.7671 34.3031C24.3363 34.2861 24.1461 34.0217 24.159 33.4555C24.1872 32.1953 23.3114 31.2075 22.0107 31.0312C20.852 30.8741 19.6968 31.6302 19.4092 32.774C19.1803 33.6849 19.4268 34.4862 20.177 35.0965C20.9271 35.7068 21.8029 35.8288 22.7221 35.4627C23.3654 35.2061 23.7164 35.2468 23.896 35.6356C24.0827 36.0481 23.8796 36.4018 23.2316 36.6313C22.7491 36.7963 22.2431 36.8788 21.7571 36.9986Z" fill="#0ABEB9"/>
<path d="M31.4394 11.3336C31.9702 11.3336 32.4053 11.3267 32.8418 11.3336C33.4781 11.3473 33.8319 11.6247 33.8405 12.1013C33.8491 12.5779 33.4967 12.8677 32.8604 12.8718C31.9174 12.8787 30.9729 12.9048 30.0328 12.854C29.7403 12.8389 29.3323 12.6617 29.2153 12.4419C29.0983 12.2222 29.181 11.7964 29.3366 11.5561C29.8687 10.732 30.4779 9.93949 31.0485 9.13464C31.1455 8.9973 31.2311 8.85995 31.3738 8.63608C30.8659 8.63608 30.4465 8.64569 30.0271 8.63608C29.522 8.62234 29.1853 8.32567 29.1711 7.90127C29.1678 7.79762 29.1863 7.6944 29.2255 7.59783C29.2648 7.50125 29.3239 7.4133 29.3993 7.33927C29.4747 7.26524 29.5649 7.20666 29.6645 7.16705C29.764 7.12744 29.8708 7.10762 29.9785 7.10878C30.9572 7.08406 31.9373 7.07307 32.9146 7.10878C33.6279 7.13625 33.9375 7.78178 33.5352 8.36962C32.9645 9.1937 32.371 10.0095 31.7875 10.8281C31.6834 10.9655 31.5935 11.1069 31.4394 11.3336Z" fill="#0ABEB9"/>
<path d="M31.6123 18.1325C31.0084 18.143 30.409 18.028 29.8515 17.7946C29.2939 17.5613 28.7904 17.2147 28.3724 16.7766C27.7698 16.1528 27.7473 15.4409 28.2735 14.9031C28.7658 14.4036 29.4471 14.4104 30.0721 14.9211C31.2098 15.8251 31.7809 15.8251 32.9613 14.8917C33.5841 14.3991 34.2923 14.4149 34.76 14.9347C35.2276 15.4545 35.2254 16.1551 34.661 16.7427C34.2704 17.1665 33.7995 17.5078 33.276 17.7464C32.7525 17.9851 32.1869 18.1163 31.6123 18.1325Z" fill="#0ABEB9"/>
<path d="M13.57 18.1328C12.9848 18.1409 12.404 18.0304 11.8618 17.8077C11.3195 17.585 10.8268 17.2546 10.4128 16.836C9.79123 16.2092 9.73963 15.5143 10.2221 14.9557C10.7045 14.397 11.4225 14.3947 12.0845 14.9352C13.1818 15.8277 13.8168 15.8277 14.9051 14.9352C15.567 14.3947 16.2828 14.3993 16.7697 14.9488C17.2567 15.4984 17.2073 16.2092 16.5902 16.8315C15.7909 17.6492 14.7063 18.1165 13.57 18.1328Z" fill="#0ABEB9"/>
<path d="M22.4675 16.9336C22.7099 16.9347 22.9497 16.9811 23.1731 17.07C23.3965 17.159 23.5992 17.2889 23.7693 17.4521C23.9395 17.6153 24.0739 17.8087 24.1648 18.0212C24.2556 18.2337 24.3012 18.4611 24.2989 18.6902C24.3189 19.6516 23.4978 20.51 22.5342 20.5331C21.5707 20.5563 20.7229 19.7232 20.7007 18.7533C20.6813 18.2909 20.8563 17.8401 21.1873 17.4991C21.5183 17.1582 21.9785 16.9549 22.4675 16.9336Z" fill="#0ABEB9"/>
</g>
<defs>
<clipPath id="clip0_1183_7573">
<rect width="45" height="37" fill="white"/>
</clipPath>
</defs>
</svg>
