<svg width="40" height="40" viewBox="0 0 40 40" fill="none" xmlns="http://www.w3.org/2000/svg">
<circle cx="20" cy="20" r="20" fill="#0ABEB9"/>
<path d="M20 24.6875C22.5888 24.6875 24.6875 22.5888 24.6875 20C24.6875 17.4112 22.5888 15.3125 20 15.3125C17.4112 15.3125 15.3125 17.4112 15.3125 20C15.3125 22.5888 17.4112 24.6875 20 24.6875Z" stroke="#2F2F2F" stroke-width="1.5" stroke-miterlimit="10"/>
<path d="M25.1562 9.21875H14.8438C11.7371 9.21875 9.21875 11.7371 9.21875 14.8438V25.1562C9.21875 28.2629 11.7371 30.7812 14.8438 30.7812H25.1562C28.2629 30.7812 30.7812 28.2629 30.7812 25.1562V14.8438C30.7812 11.7371 28.2629 9.21875 25.1562 9.21875Z" stroke="#2F2F2F" stroke-width="1.5" stroke-linecap="round" stroke-linejoin="round"/>
<path d="M26.0938 15.3125C26.8704 15.3125 27.5 14.6829 27.5 13.9062C27.5 13.1296 26.8704 12.5 26.0938 12.5C25.3171 12.5 24.6875 13.1296 24.6875 13.9062C24.6875 14.6829 25.3171 15.3125 26.0938 15.3125Z" fill="#2F2F2F"/>
</svg>
