<svg width="12" height="15" viewBox="0 0 12 15" fill="none" xmlns="http://www.w3.org/2000/svg">
<path d="M10.2427 10.5756L6 14.8183L1.75734 10.5756C0.918228 9.7365 0.346791 8.66741 0.115286 7.50352C-0.11622 6.33964 0.00260456 5.13324 0.456732 4.03689C0.91086 2.94054 1.6799 2.00347 2.66659 1.34419C3.65328 0.6849 4.81332 0.333008 6 0.333008C7.18669 0.333008 8.34672 0.6849 9.33342 1.34419C10.3201 2.00347 11.0891 2.94054 11.5433 4.03689C11.9974 5.13324 12.1162 6.33964 11.8847 7.50352C11.6532 8.66741 11.0818 9.7365 10.2427 10.5756ZM6 8.99962C6.70725 8.99962 7.38552 8.71867 7.88562 8.21857C8.38572 7.71848 8.66667 7.0402 8.66667 6.33296C8.66667 5.62571 8.38572 4.94743 7.88562 4.44734C7.38552 3.94724 6.70725 3.66629 6 3.66629C5.29276 3.66629 4.61448 3.94724 4.11438 4.44734C3.61429 4.94743 3.33334 5.62571 3.33334 6.33296C3.33334 7.0402 3.61429 7.71848 4.11438 8.21857C4.61448 8.71867 5.29276 8.99962 6 8.99962ZM6 7.66629C5.64638 7.66629 5.30724 7.52581 5.05719 7.27576C4.80715 7.02572 4.66667 6.68658 4.66667 6.33296C4.66667 5.97933 4.80715 5.6402 5.05719 5.39015C5.30724 5.1401 5.64638 4.99962 6 4.99962C6.35362 4.99962 6.69276 5.1401 6.94281 5.39015C7.19286 5.6402 7.33334 5.97933 7.33334 6.33296C7.33334 6.68658 7.19286 7.02572 6.94281 7.27576C6.69276 7.52581 6.35362 7.66629 6 7.66629Z" fill="#0ABEB9"/>
</svg>
