<svg width="16" height="16" viewBox="0 0 16 16" fill="none" xmlns="http://www.w3.org/2000/svg">
<path d="M12.2427 11.5766L8 15.8193L3.75734 11.5766C2.91823 10.7375 2.34679 9.66838 2.11529 8.5045C1.88378 7.34061 2.0026 6.13422 2.45673 5.03787C2.91086 3.94151 3.6799 3.00445 4.66659 2.34516C5.65328 1.68588 6.81332 1.33398 8 1.33398C9.18669 1.33398 10.3467 1.68588 11.3334 2.34516C12.3201 3.00445 13.0891 3.94151 13.5433 5.03787C13.9974 6.13422 14.1162 7.34061 13.8847 8.5045C13.6532 9.66838 13.0818 10.7375 12.2427 11.5766V11.5766ZM8 10.0006C8.70725 10.0006 9.38552 9.71965 9.88562 9.21955C10.3857 8.71945 10.6667 8.04118 10.6667 7.33393C10.6667 6.62669 10.3857 5.94841 9.88562 5.44831C9.38552 4.94822 8.70725 4.66727 8 4.66727C7.29276 4.66727 6.61448 4.94822 6.11438 5.44831C5.61429 5.94841 5.33334 6.62669 5.33334 7.33393C5.33334 8.04118 5.61429 8.71945 6.11438 9.21955C6.61448 9.71965 7.29276 10.0006 8 10.0006V10.0006ZM8 8.66727C7.64638 8.66727 7.30724 8.52679 7.05719 8.27674C6.80714 8.02669 6.66667 7.68755 6.66667 7.33393C6.66667 6.98031 6.80714 6.64117 7.05719 6.39112C7.30724 6.14108 7.64638 6.0006 8 6.0006C8.35362 6.0006 8.69276 6.14108 8.94281 6.39112C9.19286 6.64117 9.33334 6.98031 9.33334 7.33393C9.33334 7.68755 9.19286 8.02669 8.94281 8.27674C8.69276 8.52679 8.35362 8.66727 8 8.66727Z" fill="#0ABEB9"/>
</svg>
