<svg width="50" height="55" viewBox="0 0 50 55" fill="none" xmlns="http://www.w3.org/2000/svg">
<path fill-rule="evenodd" clip-rule="evenodd" d="M24.5085 49.0169C38.0441 49.0169 49.0169 38.0441 49.0169 24.5085C49.0169 10.9728 38.0441 0 24.5085 0C10.9728 0 0 10.9728 0 24.5085C0 32.9323 4.24986 40.3634 10.7225 44.7749V54.2256L19.7449 48.5543C21.2858 48.8578 22.8786 49.0169 24.5085 49.0169Z" fill="url(#paint0_linear_1516_517)"/>
<g clip-path="url(#clip0_1516_517)">
<path d="M19.0044 25.527C18.9787 25.527 18.9271 25.5527 18.9271 25.5784L16.0139 33.9486C15.9767 34.0477 15.9097 34.133 15.822 34.1927C15.7343 34.2525 15.6303 34.2838 15.5241 34.2824C15.4712 34.2864 15.4181 34.2776 15.3694 34.2567C15.2445 34.2103 15.1425 34.1175 15.0848 33.9978C15.0272 33.8782 15.0183 33.7409 15.06 33.6148L17.9732 25.2446C18.0474 25.03 18.1862 24.8433 18.3707 24.7101C18.5553 24.5768 18.7766 24.5035 19.0044 24.5V25.527ZM9.77495 34.3081H7.86718C7.73043 34.3081 7.59928 34.254 7.50258 34.1577C7.40589 34.0614 7.35156 33.9307 7.35156 33.7945V25.0392C7.35156 24.903 7.40589 24.7724 7.50258 24.6761C7.59928 24.5798 7.73043 24.5257 7.86718 24.5257H9.72339C10.5153 24.5207 11.2957 24.715 11.9921 25.0905L12.0952 25.1419C12.8791 25.5539 13.5357 26.1707 13.9944 26.9261C14.4531 27.6814 14.6967 28.5469 14.6991 29.4297C14.7027 30.33 14.4535 31.2133 13.9797 31.9801C13.506 32.7468 12.8265 33.3664 12.0179 33.7689L11.9663 33.7945C11.2838 34.1274 10.5349 34.3029 9.77495 34.3081ZM8.35701 33.281H9.77495C10.3756 33.2855 10.9684 33.1445 11.5023 32.8702L11.5538 32.8446C12.1896 32.5306 12.726 32.0477 13.1035 31.4493C13.481 30.8508 13.685 30.16 13.693 29.4533C13.701 28.7466 13.5127 28.0514 13.1488 27.4446C12.785 26.8378 12.2597 26.343 11.6312 26.0149L11.528 25.9635C10.9787 25.6782 10.3687 25.5285 9.74917 25.527H8.35701V33.281ZM40.222 34.3081C40.1162 34.3076 40.0129 34.2756 39.9256 34.2161C39.8382 34.1566 39.7709 34.0724 39.7321 33.9743L36.8189 25.604C36.8189 25.5784 36.7674 25.5527 36.7416 25.5527C36.7158 25.5527 36.6642 25.5784 36.6642 25.604L33.751 33.9743C33.6902 34.0763 33.5957 34.1542 33.4838 34.1947C33.3718 34.2352 33.2492 34.2358 33.1368 34.1965C33.0244 34.1572 32.9292 34.0803 32.8672 33.9789C32.8053 33.8776 32.7805 33.758 32.7971 33.6405L35.7104 25.2703C35.7817 25.0539 35.9198 24.8655 36.1049 24.7319C36.2901 24.5984 36.5129 24.5265 36.7416 24.5265C36.9702 24.5265 37.193 24.5984 37.3782 24.7319C37.5634 24.8655 37.7015 25.0539 37.7728 25.2703L40.686 33.6405C40.7278 33.7666 40.7189 33.9038 40.6612 34.0235C40.6035 34.1432 40.5015 34.236 40.3767 34.2824C40.3509 34.2824 40.2735 34.3081 40.222 34.3081Z" fill="white"/>
<path d="M19.0078 24.5254C19.2357 24.5289 19.457 24.6023 19.6415 24.7355C19.8261 24.8688 19.9649 25.0554 20.039 25.27L22.7202 32.9727C22.7533 33.0693 22.8158 33.1534 22.8989 33.2132C22.982 33.273 23.0818 33.3056 23.1843 33.3065C23.3142 33.3065 23.4388 33.2551 23.5307 33.1636C23.6225 33.0721 23.6741 32.948 23.6741 32.8186V26.0146C23.6741 25.6197 23.8317 25.2409 24.1121 24.9616C24.3925 24.6823 24.7728 24.5254 25.1694 24.5254C25.4712 24.5229 25.7665 24.6126 26.0154 24.7825C26.2644 24.9524 26.455 25.1942 26.5616 25.4754L29.6037 32.9727C29.6381 33.0665 29.7017 33.1469 29.7851 33.2024C29.8686 33.2578 29.9676 33.2852 30.0677 33.2808C30.2045 33.2808 30.3356 33.2267 30.4323 33.1304C30.529 33.0341 30.5834 32.9035 30.5834 32.7673V25.039C30.5834 24.9028 30.6377 24.7721 30.7344 24.6758C30.8311 24.5795 30.9622 24.5254 31.099 24.5254C31.2357 24.5254 31.3669 24.5795 31.4636 24.6758C31.5603 24.7721 31.6146 24.9028 31.6146 25.039V32.793C31.6139 33.1945 31.4534 33.5794 31.1683 33.8634C30.8832 34.1473 30.4967 34.3071 30.0935 34.3078C29.7896 34.3057 29.493 34.2145 29.2409 34.0455C28.9887 33.8766 28.7921 33.6374 28.6756 33.3578L25.6335 25.8349C25.5939 25.7446 25.5291 25.6676 25.4469 25.613C25.3646 25.5583 25.2683 25.5284 25.1694 25.5268C25.1051 25.5268 25.0414 25.5394 24.982 25.5639C24.9225 25.5884 24.8685 25.6244 24.823 25.6697C24.7776 25.715 24.7415 25.7688 24.7169 25.8279C24.6922 25.8871 24.6796 25.9506 24.6796 26.0146V32.793C24.6795 33.1456 24.5539 33.4869 24.3252 33.7561C24.0964 34.0254 23.7793 34.2052 23.4301 34.2637C23.0809 34.3221 22.7221 34.2555 22.4175 34.0756C22.113 33.8956 21.8823 33.6141 21.7663 33.2808L19.0852 25.5781C19.0852 25.5525 19.0336 25.5268 19.0078 25.5268" fill="white"/>
<path d="M31.1185 23.3439C30.9817 23.3439 30.8506 23.2898 30.7539 23.1935C30.6572 23.0972 30.6029 22.9666 30.6029 22.8304V16.925C30.6047 16.6429 30.5409 16.3642 30.4163 16.1108C30.2918 15.8573 30.11 15.6361 29.8852 15.4645C29.6604 15.2928 29.3986 15.1754 29.1206 15.1214C28.8425 15.0674 28.5557 15.0784 28.2826 15.1534C26.3021 15.6371 24.2346 15.6459 22.2499 15.1791C21.8255 15.0782 21.3791 15.125 20.9851 15.3119C20.5911 15.4988 20.2732 15.8143 20.0844 16.2061C19.9813 16.4409 19.9286 16.6945 19.9297 16.9507V22.8561C19.9297 22.9922 19.8753 23.1229 19.7786 23.2192C19.682 23.3155 19.5508 23.3696 19.4141 23.3696C19.2773 23.3696 19.1462 23.3155 19.0495 23.2192C18.9528 23.1229 18.8984 22.9922 18.8984 22.8561V16.925C18.8982 16.5367 18.9771 16.1523 19.1305 15.7953C19.4052 15.1791 19.8892 14.6791 20.4975 14.3832C21.1058 14.0874 21.7993 14.0146 22.4562 14.1777C24.2865 14.6142 26.1945 14.6142 28.0248 14.1777C28.6919 14.0104 29.397 14.0836 30.0151 14.3843C30.6333 14.6851 31.1246 15.194 31.4021 15.821C31.5554 16.178 31.6344 16.5623 31.6341 16.9507V22.8561C31.6275 22.9877 31.5703 23.1119 31.4743 23.2027C31.3783 23.2935 31.2509 23.3441 31.1185 23.3439Z" fill="white"/>
<path d="M19.7265 30.8682H17.1226C16.9927 30.8682 16.8681 30.8169 16.7763 30.7254C16.6844 30.6339 16.6328 30.5098 16.6328 30.3804C16.6328 30.251 16.6844 30.1269 16.7763 30.0355C16.8681 29.944 16.9927 29.8926 17.1226 29.8926H19.7265C19.8564 29.8926 19.981 29.944 20.0729 30.0355C20.1647 30.1269 20.2163 30.251 20.2163 30.3804C20.2163 30.5098 20.1647 30.6339 20.0729 30.7254C19.981 30.8169 19.8564 30.8682 19.7265 30.8682ZM38.9074 30.8682H34.6793C34.5494 30.8682 34.4248 30.8169 34.333 30.7254C34.2411 30.6339 34.1895 30.5098 34.1895 30.3804C34.1895 30.251 34.2411 30.1269 34.333 30.0355C34.4248 29.944 34.5494 29.8926 34.6793 29.8926H38.9074C39.0373 29.8926 39.1619 29.944 39.2537 30.0355C39.3456 30.1269 39.3972 30.251 39.3972 30.3804C39.3909 30.5078 39.3373 30.6283 39.2468 30.7185C39.1562 30.8086 39.0353 30.862 38.9074 30.8682Z" fill="white"/>
</g>
<defs>
<linearGradient id="paint0_linear_1516_517" x1="6.52896e-07" y1="2.25939" x2="53.8831" y2="9.6883" gradientUnits="userSpaceOnUse">
<stop offset="0.347039" stop-color="#09CAC3"/>
<stop offset="1" stop-color="#179B97"/>
</linearGradient>
<clipPath id="clip0_1516_517">
<rect width="33.6992" height="20.2195" fill="white" transform="translate(7.35156 14.0938)"/>
</clipPath>
</defs>
</svg>
