<svg>
    <symbol id="telegram" viewBox="0 0 32 32" fill="none" xmlns="http://www.w3.org/2000/svg">
    <circle cx="16" cy="16" r="16" fill="#0ABEB9"/>
    <path d="M11.2491 17.6446L19.6789 25.0628C19.7764 25.1486 19.8946 25.2076 20.0218 25.234C20.149 25.2605 20.2809 25.2534 20.4045 25.2135C20.5282 25.1737 20.6394 25.1024 20.7272 25.0066C20.815 24.9108 20.8764 24.7939 20.9054 24.6673L24.4317 9.27983C24.4622 9.14679 24.4558 9.00796 24.4132 8.87828C24.3706 8.74861 24.2934 8.63302 24.19 8.54396C24.0866 8.4549 23.9608 8.39576 23.8262 8.3729C23.6917 8.35004 23.5534 8.36433 23.4264 8.41424L6.1242 15.2115C5.97341 15.2708 5.84585 15.3773 5.76062 15.515C5.67538 15.6528 5.63706 15.8145 5.65137 15.9759C5.66569 16.1372 5.73187 16.2896 5.84002 16.4103C5.94818 16.5309 6.09248 16.6133 6.25135 16.645L11.2491 17.6446Z" stroke="#2F2F2F" stroke-width="1.5" stroke-linecap="round" stroke-linejoin="round"/>
    <path d="M11.25 17.6446L24.0105 8.42871" stroke="#2F2F2F" stroke-width="1.5" stroke-linecap="round" stroke-linejoin="round"/>
    <path d="M15.46 21.3494L12.5303 24.2791C12.4254 24.384 12.2918 24.4554 12.1463 24.4843C12.0008 24.5133 11.85 24.4984 11.713 24.4416C11.5759 24.3849 11.4588 24.2888 11.3764 24.1654C11.294 24.0421 11.25 23.8971 11.25 23.7487V17.6445" stroke="#2F2F2F" stroke-width="1.5" stroke-linecap="round" stroke-linejoin="round"/>
    </symbol>

    <symbol id="whatsapp" viewBox="0 0 32 32" fill="none" xmlns="http://www.w3.org/2000/svg">
    <circle cx="16" cy="16" r="16" fill="#0ABEB9"/>
    <path d="M8.25895 19.9493C7.14076 18.0643 6.74916 15.836 7.15768 13.6827C7.56621 11.5294 8.74675 9.59927 10.4776 8.2548C12.2085 6.91033 14.3707 6.24397 16.5581 6.38085C18.7455 6.51774 20.8078 7.44844 22.3575 8.99821C23.9073 10.548 24.838 12.6102 24.9749 14.7976C25.1118 16.985 24.4455 19.1472 23.101 20.8781C21.7565 22.609 19.8264 23.7895 17.6732 24.1981C15.5199 24.6066 13.2915 24.215 11.4065 23.0968L11.4065 23.0968L8.29808 23.9849C8.16948 24.0216 8.03338 24.0233 7.90391 23.9898C7.77443 23.9562 7.65628 23.8886 7.56171 23.7941C7.46713 23.6995 7.39956 23.5813 7.36601 23.4519C7.33246 23.3224 7.33415 23.1863 7.37089 23.0577L8.25902 19.9493L8.25895 19.9493Z" stroke="#2F2F2F" stroke-width="1.5" stroke-linecap="round" stroke-linejoin="round"/>
    <path d="M18.2607 20.6055C17.274 20.6069 16.2967 20.4136 15.3848 20.0366C14.4729 19.6597 13.6444 19.1065 12.9467 18.4088C12.249 17.7111 11.6958 16.8825 11.3189 15.9707C10.9419 15.0588 10.7486 14.0815 10.75 13.0948C10.7522 12.4003 11.0299 11.735 11.522 11.2449C12.0141 10.7548 12.6805 10.4799 13.375 10.4805V10.4805C13.4889 10.4805 13.6008 10.5106 13.6993 10.5678C13.7979 10.6249 13.8795 10.7072 13.936 10.8061L15.0321 12.7241C15.0982 12.8398 15.1323 12.971 15.1309 13.1042C15.1294 13.2374 15.0926 13.3679 15.024 13.4821L14.1438 14.9491C14.5967 15.9541 15.4014 16.7588 16.4063 17.2117V17.2117L17.8734 16.3315C17.9876 16.2629 18.118 16.226 18.2513 16.2246C18.3845 16.2232 18.5157 16.2573 18.6313 16.3234L20.5494 17.4194C20.6483 17.4759 20.7305 17.5576 20.7877 17.6561C20.8449 17.7547 20.875 17.8666 20.875 17.9805V17.9805C20.873 18.6742 20.5973 19.3391 20.1077 19.8307C19.6182 20.3222 18.9544 20.6007 18.2607 20.6055V20.6055Z" stroke="#2F2F2F" stroke-width="1.5" stroke-linecap="round" stroke-linejoin="round"/>
    </symbol>

    <symbol id="viber" viewBox="0 0 32 32" fill="none" xmlns="http://www.w3.org/2000/svg">
    <circle cx="16" cy="16" r="16" fill="#0ABEB9"/>
    <path d="M19.9232 14.6036C19.8134 14.6036 19.7078 14.5605 19.6282 14.4831C19.5486 14.4058 19.5012 14.3001 19.4957 14.1881C19.4236 12.6999 18.739 11.9721 17.3408 11.8979C17.2845 11.895 17.2293 11.8808 17.1784 11.8561C17.1275 11.8314 17.0818 11.7967 17.044 11.754C17.0063 11.7112 16.9771 11.6613 16.9583 11.607C16.9394 11.5527 16.9312 11.4952 16.9342 11.4376C16.937 11.3801 16.9509 11.3237 16.975 11.2717C16.9992 11.2196 17.0331 11.173 17.075 11.1344C17.1168 11.0958 17.1657 11.066 17.2188 11.0467C17.2719 11.0274 17.3282 11.0191 17.3845 11.0221C19.2304 11.1208 20.2561 12.2002 20.3506 14.1434C20.3534 14.2008 20.3451 14.2583 20.3262 14.3124C20.3073 14.3666 20.2781 14.4164 20.2404 14.459C20.2026 14.5017 20.157 14.5363 20.1061 14.5609C20.0553 14.5856 20.0002 14.5997 19.944 14.6026L19.9232 14.6036Z" fill="#2F2F2F"/>
    <path d="M22.1224 15.356H22.1132C22.057 15.3548 22.0015 15.3422 21.95 15.3191C21.8984 15.2959 21.8519 15.2627 21.8129 15.2211C21.774 15.1796 21.7435 15.1306 21.723 15.077C21.7026 15.0234 21.6927 14.9662 21.6939 14.9087C21.726 13.4117 21.3077 12.1999 20.4152 11.2036C19.5227 10.2073 18.3029 9.6671 16.6821 9.54607C16.569 9.53756 16.4639 9.48357 16.3897 9.39594C16.3154 9.30831 16.2782 9.19419 16.2862 9.07858C16.2945 8.96299 16.3474 8.8555 16.4331 8.77965C16.5189 8.7038 16.6305 8.66579 16.7436 8.67394C18.5667 8.81055 20.0142 9.46296 21.0459 10.614C22.0777 11.7651 22.5854 13.22 22.5493 14.929C22.5464 15.0429 22.5002 15.1512 22.4205 15.2309C22.3408 15.3106 22.2339 15.3555 22.1224 15.356Z" fill="#2F2F2F"/>
    <path d="M24.3723 16.2542C24.2591 16.2542 24.1506 16.2085 24.0704 16.1271C23.9901 16.0456 23.9446 15.9351 23.9438 15.8195C23.924 13.1776 23.1484 11.0749 21.6384 9.57064C20.1284 8.06635 18.2128 7.29031 15.9547 7.27421C15.8984 7.2738 15.8428 7.26207 15.791 7.23969C15.7391 7.2173 15.6921 7.1847 15.6526 7.14375C15.6131 7.1028 15.5819 7.0543 15.5608 7.00102C15.5396 6.94773 15.5289 6.89071 15.5293 6.83321C15.5301 6.71761 15.5756 6.60703 15.6559 6.52559C15.7361 6.44414 15.8447 6.39843 15.9578 6.39844H15.9608C18.4476 6.4161 20.5594 7.27213 22.2361 8.94368C23.9128 10.6152 24.7773 12.9288 24.8007 15.8137C24.8011 15.8712 24.7904 15.9283 24.7693 15.9816C24.7481 16.0348 24.7169 16.0833 24.6774 16.1243C24.6379 16.1652 24.5909 16.1978 24.539 16.2202C24.4872 16.2426 24.4316 16.2543 24.3753 16.2547L24.3723 16.2542Z" fill="#2F2F2F"/>
    <path d="M17.4487 20.0301C17.4487 20.0301 18.051 20.082 18.3752 19.6738L19.0075 18.8608C19.3124 18.4578 20.0484 18.2006 20.769 18.611C21.3091 18.9258 21.8334 19.268 22.34 19.6364C22.8183 19.9958 23.7977 20.8311 23.8007 20.8311C24.2673 21.2336 24.375 21.8247 24.0574 22.4481C24.0574 22.4517 24.0548 22.4579 24.0548 22.4611C23.705 23.0809 23.2608 23.6399 22.739 24.117C22.7329 24.1201 22.7329 24.1233 22.7273 24.1264C22.274 24.5135 21.8286 24.7336 21.3911 24.7866C21.3267 24.798 21.2613 24.8022 21.196 24.799C21.0031 24.8012 20.8111 24.771 20.6278 24.7097L20.6135 24.6884C19.9396 24.4941 18.8143 24.0079 16.9404 22.9514C15.8553 22.3474 14.8222 21.6504 13.8523 20.8679C13.3664 20.4762 12.903 20.0561 12.4643 19.6099L12.4176 19.5621L12.3708 19.5143L12.3241 19.4665L12.2773 19.4187C11.8406 18.9704 11.4296 18.4968 11.0463 18.0001C10.2809 17.0097 9.59897 15.9547 9.00776 14.8466C7.97399 12.931 7.49827 11.782 7.30819 11.0922L7.28735 11.0776C7.22784 10.8901 7.19849 10.694 7.20044 10.4969C7.19697 10.4302 7.20089 10.3632 7.21213 10.2974C7.26804 9.85139 7.48438 9.39585 7.86116 8.93078C7.86421 8.92506 7.86726 8.92506 7.87031 8.91883C8.33695 8.38544 8.88393 7.93163 9.49059 7.57453C9.49364 7.57453 9.49974 7.57141 9.5033 7.57141C10.1132 7.24676 10.6916 7.35688 11.085 7.83113C11.088 7.83425 11.9037 8.8352 12.2539 9.32399C12.6141 9.84343 12.9485 10.3791 13.2572 10.9311C13.6587 11.6672 13.4097 12.4209 13.0127 12.7315L12.2173 13.3777C11.8158 13.7091 11.8687 14.3246 11.8687 14.3246C11.8687 14.3246 13.0468 18.8816 17.4487 20.0301Z" stroke="#2F2F2F" stroke-width="1.5"/>
    </symbol>

    <symbol id="vk" viewBox="0 0 40 40" fill="none" xmlns="http://www.w3.org/2000/svg">
    <circle cx="20" cy="20" r="20" fill="#0ABEB9"/>
    <path fill-rule="evenodd" clip-rule="evenodd" d="M11.1977 13.0742H8.47028C7.69102 13.0742 7.53516 13.4174 7.53516 13.7957C7.53516 14.4716 8.45981 17.8233 11.8405 22.2561C14.0943 25.2834 17.2696 26.9245 20.1592 26.9245C21.8928 26.9245 22.1073 26.56 22.1073 25.9322V23.6442C22.1073 22.9152 22.2715 22.7697 22.8205 22.7697C23.2251 22.7697 23.9185 22.9589 25.5367 24.4185C27.386 26.1484 27.6908 26.9245 28.7309 26.9245H31.4583C32.2376 26.9245 32.6273 26.56 32.4025 25.8407C32.1565 25.1239 31.2736 24.0837 30.102 22.8508C29.4663 22.148 28.5128 21.3912 28.2238 21.0127C27.8194 20.5262 27.9349 20.31 28.2238 19.8775C28.2238 19.8775 31.5468 15.4987 31.8935 14.0121C32.0669 13.4714 31.8935 13.0742 31.0687 13.0742H28.3413C27.6479 13.0742 27.3281 13.4174 27.1547 13.7957C27.1547 13.7957 25.7678 16.9583 23.803 19.0126C23.1673 19.6072 22.8783 19.7964 22.5315 19.7964C22.3582 19.7964 22.1072 19.6072 22.1072 19.0666V14.0121C22.1072 13.3633 21.906 13.0742 21.328 13.0742H17.0421C16.6087 13.0742 16.3481 13.3753 16.3481 13.6607C16.3481 14.2756 17.3305 14.4175 17.4318 16.1474V19.9046C17.4318 20.7283 17.2727 20.8777 16.926 20.8777C16.0014 20.8777 13.7523 17.701 12.4183 14.0661C12.157 13.3596 11.8947 13.0742 11.1977 13.0742Z" stroke="#2F2F2F" stroke-width="1.5"/>
    </symbol>

    <symbol id="insta" viewBox="0 0 40 40" fill="none" xmlns="http://www.w3.org/2000/svg">
    <circle cx="20" cy="20" r="20" fill="#0ABEB9"/>
    <path d="M20 24.6875C22.5888 24.6875 24.6875 22.5888 24.6875 20C24.6875 17.4112 22.5888 15.3125 20 15.3125C17.4112 15.3125 15.3125 17.4112 15.3125 20C15.3125 22.5888 17.4112 24.6875 20 24.6875Z" stroke="#2F2F2F" stroke-width="1.5" stroke-miterlimit="10"/>
    <path d="M25.1562 9.21875H14.8438C11.7371 9.21875 9.21875 11.7371 9.21875 14.8438V25.1562C9.21875 28.2629 11.7371 30.7812 14.8438 30.7812H25.1562C28.2629 30.7812 30.7812 28.2629 30.7812 25.1562V14.8438C30.7812 11.7371 28.2629 9.21875 25.1562 9.21875Z" stroke="#2F2F2F" stroke-width="1.5" stroke-linecap="round" stroke-linejoin="round"/>
    <path d="M26.0938 15.3125C26.8704 15.3125 27.5 14.6829 27.5 13.9062C27.5 13.1296 26.8704 12.5 26.0938 12.5C25.3171 12.5 24.6875 13.1296 24.6875 13.9062C24.6875 14.6829 25.3171 15.3125 26.0938 15.3125Z" fill="#2F2F2F"/>
    </symbol>

    <symbol id="fb" viewBox="0 0 40 40" fill="none" xmlns="http://www.w3.org/2000/svg">
    <circle cx="20" cy="20" r="20" fill="#0ABEB9"/>
    <path d="M20 31.25C26.2132 31.25 31.25 26.2132 31.25 20C31.25 13.7868 26.2132 8.75 20 8.75C13.7868 8.75 8.75 13.7868 8.75 20C8.75 26.2132 13.7868 31.25 20 31.25Z" stroke="#2F2F2F" stroke-width="1.5" stroke-linecap="round" stroke-linejoin="round"/>
    <path d="M24.6875 15.3125H22.8125C22.0666 15.3125 21.3512 15.6088 20.8238 16.1363C20.2963 16.6637 20 17.3791 20 18.125V31.25" stroke="#2F2F2F" stroke-width="1.5" stroke-linecap="round" stroke-linejoin="round"/>
    <path d="M16.25 21.875H23.75" stroke="#2F2F2F" stroke-width="1.5" stroke-linecap="round" stroke-linejoin="round"/>
    </symbol>

    <symbol id="local" viewBox="0 0 12 15" fill="none" xmlns="http://www.w3.org/2000/svg">
    <path d="M10.2427 10.5756L6 14.8183L1.75734 10.5756C0.918228 9.7365 0.346791 8.66741 0.115286 7.50352C-0.11622 6.33964 0.00260456 5.13324 0.456732 4.03689C0.91086 2.94054 1.6799 2.00347 2.66659 1.34419C3.65328 0.6849 4.81332 0.333008 6 0.333008C7.18669 0.333008 8.34672 0.6849 9.33342 1.34419C10.3201 2.00347 11.0891 2.94054 11.5433 4.03689C11.9974 5.13324 12.1162 6.33964 11.8847 7.50352C11.6532 8.66741 11.0818 9.7365 10.2427 10.5756ZM6 8.99962C6.70725 8.99962 7.38552 8.71867 7.88562 8.21857C8.38572 7.71848 8.66667 7.0402 8.66667 6.33296C8.66667 5.62571 8.38572 4.94743 7.88562 4.44734C7.38552 3.94724 6.70725 3.66629 6 3.66629C5.29276 3.66629 4.61448 3.94724 4.11438 4.44734C3.61429 4.94743 3.33334 5.62571 3.33334 6.33296C3.33334 7.0402 3.61429 7.71848 4.11438 8.21857C4.61448 8.71867 5.29276 8.99962 6 8.99962ZM6 7.66629C5.64638 7.66629 5.30724 7.52581 5.05719 7.27576C4.80715 7.02572 4.66667 6.68658 4.66667 6.33296C4.66667 5.97933 4.80715 5.6402 5.05719 5.39015C5.30724 5.1401 5.64638 4.99962 6 4.99962C6.35362 4.99962 6.69276 5.1401 6.94281 5.39015C7.19286 5.6402 7.33334 5.97933 7.33334 6.33296C7.33334 6.68658 7.19286 7.02572 6.94281 7.27576C6.69276 7.52581 6.35362 7.66629 6 7.66629Z" fill="#0ABEB9"/>
    </symbol>

    <symbol id="circle-arrow-left" viewBox="0 0 32 32" fill="none" xmlns="http://www.w3.org/2000/svg">
    <circle cx="16" cy="16" r="15" transform="rotate(90 16 16)" stroke="currentColor" stroke-width="2"/>
    <path d="M19.1992 7.47559L10.6751 15.9997L19.1992 24.5238" stroke="currentColor" stroke-width="2" stroke-linecap="round"/>
    </symbol>

    <symbol id="circle-arrow-right" viewBox="0 0 32 32" fill="none" xmlns="http://www.w3.org/2000/svg">
    <circle cx="16" cy="16" r="15" transform="rotate(-90 16 16)" stroke="currentColor" stroke-width="2"/>
    <path d="M12.8008 24.5244L21.3249 16.0003L12.8008 7.47621" stroke="currentColor" stroke-width="2" stroke-linecap="round"/>
    </symbol>

    <symbol id="calendar" viewBox="0 0 40 40" fill="none" xmlns="http://www.w3.org/2000/svg">
    <path d="M32.5 6.25H7.5C6.80964 6.25 6.25 6.80964 6.25 7.5V32.5C6.25 33.1904 6.80964 33.75 7.5 33.75H32.5C33.1904 33.75 33.75 33.1904 33.75 32.5V7.5C33.75 6.80964 33.1904 6.25 32.5 6.25Z" stroke="white" stroke-width="2" stroke-linecap="round" stroke-linejoin="round"/>
    <path d="M27.5 3.75V8.75" stroke="white" stroke-width="2" stroke-linecap="round" stroke-linejoin="round"/>
    <path d="M12.5 3.75V8.75" stroke="white" stroke-width="2" stroke-linecap="round" stroke-linejoin="round"/>
    <path d="M6.25 13.75H33.75" stroke="white" stroke-width="2" stroke-linecap="round" stroke-linejoin="round"/>
    <path d="M14.375 19.999H18.75L16.25 23.124C16.6611 23.124 17.0658 23.2254 17.4283 23.4191C17.7909 23.6129 18.1 23.893 18.3285 24.2348C18.5569 24.5765 18.6975 24.9693 18.7379 25.3784C18.7783 25.7875 18.7172 26.2002 18.56 26.58C18.4028 26.9599 18.1544 27.295 17.8367 27.5559C17.5191 27.8168 17.142 27.9954 16.7388 28.0758C16.3357 28.1561 15.919 28.1359 15.5256 28.0168C15.1321 27.8976 14.7742 27.6834 14.4833 27.3929" stroke="white" stroke-width="2" stroke-linecap="round" stroke-linejoin="round"/>
    <path d="M22.5 21.874L25 19.999V28.124" stroke="white" stroke-width="2" stroke-linecap="round" stroke-linejoin="round"/>
    </symbol>

    <symbol id="clock" viewBox="0 0 24 24" fill="none" xmlns="http://www.w3.org/2000/svg">
    <g clip-path="url(#clip0_1372_4879)">
    <path d="M12 22C10.6868 22 9.38642 21.7413 8.17317 21.2388C6.95991 20.7363 5.85752 19.9997 4.92893 19.0711C4.00035 18.1425 3.26375 17.0401 2.7612 15.8268C2.25866 14.6136 2 13.3132 2 12C2 10.6868 2.25866 9.38642 2.7612 8.17317C3.26375 6.95991 4.00035 5.85752 4.92893 4.92893C5.85752 4.00035 6.95991 3.26375 8.17317 2.7612C9.38642 2.25866 10.6868 2 12 2C14.6522 2 17.1957 3.05357 19.0711 4.92893C20.9464 6.8043 22 9.34784 22 12C22 14.6522 20.9464 17.1957 19.0711 19.0711C17.1957 20.9464 14.6522 22 12 22ZM13.1111 12V6.44445H10.8889V14.2222H16.4444V12H13.1111Z" fill="#0ABEB9"/>
    </g>
    <defs>
    <clipPath id="clip0_1372_4879">
    <rect  fill="white"/>
    </clipPath>
    </defs>
    </symbol>

    <symbol id="phone" viewBox="0 0 24 24" fill="none" xmlns="http://www.w3.org/2000/svg">
    <path d="M7.28538 12.0783C8.27932 14.1103 9.92648 15.75 11.963 16.7347C12.112 16.8053 12.2768 16.8359 12.4413 16.8234C12.6057 16.811 12.764 16.756 12.9007 16.6637L15.8994 14.6642C16.032 14.5757 16.1846 14.5218 16.3433 14.5072C16.502 14.4926 16.6619 14.5179 16.8084 14.5806L22.4184 16.9849C22.6089 17.0659 22.768 17.2065 22.8717 17.3858C22.9754 17.565 23.018 17.7731 22.9931 17.9786C22.8158 19.3661 22.1388 20.6414 21.0889 21.5657C20.039 22.49 18.6883 22.9999 17.2895 23C12.9692 23 8.82595 21.2838 5.77108 18.2289C2.71621 15.174 1 11.0308 1 6.71051C1.00007 5.31174 1.51 3.96096 2.43429 2.91108C3.35858 1.86121 4.63387 1.18423 6.02135 1.00692C6.22691 0.982043 6.43497 1.02464 6.61421 1.1283C6.79345 1.23196 6.93414 1.39106 7.01509 1.58163L9.42145 7.19646C9.48369 7.34169 9.50905 7.50006 9.49527 7.65746C9.4815 7.81487 9.42901 7.96643 9.34248 8.09864L7.34984 11.1433C7.25915 11.2803 7.20554 11.4384 7.19424 11.6023C7.18294 11.7662 7.21434 11.9302 7.28538 12.0783V12.0783Z" fill="#0ABEB9"/>
    </symbol>

    <symbol id="whatsapp-2" viewBox="0 0 24 24" fill="none" xmlns="http://www.w3.org/2000/svg">
    <path d="M21.6131 17.7901C22.1885 16.7144 22.4929 15.5146 22.4999 14.2947C22.5068 13.0748 22.2161 11.8716 21.653 10.7894C21.0899 9.70715 20.2713 8.77862 19.2683 8.08425C18.2652 7.38988 17.108 6.95062 15.8968 6.80455C15.4989 5.87351 14.9166 5.03268 14.185 4.33274C13.4534 3.63279 12.5876 3.08822 11.6399 2.73186C10.6922 2.37549 9.68212 2.21471 8.67059 2.2592C7.65906 2.30368 6.66701 2.55252 5.75424 2.99071C4.84146 3.4289 4.02686 4.04737 3.35953 4.80885C2.6922 5.57032 2.18596 6.45903 1.87132 7.4214C1.55669 8.38378 1.44016 9.3999 1.52878 10.4085C1.6174 11.4171 1.90932 12.3974 2.38696 13.2901L1.80715 15.3198C1.74282 15.5449 1.73984 15.783 1.79852 16.0096C1.85721 16.2362 1.97542 16.443 2.14092 16.6085C2.30642 16.7741 2.51317 16.8923 2.73975 16.951C2.96633 17.0098 3.20449 17.0068 3.42956 16.9426L5.45947 16.3626C6.28089 16.8023 7.17718 17.0847 8.10227 17.1955C8.51124 18.1522 9.1147 19.0133 9.87433 19.7243C10.6339 20.4353 11.5331 20.9805 12.5148 21.3254C13.4964 21.6702 14.539 21.8072 15.5764 21.7275C16.6138 21.6478 17.6233 21.3533 18.5407 20.8626L20.5705 21.4426C20.7956 21.5068 21.0337 21.5098 21.2603 21.4511C21.4869 21.3923 21.6936 21.2741 21.8591 21.1086C22.0246 20.9431 22.1428 20.7363 22.2016 20.5097C22.2603 20.2832 22.2573 20.045 22.193 19.82L21.6131 17.7901ZM20.1612 17.3113C20.1089 17.3991 20.0752 17.4967 20.0621 17.5981C20.0489 17.6994 20.0566 17.8024 20.0847 17.9007L20.658 19.9075L18.6512 19.3342C18.5529 19.3061 18.45 19.2984 18.3486 19.3116C18.2473 19.3248 18.1497 19.3585 18.0619 19.4107C17.3755 19.8175 16.6149 20.0834 15.8245 20.1928C15.0342 20.3022 14.2299 20.253 13.4588 20.048C12.6877 19.843 11.9652 19.4863 11.3336 18.9988C10.7019 18.5114 10.1738 17.9029 9.78003 17.2089C10.8073 17.1026 11.8016 16.785 12.7003 16.276C13.599 15.7671 14.3828 15.0778 15.0023 14.2515C15.6219 13.4252 16.0639 12.4796 16.3006 11.4743C16.5373 10.469 16.5636 9.42559 16.3777 8.40963C17.2941 8.62609 18.1467 9.0551 18.8665 9.66199C19.5864 10.2689 20.1534 11.0366 20.5218 11.9032C20.8901 12.7697 21.0493 13.7108 20.9867 14.6502C20.9241 15.5897 20.6413 16.5013 20.1612 17.3113V17.3113Z" fill="#0ABEB9"/>
    </symbol>

    <symbol id="email" viewBox="0 0 24 24" fill="none" xmlns="http://www.w3.org/2000/svg">
    <path d="M23.9994 8.24119C23.9988 8.17111 23.9901 8.10133 23.9734 8.03325C23.9714 8.02534 23.969 8.01759 23.9669 8.00973C23.9598 7.98405 23.9517 7.95861 23.9424 7.93341C23.9389 7.9241 23.9353 7.91487 23.9316 7.90566C23.922 7.88222 23.9112 7.85911 23.8995 7.83623C23.8949 7.82733 23.8907 7.81832 23.8859 7.80957C23.8722 7.78472 23.8569 7.76041 23.8406 7.73652C23.837 7.73124 23.8339 7.72561 23.8302 7.72041L23.8285 7.71778C23.8086 7.69031 23.7873 7.66393 23.7645 7.63875C23.7595 7.63321 23.754 7.62817 23.7488 7.62275C23.7294 7.60218 23.7093 7.58255 23.6884 7.56411C23.6814 7.55796 23.6741 7.55211 23.6669 7.54615C23.6456 7.52853 23.6237 7.51199 23.6012 7.49653C23.5969 7.49359 23.5932 7.49012 23.5889 7.48727L12.512 0.153916C12.3604 0.0535541 12.1822 0 12 0C11.8178 0 11.6396 0.0535541 11.488 0.153916L0.411058 7.48727C0.406889 7.49001 0.40334 7.49336 0.399289 7.49616C0.376415 7.51183 0.354235 7.52857 0.332751 7.5464C0.325712 7.55222 0.318609 7.5579 0.311792 7.56392C0.290664 7.58252 0.270382 7.60232 0.250832 7.62311C0.245818 7.62837 0.240465 7.63329 0.235563 7.63866C0.212776 7.66386 0.191391 7.69027 0.171505 7.71778L0.169815 7.72041C0.166096 7.72561 0.163055 7.73124 0.159449 7.73652C0.143109 7.76041 0.127841 7.78472 0.114095 7.80957C0.109306 7.81832 0.10508 7.82733 0.100516 7.83623C0.0888542 7.85911 0.0780368 7.88222 0.0684022 7.90566C0.0646845 7.91487 0.061133 7.9241 0.0576415 7.93341C0.0482899 7.95862 0.0401209 7.98406 0.0331339 8.00973C0.0309924 8.01759 0.0285704 8.02534 0.0266551 8.03325C0.00990995 8.10133 0.00115633 8.17111 0.000568903 8.24119C0.000506596 8.24415 0 8.24701 0 8.24997V20.1667C0.000559775 20.6527 0.195245 21.1187 0.541344 21.4624C0.887444 21.8061 1.3567 21.9994 1.84615 22H22.1538C22.6433 21.9994 23.1126 21.8061 23.4587 21.4624C23.8048 21.1187 23.9994 20.6527 24 20.1667V8.24997C24 8.24701 23.9995 8.24415 23.9994 8.24119ZM1.84615 10.0293L8.39108 14.6632L1.84615 19.2542V10.0293ZM10.2791 15.5833H13.7209L20.255 20.1667H3.7451L10.2791 15.5833ZM15.6089 14.6632L22.1538 10.0293V19.2541L15.6089 14.6632Z" fill="#0ABEB9"/>
    </symbol>


</svg>