<svg width="32" height="32" viewBox="0 0 32 32" fill="none" xmlns="http://www.w3.org/2000/svg">
<circle cx="16" cy="16" r="16" fill="#0ABEB9"/>
<path d="M19.9232 14.6036C19.8134 14.6036 19.7078 14.5605 19.6282 14.4831C19.5486 14.4058 19.5012 14.3001 19.4957 14.1881C19.4236 12.6999 18.739 11.9721 17.3408 11.8979C17.2845 11.895 17.2293 11.8808 17.1784 11.8561C17.1275 11.8314 17.0818 11.7967 17.044 11.754C17.0063 11.7112 16.9771 11.6613 16.9583 11.607C16.9394 11.5527 16.9312 11.4952 16.9342 11.4376C16.937 11.3801 16.9509 11.3237 16.975 11.2717C16.9992 11.2196 17.0331 11.173 17.075 11.1344C17.1168 11.0958 17.1657 11.066 17.2188 11.0467C17.2719 11.0274 17.3282 11.0191 17.3845 11.0221C19.2304 11.1208 20.2561 12.2002 20.3506 14.1434C20.3534 14.2008 20.3451 14.2583 20.3262 14.3124C20.3073 14.3666 20.2781 14.4164 20.2404 14.459C20.2026 14.5017 20.157 14.5363 20.1061 14.5609C20.0553 14.5856 20.0002 14.5997 19.944 14.6026L19.9232 14.6036Z" fill="#2F2F2F"/>
<path d="M22.1224 15.356H22.1132C22.057 15.3548 22.0015 15.3422 21.95 15.3191C21.8984 15.2959 21.8519 15.2627 21.8129 15.2211C21.774 15.1796 21.7435 15.1306 21.723 15.077C21.7026 15.0234 21.6927 14.9662 21.6939 14.9087C21.726 13.4117 21.3077 12.1999 20.4152 11.2036C19.5227 10.2073 18.3029 9.6671 16.6821 9.54607C16.569 9.53756 16.4639 9.48357 16.3897 9.39594C16.3154 9.30831 16.2782 9.19419 16.2862 9.07858C16.2945 8.96299 16.3474 8.8555 16.4331 8.77965C16.5189 8.7038 16.6305 8.66579 16.7436 8.67394C18.5667 8.81055 20.0142 9.46296 21.0459 10.614C22.0777 11.7651 22.5854 13.22 22.5493 14.929C22.5464 15.0429 22.5002 15.1512 22.4205 15.2309C22.3408 15.3106 22.2339 15.3555 22.1224 15.356Z" fill="#2F2F2F"/>
<path d="M24.3723 16.2542C24.2591 16.2542 24.1506 16.2085 24.0704 16.1271C23.9901 16.0456 23.9446 15.9351 23.9438 15.8195C23.924 13.1776 23.1484 11.0749 21.6384 9.57064C20.1284 8.06635 18.2128 7.29031 15.9547 7.27421C15.8984 7.2738 15.8428 7.26207 15.791 7.23969C15.7391 7.2173 15.6921 7.1847 15.6526 7.14375C15.6131 7.1028 15.5819 7.0543 15.5608 7.00102C15.5396 6.94773 15.5289 6.89071 15.5293 6.83321C15.5301 6.71761 15.5756 6.60703 15.6559 6.52559C15.7361 6.44414 15.8447 6.39843 15.9578 6.39844H15.9608C18.4476 6.4161 20.5594 7.27213 22.2361 8.94368C23.9128 10.6152 24.7773 12.9288 24.8007 15.8137C24.8011 15.8712 24.7904 15.9283 24.7693 15.9816C24.7481 16.0348 24.7169 16.0833 24.6774 16.1243C24.6379 16.1652 24.5909 16.1978 24.539 16.2202C24.4872 16.2426 24.4316 16.2543 24.3753 16.2547L24.3723 16.2542Z" fill="#2F2F2F"/>
<path d="M17.4487 20.0301C17.4487 20.0301 18.051 20.082 18.3752 19.6738L19.0075 18.8608C19.3124 18.4578 20.0484 18.2006 20.769 18.611C21.3091 18.9258 21.8334 19.268 22.34 19.6364C22.8183 19.9958 23.7977 20.8311 23.8007 20.8311C24.2673 21.2336 24.375 21.8247 24.0574 22.4481C24.0574 22.4517 24.0548 22.4579 24.0548 22.4611C23.705 23.0809 23.2608 23.6399 22.739 24.117C22.7329 24.1201 22.7329 24.1233 22.7273 24.1264C22.274 24.5135 21.8286 24.7336 21.3911 24.7866C21.3267 24.798 21.2613 24.8022 21.196 24.799C21.0031 24.8012 20.8111 24.771 20.6278 24.7097L20.6135 24.6884C19.9396 24.4941 18.8143 24.0079 16.9404 22.9514C15.8553 22.3474 14.8222 21.6504 13.8523 20.8679C13.3664 20.4762 12.903 20.0561 12.4643 19.6099L12.4176 19.5621L12.3708 19.5143L12.3241 19.4665L12.2773 19.4187C11.8406 18.9704 11.4296 18.4968 11.0463 18.0001C10.2809 17.0097 9.59897 15.9547 9.00776 14.8466C7.97399 12.931 7.49827 11.782 7.30819 11.0922L7.28735 11.0776C7.22784 10.8901 7.19849 10.694 7.20044 10.4969C7.19697 10.4302 7.20089 10.3632 7.21213 10.2974C7.26804 9.85139 7.48438 9.39585 7.86116 8.93078C7.86421 8.92506 7.86726 8.92506 7.87031 8.91883C8.33695 8.38544 8.88393 7.93163 9.49059 7.57453C9.49364 7.57453 9.49974 7.57141 9.5033 7.57141C10.1132 7.24676 10.6916 7.35688 11.085 7.83113C11.088 7.83425 11.9037 8.8352 12.2539 9.32399C12.6141 9.84343 12.9485 10.3791 13.2572 10.9311C13.6587 11.6672 13.4097 12.4209 13.0127 12.7315L12.2173 13.3777C11.8158 13.7091 11.8687 14.3246 11.8687 14.3246C11.8687 14.3246 13.0468 18.8816 17.4487 20.0301Z" stroke="#2F2F2F" stroke-width="1.5"/>
</svg>
