<svg width="40" height="40" viewBox="0 0 40 40" fill="none" xmlns="http://www.w3.org/2000/svg">
<circle cx="20" cy="20" r="20" fill="#0ABEB9"/>
<path fill-rule="evenodd" clip-rule="evenodd" d="M11.1977 13.0742H8.47028C7.69102 13.0742 7.53516 13.4174 7.53516 13.7957C7.53516 14.4716 8.45981 17.8233 11.8405 22.2561C14.0943 25.2834 17.2696 26.9245 20.1592 26.9245C21.8928 26.9245 22.1073 26.56 22.1073 25.9322V23.6442C22.1073 22.9152 22.2715 22.7697 22.8205 22.7697C23.2251 22.7697 23.9185 22.9589 25.5367 24.4185C27.386 26.1484 27.6908 26.9245 28.7309 26.9245H31.4583C32.2376 26.9245 32.6273 26.56 32.4025 25.8407C32.1565 25.1239 31.2736 24.0837 30.102 22.8508C29.4663 22.148 28.5128 21.3912 28.2238 21.0127C27.8194 20.5262 27.9349 20.31 28.2238 19.8775C28.2238 19.8775 31.5468 15.4987 31.8935 14.0121C32.0669 13.4714 31.8935 13.0742 31.0687 13.0742H28.3413C27.6479 13.0742 27.3281 13.4174 27.1547 13.7957C27.1547 13.7957 25.7678 16.9583 23.803 19.0126C23.1673 19.6072 22.8783 19.7964 22.5315 19.7964C22.3582 19.7964 22.1072 19.6072 22.1072 19.0666V14.0121C22.1072 13.3633 21.906 13.0742 21.328 13.0742H17.0421C16.6087 13.0742 16.3481 13.3753 16.3481 13.6607C16.3481 14.2756 17.3305 14.4175 17.4318 16.1474V19.9046C17.4318 20.7283 17.2727 20.8777 16.926 20.8777C16.0014 20.8777 13.7523 17.701 12.4183 14.0661C12.157 13.3596 11.8947 13.0742 11.1977 13.0742Z" stroke="#2F2F2F" stroke-width="1.5"/>
</svg>
