<svg width="24" height="24" viewBox="0 0 24 24" fill="none" xmlns="http://www.w3.org/2000/svg">
<path d="M21.6131 17.7901C22.1885 16.7144 22.4929 15.5146 22.4999 14.2947C22.5068 13.0748 22.2161 11.8716 21.653 10.7894C21.0899 9.70715 20.2713 8.77862 19.2683 8.08425C18.2652 7.38988 17.108 6.95062 15.8968 6.80455C15.4989 5.87351 14.9166 5.03268 14.185 4.33274C13.4534 3.63279 12.5876 3.08822 11.6399 2.73186C10.6922 2.37549 9.68212 2.21471 8.67059 2.2592C7.65906 2.30368 6.66701 2.55252 5.75424 2.99071C4.84146 3.4289 4.02686 4.04737 3.35953 4.80885C2.6922 5.57032 2.18596 6.45903 1.87132 7.4214C1.55669 8.38378 1.44016 9.3999 1.52878 10.4085C1.6174 11.4171 1.90932 12.3974 2.38696 13.2901L1.80715 15.3198C1.74282 15.5449 1.73984 15.783 1.79852 16.0096C1.85721 16.2362 1.97542 16.443 2.14092 16.6085C2.30642 16.7741 2.51317 16.8923 2.73975 16.951C2.96633 17.0098 3.20449 17.0068 3.42956 16.9426L5.45947 16.3626C6.28089 16.8023 7.17718 17.0847 8.10227 17.1955C8.51124 18.1522 9.1147 19.0133 9.87433 19.7243C10.6339 20.4353 11.5331 20.9805 12.5148 21.3254C13.4964 21.6702 14.539 21.8072 15.5764 21.7275C16.6138 21.6478 17.6233 21.3533 18.5407 20.8626L20.5705 21.4426C20.7956 21.5068 21.0337 21.5098 21.2603 21.4511C21.4869 21.3923 21.6936 21.2741 21.8591 21.1086C22.0246 20.9431 22.1428 20.7363 22.2016 20.5097C22.2603 20.2832 22.2573 20.045 22.193 19.82L21.6131 17.7901ZM20.1612 17.3113C20.1089 17.3991 20.0752 17.4967 20.0621 17.5981C20.0489 17.6994 20.0566 17.8024 20.0847 17.9007L20.658 19.9075L18.6512 19.3342C18.5529 19.3061 18.45 19.2984 18.3486 19.3116C18.2473 19.3248 18.1497 19.3585 18.0619 19.4107C17.3755 19.8175 16.6149 20.0834 15.8245 20.1928C15.0342 20.3022 14.2299 20.253 13.4588 20.048C12.6877 19.843 11.9652 19.4863 11.3336 18.9988C10.7019 18.5114 10.1738 17.9029 9.78003 17.2089C10.8073 17.1026 11.8016 16.785 12.7003 16.276C13.599 15.7671 14.3828 15.0778 15.0023 14.2515C15.6219 13.4252 16.0639 12.4796 16.3006 11.4743C16.5373 10.469 16.5636 9.42559 16.3777 8.40963C17.2941 8.62609 18.1467 9.0551 18.8665 9.66199C19.5864 10.2689 20.1534 11.0366 20.5218 11.9032C20.8901 12.7697 21.0493 13.7108 20.9867 14.6502C20.9241 15.5897 20.6413 16.5013 20.1612 17.3113V17.3113Z" fill="#0ABEB9"/>
</svg>
