<svg width="97" height="44" viewBox="0 0 97 44" fill="none" xmlns="http://www.w3.org/2000/svg">
<path d="M25.8175 3.0568H14.6825C14.6264 3.0568 14.5885 2.99918 14.6097 2.94762L14.96 2.11663C15.2876 1.34022 14.9221 0.447059 14.1442 0.119515C13.3663 -0.206513 12.4701 0.157425 12.1425 0.93231L10.8536 3.98939C10.429 4.99477 11.169 6.1063 12.2623 6.1063H16.3293C15.7395 8.43247 14.4657 13.2289 12.8886 17.7918C11.7543 21.0748 9.95891 25.0099 9.00357 27.0343C8.64873 27.7864 8.96263 28.6841 9.71174 29.0511H9.71325C10.4806 29.4272 11.4056 29.1042 11.7695 28.3338C12.7506 26.2564 14.584 22.2394 15.7789 18.7835C17.5834 13.561 18.9967 8.05185 19.4789 6.10478H21.4973C21.0393 8.35362 19.996 13.1091 18.4432 18.1072C17.3453 21.6404 15.929 25.2479 15.1511 27.1541C14.8372 27.9229 15.1996 28.8009 15.9654 29.1269H15.9669C16.7539 29.4636 17.6623 29.0905 17.9853 28.3005C18.7829 26.3489 20.222 22.6852 21.3638 19.0079C23.1274 13.3259 24.2298 8.07157 24.6165 6.10327H25.1018C25.9464 6.10327 26.6303 6.78565 26.6303 7.62726V24.9204C26.6303 25.759 25.951 26.4414 25.1094 26.4444L21.4806 26.4626C20.636 26.4671 19.9551 27.1526 19.9596 27.9942C19.9642 28.8358 20.6511 29.5151 21.4958 29.5121L25.8357 29.4909C27.9678 29.4802 29.6904 27.7546 29.6904 25.6286V6.9191C29.6904 4.78551 27.9572 3.0568 25.8175 3.0568Z" fill="white"/>
<path d="M4.87981 2.99316C2.18515 2.99316 0 5.17225 0 7.85932V24.6475C0 27.3361 2.18515 29.5137 4.87981 29.5137C7.57447 29.5137 9.75961 27.3346 9.75961 24.6475V7.85932C9.76113 5.17225 7.57598 2.99316 4.87981 2.99316ZM6.70253 24.649C6.70253 25.6514 5.88519 26.4672 4.87981 26.4672C3.87443 26.4672 3.05708 25.6514 3.05708 24.649V7.85932C3.05708 6.85698 3.87443 6.04115 4.87981 6.04115C5.88519 6.04115 6.70253 6.85698 6.70253 7.85932V24.649Z" fill="white"/>
<path d="M60.1974 3.0568H49.0624C49.0063 3.0568 48.9684 2.99918 48.9896 2.94762L49.3399 2.11663C49.6675 1.34022 49.302 0.447059 48.5241 0.119515C47.7462 -0.206513 46.85 0.157425 46.5224 0.93231L45.232 3.98788C44.8074 4.99326 45.5474 6.10478 46.6407 6.10478H50.7077C50.1178 8.43096 48.844 13.2274 47.2685 17.7918C46.1342 21.0748 44.3388 25.0099 43.3835 27.0343C43.0286 27.7864 43.3425 28.6841 44.0916 29.0511H44.0931C44.8604 29.4272 45.7854 29.1042 46.1494 28.3338C47.1305 26.2564 48.9638 22.2394 50.1588 18.7835C51.9633 13.561 53.3766 8.05185 53.8588 6.10478H55.8772C55.4192 8.35362 54.3759 13.1091 52.8231 18.1072C51.7252 21.6404 50.3089 25.2479 49.531 27.1541C49.2171 27.9229 49.5795 28.8009 50.3453 29.1269H50.3468C51.1338 29.4636 52.0422 29.0905 52.3651 28.3005C53.1628 26.3489 54.6019 22.6852 55.7437 19.0079C57.5073 13.3259 58.6097 8.07157 58.9964 6.10327H59.4817C60.3263 6.10327 61.0102 6.78565 61.0102 7.62726V24.9204C61.0102 25.759 60.3308 26.4414 59.4892 26.4444L55.8605 26.4626C55.0158 26.4671 54.335 27.1526 54.3395 27.9942C54.3441 28.8358 55.031 29.5151 55.8756 29.5121L60.2156 29.4909C62.3477 29.4802 64.0703 27.7546 64.0703 25.6286V6.9191C64.0703 4.78551 62.3355 3.0568 60.1974 3.0568Z" fill="white"/>
<path d="M39.2597 2.99316C36.565 2.99316 34.3799 5.17225 34.3799 7.85932V24.6475C34.3799 27.3361 36.565 29.5137 39.2597 29.5137C41.9543 29.5137 44.1395 27.3346 44.1395 24.6475V7.85932C44.1395 5.17225 41.9543 2.99316 39.2597 2.99316ZM41.0824 24.649C41.0824 25.6514 40.2651 26.4672 39.2597 26.4672C38.2543 26.4672 37.437 25.6514 37.437 24.649V7.85932C37.437 6.85698 38.2543 6.04115 39.2597 6.04115C40.2651 6.04115 41.0824 6.85698 41.0824 7.85932V24.649Z" fill="white"/>
<path d="M75.0958 24.5055H90.5343C93.1577 24.5055 95.2837 22.3855 95.2837 19.7697V12.9171C95.2837 10.7365 93.8052 8.90009 91.793 8.35114L92.953 5.65952C93.4838 4.42971 92.5785 3.06039 91.2364 3.06039H75.3202C75.2595 3.06039 75.2201 2.99822 75.2444 2.94363L75.5825 2.15206C75.9283 1.38324 75.5841 0.480978 74.8137 0.136753C74.0434 -0.207472 73.1381 0.135237 72.7924 0.90254L71.4898 3.98237C71.0652 4.92558 71.7597 6.11596 72.8939 6.10837H89.4304L88.5372 8.18131H75.0958C72.4724 8.18131 70.3479 10.3012 70.3479 12.9171V19.7682C70.3464 22.384 72.4724 24.5055 75.0958 24.5055ZM74.9077 21.456C74.0783 21.456 73.405 20.7857 73.405 19.9577V17.8681H81.2691V21.456H74.9077ZM90.7224 21.456H84.3262V17.8681H92.2267V19.9577C92.2251 20.7842 91.5534 21.456 90.7224 21.456ZM92.2251 14.8186H84.3247V11.2308H90.7209C91.5503 11.2308 92.2236 11.9011 92.2236 12.729V14.8186H92.2251ZM74.9077 11.2308H81.2691V14.8186H73.405V12.7305C73.405 11.9026 74.0767 11.2308 74.9077 11.2308Z" fill="white"/>
<path d="M95.3832 26.4111L70.2411 26.4672C69.4131 26.4688 68.7429 27.1527 68.7444 27.9958C68.7459 28.8374 69.4192 29.5183 70.2471 29.5167L95.3892 29.4606C96.2172 29.4591 96.8874 28.7752 96.8859 27.9321C96.8844 27.0905 96.2111 26.4096 95.3832 26.4111Z" fill="white"/>
<path d="M3.16626 39.3771L1.84092 40.8419V42.7951C1.84092 43.9521 0 43.9657 0 42.7951C0 40.1171 0 37.5225 0 34.8309C0 33.645 1.84092 33.6041 1.84092 34.8309V38.3732L5.87154 34.2167C6.35982 33.7557 6.84811 33.868 7.19688 34.2167C7.58811 34.5928 7.58811 35.0811 7.19688 35.4571C6.37499 36.4337 5.41207 37.2981 4.5189 38.2746L7.78222 42.2219C8.61927 43.3789 6.83446 44.2159 6.27642 43.3228L3.16626 39.3771Z" fill="white"/>
<path d="M9.45581 34.8203C9.45581 33.6769 11.2967 33.6345 11.2967 34.8203V42.7845C11.2967 43.9415 9.45581 43.9703 9.45581 42.7845V34.8203Z" fill="white"/>
<path d="M13.1916 36.1471C13.5131 33.4419 17.5983 32.9536 19.5241 34.4321C20.4719 35.1994 19.468 36.4125 18.6309 35.7984C17.5983 35.1433 15.2554 34.8354 14.9627 36.2866C14.5867 38.5734 20.6538 37.2632 20.5568 40.9724C20.4582 44.5147 15.3267 44.5981 13.4008 43.0089C12.9414 42.6328 12.955 42.0187 13.2052 41.6426C13.5677 41.2802 13.9725 41.1543 14.4472 41.544C15.5905 42.325 18.5339 42.9118 18.7432 40.9299C18.5612 38.8676 12.7594 40.108 13.1916 36.1471Z" fill="white"/>
<path d="M21.9892 36.1471C22.3091 33.4419 26.3959 32.9536 28.3217 34.4321C29.2695 35.1994 28.2656 36.4125 27.4286 35.7984C26.3959 35.1433 24.053 34.8354 23.7604 36.2866C23.3843 38.5734 29.4514 37.2632 29.3544 40.9724C29.2558 44.5147 24.1243 44.5981 22.1985 43.0089C21.7375 42.6328 21.7526 42.0187 22.0028 41.6426C22.3653 41.2802 22.7701 41.1543 23.2433 41.544C24.3866 42.325 27.33 42.9118 27.5392 40.9299C27.3588 38.8676 21.557 40.108 21.9892 36.1471Z" fill="white"/>
<path d="M36.884 39.3771L35.5587 40.8419V42.7951C35.5587 43.9521 33.7178 43.9657 33.7178 42.7951C33.7178 40.1171 33.7178 37.5225 33.7178 34.8309C33.7178 33.645 35.5587 33.6041 35.5587 34.8309V38.3732L39.5893 34.2167C40.0776 33.7557 40.5659 33.868 40.9147 34.2167C41.3059 34.5928 41.3059 35.0811 40.9147 35.4571C40.0928 36.4337 39.1298 37.2981 38.2367 38.2746L41.5 42.2219C42.337 43.3789 40.5522 44.2159 39.9942 43.3228L36.884 39.3771Z" fill="white"/>
<path d="M43.1736 34.8203C43.1736 33.6769 45.0145 33.6345 45.0145 34.8203V42.7845C45.0145 43.9415 43.1736 43.9703 43.1736 42.7845V34.8203Z" fill="white"/>
<path d="M46.9098 36.1471C47.2313 33.4419 51.3165 32.9536 53.2424 34.4321C54.1901 35.1994 53.1863 36.4125 52.3492 35.7984C51.3165 35.1433 48.9737 34.8354 48.681 36.2866C48.3049 38.5734 54.3721 37.2632 54.275 40.9724C54.1765 44.5147 49.0449 44.5981 47.1191 43.0089C46.6581 42.6328 46.6733 42.0187 46.9235 41.6426C47.2859 41.2802 47.6908 41.1543 48.1654 41.544C49.3088 42.325 52.2522 42.9118 52.4614 40.9299C52.2794 38.8676 46.4777 40.108 46.9098 36.1471Z" fill="white"/>
<path d="M55.7094 36.1471C56.0309 33.4419 60.1161 32.9536 62.0419 34.4321C62.9897 35.1994 61.9858 36.4125 61.1488 35.7984C60.1161 35.1433 57.7732 34.8354 57.4806 36.2866C57.1045 38.5734 63.1717 37.2632 63.0746 40.9724C62.976 44.5147 57.8445 44.5981 55.9187 43.0089C55.4592 42.6328 55.4728 42.0187 55.7231 41.6426C56.0855 41.2802 56.4904 41.1543 56.9635 41.544C58.1068 42.325 61.0502 42.9118 61.2595 40.9299C61.079 38.8676 55.2772 40.108 55.7094 36.1471Z" fill="white"/>
<path d="M69.2919 35.7936V38.0106H72.8494C73.3513 38.0106 73.8532 38.5125 73.8532 39.0008C73.8532 39.4603 73.3513 39.8379 72.8494 39.8379H69.2919V42.7661C69.2919 43.2543 68.9431 43.6304 68.4548 43.6304C67.8407 43.6304 67.4646 43.2543 67.4646 42.7661V34.8443C67.4646 34.3424 67.8407 33.98 68.4548 33.98H73.3498C73.9639 33.98 74.3264 34.3424 74.3264 34.8443C74.3264 35.2917 73.9639 35.7921 73.3498 35.7921H69.2919V35.7936Z" fill="white"/>
<path d="M75.97 34.8203C75.97 33.6769 77.8109 33.6345 77.8109 34.8203V42.7845C77.8109 43.9415 75.97 43.9703 75.97 42.7845V34.8203Z" fill="white"/>
<path d="M79.706 36.1471C80.0275 33.4419 84.1127 32.9536 86.0385 34.4321C86.9863 35.1994 85.9824 36.4125 85.1453 35.7999C84.1127 35.1448 81.7698 34.837 81.4771 36.2882C81.1011 38.5749 87.1682 37.2632 87.0712 40.9739C86.9726 44.5162 81.8411 44.5996 79.9152 43.0104C79.4543 42.6343 79.4694 42.0202 79.7196 41.6441C80.0821 41.2817 80.4869 41.1558 80.9616 41.5456C82.1049 42.3265 85.0483 42.9134 85.2576 40.9314C85.0756 38.8676 79.2738 40.108 79.706 36.1471Z" fill="white"/>
<path d="M88.6846 42.7661V34.8443C88.6846 34.3424 89.047 33.98 89.6748 33.98C90.1615 33.98 90.5255 34.3424 90.5255 34.8443V37.8847H95.0717V34.8443C95.0717 34.3424 95.5175 33.98 96.0194 33.98C96.5077 33.98 96.8838 34.3424 96.8838 34.8443V42.7661C96.8838 43.2543 96.5077 43.6304 96.0194 43.6304C95.5175 43.6304 95.0717 43.2543 95.0717 42.7661V39.712H90.5255V42.7661C90.5255 43.2543 90.1631 43.6304 89.6748 43.6304C89.0485 43.6304 88.6846 43.2543 88.6846 42.7661Z" fill="white"/>
</svg>
