<svg width="213" height="44" viewBox="0 0 213 44" fill="none" xmlns="http://www.w3.org/2000/svg">
<g clip-path="url(#clip0_1372_5344)">
<path d="M25.2428 24.8807C25.1869 24.8807 25.0753 24.9366 25.0753 24.9925L18.7646 43.2071C18.684 43.4228 18.5389 43.6083 18.3489 43.7383C18.159 43.8683 17.9336 43.9365 17.7035 43.9334C17.5889 43.9422 17.4739 43.9231 17.3684 43.8776C17.0979 43.7765 16.877 43.5746 16.752 43.3142C16.6271 43.0538 16.6078 42.7551 16.6982 42.4807L23.0089 24.2661C23.1696 23.7991 23.4703 23.3929 23.87 23.1029C24.2698 22.813 24.7491 22.6534 25.2428 22.6458V24.8807ZM5.24961 43.9893H1.11694C0.820707 43.9893 0.53661 43.8716 0.327143 43.662C0.117677 43.4524 0 43.1682 0 42.8718V23.8191C0 23.5228 0.117677 23.2385 0.327143 23.029C0.53661 22.8194 0.820707 22.7017 1.11694 22.7017H5.13791C6.85341 22.6908 8.54386 23.1137 10.0524 23.9309L10.2758 24.0426C11.974 24.9392 13.3962 26.2814 14.3899 27.9252C15.3835 29.569 15.9112 31.4524 15.9164 33.3734C15.9241 35.3325 15.3844 37.2548 14.3581 38.9233C13.3319 40.5918 11.8599 41.9401 10.1083 42.816L9.99659 42.8718C8.51819 43.5962 6.89573 43.9781 5.24961 43.9893ZM2.17803 41.7544H5.24961C6.55083 41.7641 7.83491 41.4573 8.99135 40.8604L9.10304 40.8045C10.4804 40.1214 11.6421 39.0706 12.4599 37.7682C13.2777 36.4659 13.7197 34.9627 13.7371 33.4248C13.7544 31.8868 13.3464 30.3741 12.5582 29.0536C11.77 27.7331 10.6322 26.6564 9.27058 25.9423L9.0472 25.8306C7.85731 25.2097 6.53574 24.884 5.19376 24.8807H2.17803V41.7544ZM71.2048 43.9893C70.9756 43.9884 70.7519 43.9187 70.5627 43.7892C70.3735 43.6597 70.2275 43.4764 70.1437 43.263L63.833 25.0483C63.833 24.9925 63.7213 24.9366 63.6654 24.9366C63.6096 24.9366 63.4979 24.9925 63.4979 25.0483L57.1872 43.263C57.0554 43.4849 56.8508 43.6544 56.6083 43.7425C56.3657 43.8307 56.1001 43.8321 55.8567 43.7465C55.6132 43.6609 55.4069 43.4936 55.2727 43.2731C55.1386 43.0525 55.0849 42.7923 55.1209 42.5366L61.4316 24.322C61.586 23.8512 61.8852 23.4412 62.2863 23.1505C62.6875 22.8599 63.1701 22.7034 63.6654 22.7034C64.1607 22.7034 64.6434 22.8599 65.0445 23.1505C65.4457 23.4412 65.7448 23.8512 65.8993 24.322L72.21 42.5366C72.3004 42.8109 72.2811 43.1097 72.1562 43.3701C72.0312 43.6305 71.8104 43.8324 71.5399 43.9334C71.484 43.9334 71.3165 43.9893 71.2048 43.9893ZM88.9082 9.96263C88.7821 9.97626 88.6545 9.9578 88.5373 9.90897C88.4202 9.86013 88.3172 9.7825 88.2381 9.68326L85.334 6.05152L84.4963 7.00136V9.18041C84.4963 9.40268 84.4081 9.61586 84.251 9.77303C84.0939 9.9302 83.8808 10.0185 83.6586 10.0185C83.4365 10.0185 83.2234 9.9302 83.0663 9.77303C82.9092 9.61586 82.8209 9.40268 82.8209 9.18041V1.46993C82.8209 1.24765 82.9092 1.03448 83.0663 0.877308C83.2234 0.720135 83.4365 0.631836 83.6586 0.631836C83.8808 0.631836 84.0939 0.720135 84.251 0.877308C84.4081 1.03448 84.4963 1.24765 84.4963 1.46993V5.10168L87.8471 1.02295C87.9409 0.911062 88.0627 0.826199 88.2002 0.777096C88.3376 0.727992 88.4856 0.716424 88.629 0.743582C88.7514 0.779156 88.8631 0.844317 88.9543 0.933314C89.0455 1.02231 89.1135 1.13241 89.1521 1.25389C89.1907 1.37537 89.1989 1.50449 89.1758 1.62987C89.1528 1.75524 89.0992 1.87302 89.0199 1.97279L86.451 5.0458L89.4667 8.67755C89.5544 8.79079 89.6101 8.92554 89.6279 9.06769C89.6457 9.20984 89.6249 9.35417 89.5678 9.48555C89.5107 9.61693 89.4194 9.73053 89.3033 9.81447C89.1873 9.8984 89.0508 9.94957 88.9082 9.96263ZM91.0304 8.73342H91.198C92.0915 8.67755 92.5941 8.06295 92.8734 5.49279L93.3201 1.7493C93.3552 1.44587 93.499 1.16544 93.7249 0.959971C93.9508 0.754503 94.2435 0.637924 94.5488 0.631836H98.5697C98.8947 0.634752 99.2055 0.765193 99.4353 0.995085C99.6651 1.22498 99.7955 1.53594 99.7984 1.86104V9.18041C99.7984 9.40268 99.7101 9.61586 99.553 9.77303C99.3959 9.9302 99.1828 10.0185 98.9607 10.0185C98.7385 10.0185 98.5254 9.9302 98.3683 9.77303C98.2112 9.61586 98.123 9.40268 98.123 9.18041V2.08453H94.8839L94.4929 5.54866C94.0462 9.45977 92.8734 10.1302 91.1421 10.1861H91.0304V8.73342ZM101.753 8.95692V1.46993C101.753 1.24765 101.841 1.03448 101.998 0.877308C102.155 0.720135 102.369 0.631836 102.591 0.631836C102.813 0.631836 103.026 0.720135 103.183 0.877308C103.34 1.03448 103.428 1.24765 103.428 1.46993V7.16898L107.896 1.13469C108.003 0.998672 108.138 0.888021 108.293 0.810723C108.447 0.733426 108.617 0.691411 108.79 0.687709C109.086 0.687709 109.37 0.805441 109.58 1.01501C109.789 1.22457 109.907 1.5088 109.907 1.80517V9.23628C109.907 9.45856 109.818 9.67173 109.661 9.8289C109.504 9.98608 109.291 10.0744 109.069 10.0744C108.847 10.0744 108.634 9.98608 108.477 9.8289C108.32 9.67173 108.231 9.45856 108.231 9.23628V3.31374L103.652 9.57152C103.524 9.75421 103.34 9.89098 103.129 9.9618C102.917 10.0326 102.688 10.0337 102.476 9.96501C102.263 9.89629 102.079 9.76133 101.949 9.57991C101.819 9.39849 101.75 9.18016 101.753 8.95692ZM118.395 9.18041V5.8839H113.537V9.18041C113.537 9.40268 113.448 9.61586 113.291 9.77303C113.134 9.9302 112.921 10.0185 112.699 10.0185C112.477 10.0185 112.264 9.9302 112.107 9.77303C111.95 9.61586 111.861 9.40268 111.861 9.18041V1.46993C111.861 1.24765 111.95 1.03448 112.107 0.877308C112.264 0.720135 112.477 0.631836 112.699 0.631836C112.921 0.631836 113.134 0.720135 113.291 0.877308C113.448 1.03448 113.537 1.24765 113.537 1.46993V4.48707H118.395V1.46993C118.395 1.24765 118.484 1.03448 118.641 0.877308C118.798 0.720135 119.011 0.631836 119.233 0.631836C119.455 0.631836 119.668 0.720135 119.825 0.877308C119.983 1.03448 120.071 1.24765 120.071 1.46993V9.18041C120.071 9.40268 119.983 9.61586 119.825 9.77303C119.668 9.9302 119.455 10.0185 119.233 10.0185C119.011 10.0185 118.798 9.9302 118.641 9.77303C118.484 9.61586 118.395 9.40268 118.395 9.18041ZM123.087 10.0185C122.805 10.0185 122.535 9.90666 122.336 9.70757C122.137 9.50848 122.025 9.23847 122.025 8.95692V1.46993C122.025 1.24765 122.114 1.03448 122.271 0.877308C122.428 0.720135 122.641 0.631836 122.863 0.631836C123.085 0.631836 123.298 0.720135 123.455 0.877308C123.613 1.03448 123.701 1.24765 123.701 1.46993V7.16898L128.169 1.13469C128.275 0.998672 128.411 0.888021 128.565 0.810723C128.72 0.733426 128.889 0.691411 129.062 0.687709C129.358 0.687709 129.642 0.805441 129.852 1.01501C130.061 1.22457 130.179 1.5088 130.179 1.80517V9.23628C130.179 9.45856 130.091 9.67173 129.934 9.8289C129.777 9.98608 129.564 10.0744 129.341 10.0744C129.119 10.0744 128.906 9.98608 128.749 9.8289C128.592 9.67173 128.504 9.45856 128.504 9.23628V3.31374L123.924 9.57152C123.834 9.71074 123.709 9.82475 123.563 9.90291C123.416 9.98107 123.253 10.0208 123.087 10.0185ZM147.212 9.45977L146.71 8.23057H142.41L141.907 9.45977C141.844 9.62915 141.729 9.77429 141.578 9.87459C141.428 9.97489 141.25 10.0252 141.069 10.0185C140.93 10.018 140.793 9.98331 140.67 9.91736C140.548 9.85141 140.443 9.75627 140.366 9.64033C140.288 9.52439 140.241 9.39121 140.227 9.25254C140.214 9.11387 140.234 8.97397 140.287 8.84517L143.136 1.58168C143.247 1.30194 143.439 1.062 143.688 0.892954C143.937 0.723904 144.231 0.633526 144.532 0.633526C144.833 0.633526 145.127 0.723904 145.375 0.892954C145.624 1.062 145.817 1.30194 145.928 1.58168L148.776 8.84517C148.824 8.97416 148.84 9.11261 148.824 9.2492C148.808 9.38579 148.76 9.51665 148.684 9.63108C148.608 9.74552 148.505 9.84027 148.386 9.90761C148.266 9.97494 148.132 10.0129 147.994 10.0185C147.824 10.0089 147.661 9.95128 147.522 9.85238C147.384 9.75349 147.277 9.61735 147.212 9.45977ZM144.588 2.30803L142.912 6.77787H146.263L144.588 2.30803ZM83.9379 26.8922C83.6564 26.8922 83.3866 26.7803 83.1876 26.5812C82.9886 26.3821 82.8768 26.1121 82.8768 25.8306V18.2318C82.8797 18.0401 82.9571 17.857 83.0926 17.7214C83.2281 17.5858 83.4111 17.5084 83.6028 17.5055H83.8262C84.0178 17.5084 84.2008 17.5858 84.3363 17.7214C84.4719 17.857 84.5493 18.0401 84.5522 18.2318V24.0426L89.0199 17.9525C89.1153 17.818 89.2406 17.7076 89.386 17.63C89.5314 17.5524 89.6929 17.5098 89.8576 17.5055H89.9693C90.2507 17.5055 90.5206 17.6173 90.7196 17.8164C90.9186 18.0155 91.0304 18.2855 91.0304 18.5671V26.1658C91.0275 26.3575 90.9501 26.5406 90.8146 26.6762C90.679 26.8118 90.4961 26.8893 90.3044 26.8922H90.081C89.8894 26.8893 89.7064 26.8118 89.5708 26.6762C89.4353 26.5406 89.3579 26.3575 89.355 26.1658V20.1874L84.7756 26.4452C84.685 26.5844 84.5607 26.6984 84.4142 26.7766C84.2678 26.8547 84.1039 26.8945 83.9379 26.8922ZM99.5191 26.1658V22.8134H94.6605V26.1658C94.6576 26.3575 94.5802 26.5406 94.4446 26.6762C94.3091 26.8118 94.1261 26.8893 93.9345 26.8922H93.7111C93.5194 26.8893 93.3364 26.8118 93.2009 26.6762C93.0654 26.5406 92.9879 26.3575 92.9851 26.1658V18.2318C92.9879 18.0401 93.0654 17.857 93.2009 17.7214C93.3364 17.5858 93.5194 17.5084 93.7111 17.5055H93.9345C94.1261 17.5084 94.3091 17.5858 94.4446 17.7214C94.5802 17.857 94.6576 18.0401 94.6605 18.2318V21.3607H99.5191V18.2318C99.522 18.0401 99.5994 17.857 99.735 17.7214C99.8705 17.5858 100.054 17.5084 100.245 17.5055H100.469C100.66 17.5084 100.843 17.5858 100.979 17.7214C101.114 17.857 101.192 18.0401 101.195 18.2318V26.1658C101.192 26.3575 101.114 26.5406 100.979 26.6762C100.843 26.8118 100.66 26.8893 100.469 26.8922H100.245C100.054 26.8893 99.8705 26.8118 99.735 26.6762C99.5994 26.5406 99.522 26.3575 99.5191 26.1658ZM109.683 26.1658V22.8134H104.825V26.1658C104.822 26.3575 104.744 26.5406 104.609 26.6762C104.473 26.8118 104.29 26.8893 104.099 26.8922H103.875C103.684 26.8893 103.501 26.8118 103.365 26.6762C103.229 26.5406 103.152 26.3575 103.149 26.1658V18.2318C103.152 18.0401 103.229 17.857 103.365 17.7214C103.501 17.5858 103.684 17.5084 103.875 17.5055H104.099C104.29 17.5084 104.473 17.5858 104.609 17.7214C104.744 17.857 104.822 18.0401 104.825 18.2318V21.3607H109.683V18.2318C109.686 18.0401 109.764 17.857 109.899 17.7214C110.035 17.5858 110.218 17.5084 110.409 17.5055H110.633C110.824 17.5084 111.007 17.5858 111.143 17.7214C111.278 17.857 111.356 18.0401 111.359 18.2318V26.1658C111.356 26.3575 111.278 26.5406 111.143 26.6762C111.007 26.8118 110.824 26.8893 110.633 26.8922H110.409C110.218 26.8893 110.035 26.8118 109.899 26.6762C109.764 26.5406 109.686 26.3575 109.683 26.1658ZM112.922 22.1988C112.922 20.9244 113.428 19.7022 114.329 18.8011C115.23 17.9 116.451 17.3937 117.725 17.3937C118.999 17.3937 120.221 17.9 121.121 18.8011C122.022 19.7022 122.528 20.9244 122.528 22.1988C122.528 23.4732 122.022 24.6954 121.121 25.5965C120.221 26.4977 118.999 27.0039 117.725 27.0039C116.451 27.0039 115.23 26.4977 114.329 25.5965C113.428 24.6954 112.922 23.4732 112.922 22.1988ZM120.797 22.1988C120.797 20.2433 119.568 18.7906 117.669 18.7906C115.771 18.7906 114.542 20.2433 114.542 22.1988C114.542 24.1544 115.771 25.6071 117.669 25.6071C119.568 25.6071 120.797 24.1544 120.797 22.1988ZM124.092 25.7747V18.6229C124.092 18.3266 124.209 18.0423 124.419 17.8328C124.628 17.6232 124.912 17.5055 125.209 17.5055H128.671C130.402 17.5055 131.352 18.5671 131.352 19.908C131.359 20.3988 131.204 20.878 130.911 21.2718C130.618 21.6657 130.204 21.9522 129.732 22.0871C130.248 22.2052 130.707 22.4974 131.033 22.9147C131.358 23.3319 131.53 23.8487 131.519 24.3779C131.519 25.8306 130.57 26.8922 128.783 26.8922H125.153C124.866 26.8778 124.596 26.7538 124.399 26.5457C124.201 26.3377 124.091 26.0616 124.092 25.7747ZM129.676 20.1874C129.681 20.0151 129.648 19.8439 129.581 19.6853C129.513 19.5267 129.413 19.3844 129.286 19.2679C129.159 19.1514 129.008 19.0635 128.844 19.0101C128.681 18.9567 128.507 18.939 128.336 18.9582H125.711V21.4166H128.336C128.506 21.4313 128.678 21.4105 128.84 21.3554C129.002 21.3003 129.15 21.2122 129.276 21.0966C129.402 20.9811 129.503 20.8406 129.572 20.684C129.641 20.5275 129.676 20.3584 129.676 20.1874ZM129.844 24.1544C129.846 23.9705 129.808 23.7885 129.733 23.6206C129.658 23.4526 129.548 23.3027 129.411 23.1809C129.273 23.0591 129.111 22.9682 128.935 22.9145C128.759 22.8607 128.574 22.8453 128.392 22.8693H125.711V25.4953H128.392C129.286 25.4395 129.844 24.9366 129.844 24.1544ZM139.506 26.3334L139.003 25.1042H134.703L134.2 26.3334C134.137 26.5028 134.022 26.6479 133.871 26.7482C133.721 26.8485 133.543 26.8989 133.362 26.8922C133.223 26.8917 133.086 26.857 132.963 26.791C132.841 26.7251 132.736 26.6299 132.659 26.514C132.582 26.398 132.534 26.2649 132.52 26.1262C132.507 25.9875 132.527 25.8476 132.58 25.7188L135.429 18.4553C135.54 18.1756 135.732 17.9357 135.981 17.7666C136.23 17.5976 136.524 17.5072 136.825 17.5072C137.126 17.5072 137.42 17.5976 137.669 17.7666C137.918 17.9357 138.11 18.1756 138.221 18.4553L141.069 25.7188C141.117 25.8478 141.133 25.9863 141.117 26.1229C141.101 26.2594 141.053 26.3903 140.977 26.5047C140.901 26.6192 140.799 26.7139 140.679 26.7813C140.559 26.8486 140.425 26.8866 140.287 26.8922C140.118 26.8825 139.954 26.8249 139.816 26.726C139.677 26.6271 139.57 26.491 139.506 26.3334ZM136.881 19.1817L135.205 23.6515H138.556L136.881 19.1817ZM150.005 26.8922H143.862C143.537 26.8892 143.226 26.7588 142.996 26.5289C142.766 26.299 142.636 25.9881 142.633 25.663V18.2318C142.636 18.0401 142.713 17.857 142.849 17.7214C142.984 17.5858 143.167 17.5084 143.359 17.5055H143.582C143.774 17.5084 143.957 17.5858 144.092 17.7214C144.228 17.857 144.305 18.0401 144.308 18.2318V25.4395H149.167V18.2318C149.17 18.0401 149.247 17.857 149.383 17.7214C149.518 17.5858 149.701 17.5084 149.893 17.5055H150.116C150.308 17.5084 150.491 17.5858 150.627 17.7214C150.762 17.857 150.84 18.0401 150.842 18.2318V25.4395H150.954L151.289 25.8864L151.736 26.1658V27.8979C151.733 28.0896 151.656 28.2727 151.52 28.4083C151.385 28.5439 151.202 28.6213 151.01 28.6242H150.787C150.595 28.6213 150.412 28.5439 150.276 28.4083C150.141 28.2727 150.063 28.0896 150.061 27.8979V26.8922H150.005ZM153.97 26.8922C153.688 26.8922 153.419 26.7803 153.22 26.5812C153.021 26.3821 152.909 26.1121 152.909 25.8306V18.2318C152.912 18.0401 152.989 17.857 153.125 17.7214C153.26 17.5858 153.443 17.5084 153.635 17.5055H153.858C154.05 17.5084 154.233 17.5858 154.368 17.7214C154.504 17.857 154.581 18.0401 154.584 18.2318V24.0426L159.052 18.0083C159.159 17.8723 159.294 17.7617 159.448 17.6844C159.603 17.6071 159.773 17.5651 159.945 17.5614C160.242 17.5614 160.526 17.6791 160.735 17.8887C160.945 18.0982 161.062 18.3825 161.062 18.6788V26.2217C161.06 26.4134 160.982 26.5965 160.847 26.7321C160.711 26.8677 160.528 26.9451 160.336 26.948H160.113C159.921 26.9451 159.738 26.8677 159.603 26.7321C159.467 26.5965 159.39 26.4134 159.387 26.2217V20.1874L154.808 26.4452C154.717 26.5844 154.593 26.6984 154.446 26.7766C154.3 26.8547 154.136 26.8945 153.97 26.8922ZM162.626 22.1988C162.626 20.9244 163.132 19.7022 164.033 18.8011C164.934 17.9 166.155 17.3937 167.429 17.3937C168.703 17.3937 169.924 17.9 170.825 18.8011C171.726 19.7022 172.232 20.9244 172.232 22.1988C172.232 23.4732 171.726 24.6954 170.825 25.5965C169.924 26.4977 168.703 27.0039 167.429 27.0039C166.155 27.0039 164.934 26.4977 164.033 25.5965C163.132 24.6954 162.626 23.4732 162.626 22.1988ZM170.501 22.1988C170.501 20.2433 169.272 18.7906 167.373 18.7906C165.474 18.7906 164.246 20.2433 164.246 22.1988C164.246 24.1544 165.474 25.6071 167.373 25.6071C169.272 25.6071 170.501 24.1544 170.501 22.1988ZM180.274 26.1658V22.8134H175.415V26.1658C175.412 26.3575 175.335 26.5406 175.199 26.6762C175.064 26.8118 174.881 26.8893 174.689 26.8922H174.466C174.274 26.8893 174.091 26.8118 173.955 26.6762C173.82 26.5406 173.743 26.3575 173.74 26.1658V18.2318C173.743 18.0401 173.82 17.857 173.955 17.7214C174.091 17.5858 174.274 17.5084 174.466 17.5055H174.689C174.881 17.5084 175.064 17.5858 175.199 17.7214C175.335 17.857 175.412 18.0401 175.415 18.2318V21.3607H180.274V18.2318C180.277 18.0401 180.354 17.857 180.49 17.7214C180.625 17.5858 180.808 17.5084 181 17.5055H181.223C181.415 17.5084 181.598 17.5858 181.733 17.7214C181.869 17.857 181.946 18.0401 181.949 18.2318V26.1658C181.946 26.3575 181.869 26.5406 181.733 26.6762C181.598 26.8118 181.415 26.8893 181.223 26.8922H181C180.808 26.8893 180.625 26.8118 180.49 26.6762C180.354 26.5406 180.277 26.3575 180.274 26.1658ZM190.438 26.1658V22.8134H185.579V26.1658C185.576 26.3575 185.499 26.5406 185.363 26.6762C185.228 26.8118 185.045 26.8893 184.853 26.8922H184.63C184.438 26.8893 184.255 26.8118 184.12 26.6762C183.984 26.5406 183.907 26.3575 183.904 26.1658V18.2318C183.907 18.0401 183.984 17.857 184.12 17.7214C184.255 17.5858 184.438 17.5084 184.63 17.5055H184.853C185.045 17.5084 185.228 17.5858 185.363 17.7214C185.499 17.857 185.576 18.0401 185.579 18.2318V21.3607H190.438V18.2318C190.441 18.0401 190.518 17.857 190.654 17.7214C190.789 17.5858 190.972 17.5084 191.164 17.5055H191.387C191.579 17.5084 191.762 17.5858 191.897 17.7214C192.033 17.857 192.11 18.0401 192.113 18.2318V26.1658C192.11 26.3575 192.033 26.5406 191.897 26.6762C191.762 26.8118 191.579 26.8893 191.387 26.8922H191.164C190.972 26.8893 190.789 26.8118 190.654 26.6762C190.518 26.5406 190.441 26.3575 190.438 26.1658ZM193.677 22.1988C193.677 20.9244 194.183 19.7022 195.084 18.8011C195.984 17.9 197.206 17.3937 198.48 17.3937C199.754 17.3937 200.975 17.9 201.876 18.8011C202.777 19.7022 203.283 20.9244 203.283 22.1988C203.283 23.4732 202.777 24.6954 201.876 25.5965C200.975 26.4977 199.754 27.0039 198.48 27.0039C197.206 27.0039 195.984 26.4977 195.084 25.5965C194.183 24.6954 193.677 23.4732 193.677 22.1988ZM201.551 22.1988C201.551 20.2433 200.323 18.7906 198.424 18.7906C196.525 18.7906 195.297 20.2433 195.297 22.1988C195.297 24.1544 196.525 25.6071 198.424 25.6071C200.323 25.6071 201.551 24.1544 201.551 22.1988ZM205.907 26.8922C205.626 26.8922 205.356 26.7803 205.157 26.5812C204.958 26.3821 204.846 26.1121 204.846 25.8306V18.2318C204.849 18.0401 204.927 17.857 205.062 17.7214C205.198 17.5858 205.381 17.5084 205.572 17.5055H205.796C205.987 17.5084 206.17 17.5858 206.306 17.7214C206.441 17.857 206.519 18.0401 206.522 18.2318V24.0426L210.99 18.0083C211.096 17.8723 211.232 17.7617 211.386 17.6844C211.541 17.6071 211.71 17.5651 211.883 17.5614C212.179 17.5614 212.463 17.6791 212.673 17.8887C212.882 18.0982 213 18.3825 213 18.6788V26.2217C212.997 26.4134 212.92 26.5965 212.784 26.7321C212.649 26.8677 212.466 26.9451 212.274 26.948H212.051C211.859 26.9451 211.676 26.8677 211.54 26.7321C211.405 26.5965 211.327 26.4134 211.325 26.2217V20.1874L206.745 26.4452C206.655 26.5844 206.53 26.6984 206.384 26.7766C206.237 26.8547 206.073 26.8945 205.907 26.8922ZM208.923 17.0585C208.447 17.0547 207.978 16.9419 207.552 16.7289C207.126 16.5158 206.755 16.2081 206.466 15.8293L207.136 15.2706C207.333 15.5638 207.599 15.8039 207.911 15.9696C208.222 16.1353 208.57 16.2215 208.923 16.2204C209.277 16.2271 209.627 16.1434 209.94 15.9772C210.252 15.811 210.518 15.5678 210.71 15.2706L211.38 15.8293C211.092 16.2081 210.72 16.5158 210.294 16.7289C209.868 16.9419 209.399 17.0547 208.923 17.0585ZM82.4858 39.0725C82.4686 38.4247 82.5843 37.7802 82.8259 37.1789C83.0675 36.5776 83.4298 36.0323 83.8904 35.5767C84.3511 35.1211 84.9002 34.7649 85.5039 34.5301C86.1077 34.2953 86.7531 34.1868 87.4004 34.2115C87.9824 34.1955 88.5614 34.3016 89.1 34.5229C89.6387 34.7442 90.125 35.0759 90.5278 35.4966C90.6067 35.587 90.6642 35.6941 90.6961 35.8098C90.728 35.9255 90.7334 36.0469 90.712 36.165C90.6905 36.2831 90.6427 36.3949 90.5721 36.4919C90.5016 36.589 90.4101 36.669 90.3044 36.7258C90.1475 36.7959 89.9732 36.8175 89.804 36.7876C89.6348 36.7577 89.4784 36.6778 89.355 36.5582C88.8266 36.0099 88.1054 35.6892 87.3445 35.6642C86.4747 35.7141 85.657 36.0949 85.0588 36.7286C84.4606 37.3623 84.1274 38.2009 84.1274 39.0725C84.1274 39.9441 84.4606 40.7827 85.0588 41.4164C85.657 42.0501 86.4747 42.4309 87.3445 42.4807C87.7236 42.4811 88.0984 42.4017 88.4448 42.2477C88.7912 42.0936 89.1013 41.8685 89.355 41.5868C89.4694 41.4532 89.6266 41.3635 89.7997 41.3329C89.9728 41.3024 90.1512 41.3328 90.3044 41.4191C90.4101 41.476 90.5016 41.5559 90.5721 41.653C90.6427 41.7501 90.6905 41.8618 90.712 41.9799C90.7334 42.098 90.728 42.2194 90.6961 42.3352C90.6642 42.4509 90.6067 42.5579 90.5278 42.6483C90.1294 43.0748 89.6438 43.4103 89.1041 43.6321C88.5645 43.8538 87.9833 43.9566 87.4004 43.9334C86.7521 43.9623 86.1048 43.8567 85.4992 43.6234C84.8936 43.39 84.3428 43.034 83.8813 42.5775C83.4198 42.121 83.0576 41.574 82.8175 40.9709C82.5773 40.3677 82.4644 39.7214 82.4858 39.0725ZM94.7163 43.0395V35.8318H92.5941C92.4016 35.8318 92.2169 35.7553 92.0808 35.6191C91.9446 35.4829 91.8681 35.2981 91.8681 35.1055C91.8681 34.9128 91.9446 34.7281 92.0808 34.5919C92.2169 34.4557 92.4016 34.3791 92.5941 34.3791H98.4581C98.6506 34.3791 98.8353 34.4557 98.9714 34.5919C99.1076 34.7281 99.1841 34.9128 99.1841 35.1055C99.1841 35.2981 99.1076 35.4829 98.9714 35.6191C98.8353 35.7553 98.6506 35.8318 98.4581 35.8318H96.3359V43.0395C96.333 43.2312 96.2556 43.4143 96.12 43.5499C95.9845 43.6855 95.8015 43.7629 95.6099 43.7658H95.3865C95.2042 43.7504 95.0344 43.6674 94.9103 43.5329C94.7863 43.3985 94.7171 43.2224 94.7163 43.0395ZM99.7984 39.0725C99.7984 37.7981 100.304 36.5759 101.205 35.6748C102.106 34.7736 103.327 34.2674 104.601 34.2674C105.875 34.2674 107.097 34.7736 107.997 35.6748C108.898 36.5759 109.404 37.7981 109.404 39.0725C109.404 40.3469 108.898 41.569 107.997 42.4702C107.097 43.3713 105.875 43.8776 104.601 43.8776C103.327 43.8776 102.106 43.3713 101.205 42.4702C100.304 41.569 99.7984 40.3469 99.7984 39.0725ZM107.673 39.0725C107.673 37.1169 106.444 35.6642 104.545 35.6642C102.647 35.6642 101.418 37.1169 101.418 39.0725C101.418 41.028 102.647 42.4807 104.545 42.4807C106.444 42.4807 107.673 41.028 107.673 39.0725ZM119.066 43.0395V36.7817L116.329 43.4306C116.295 43.5292 116.231 43.6147 116.146 43.6752C116.061 43.7356 115.959 43.7682 115.854 43.7682C115.75 43.7682 115.648 43.7356 115.563 43.6752C115.478 43.6147 115.414 43.5292 115.38 43.4306L112.643 36.7817V43.0395C112.64 43.2312 112.563 43.4143 112.427 43.5499C112.292 43.6855 112.109 43.7629 111.917 43.7658H111.694C111.502 43.7629 111.319 43.6855 111.184 43.5499C111.048 43.4143 110.971 43.2312 110.968 43.0395V35.776C110.966 35.5921 111.001 35.4098 111.071 35.2397C111.141 35.0695 111.243 34.9149 111.373 34.7849C111.503 34.6549 111.658 34.5521 111.828 34.4824C111.998 34.4128 112.18 34.3777 112.364 34.3791C112.636 34.3803 112.902 34.46 113.13 34.6087C113.358 34.7573 113.538 34.9687 113.648 35.2172L115.826 40.5252L118.004 35.2172C118.115 34.9687 118.295 34.7573 118.523 34.6087C118.751 34.46 119.017 34.3803 119.289 34.3791C119.473 34.3777 119.655 34.4128 119.825 34.4824C119.995 34.5521 120.15 34.6549 120.279 34.7849C120.409 34.9149 120.512 35.0695 120.582 35.2397C120.652 35.4098 120.687 35.5921 120.685 35.776V43.0395C120.682 43.2312 120.605 43.4143 120.469 43.5499C120.334 43.6855 120.151 43.7629 119.959 43.7658H119.736C119.553 43.7504 119.384 43.6674 119.26 43.5329C119.136 43.3985 119.066 43.2224 119.066 43.0395ZM129.062 43.2071L128.56 41.9779H124.259L123.757 43.2071C123.693 43.3765 123.578 43.5216 123.428 43.6219C123.278 43.7222 123.1 43.7725 122.919 43.7658C122.78 43.7654 122.643 43.7306 122.52 43.6647C122.397 43.5987 122.293 43.5036 122.215 43.3876C122.138 43.2717 122.091 43.1385 122.077 42.9998C122.063 42.8612 122.084 42.7213 122.137 42.5925L124.985 35.329C125.096 35.0492 125.289 34.8093 125.538 34.6403C125.787 34.4712 126.081 34.3808 126.381 34.3808C126.682 34.3808 126.976 34.4712 127.225 34.6403C127.474 34.8093 127.667 35.0492 127.778 35.329L130.626 42.5925C130.674 42.7215 130.69 42.8599 130.674 42.9965C130.658 43.1331 130.61 43.264 130.534 43.3784C130.457 43.4928 130.355 43.5876 130.235 43.6549C130.115 43.7222 129.981 43.7602 129.844 43.7658C129.672 43.7642 129.505 43.7097 129.365 43.6097C129.225 43.5098 129.119 43.3692 129.062 43.2071ZM126.437 36.0553L124.762 40.5252H128.113L126.437 36.0553ZM133.474 43.0395V35.8318H131.352C131.159 35.8318 130.975 35.7553 130.839 35.6191C130.702 35.4829 130.626 35.2981 130.626 35.1055C130.626 34.9128 130.702 34.7281 130.839 34.5919C130.975 34.4557 131.159 34.3791 131.352 34.3791H137.216C137.408 34.3791 137.593 34.4557 137.729 34.5919C137.865 34.7281 137.942 34.9128 137.942 35.1055C137.942 35.2981 137.865 35.4829 137.729 35.6191C137.593 35.7553 137.408 35.8318 137.216 35.8318H135.149V43.0395C135.147 43.2312 135.069 43.4143 134.934 43.5499C134.798 43.6855 134.615 43.7629 134.423 43.7658H134.2C134.008 43.7629 133.825 43.6855 133.69 43.5499C133.554 43.4143 133.477 43.2312 133.474 43.0395ZM138.556 39.0725C138.556 37.7981 139.062 36.5759 139.963 35.6748C140.864 34.7736 142.085 34.2674 143.359 34.2674C144.633 34.2674 145.854 34.7736 146.755 35.6748C147.656 36.5759 148.162 37.7981 148.162 39.0725C148.162 40.3469 147.656 41.569 146.755 42.4702C145.854 43.3713 144.633 43.8776 143.359 43.8776C142.085 43.8776 140.864 43.3713 139.963 42.4702C139.062 41.569 138.556 40.3469 138.556 39.0725ZM146.486 39.0725C146.486 37.1169 145.258 35.6642 143.359 35.6642C141.46 35.6642 140.232 37.1169 140.232 39.0725C140.232 41.028 141.46 42.4807 143.359 42.4807C145.258 42.4807 146.486 41.028 146.486 39.0725ZM148.664 42.4807C149.67 42.4807 150.172 41.9779 150.507 39.2401L150.898 35.5525C150.925 35.2309 151.072 34.9313 151.31 34.7137C151.549 34.4961 151.86 34.3766 152.183 34.3791H156.092C156.262 34.3761 156.43 34.4073 156.587 34.4708C156.744 34.5343 156.887 34.6288 157.007 34.7488C157.127 34.8687 157.221 35.0116 157.285 35.1689C157.348 35.3262 157.38 35.4946 157.377 35.6642V43.0395C157.374 43.2312 157.296 43.4143 157.161 43.5499C157.025 43.6855 156.842 43.7629 156.65 43.7658H156.427C156.235 43.7629 156.052 43.6855 155.917 43.5499C155.781 43.4143 155.704 43.2312 155.701 43.0395V35.8318H152.462L152.071 39.296C151.624 43.263 150.396 43.9334 148.609 43.9334V42.4807H148.664ZM158.996 39.0725C158.996 37.7981 159.502 36.5759 160.403 35.6748C161.303 34.7736 162.525 34.2674 163.799 34.2674C165.073 34.2674 166.294 34.7736 167.195 35.6748C168.096 36.5759 168.602 37.7981 168.602 39.0725C168.602 40.3469 168.096 41.569 167.195 42.4702C166.294 43.3713 165.073 43.8776 163.799 43.8776C162.525 43.8776 161.303 43.3713 160.403 42.4702C159.502 41.569 158.996 40.3469 158.996 39.0725ZM166.87 39.0725C166.87 37.1169 165.642 35.6642 163.743 35.6642C161.844 35.6642 160.616 37.1169 160.616 39.0725C160.616 41.028 161.844 42.4807 163.743 42.4807C165.642 42.4807 166.87 41.028 166.87 39.0725ZM170.165 43.0395V35.5525C170.167 35.2417 170.291 34.9441 170.511 34.7244C170.73 34.5047 171.028 34.3806 171.338 34.3791H175.862C175.957 34.3791 176.052 34.3979 176.14 34.4344C176.228 34.4709 176.308 34.5244 176.375 34.5919C176.443 34.6593 176.496 34.7394 176.533 34.8275C176.569 34.9157 176.588 35.0101 176.588 35.1055C176.588 35.2009 176.569 35.2953 176.533 35.3834C176.496 35.4716 176.443 35.5516 176.375 35.6191C176.308 35.6865 176.228 35.74 176.14 35.7766C176.052 35.8131 175.957 35.8318 175.862 35.8318H172.343C172.195 35.8318 172.053 35.8907 171.949 35.9955C171.844 36.1003 171.785 36.2424 171.785 36.3906V43.0395C171.782 43.2312 171.705 43.4143 171.569 43.5499C171.434 43.6855 171.251 43.7629 171.059 43.7658H170.891C170.7 43.7629 170.517 43.6855 170.381 43.5499C170.246 43.4143 170.168 43.2312 170.165 43.0395ZM179.101 43.7658C178.82 43.7658 178.55 43.654 178.351 43.4549C178.152 43.2558 178.04 42.9858 178.04 42.7042V35.1055C178.043 34.9137 178.12 34.7307 178.256 34.5951C178.391 34.4595 178.574 34.382 178.766 34.3791H178.989C179.181 34.382 179.364 34.4595 179.499 34.5951C179.635 34.7307 179.712 34.9137 179.715 35.1055V40.9163L184.183 34.8261C184.278 34.6917 184.404 34.5813 184.549 34.5037C184.695 34.4261 184.856 34.3834 185.021 34.3791H185.132C185.414 34.3791 185.684 34.491 185.883 34.6901C186.082 34.8892 186.193 35.1592 186.193 35.4407V43.0395C186.191 43.2312 186.113 43.4143 185.978 43.5499C185.842 43.6855 185.659 43.7629 185.467 43.7658H185.244C185.052 43.7629 184.869 43.6855 184.734 43.5499C184.598 43.4143 184.521 43.2312 184.518 43.0395V37.061L179.939 43.3188C179.848 43.458 179.724 43.5721 179.577 43.6502C179.431 43.7284 179.267 43.7681 179.101 43.7658ZM190.159 43.7658C189.877 43.7658 189.607 43.654 189.408 43.4549C189.209 43.2558 189.098 42.9858 189.098 42.7042V35.1055C189.1 34.9137 189.178 34.7307 189.313 34.5951C189.449 34.4595 189.632 34.382 189.824 34.3791H190.047C190.239 34.382 190.422 34.4595 190.557 34.5951C190.693 34.7307 190.77 34.9137 190.773 35.1055V40.9163L195.241 34.8261C195.336 34.6917 195.461 34.5813 195.607 34.5037C195.752 34.4261 195.914 34.3834 196.078 34.3791H196.19C196.472 34.3791 196.741 34.491 196.94 34.6901C197.139 34.8892 197.251 35.1592 197.251 35.4407V43.0395C197.248 43.2312 197.171 43.4143 197.035 43.5499C196.9 43.6855 196.717 43.7629 196.525 43.7658H196.302C196.11 43.7629 195.927 43.6855 195.792 43.5499C195.656 43.4143 195.579 43.2312 195.576 43.0395V37.061L190.996 43.3188C190.906 43.458 190.781 43.5721 190.635 43.6502C190.489 43.7284 190.325 43.7681 190.159 43.7658ZM138.165 9.96263C138.039 9.97626 137.911 9.9578 137.794 9.90897C137.677 9.86013 137.574 9.7825 137.495 9.68326L134.591 6.05152L133.753 7.00136V9.18041C133.753 9.40268 133.665 9.61586 133.508 9.77303C133.351 9.9302 133.138 10.0185 132.916 10.0185C132.693 10.0185 132.48 9.9302 132.323 9.77303C132.166 9.61586 132.078 9.40268 132.078 9.18041V1.46993C132.078 1.24765 132.166 1.03448 132.323 0.877308C132.48 0.720135 132.693 0.631836 132.916 0.631836C133.138 0.631836 133.351 0.720135 133.508 0.877308C133.665 1.03448 133.753 1.24765 133.753 1.46993V5.10168L137.104 1.02295C137.198 0.911062 137.32 0.826199 137.457 0.777096C137.595 0.727992 137.743 0.716424 137.886 0.743582C138.008 0.779156 138.12 0.844317 138.211 0.933314C138.302 1.02231 138.37 1.13241 138.409 1.25389C138.448 1.37537 138.456 1.50449 138.433 1.62987C138.41 1.75524 138.356 1.87302 138.277 1.97279L135.708 5.0458L138.724 8.67755C138.811 8.79079 138.867 8.92554 138.885 9.06769C138.903 9.20984 138.882 9.35417 138.825 9.48555C138.768 9.61693 138.676 9.73053 138.56 9.81447C138.444 9.8984 138.308 9.94957 138.165 9.96263Z" fill="black"/>
<path d="M91.0307 10.1861C91.4316 10.1861 91.7567 9.8609 91.7567 9.45975C91.7567 9.0586 91.4316 8.7334 91.0307 8.7334C90.6297 8.7334 90.3047 9.0586 90.3047 9.45975C90.3047 9.8609 90.6297 10.1861 91.0307 10.1861Z" fill="black"/>
<path d="M148.72 43.9332C149.121 43.9332 149.446 43.608 149.446 43.2068C149.446 42.8057 149.121 42.4805 148.72 42.4805C148.319 42.4805 147.994 42.8057 147.994 43.2068C147.994 43.608 148.319 43.9332 148.72 43.9332Z" fill="black"/>
<path d="M150.955 26.8922C151.355 26.8922 151.681 26.567 151.681 26.1658C151.681 25.7647 151.355 25.4395 150.955 25.4395C150.554 25.4395 150.229 25.7647 150.229 26.1658C150.229 26.567 150.554 26.8922 150.955 26.8922Z" fill="black"/>
<path d="M25.2422 22.7013C25.7359 22.7089 26.2152 22.8685 26.6149 23.1584C27.0147 23.4484 27.3154 23.8545 27.4761 24.3216L33.2841 41.0835C33.3559 41.2938 33.4911 41.4767 33.6712 41.6068C33.8512 41.7369 34.0673 41.8079 34.2894 41.8099C34.5708 41.8099 34.8407 41.698 35.0397 41.4989C35.2387 41.2998 35.3505 41.0298 35.3505 40.7483V25.9419C35.3505 25.0825 35.6917 24.2582 36.2992 23.6504C36.9066 23.0427 37.7305 22.7013 38.5896 22.7013C39.2433 22.6957 39.883 22.891 40.4223 23.2607C40.9615 23.6304 41.3745 24.1567 41.6053 24.7686L48.1953 41.0835C48.2698 41.2876 48.4075 41.4627 48.5882 41.5833C48.769 41.7038 48.9835 41.7636 49.2005 41.754C49.4967 41.754 49.7808 41.6363 49.9903 41.4267C50.1998 41.2171 50.3174 40.9329 50.3174 40.6365V23.8187C50.3174 23.5224 50.4351 23.2381 50.6446 23.0286C50.854 22.819 51.1381 22.7013 51.4344 22.7013C51.7306 22.7013 52.0147 22.819 52.2242 23.0286C52.4336 23.2381 52.5513 23.5224 52.5513 23.8187V40.6924C52.5498 41.5662 52.2022 42.4039 51.5846 43.0217C50.967 43.6396 50.1298 43.9874 49.2563 43.9889C48.598 43.9843 47.9556 43.7858 47.4093 43.4181C46.863 43.0505 46.4371 42.53 46.1848 41.9216L39.5948 25.5508C39.5092 25.3544 39.3689 25.1867 39.1906 25.0679C39.0124 24.949 38.8038 24.8839 38.5896 24.8803C38.4502 24.8803 38.3123 24.9078 38.1835 24.9611C38.0548 25.0145 37.9378 25.0927 37.8393 25.1913C37.7408 25.2898 37.6626 25.4069 37.6093 25.5357C37.5559 25.6645 37.5285 25.8025 37.5285 25.9419V40.6924C37.5283 41.4599 37.2563 42.2025 36.7608 42.7884C36.2653 43.3742 35.5783 43.7655 34.8218 43.8928C34.0653 44.0201 33.2882 43.875 32.6284 43.4835C31.9687 43.0919 31.4689 42.4792 31.2178 41.754L25.4097 24.9921C25.4097 24.9362 25.298 24.8803 25.2422 24.8803" fill="url(#paint0_linear_1372_5344)"/>
<path d="M51.4909 20.1311C51.1947 20.1311 50.9106 20.0133 50.7012 19.8038C50.4917 19.5942 50.374 19.31 50.374 19.0136V6.1628C50.378 5.54886 50.2396 4.94236 49.9699 4.39091C49.7001 3.83946 49.3063 3.35807 48.8193 2.98453C48.3323 2.61098 47.7654 2.35545 47.163 2.23799C46.5607 2.12053 45.9394 2.14435 45.3478 2.30756C41.0575 3.36008 36.5788 3.37923 32.2796 2.36343C31.3601 2.14388 30.3932 2.24589 29.5398 2.6525C28.6863 3.05911 27.9977 3.7458 27.5885 4.59835C27.3653 5.10925 27.2512 5.66112 27.2534 6.21867V19.0695C27.2534 19.3658 27.1357 19.6501 26.9263 19.8596C26.7168 20.0692 26.4327 20.1869 26.1365 20.1869C25.8402 20.1869 25.5561 20.0692 25.3467 19.8596C25.1372 19.6501 25.0195 19.3658 25.0195 19.0695V6.1628C25.019 5.31773 25.19 4.48136 25.5222 3.70439C26.1172 2.36348 27.1658 1.27543 28.4835 0.631612C29.8011 -0.0122096 31.3035 -0.17057 32.7264 0.184385C36.6913 1.1342 40.8244 1.1342 44.7893 0.184385C46.2345 -0.179776 47.7618 -0.0205098 49.1008 0.633977C50.4399 1.28846 51.5042 2.39594 52.1053 3.76026C52.4374 4.53723 52.6084 5.37361 52.6079 6.21867V19.0695C52.5935 19.356 52.4696 19.6261 52.2616 19.8237C52.0537 20.0214 51.7778 20.1314 51.4909 20.1311Z" fill="url(#paint1_linear_1372_5344)"/>
<path d="M26.8071 36.5021H21.1666C20.8851 36.5021 20.6152 36.3902 20.4163 36.1911C20.2173 35.9921 20.1055 35.722 20.1055 35.4405C20.1055 35.1589 20.2173 34.8889 20.4163 34.6898C20.6152 34.4908 20.8851 34.3789 21.1666 34.3789H26.8071C27.0885 34.3789 27.3584 34.4908 27.5574 34.6898C27.7564 34.8889 27.8682 35.1589 27.8682 35.4405C27.8682 35.722 27.7564 35.9921 27.5574 36.1911C27.3584 36.3902 27.0885 36.5021 26.8071 36.5021ZM68.3572 36.5021H59.1983C58.9169 36.5021 58.647 36.3902 58.448 36.1911C58.249 35.9921 58.1372 35.722 58.1372 35.4405C58.1372 35.1589 58.249 34.8889 58.448 34.6898C58.647 34.4908 58.9169 34.3789 59.1983 34.3789H68.3572C68.6386 34.3789 68.9085 34.4908 69.1075 34.6898C69.3065 34.8889 69.4183 35.1589 69.4183 35.4405C69.4047 35.7177 69.2886 35.9799 69.0925 36.1761C68.8963 36.3723 68.6342 36.4885 68.3572 36.5021Z" fill="black"/>
</g>
<defs>
<linearGradient id="paint0_linear_1372_5344" x1="30.3633" y1="45.7824" x2="56.0702" y2="4.82158" gradientUnits="userSpaceOnUse">
<stop stop-color="#5F9A98"/>
<stop offset="1" stop-color="#40E0A1"/>
</linearGradient>
<linearGradient id="paint1_linear_1372_5344" x1="1070.34" y1="170.025" x2="1852.86" y2="1874.24" gradientUnits="userSpaceOnUse">
<stop stop-color="#5F9A98"/>
<stop offset="1" stop-color="#40E0A1"/>
</linearGradient>
<clipPath id="clip0_1372_5344">
<rect width="213" height="44" fill="white"/>
</clipPath>
</defs>
</svg>
