<svg width="214" height="44" viewBox="0 0 214 44" fill="none" xmlns="http://www.w3.org/2000/svg">
<path d="M25.3613 24.8777C25.3052 24.8777 25.193 24.9336 25.193 24.9895L18.8526 43.204C18.6843 43.651 18.2916 43.9304 17.7866 43.9304C17.6744 43.9304 17.5621 43.9304 17.4499 43.8745C16.8888 43.651 16.5522 43.0364 16.7766 42.4777L23.1169 24.2631C23.4536 23.3133 24.3513 22.6428 25.3613 22.6428V24.8777ZM5.27425 43.9862H1.12218C0.504982 43.9862 0 43.4834 0 42.8688V23.8161C0 23.2015 0.504982 22.6987 1.12218 22.6987H5.16203C6.84531 22.6987 8.58469 23.0898 10.0996 23.9279L10.3241 24.0396C13.8028 25.8834 15.9911 29.4593 15.9911 33.3704C15.9911 37.3933 13.7467 41.025 10.1557 42.8129L10.0435 42.8688C8.52858 43.5951 6.90142 43.9862 5.27425 43.9862ZM2.18825 41.7513H5.27425C6.56476 41.7513 7.85527 41.472 9.03356 40.8574L9.14578 40.8015C12.0073 39.4047 13.8028 36.4993 13.8028 33.3145C13.8028 30.1857 12.0635 27.392 9.31411 25.9393L9.08967 25.8276C7.91138 25.213 6.56476 24.8777 5.21814 24.8777H2.18825V41.7513ZM71.5391 43.9862C71.0902 43.9862 70.6413 43.7069 70.473 43.2599L64.1327 25.0453C64.1327 24.9895 64.0204 24.9336 63.9643 24.9336C63.9082 24.9336 63.796 24.9895 63.796 25.0453L57.4557 43.2599C57.2313 43.8186 56.6141 44.1539 56.053 43.9304C55.4919 43.7069 55.1552 43.0923 55.3797 42.5336L61.72 24.319C62.0566 23.3692 62.9544 22.6987 63.9643 22.6987C64.9743 22.6987 65.872 23.3692 66.2087 24.319L72.549 42.5336C72.7735 43.0923 72.4368 43.7069 71.8757 43.9304C71.8196 43.9304 71.6513 43.9862 71.5391 43.9862ZM89.3256 9.95967C89.0451 9.95967 88.8207 9.9038 88.6523 9.68031L85.7347 6.04857L84.893 6.99841V9.17745C84.893 9.62444 84.5003 10.0155 84.0514 10.0155C83.6025 10.0155 83.2098 9.62444 83.2098 9.17745V1.467C83.2098 1.02002 83.6025 0.628906 84.0514 0.628906C84.5003 0.628906 84.893 1.02002 84.893 1.467V5.09874L88.2596 1.02002C88.4279 0.796525 88.7645 0.684779 89.0451 0.740652C89.6062 0.908271 89.7745 1.57875 89.4379 1.96986L86.8568 5.04286L89.8867 8.6746C90.2795 9.17745 89.9428 9.9038 89.3256 9.95967ZM91.4578 8.73047H91.6261C92.5239 8.6746 93.0288 8.06 93.3094 5.48985L93.7583 1.74636C93.8144 1.13176 94.3755 0.628906 94.9927 0.628906H99.0325C99.7058 0.628906 100.267 1.18763 100.267 1.85811V9.17745C100.267 9.62444 99.8741 10.0155 99.4253 10.0155C98.9764 10.0155 98.5836 9.62444 98.5836 9.17745V2.0816H95.3293L94.9365 5.54572C94.4877 9.45682 93.3094 10.1273 91.57 10.1832H91.4578V8.73047ZM102.231 8.95396V1.467C102.231 1.02002 102.623 0.628906 103.072 0.628906C103.521 0.628906 103.914 1.02002 103.914 1.467V7.16603L108.403 1.13176C108.627 0.852398 108.964 0.684779 109.3 0.684779C109.918 0.684779 110.423 1.18763 110.423 1.80224V9.23333C110.423 9.68031 110.03 10.0714 109.581 10.0714C109.132 10.0714 108.739 9.68031 108.739 9.23333V3.3108L104.138 9.56856C103.914 9.84793 103.633 10.0155 103.297 10.0155C102.736 10.0155 102.231 9.56856 102.231 8.95396ZM118.951 9.17745V5.88096H114.07V9.17745C114.07 9.62444 113.677 10.0155 113.228 10.0155C112.779 10.0155 112.386 9.62444 112.386 9.17745V1.467C112.386 1.02002 112.779 0.628906 113.228 0.628906C113.677 0.628906 114.07 1.02002 114.07 1.467V4.48413H118.951V1.467C118.951 1.02002 119.344 0.628906 119.793 0.628906C120.242 0.628906 120.634 1.02002 120.634 1.467V9.17745C120.634 9.62444 120.242 10.0155 119.793 10.0155C119.344 10.0155 118.951 9.62444 118.951 9.17745ZM123.664 10.0155C123.103 10.0155 122.598 9.56856 122.598 8.95396V1.467C122.598 1.02002 122.991 0.628906 123.44 0.628906C123.889 0.628906 124.282 1.02002 124.282 1.467V7.16603L128.77 1.13176C128.995 0.852398 129.331 0.684779 129.668 0.684779C130.285 0.684779 130.79 1.18763 130.79 1.80224V9.23333C130.79 9.68031 130.397 10.0714 129.949 10.0714C129.5 10.0714 129.107 9.68031 129.107 9.23333V3.3108L124.506 9.56856C124.338 9.84793 124.001 10.0155 123.664 10.0155ZM147.904 9.45682L147.399 8.22762H143.078L142.573 9.45682C142.461 9.79206 142.124 10.0155 141.732 10.0155C141.114 10.0155 140.722 9.40095 140.946 8.84222L143.808 1.57874C144.032 1.02002 144.593 0.628906 145.21 0.628906C145.827 0.628906 146.389 1.02002 146.613 1.57874L149.475 8.84222C149.699 9.40095 149.25 10.0155 148.689 10.0155C148.352 10.0155 148.072 9.79206 147.904 9.45682ZM145.266 2.30509L143.583 6.77492H146.95L145.266 2.30509ZM84.3319 26.8892C83.7708 26.8892 83.2659 26.4422 83.2659 25.8276V18.2289C83.2659 17.8377 83.6025 17.5025 83.9953 17.5025H84.2197C84.6125 17.5025 84.9491 17.8377 84.9491 18.2289V24.0396L89.4379 17.9495C89.6623 17.6701 89.9428 17.5025 90.2795 17.5025H90.3917C90.9528 17.5025 91.4578 17.9495 91.4578 18.5641V26.1628C91.4578 26.5539 91.1211 26.8892 90.7284 26.8892H90.5039C90.1112 26.8892 89.7745 26.5539 89.7745 26.1628V20.1844L85.1736 26.4422C85.0052 26.7215 84.6686 26.8892 84.3319 26.8892ZM99.9864 26.1628V22.8104H95.1049V26.1628C95.1049 26.5539 94.7682 26.8892 94.3755 26.8892H94.151C93.7583 26.8892 93.4216 26.5539 93.4216 26.1628V18.2289C93.4216 17.8377 93.7583 17.5025 94.151 17.5025H94.3755C94.7682 17.5025 95.1049 17.8377 95.1049 18.2289V21.3577H99.9864V18.2289C99.9864 17.8377 100.323 17.5025 100.716 17.5025H100.94C101.333 17.5025 101.67 17.8377 101.67 18.2289V26.1628C101.67 26.5539 101.333 26.8892 100.94 26.8892H100.716C100.323 26.8892 99.9864 26.5539 99.9864 26.1628ZM110.198 26.1628V22.8104H105.317V26.1628C105.317 26.5539 104.98 26.8892 104.587 26.8892H104.363C103.97 26.8892 103.633 26.5539 103.633 26.1628V18.2289C103.633 17.8377 103.97 17.5025 104.363 17.5025H104.587C104.98 17.5025 105.317 17.8377 105.317 18.2289V21.3577H110.198V18.2289C110.198 17.8377 110.535 17.5025 110.928 17.5025H111.152C111.545 17.5025 111.881 17.8377 111.881 18.2289V26.1628C111.881 26.5539 111.545 26.8892 111.152 26.8892H110.928C110.535 26.8892 110.198 26.5539 110.198 26.1628ZM113.453 22.1958C113.453 19.4022 115.416 17.3349 118.278 17.3349C121.083 17.3349 123.103 19.4022 123.103 22.1958C123.103 24.9895 121.139 27.0568 118.278 27.0568C115.416 27.0568 113.453 24.9895 113.453 22.1958ZM121.364 22.1958C121.364 20.2403 120.13 18.7876 118.222 18.7876C116.314 18.7876 115.08 20.2403 115.08 22.1958C115.08 24.0955 116.314 25.6041 118.222 25.6041C120.13 25.6041 121.364 24.1514 121.364 22.1958ZM124.674 25.7717V18.62C124.674 18.0054 125.179 17.5025 125.797 17.5025H129.275C131.015 17.5025 131.969 18.5641 131.969 19.905C131.969 21.0784 131.183 21.8606 130.341 22.0841C131.351 22.2517 132.137 23.2574 132.137 24.3749C132.137 25.8276 131.183 26.8892 129.388 26.8892H125.74C125.179 26.8892 124.674 26.3863 124.674 25.7717ZM130.285 20.1844C130.285 19.4581 129.78 18.9552 128.939 18.9552H126.302V21.4136H128.939C129.78 21.4136 130.285 20.8549 130.285 20.1844ZM130.454 24.1514C130.454 23.425 129.949 22.8663 128.995 22.8663H126.302V25.4923H128.995C129.893 25.4365 130.454 24.9336 130.454 24.1514ZM140.16 26.3304L139.655 25.1012H135.335L134.83 26.3304C134.718 26.6657 134.381 26.8892 133.988 26.8892C133.371 26.8892 132.979 26.2746 133.203 25.7158L136.064 18.4523C136.289 17.8936 136.85 17.5025 137.467 17.5025C138.084 17.5025 138.646 17.8936 138.87 18.4523L141.732 25.7158C141.956 26.2746 141.507 26.8892 140.946 26.8892C140.609 26.8892 140.329 26.6657 140.16 26.3304ZM137.523 19.1787L135.84 23.6485H139.207L137.523 19.1787ZM150.709 26.8892H144.537C143.864 26.8892 143.303 26.3304 143.303 25.66V18.2289C143.303 17.8377 143.639 17.5025 144.032 17.5025H144.256C144.649 17.5025 144.986 17.8377 144.986 18.2289V25.4365H149.867V18.2289C149.867 17.8377 150.204 17.5025 150.597 17.5025H150.821C151.214 17.5025 151.551 17.8377 151.551 18.2289V25.4365H151.663L151.999 25.8834L152.448 26.1628V27.8949C152.448 28.286 152.112 28.6212 151.719 28.6212H151.494C151.102 28.6212 150.765 28.286 150.765 27.8949V26.8892H150.709ZM154.693 26.8892C154.132 26.8892 153.627 26.4422 153.627 25.8276V18.2289C153.627 17.8377 153.963 17.5025 154.356 17.5025H154.58C154.973 17.5025 155.31 17.8377 155.31 18.2289V24.0396L159.799 18.0054C160.023 17.726 160.36 17.5584 160.696 17.5584C161.314 17.5584 161.819 18.0612 161.819 18.6758V26.2187C161.819 26.6098 161.482 26.945 161.089 26.945H160.865C160.472 26.945 160.135 26.6098 160.135 26.2187V20.1844L155.534 26.4422C155.366 26.7215 155.029 26.8892 154.693 26.8892ZM163.39 22.1958C163.39 19.4022 165.353 17.3349 168.215 17.3349C171.02 17.3349 173.04 19.4022 173.04 22.1958C173.04 24.9895 171.077 27.0568 168.215 27.0568C165.353 27.0568 163.39 24.9895 163.39 22.1958ZM171.301 22.1958C171.301 20.2403 170.067 18.7876 168.159 18.7876C166.251 18.7876 165.017 20.2403 165.017 22.1958C165.017 24.0955 166.251 25.6041 168.159 25.6041C170.067 25.6041 171.301 24.1514 171.301 22.1958ZM181.12 26.1628V22.8104H176.239V26.1628C176.239 26.5539 175.902 26.8892 175.509 26.8892H175.285C174.892 26.8892 174.555 26.5539 174.555 26.1628V18.2289C174.555 17.8377 174.892 17.5025 175.285 17.5025H175.509C175.902 17.5025 176.239 17.8377 176.239 18.2289V21.3577H181.12V18.2289C181.12 17.8377 181.457 17.5025 181.85 17.5025H182.074C182.467 17.5025 182.803 17.8377 182.803 18.2289V26.1628C182.803 26.5539 182.467 26.8892 182.074 26.8892H181.85C181.457 26.8892 181.12 26.5539 181.12 26.1628ZM191.332 26.1628V22.8104H186.45V26.1628C186.45 26.5539 186.114 26.8892 185.721 26.8892H185.497C185.104 26.8892 184.767 26.5539 184.767 26.1628V18.2289C184.767 17.8377 185.104 17.5025 185.497 17.5025H185.721C186.114 17.5025 186.45 17.8377 186.45 18.2289V21.3577H191.332V18.2289C191.332 17.8377 191.669 17.5025 192.061 17.5025H192.286C192.679 17.5025 193.015 17.8377 193.015 18.2289V26.1628C193.015 26.5539 192.679 26.8892 192.286 26.8892H192.061C191.669 26.8892 191.332 26.5539 191.332 26.1628ZM194.586 22.1958C194.586 19.4022 196.55 17.3349 199.412 17.3349C202.273 17.3349 204.237 19.4022 204.237 22.1958C204.237 24.9895 202.273 27.0568 199.412 27.0568C196.55 27.0568 194.586 24.9895 194.586 22.1958ZM202.498 22.1958C202.498 20.2403 201.263 18.7876 199.356 18.7876C197.448 18.7876 196.213 20.2403 196.213 22.1958C196.213 24.0955 197.448 25.6041 199.356 25.6041C201.319 25.6041 202.498 24.1514 202.498 22.1958ZM206.874 26.8892C206.313 26.8892 205.808 26.4422 205.808 25.8276V18.2289C205.808 17.8377 206.145 17.5025 206.537 17.5025H206.762C207.155 17.5025 207.491 17.8377 207.491 18.2289V24.0396L211.98 18.0054C212.204 17.726 212.541 17.5584 212.878 17.5584C213.495 17.5584 214 18.0612 214 18.6758V26.2187C214 26.6098 213.663 26.945 213.271 26.945H213.046C212.653 26.945 212.317 26.6098 212.317 26.2187V20.1844L207.716 26.4422C207.547 26.7215 207.211 26.8892 206.874 26.8892ZM209.904 17.0555C208.894 17.0555 207.996 16.5527 207.435 15.8263L208.109 15.2676C208.501 15.8263 209.119 16.2174 209.904 16.2174C210.633 16.2174 211.307 15.8822 211.7 15.2676L212.373 15.8263C211.812 16.5527 210.914 17.0555 209.904 17.0555ZM82.8731 39.0694C82.8731 36.1641 85.0613 34.2085 87.8107 34.2085C89.2134 34.2085 90.2795 34.7672 90.9528 35.4936C91.2895 35.8847 91.1772 36.4993 90.7284 36.7228C90.3917 36.8904 90.0551 36.7787 89.7745 36.5552C89.2695 36.0523 88.5401 35.6612 87.7546 35.6612C85.903 35.6612 84.5003 37.058 84.5003 39.0694C84.5003 41.025 85.903 42.4777 87.7546 42.4777C88.5401 42.4777 89.2695 42.1424 89.7745 41.5837C89.9989 41.3044 90.3917 41.2485 90.7284 41.4161C91.1772 41.6396 91.2895 42.2542 90.9528 42.6453C90.2234 43.4275 89.2134 43.9304 87.8107 43.9304C85.0052 43.9304 82.8731 41.9748 82.8731 39.0694ZM95.161 43.0364V35.8288H93.0288C92.6361 35.8288 92.2994 35.4936 92.2994 35.1025C92.2994 34.7114 92.6361 34.3761 93.0288 34.3761H98.9203C99.3131 34.3761 99.6497 34.7114 99.6497 35.1025C99.6497 35.4936 99.3131 35.8288 98.9203 35.8288H96.7881V43.0364C96.7881 43.4275 96.4515 43.7628 96.0587 43.7628H95.8343C95.4976 43.7628 95.161 43.4275 95.161 43.0364ZM100.267 39.0694C100.267 36.2758 102.231 34.2085 105.092 34.2085C107.898 34.2085 109.918 36.2758 109.918 39.0694C109.918 41.8631 107.954 43.9304 105.092 43.9304C102.287 43.9304 100.267 41.8631 100.267 39.0694ZM108.178 39.0694C108.178 37.1139 106.944 35.6612 105.036 35.6612C103.128 35.6612 101.894 37.1139 101.894 39.0694C101.894 40.9691 103.128 42.4777 105.036 42.4777C107 42.4777 108.178 41.025 108.178 39.0694ZM119.625 43.0364V36.7787L116.875 43.4275C116.707 43.8745 116.09 43.8745 115.921 43.4275L113.172 36.7787V43.0364C113.172 43.4275 112.835 43.7628 112.443 43.7628H112.218C111.825 43.7628 111.489 43.4275 111.489 43.0364V35.7729C111.489 34.9907 112.106 34.3761 112.891 34.3761C113.453 34.3761 113.958 34.7114 114.182 35.2142L116.37 40.5221L118.558 35.2142C118.783 34.7114 119.288 34.3761 119.849 34.3761C120.635 34.3761 121.252 34.9907 121.252 35.7729V43.0364C121.252 43.4275 120.915 43.7628 120.522 43.7628H120.298C119.961 43.7628 119.625 43.4275 119.625 43.0364ZM129.668 43.204L129.163 41.9748H124.843L124.338 43.204C124.225 43.5393 123.889 43.7628 123.496 43.7628C122.879 43.7628 122.486 43.1482 122.711 42.5894L125.572 35.326C125.797 34.7672 126.358 34.3761 126.975 34.3761C127.592 34.3761 128.153 34.7672 128.378 35.326L131.239 42.5894C131.464 43.1482 131.015 43.7628 130.454 43.7628C130.117 43.7628 129.78 43.5393 129.668 43.204ZM127.031 36.0523L125.348 40.5221H128.714L127.031 36.0523ZM134.101 43.0364V35.8288H131.969C131.576 35.8288 131.239 35.4936 131.239 35.1025C131.239 34.7114 131.576 34.3761 131.969 34.3761H137.86C138.253 34.3761 138.589 34.7114 138.589 35.1025C138.589 35.4936 138.253 35.8288 137.86 35.8288H135.784V43.0364C135.784 43.4275 135.447 43.7628 135.055 43.7628H134.83C134.437 43.7628 134.101 43.4275 134.101 43.0364ZM139.207 39.0694C139.207 36.2758 141.17 34.2085 144.032 34.2085C146.837 34.2085 148.857 36.2758 148.857 39.0694C148.857 41.8631 146.894 43.9304 144.032 43.9304C141.227 43.9304 139.207 41.8631 139.207 39.0694ZM147.174 39.0694C147.174 37.1139 145.94 35.6612 144.032 35.6612C142.124 35.6612 140.89 37.1139 140.89 39.0694C140.89 40.9691 142.124 42.4777 144.032 42.4777C145.94 42.4777 147.174 41.025 147.174 39.0694ZM149.362 42.4777C150.372 42.4777 150.877 41.9748 151.214 39.2371L151.607 35.5494C151.663 34.879 152.224 34.3761 152.897 34.3761H156.825C157.554 34.3761 158.115 34.9348 158.115 35.6612V43.0364C158.115 43.4275 157.779 43.7628 157.386 43.7628H157.162C156.769 43.7628 156.432 43.4275 156.432 43.0364V35.8288H153.178L152.785 39.2929C152.336 43.2599 151.102 43.9304 149.306 43.9304V42.4777H149.362ZM159.743 39.0694C159.743 36.2758 161.706 34.2085 164.568 34.2085C167.373 34.2085 169.393 36.2758 169.393 39.0694C169.393 41.8631 167.429 43.9304 164.568 43.9304C161.762 43.9304 159.743 41.8631 159.743 39.0694ZM167.654 39.0694C167.654 37.1139 166.42 35.6612 164.512 35.6612C162.604 35.6612 161.37 37.1139 161.37 39.0694C161.37 40.9691 162.604 42.4777 164.512 42.4777C166.476 42.4777 167.654 41.025 167.654 39.0694ZM170.964 43.0364V35.5494C170.964 34.879 171.525 34.3761 172.143 34.3761H176.687C177.08 34.3761 177.417 34.7114 177.417 35.1025C177.417 35.4936 177.08 35.8288 176.687 35.8288H173.153C172.872 35.8288 172.592 36.0523 172.592 36.3875V43.0364C172.592 43.4275 172.255 43.7628 171.862 43.7628H171.694C171.301 43.7628 170.964 43.4275 170.964 43.0364ZM179.942 43.7628C179.381 43.7628 178.876 43.3158 178.876 42.7012V35.1025C178.876 34.7114 179.212 34.3761 179.605 34.3761H179.83C180.222 34.3761 180.559 34.7114 180.559 35.1025V40.9132L185.048 34.8231C185.272 34.5437 185.553 34.3761 185.889 34.3761H186.002C186.563 34.3761 187.068 34.8231 187.068 35.4377V43.0364C187.068 43.4275 186.731 43.7628 186.338 43.7628H186.114C185.721 43.7628 185.384 43.4275 185.384 43.0364V37.058L180.783 43.3158C180.615 43.5951 180.278 43.7628 179.942 43.7628ZM191.051 43.7628C190.49 43.7628 189.985 43.3158 189.985 42.7012V35.1025C189.985 34.7114 190.322 34.3761 190.715 34.3761H190.939C191.332 34.3761 191.669 34.7114 191.669 35.1025V40.9132L196.157 34.8231C196.382 34.5437 196.662 34.3761 196.999 34.3761H197.111C197.672 34.3761 198.177 34.8231 198.177 35.4377V43.0364C198.177 43.4275 197.841 43.7628 197.448 43.7628H197.223C196.831 43.7628 196.494 43.4275 196.494 43.0364V37.058L191.893 43.3158C191.725 43.5951 191.388 43.7628 191.051 43.7628ZM138.814 9.95967C138.533 9.95967 138.309 9.9038 138.141 9.68031L135.223 6.04857L134.381 6.99841V9.17745C134.381 9.62444 133.988 10.0155 133.54 10.0155C133.091 10.0155 132.698 9.62444 132.698 9.17745V1.467C132.698 1.02002 133.091 0.628906 133.54 0.628906C133.988 0.628906 134.381 1.02002 134.381 1.467V5.09874L137.748 1.02002C137.916 0.796525 138.253 0.684779 138.533 0.740652C139.094 0.908271 139.263 1.57875 138.926 1.96986L136.345 5.04286L139.375 8.6746C139.768 9.17745 139.431 9.9038 138.814 9.95967Z" fill="white"/>
<path d="M25.3613 22.6992C26.3713 22.6992 27.269 23.3697 27.6057 24.3195L33.441 41.0814C33.6094 41.5284 34.0021 41.8077 34.451 41.8077C35.0682 41.8077 35.5171 41.3049 35.5171 40.7462V25.9398C35.5171 24.1519 36.9759 22.6992 38.7714 22.6992C40.118 22.6992 41.2963 23.4814 41.8013 24.7665L48.4222 41.0814C48.5905 41.5284 48.9832 41.7519 49.4321 41.7519C50.0493 41.7519 50.5543 41.249 50.5543 40.6344V23.8167C50.5543 23.2021 51.0593 22.6992 51.6765 22.6992C52.2937 22.6992 52.7987 23.2021 52.7987 23.8167V40.6903C52.7987 42.5341 51.2837 43.9868 49.4882 43.9868C48.1416 43.9868 46.9072 43.1487 46.4022 41.9195L39.7814 25.5487C39.613 25.1576 39.2203 24.8783 38.7714 24.8783C38.1542 24.8783 37.7053 25.3811 37.7053 25.9398V40.6903C37.7053 42.4782 36.2465 43.9309 34.451 43.9309C33.0483 43.9309 31.8139 43.0369 31.365 41.7519L25.5297 24.99C25.5297 24.9341 25.4174 24.8783 25.3613 24.8783" fill="url(#paint0_linear_1372_5298)"/>
<path d="M51.7324 20.1282C51.1152 20.1282 50.6102 19.6254 50.6102 19.0108V6.16001C50.6102 5.60129 50.498 5.04256 50.2736 4.5397C49.5442 2.80764 47.5242 1.80193 45.5604 2.30479C41.2961 3.36637 36.7513 3.36637 32.4309 2.36066C30.5232 1.91368 28.5033 2.86352 27.7177 4.59557C27.4933 5.09843 27.3811 5.65716 27.3811 6.21589V19.0666C27.3811 19.6812 26.8761 20.1841 26.2589 20.1841C25.6417 20.1841 25.1367 19.6812 25.1367 19.0666V6.16001C25.1367 5.32192 25.305 4.48383 25.6417 3.70161C26.82 0.963838 29.906 -0.544729 32.8798 0.181618C36.8635 1.13146 41.0156 1.13146 44.9993 0.181618C48.0292 -0.544729 51.1713 0.963838 52.3496 3.75748C52.6863 4.5397 52.8546 5.37779 52.8546 6.21589V19.0666C52.8546 19.6254 52.3496 20.1282 51.7324 20.1282Z" fill="url(#paint1_linear_1372_5298)"/>
<defs>
<linearGradient id="paint0_linear_1372_5298" x1="30.4992" y1="45.7797" x2="56.1534" y2="4.70905" gradientUnits="userSpaceOnUse">
<stop stop-color="#5F9A98"/>
<stop offset="1" stop-color="#40E0A1"/>
</linearGradient>
<linearGradient id="paint1_linear_1372_5298" x1="21.2753" y1="40.0173" x2="46.9295" y2="-1.05339" gradientUnits="userSpaceOnUse">
<stop stop-color="#5F9A98"/>
<stop offset="1" stop-color="#40E0A1"/>
</linearGradient>
</defs>
</svg>
