<svg width="114" height="51" viewBox="0 0 114 51" fill="none" xmlns="http://www.w3.org/2000/svg">
<path d="M61.2118 12.5547H76.9083L58.0754 37.6701H42.3789L61.2118 12.5547Z" fill="#E52713"/>
<path d="M0 17.0024C0 15.9553 0 14.6489 1.0471 13.6018C2.0942 12.5547 3.40058 12.5547 4.44768 12.5547H30.7349C34.1355 12.5547 36.6236 12.5547 38.7128 13.6018C40.802 14.6489 42.3776 16.7431 43.9483 18.8323L45.5189 20.9415C46.6309 22.4373 47.4785 23.5542 47.4785 25.1299C47.4785 26.7055 46.566 27.9221 45.5189 29.2983L39.2363 37.6651H23.5448L33.7465 24.0678C34.5294 23.0207 35.4418 21.7093 34.7936 20.2733C34.1454 18.8373 32.4352 18.8323 31.1288 18.8323H18.8328V50.2453H6.27761V18.8323H0V17.0024Z" fill="#E52713"/>
<path d="M80.0493 4.44768V6.27761H95.7358C96.7829 6.27761 98.3536 6.27761 99.4007 7.32471C100.448 8.37181 100.443 9.94247 100.443 10.9896V26.6811C100.443 27.7282 100.443 29.2939 99.4007 30.341C98.3586 31.3881 96.7879 31.413 95.7358 31.413H88.1568C86.8504 31.413 85.1651 31.413 84.497 29.977C83.8288 28.541 84.7562 27.2296 85.5391 26.1825L95.7358 12.5552H80.0493L73.7966 20.942C72.7445 22.3431 71.832 23.5548 71.832 25.1254C71.832 26.6961 72.6797 27.8229 73.7966 29.3088L75.3423 31.413C76.908 33.5072 78.4786 35.6014 80.5728 36.6435C82.667 37.6856 85.1501 37.6906 88.5507 37.6906H95.3519C99.276 37.6906 105.16 37.6906 109.084 33.7665C113.008 29.8424 113.008 24.0933 113.008 21.9991V15.6965C113.008 13.6023 113.008 7.84826 109.084 3.92413C105.16 0 99.276 0 95.3519 0H84.497C83.4449 0 82.1385 0 81.0964 1.0471C80.0543 2.0942 80.0493 3.40058 80.0493 4.44768Z" fill="#E52713"/>
</svg>
