<svg width="252" height="29" viewBox="0 0 252 29" fill="none" xmlns="http://www.w3.org/2000/svg">
<path fill-rule="evenodd" clip-rule="evenodd" d="M165.661 14.0882C165.661 8.6115 161.973 5.34078 156.441 5.31641C150.839 5.31641 147.223 8.92365 147.223 14.0395C147.223 19.5405 150.91 22.8124 156.441 22.8124C162.046 22.8124 165.661 19.2007 165.661 14.0882ZM162.417 14.0639C162.417 17.6257 160.129 20.0254 156.467 20.0254V20.022C152.533 19.9977 150.467 17.3811 150.467 14.0639C150.467 10.5263 152.732 8.12672 156.419 8.10234C160.353 8.12672 162.417 10.7433 162.417 14.0639Z" fill="#FF0D65"/>
<path fill-rule="evenodd" clip-rule="evenodd" d="M202.954 14.0882C202.954 8.6115 199.267 5.34078 193.735 5.31641C188.131 5.31641 184.517 8.92365 184.516 14.0395C184.516 19.5405 188.204 22.8124 193.735 22.8124C199.34 22.8124 202.954 19.2007 202.954 14.0882ZM199.711 14.0639C199.711 17.6257 197.423 20.0254 193.76 20.0254L193.76 20.022C189.827 19.9977 187.762 17.3811 187.761 14.0639C187.761 10.5263 190.025 8.12672 193.713 8.10234C197.646 8.12672 199.711 10.7433 199.711 14.0639Z" fill="#FF0D65"/>
<path fill-rule="evenodd" clip-rule="evenodd" d="M206.176 22.5406V5.57812H213.648C217.484 5.57812 219.451 6.98271 219.451 9.79414C219.451 11.7322 218.664 13.0173 216.894 13.6958C219.008 14.0588 219.967 15.3915 219.967 17.5963C219.967 21.1106 217.41 22.5406 213.23 22.5406H206.176ZM213.207 12.7505C215.149 12.7505 216.377 11.9027 216.377 10.4482C216.377 9.09129 215.467 8.36406 213.28 8.36406H209.249V12.7505H213.207ZM213.431 19.7535C215.789 19.7535 216.872 19.002 216.872 17.3783C216.872 15.7545 215.644 15.1247 213.48 15.1247H209.252V19.7535H213.431Z" fill="#FF0D65"/>
<path fill-rule="evenodd" clip-rule="evenodd" d="M228.869 10.86H226.533V5.57812H223.461V22.5406H228.898C233.913 22.5406 236.617 20.5527 236.617 16.6034C236.617 12.7749 234.326 10.86 228.869 10.86ZM226.533 19.7535V13.647H229.139C232.139 13.647 233.441 14.4463 233.441 16.5304C233.441 18.8327 231.967 19.7535 229.09 19.7535H226.533Z" fill="#FF0D65"/>
<path d="M242.906 15.1978H250.822L250.826 12.4107H242.909V8.36406H251.735V5.57812H239.832V22.5406H252.001V19.7535H242.906V15.1978Z" fill="#FF0D65"/>
<path fill-rule="evenodd" clip-rule="evenodd" d="M171.952 17.2576V22.5406H168.879V5.57812H174.606C180.038 5.57812 182.354 7.49187 182.354 11.3204C182.354 15.2708 179.65 17.2576 174.606 17.2576H171.952ZM171.952 8.36406V14.4705H174.828C177.68 14.4705 179.154 13.5496 179.154 11.2485C179.154 9.16432 177.877 8.36406 174.877 8.36406H171.952Z" fill="#FF0D65"/>
<path fill-rule="evenodd" clip-rule="evenodd" d="M129.794 19.7535C130.777 17.4513 131.49 14.2525 131.564 9.09129L131.613 5.57812H143.708V19.7535H145.699V25.6907H142.823V22.5406H130.801V25.6907H127.926V19.7535H129.794ZM132.794 19.7535H140.635V8.36406H134.417V9.16432C134.318 13.5983 133.773 17.0883 132.794 19.7535Z" fill="#FF0D65"/>
<path d="M119.074 5.33594C116.345 5.33594 114.354 6.13511 113.37 6.83792L113.368 11.054C114.377 9.55188 116.466 8.07432 119.071 8.12188C120.891 8.17057 122.316 8.80034 122.316 10.3754C122.316 11.6361 121.554 12.6777 119.342 12.6777H116.759V15.1737H119.365C122.045 15.1737 123.176 15.8765 123.176 17.3785C123.176 19.0996 121.505 19.9718 119.415 19.9962C116.242 20.0205 114.006 18.6636 112.949 16.9424V20.6747C113.864 21.6919 116.242 22.8076 119.365 22.7833C123.988 22.7589 126.372 20.5054 126.372 17.5733C126.372 15.343 125.097 13.986 122.442 13.5986C124.433 12.8958 125.49 11.5874 125.49 9.60065C125.49 6.6199 122.933 5.36032 119.074 5.33594Z" fill="#FF0D65"/>
<path d="M46.6686 19.5084C47.786 19.5145 48.8868 19.244 49.8689 18.7219L50.6906 18.2858L53.0893 20.018C51.5066 21.6789 49.1739 22.5917 46.5017 22.5917C43.947 22.5917 41.6122 21.7031 39.942 20.1026C38.2718 18.5022 37.3516 16.2779 37.3516 13.8612C37.3516 11.4446 38.2853 9.25319 39.9521 7.70993C41.6189 6.16663 43.9527 5.31641 46.5252 5.31641C48.897 5.31641 50.9708 6.02272 52.5232 7.35953L52.6993 7.50563L50.0404 9.4257C49.058 8.7372 47.8763 8.375 46.6686 8.39206C43.3272 8.39206 40.9015 10.7296 40.9015 13.9502C40.9015 17.1709 43.3272 19.5084 46.6686 19.5084Z" fill="#21A038"/>
<path fill-rule="evenodd" clip-rule="evenodd" d="M64.448 12.0942H59.9374V8.33532H67.137L71.0177 5.5332H56.2305V22.3669H63.9649C68.3062 22.3669 70.7957 20.4392 70.7957 17.079C70.8002 13.865 68.5438 12.0942 64.448 12.0942ZM63.8024 19.5637H59.9374V14.8975H63.8024C66.1563 14.8975 67.2503 15.6784 67.2503 17.2307C67.2503 18.8168 66.0857 19.5637 63.8024 19.5637Z" fill="#21A038"/>
<path d="M87.2382 5.5332L83.3575 8.33532H77.9569V12.4513H85.8739V15.2545H77.9569V19.5637H87.2382V22.3669H74.25V5.5332H87.2382Z" fill="#21A038"/>
<path fill-rule="evenodd" clip-rule="evenodd" d="M90.6914 5.5332H97.7636C102.275 5.5332 105.076 7.84102 105.076 11.5571C105.076 15.2732 102.273 17.5985 97.7609 17.5985H94.3985V22.3669H90.6914V5.5332ZM94.3985 14.7953H97.6835C100.059 14.7953 101.365 13.6485 101.365 11.5659C101.365 9.48326 100.059 8.33532 97.6835 8.33532H94.3985V14.7953Z" fill="#21A038"/>
<path d="M25.6235 5.46484C26.2986 6.32295 26.876 7.26059 27.3376 8.26006L14.3048 17.7048L8.85938 14.3485V10.311L14.3048 13.6671L25.6235 5.46484Z" fill="#21A038"/>
<path d="M3.30454 14.0637C3.30454 13.8825 3.30904 13.7026 3.31802 13.5236L0.0179721 13.3613C0.00673979 13.5943 0 13.8285 0 14.0637C0 17.9468 1.60061 21.4631 4.18964 24.0087L6.52934 21.7083C4.53897 19.7491 3.30454 17.0456 3.30454 14.0637Z" fill="url(#paint0_linear_1183_7630)"/>
<path d="M14.3061 3.24802C14.4903 3.24802 14.6734 3.25464 14.8554 3.26348L15.0205 0.0176707C14.7834 0.00662675 14.5453 0 14.3061 0C10.3568 0 6.78045 1.57376 4.19141 4.11938L6.5311 6.41983C8.52371 4.46064 11.2734 3.24802 14.3061 3.24802Z" fill="url(#paint1_linear_1183_7630)"/>
<path d="M14.3043 24.8778C14.12 24.8778 13.937 24.8734 13.755 24.8645L13.5898 28.1093C13.8268 28.1202 14.065 28.1269 14.3043 28.1269C18.2535 28.1269 21.8299 26.5531 24.4189 24.0075L22.0792 21.707C20.0866 23.6641 17.3369 24.8778 14.3043 24.8778Z" fill="url(#paint2_linear_1183_7630)"/>
<path d="M20.506 5.13542L23.2882 3.11991C20.8328 1.16845 17.708 0 14.3047 0V3.24912C16.6039 3.24802 18.7392 3.94599 20.506 5.13542Z" fill="url(#paint3_linear_1183_7630)"/>
<path d="M28.6067 14.0632C28.6067 13.2028 28.5281 12.3613 28.3776 11.543L25.2988 13.7738C25.301 13.8699 25.3033 13.966 25.3033 14.062C25.3033 17.2372 23.9037 20.0975 21.6797 22.0777L23.9003 24.4909C26.7904 21.9186 28.6067 18.1991 28.6067 14.0632Z" fill="#21A038"/>
<path d="M14.3059 24.8792C11.0766 24.8792 8.16743 23.5031 6.15347 21.3164L3.69922 23.4998C6.31635 26.3425 10.0994 28.1282 14.3059 28.1282V24.8792Z" fill="url(#paint4_linear_1183_7630)"/>
<path d="M6.92808 6.04786L4.70746 3.63477C1.81626 6.208 0 9.92762 0 14.0636H3.30454C3.30566 10.8873 4.70408 8.02804 6.92808 6.04786Z" fill="url(#paint5_linear_1183_7630)"/>
<defs>
<linearGradient id="paint0_linear_1183_7630" x1="4.85894" y1="23.6014" x2="1.35613" y2="13.3036" gradientUnits="userSpaceOnUse">
<stop offset="0.1444" stop-color="#F2E913"/>
<stop offset="0.3037" stop-color="#E7E518"/>
<stop offset="0.5823" stop-color="#CADB26"/>
<stop offset="0.891" stop-color="#A3CD39"/>
</linearGradient>
<linearGradient id="paint1_linear_1183_7630" x1="5.13583" y1="4.69374" x2="14.3944" y2="1.10531" gradientUnits="userSpaceOnUse">
<stop offset="0.0592" stop-color="#0FA8E0"/>
<stop offset="0.5385" stop-color="#0099F9"/>
<stop offset="0.9234" stop-color="#0291EB"/>
</linearGradient>
<linearGradient id="paint2_linear_1183_7630" x1="13.3718" y1="26.166" x2="23.8698" y2="23.7529" gradientUnits="userSpaceOnUse">
<stop offset="0.1226" stop-color="#A3CD39"/>
<stop offset="0.2846" stop-color="#86C339"/>
<stop offset="0.8693" stop-color="#21A038"/>
</linearGradient>
<linearGradient id="paint3_linear_1183_7630" x1="13.6133" y1="1.08826" x2="22.5771" y2="3.90115" gradientUnits="userSpaceOnUse">
<stop offset="0.0566" stop-color="#0291EB"/>
<stop offset="0.79" stop-color="#0C8ACB"/>
</linearGradient>
<linearGradient id="paint4_linear_1183_7630" x1="4.52807" y1="23.1038" x2="14.2733" y2="26.807" gradientUnits="userSpaceOnUse">
<stop offset="0.1324" stop-color="#F2E913"/>
<stop offset="0.2977" stop-color="#EBE716"/>
<stop offset="0.5306" stop-color="#D9E01F"/>
<stop offset="0.8023" stop-color="#BBD62D"/>
<stop offset="0.9829" stop-color="#A3CD39"/>
</linearGradient>
<linearGradient id="paint5_linear_1183_7630" x1="1.23158" y1="14.4571" x2="5.04552" y2="4.36636" gradientUnits="userSpaceOnUse">
<stop offset="0.0698" stop-color="#A3CD39"/>
<stop offset="0.2599" stop-color="#81C55F"/>
<stop offset="0.9216" stop-color="#0FA8E0"/>
</linearGradient>
</defs>
</svg>
