<svg width="156" height="46" viewBox="0 0 156 46" fill="none" xmlns="http://www.w3.org/2000/svg">
<path d="M19.0199 5.33743H16.0098C10.4869 5.33743 7.5865 8.17608 7.5865 12.379C7.5865 17.1492 9.59482 19.3631 13.7212 22.2042L17.1237 24.533L7.3156 39.4682H0.00390625L8.81718 26.1223C3.74032 22.4315 0.895977 18.8533 0.895977 12.7763C0.895977 5.16749 6.08259 0 15.9561 0H25.7642V39.4682H19.0153L19.0199 5.33743Z" fill="#FC3F1D"/>
<path d="M80.4815 10.9023H61.1269V13.3437C61.1269 20.3302 60.6809 29.3583 58.3386 34.1285H56.2812V45.9977H62.4183V39.4683H77.2986V45.9977H83.4356V34.1285H80.4815V10.9023ZM73.8447 34.1189H64.4733C66.3135 29.8107 66.8086 22.0248 66.8086 17.0823V16.2326H73.8377L73.8447 34.1189Z" fill="black"/>
<path d="M46.8499 22.2043H37.9829V10.9023H31.3438V39.4683H37.9829V27.5441H46.8499V39.4683H53.4867V10.9023H46.8499V22.2043Z" fill="black"/>
<path d="M149.584 15.6727C152.153 15.6727 154.661 16.5823 155.999 17.4343V11.69C154.598 10.8954 152.151 10.3281 148.86 10.3281C140.383 10.3281 135.977 16.5176 135.977 25.2059C135.977 34.7463 140.271 40.0286 149.138 40.0286C152.207 40.0286 154.381 39.4614 155.999 38.2694V32.7645C154.327 33.9612 152.319 34.696 149.53 34.696C144.787 34.696 142.838 30.9478 142.838 25.0408C142.838 18.8536 145.234 15.6727 149.584 15.6727Z" fill="black"/>
<path d="M135.086 10.9023H128.393L119.022 24.0784V10.9023H112.385V39.4683H119.022V25.4426L128.839 39.4683H136.368L125.714 24.0784L135.086 10.9023Z" fill="black"/>
<path d="M96.9902 10.334C88.9032 10.334 85.0547 16.6384 85.0547 25.2692C85.0547 35.2069 89.8513 40.0345 98.3306 40.0345C102.569 40.0345 105.691 38.8976 107.644 37.5357V32.0307C105.579 33.4501 102.123 34.6995 98.8864 34.6995C94.0337 34.6995 92.1936 32.3706 91.9157 27.6004H107.922V24.0102C107.922 14.0822 103.627 10.334 96.9902 10.334ZM101.175 22.6005H91.9157C92.0838 18.0529 93.6998 15.6714 96.8804 15.6714C100.171 15.6714 101.175 18.455 101.175 22.0332V22.6005Z" fill="black"/>
</svg>
