<svg width="156" height="53" viewBox="0 0 156 53" fill="none" xmlns="http://www.w3.org/2000/svg">
<path d="M66.3853 27.18C66.3853 34.5366 60.6558 39.9576 53.6243 39.9576C46.5928 39.9576 40.8633 34.5366 40.8633 27.18C40.8633 19.7715 46.5928 14.4023 53.6243 14.4023C60.6558 14.4023 66.3853 19.7715 66.3853 27.18ZM60.7992 27.18C60.7992 22.5828 57.4784 19.4373 53.6243 19.4373C49.7702 19.4373 46.4495 22.5828 46.4495 27.18C46.4495 31.731 49.7702 34.9226 53.6243 34.9226C57.4784 34.9226 60.7992 31.7253 60.7992 27.18Z" fill="#EA4335"/>
<path d="M93.9146 27.18C93.9146 34.5366 88.1851 39.9576 81.1536 39.9576C74.1221 39.9576 68.3926 34.5366 68.3926 27.18C68.3926 19.7772 74.1221 14.4023 81.1536 14.4023C88.1851 14.4023 93.9146 19.7715 93.9146 27.18ZM88.3285 27.18C88.3285 22.5828 85.0077 19.4373 81.1536 19.4373C77.2995 19.4373 73.9788 22.5828 73.9788 27.18C73.9788 31.731 77.2995 34.9226 81.1536 34.9226C85.0077 34.9226 88.3285 31.7253 88.3285 27.18Z" fill="#FBBC05"/>
<path d="M120.299 15.1743V38.1141C120.299 47.5504 114.758 51.4044 108.209 51.4044C102.043 51.4044 98.3324 47.2623 96.933 43.875L101.797 41.8414C102.663 43.921 104.785 46.3752 108.203 46.3752C112.395 46.3752 114.993 43.777 114.993 38.886V37.0483H114.798C113.548 38.598 111.139 39.9518 108.1 39.9518C101.739 39.9518 95.9121 34.3868 95.9121 27.226C95.9121 20.0134 101.739 14.4023 108.1 14.4023C111.134 14.4023 113.542 15.7561 114.798 17.2597H114.993V15.1801H120.299V15.1743ZM115.389 27.226C115.389 22.7268 112.401 19.4373 108.599 19.4373C104.744 19.4373 101.515 22.7268 101.515 27.226C101.515 31.6792 104.744 34.9226 108.599 34.9226C112.401 34.9226 115.389 31.6792 115.389 27.226Z" fill="#4285F4"/>
<path d="M129.044 1.72852V39.1742H123.596V1.72852H129.044Z" fill="#34A853"/>
<path d="M150.277 31.3853L154.613 34.2888C153.213 36.3684 149.841 39.9517 144.014 39.9517C136.788 39.9517 131.391 34.3406 131.391 27.1741C131.391 19.5755 136.833 14.3965 143.389 14.3965C149.99 14.3965 153.219 19.6734 154.274 22.5251L154.854 23.9768L137.849 31.0512C139.15 33.6147 141.175 34.9225 144.014 34.9225C146.859 34.9225 148.832 33.5168 150.277 31.3853ZM136.931 26.7881L148.298 22.0469C147.673 20.4512 145.792 19.3393 143.578 19.3393C140.739 19.3393 136.788 21.8568 136.931 26.7881Z" fill="#EA4335"/>
<path d="M20.2404 23.8565V18.4355H38.427C38.6048 19.3803 38.6966 20.4979 38.6966 21.7077C38.6966 25.7749 37.5897 30.8041 34.0223 34.3874C30.5525 38.0167 26.1191 39.9524 20.2462 39.9524C9.36056 39.9524 0.207031 31.0461 0.207031 20.1119C0.207031 9.17779 9.36056 0.271484 20.2462 0.271484C26.2682 0.271484 30.5582 2.64496 33.7814 5.73855L29.9732 9.56377C27.6619 7.38616 24.5304 5.69246 20.2404 5.69246C12.2913 5.69246 6.07424 12.1274 6.07424 20.1119C6.07424 28.0965 12.2913 34.5314 20.2404 34.5314C25.3964 34.5314 28.3329 32.4517 30.2141 30.5621C31.7397 29.0297 32.7434 26.8406 33.1391 23.8507L20.2404 23.8565Z" fill="#4285F4"/>
</svg>
